/* XPM */
static char *__SO1699569678[] = {
/* columns rows colors chars-per-pixel */
"128 128 53 1 ",
"  c #251516",
". c #241616",
"X c #251717",
"o c #261617",
"O c #271717",
"+ c #271718",
"@ c #261818",
"# c #281818",
"$ c #291919",
"% c #2A1A1A",
"& c #2C1A1A",
"* c #2D1B1B",
"= c #2E1C1C",
"- c #2F1D1D",
"; c #301C1D",
": c #311D1E",
"> c #301E1E",
", c #311F1F",
"< c #321E1F",
"1 c #34201F",
"2 c #35201F",
"3 c #331F20",
"4 c #351F21",
"5 c #352120",
"6 c #342021",
"7 c #362120",
"8 c #372221",
"9 c #352122",
"0 c #382322",
"q c #3B2323",
"w c #392423",
"e c #3A2524",
"r c #3C2424",
"t c #3D2525",
"y c #3E2425",
"u c #3F2526",
"i c #3E2626",
"p c #3F2727",
"a c #402627",
"s c #422827",
"d c #442827",
"f c #412728",
"g c #442729",
"h c #402828",
"j c #432928",
"k c #422829",
"l c #43292A",
"z c #452928",
"x c #442A29",
"c c #462A29",
"v c #45282A",
"b c #472B2A",
"n c #482C2B",
/* pixels */
"bbbbbbbbbbbbbbbbbbbbbbbbbbbbbbbbbbbbbbbbbbbbbbbbbbbbbbbbbbbbbbbbbbbbbbbbbbbbbbbbbbbbbbbbbbbbbbbbbbbbbbbbbbbbbbbbbbbbbbbbbbbbbbbb",
"bbbbbbbbbbbbbbbbbbbbbbbbbbbbbbbbbbbbbbbbbbbbbbbbbbbbbbbbbbbbbbbbbbbbbbbbbbbbbbbbbbbbbbbbbbbbbbbbbbbbbbbbbbbbbbbbbbbbbbbbbbbbbbbb",
"nnnnnnnnbbbbbbbbnnbbnnnbbbbbbbbbbbbbbbbbbbbbbbbbbbbbbbbbnnbbnnnnnnnnbbbbbbbbbbbbnnnbnnnnbbbbbbbbbbbbbbbbbbbbbbbbbbbbbbbbbbbbbbbb",
"bbbbbbbbbbbbbbbbbbbbbbbbbbbbbbbbbbbbbbbbbbbbbbbbbbbbbbbbbbbbbbbbbbbbbbbbbbbbbbbbbbbbbbbbbbbbbbbbbbbbbbbbbbbbbbbbbbbbbbbbbbbbbbbb",
"bbbbbbbbbbbbbbbbbbbbbbbbbbbbbbbbbbbbbbbbbbbbbbbbbbbbbbbbbbbbbbbbbbbbbbbbbbbbbbbbbbbbbbbbbbbbbbbbbbbbbbbbbbbbbbbbbbbbbbbbbbbbbbbb",
"bdbbbbdbbbdbdbbdbbbddbdbbdbbbbdbbdbdbbdbbbbbbdbdbbbbbbbbbdbdbbdbbbdbbbbbdbbdbbbbbdbdbbsbbbbddbdbbbdbbbbdbbbbbbbbbbbbbdbddbbdbdbb",
"bbbbbbbbbdbdbbbbbbbbbbbbbdbdbdbbbbdbdbjbdbbdbdbbbddbbbbdbbbbbbbbbbbbbbbbbbbbdbdbbbbbbbbbbdbbbbdbdbdbbbbdbdbdbbbsdbbdbdbbbbbbdbdb",
"dbdbbdbbbbbbbbbbbdbbbbdbbbbbbbbbbbbbbbbbbbbbbbbbbbbbddbbbbdbbdbjbbdbdbbdbbbbbbbbbbdbbdbbbbbbbbbbbbbbbbbbbdbbbdbbbbbbbbbbbbbbbbbb",
"bbbdbjbsbbbdbjbsbbbbdbbbbbbbbbbbbbjdbbbbbbbbdbbbddbbbbjdbbbbbbbbbbbbbbbbbdbbjbdbbjbsbbbjbbbbbbbbbbdbbjbsbbbbbbbbbbbbbbbbdbbjbsbb",
"bdbbbbbbbdbbbbbbdsbbbbsbbbbbbjbbbbbbbdbbbjbbbbjbbbbdbbbbbbbdbbbbbbbbdbbbbbbbbbdbbbbbbdbbbjbbdsbbdbdbbbbbbbbdbbbjsbjbdsbbdbbbbbbd",
"bjsjbjbjbjsjbjbjjbxxjjbjsjjjjjjjjxjjjbjxjjjbjjjbxjjjjjjbxjjjjjjbjjxxjjjjsbjxxxjjjxjbjjjjsjjjjbjjjbjbbjbjbjjjbjbjjbjxjbjjjjjxbjjj",
"jjjbjjjjjjjbjjjsjjxjjbjsjbjbxbjjjbjbjjjxjjjjbjjjxjbjbjjjxjbjbjjjjjxjjbbsjjjxxjjbbjjjjbjbjjbjjjbjxjjjjjjsjjjbjjjsjjbjjjbjbjbjjjjb",
"bbbbbdbbbbbbdbbbbbsbdbbbbddbbbjbbdbbbbbbbbjbbjbbbbdbbddbbbdbbddbbbjbdbbbbdbbbbjbbdbbbbbbbbbbbsbbbbbbdbbbbbbbdbbbbbbdbdbbbbbbbbbs",
"bjddbdddjbdbdbdbbbdbbbdbbbbbbbbbbdddddddbbdbbgbdbbbbbbbbbbbbbbbbbbdbbbdbbbdsbbbsbdddddddbsdabgddjbdbdbdbjbdbdbdbbsbdbdddddddjbbd",
"sbdbdbdbbbsbdbdbdbdbbddbsdbddbadbsdsdbbsdsdbbbvvsbssdbdssbssdbdssbdbbsbddddbsbddbddbdbbddbdbjbvvbbsbdbdbbbsbdbdbdbddbddbdbbddbdd",
"sjsjsjsjsssjjjsjsjssjjsjjdjjsjjdssbbssssbbsajjjlsjsbsssbsjsbsssbsjssjsssbssbsssbjjsjssjjsjddjjbvsssjjjsjsssjjjsjsjjjjjsjssjjsjjj",
"lllllglllllllglljlllgvllvvvvvvvvglllllllvvvvgggvvvvggggllllllgllbggvvvvvlgggggvvlllllllllgggggvvvvvvggllgbjjbjbjjlllvllvvvvvvvvv",
"vvvgggglvvvgggglbgvvgggvllllllllggggvvvvllllllglllllglllvvvvggggljllvlllllglllllvvvvvvvvllglllllllllvllljlllglglbgvggggvllllllll",
"llllglllllllglllllllllllllllllllllllllllllllllllllllgllllllllllllllllllllllllllllllllllllllllllllllllllllllljljlllllllllllllllll",
"lllllllllllllllllllllllllllllllllllllllllllllllllllllllllllllllllllllllllllllllllllllllllllllllllllllllllllllljbllllllllllllllll",
"llllllllllllllllllllllllpgplllgplllllllllllulllulllllallllllllllllllllllllllllllllllllllllllllllllllllllgsssassslllllllllplplgpl",
"ggggggggggggggggggglggglllllllllggggggggllllullllllplalaggggggggllpljlpgllalallaggggggggllalallallpgpglljaddjgddgggggggllgllllpl",
"llggggggllggggggggglgggllpgpllplaggaggaglulululuulllllalllgggggggpplpllllalallllggggglgglalallllplllllpjgjssgppgggggglglplplplll",
"lllllalglllllalljgjplggpllllppgllgllglllllllllllllluallgllllallallglllpglalllaalallllllglalllaalllpgpgljpgjjpggljlggplgpglglllpg",
"glllaalllalllalalllaalllgplalllaulllllulululululllulllllplllalllpgpllallllallalllllalallllallalllggplllglalllalalllaalllplplllal",
"laallllalllallllaallllallllllalllllululllllllllllullluluglplalalllpllllaalallllalalllllaalallllalplllplplllallllaallllalplglplal",
"ululululluluuulualululluuululuuaulululululululululululululgpalulpggpluluulallululuualuluulallulupplplupgluluuulualululluglululal",
"lulululuululalullululuulplululullululululululululululululppglulugplpululluluululululululluluululgppgulppululalullululuulpplululu",
"lulaulullulululaulullulululaluluululluluululululluluululpgppgppgpplululuullululululululuullululululalulululululaulullulululaulul",
"ulullulualululullulualulululululluluulullulululuulullulupggppgppulululallualulalulalulallualulalululululalululullulualululullulu",
"uaaaauuuaaaauaaaauuuaaaauaaaaauaulpuulupluuuulpuulupluuuupguuppgugupupaauupauaaauaaauaaauupauaaauaaaaauaaaaauaaaauuuaaaauaaaauuu",
"pppppppppppppppppppppppppppppppppppppuppuppppppppuppupppppppppppppppppppupppppppppppppppuppppppppppppppppppppppppppppppppppppppp",
"pppppppppppplpppgppjppgpppppppppppppppppppppppppdippppsppjppgppppgpggpgppppppppppgpgpggjrssaidedppppppppgpppgpgppppggpppgppgppgp",
"upputpptupuupuupprprppuuprpprppprprpprprpprppppredesaeprrajruyppuuuuryygprprprpruypypprrpaeaeaaeputppttpaypyppuupuupuupuuuuuuuuu",
"ptutptptuuuuuuuugpgpgupauuyuuuupprpppprprrpppppraeaerppppppgypppuuyupupyprgyprrguugyyprgraaeaeaautptptptpagppaaaaappaappuyuuuuuu",
"tptptptpuuuuuuuurgrpppaapprpprprppprrpppppprrrppaeaasrrpppgrgppgrppprpprppprpppprprpprppsrseaaedputptptpupppupaaaapuapugpppytupp",
"ptutptutptptpputrpppppprrpyprppprppprpprppprpppraeaaeaearprpprprppprrppprrpppprrppprrprrrrppaaeeptuuptptprpprpppupprppprptptptpt",
"tptutptutptpputppprprrpprppprprprprprppprrppprppqaaededagrppppprprpppprpppprrpppprppsrpppppraaaatuuutptpprprpprrpuprprprtptptptp",
"ttttttttptpttpptprpppppprrperrpyrrpyryerrprpryyeaaaeeeaarppprprprprpprpryerrrrrprprprararrrr2a2attuettttjpppprppyppppprpptpttppt",
"ututututttttttttprrrrrrruyyyuyyyuyyypyyyyyyyyyyya2aqaa2arrrrrprpyyyyyyyyyyygygrryyyyararaaraaaaatueututurrrrprrpeyeyeyrpyyyyyyyy",
"rpprprrrttttttttprrrprrprrrprrrrrrrprpprrrprrrpreaea2aaaaeada2aqrprrpprrrrpprrprrprrpprra2deaeaettttrrpprrrpprrrrrrprprjeurpyprr",
"rrrrrrprttttttttrrprprrppprrrgrapprrrrrrrprrprpraeaeaa2a2ae2aaeayeprrrrpprrrrprryeprrrrpaaeaeaeattttprrrrprrrrprpprrrrrrueeyrrrp",
"prrprprrttttttttrprprrrrrrprprrrrrprprrprrpprprr2daa22daaaeaa2aererrrrrprrrrrrpprerrrrrpa2aeaaaettttprrrprprrprprrprprrryyeprrrp",
"prrprryyttttttttrprrrpprrprrprrrrprrprrpprrrrrrpaa22aaeeaeaeaaeapypypprrjrrrprrrpypypprreaed2a2dttttrrryrrprrprrrprrprrrepyrpprr",
"rrrrqyqqqyyeteyerrrrrrrrrrrreyqeyeyerrrrrrrrrrrreeaad2aa22a2qeaqqyyqeyeyrrrrrrqyqyyqeyeyay222a2aeeqyqeyqrrrrrrrrrrrrrrrrqyyqeyey",
"rrrryeeyyeqyeeeyrrrrrrrrrrrrqyyqeyeyrrrrrrrrrrrree2aea22aaedqa2ayeqyyeyerrrrrrreyeqyyeye2aaaaqaeeyyeqyqyrrrrrrrrrrrrrqrryeqyyeye",
"rrrryqqyqeyeey4arrrrrrrrrrrryqqyqyyqrrrrrrrrrrrr2daea2eaa2a2qqqqqeqeeqqerrrrrryqqeqeeqqe2aa2eaqqyayyyyqerrrrrrrrrrrreyqyqeqeeqqe",
"eeeeeeeeeeeeeeeyrrrrrrrrrrrreqyeeqyerrrrrrrrrrrrii2eeii2yaeaqaeqqyyqyyqyeeeeeeeeqyyqyyqyaa2aa2aqe4yeqeyqeeeeeeeeeeeeeeeeqyyqyyqy",
"rreyqeyqaqqeaqeaqqqaqqeaeyqqqeqeyqeyqqeyeqrrrrqrrrqrrrrraqqqeaeayqeyrrrrrrrrrrrreaqqqaeaqqeaeaqqrrrryeqyyeqqqqyerrrreyqeyqyqeyqr",
"erqeqqqqeeqqqqeeqqqeqqa2eeqqqqqqqqqeqqqqerqqqqerqqerqqqqeeqqa2qeqqqqr0qqqqqqqqqqeeqqqqeeqqa2qe2aqqr0qqqeqqqeqqqereqyqeqqqqqeqqqq",
"e8ewwwqqe0e0q00eq0e00e2ewwwwqeeeqewwwwq8e0e0e0e0e0e0e0eqe0e02qe00eq00e0e0e0e0e0e0e0eq0000q2e0e0e0e0eq0e0q8e0q8wwwwq0wwwwq0e00e0e",
"qqwwwww00e0eq0000e0ee0qewwwwq88eq8www0qe0e0eq00eq00e0e000e0eeeq0e0e0e0e0e0e0e0e0e0e0q0000eqee0e0e0e0e00e0e0e0ewwwwwwwwww0e0ee0e0",
"00000000e0e0e0e0e0e00e0ewwwwwwwwwwwwwwwwe0e00e000e00e0e0e0e0e0e0000000000e0e0e0e000e0e00000000000e0ee0e0ee0eq0ww00000000e0e00e0e",
"000000000e0e0e0e0e0ee0e08ww8ww8w0000000000000000000000000e0e0e0e00000000e0e0e0e00000000000000000e0e00e0e80e0ee00000000000000008q",
"00000000000000002eee002e8ww88ww80000000000000000000000000000000000000000000000q8000000000000000000q80000008000000000000000000000",
"000000000000000002202e22w88w888w0888000800000000q088888q000000000000000000000000000000000000000088888888000000000000000000000000",
"8888888888882002222e20020000w8w8000000008888888888882002002000200000000088888888200200020000000800000000000000000000000088888888",
"0000000000000000ee0000000000888w000000000000000000000000000000000000000000000000000000000000000800000000880000000000000000000000",
"888888888q8800202e20002002008888888888888888888888880020000202022000000288888888002022008888888888888888888888880002022088888888",
"88888881118120222222202200028888888888888888888118112021220002002020020288888888200000028888888888888888888888880202000081811818",
"8888881qq1020000e202000020888888888888888888881q0q0200000000200000000020q0q288880100808q888888881qq1888888888888000202000001qq88",
"888181q181022220020222202288868888688868888181q1110121202220222222211020111q81181q12111188818868111q81188883818812020222121q1111",
"181818181q122022220220220686668666686668181818181q112022202202201120110211221q81111q81189668698881811881999968862022022220111q81",
"11111111111122222211221188666666666666661111111111111111222212221111111121111111111111666663666811111111666633881111111111111111",
"44444444444444434444444444444444444444444444444344444444444444438444444444444444344444444444444444444444344444444444444444444444",
"66666666666666666666666666666666666666666666666666666666666666668666666666666666666666666666666666666666666666666666666666666666",
"66666666666666666666666666666666666666666666666666666666666666666666666666666666666666666666666666666666666666666666666666666666",
"66666666666666636666666666666633666666666666666366666666666666636666666666666666666666666666666666666666666666666666666666666666",
"33333333333333333333333333333333333333333333333333333333333333333333333333333333333333333333333333333333333333333333333333333333",
"33333333333333333333333333333333333333333333333333333333333333333333333333333333333333333333333333333333333333333333333333333333",
"33333333333333333333333333333333333333333333333333333333333333333333333333333333333333333333333333333333333333333333333333333333",
"33333333333333333333333333333333333333333333333333333333333333333333333333333333333333333333333333333333333333333333333333333333",
"333333333333333333333333333333333333333333333333333333333333333333333333333333336<633333333333333333333333333333<6<6<6<633333333",
"33<<<<<<<<<<<<<<33<<<<<<<<<<<<<<33<<<<<<<<<<<<<<33<<<<<<<<<<<<<<<<<<<<<<<<<<<<<<<<-3<<<<<<<<<<<<3<<<<<<<<<<<<<<<<<<<<<<<<3<<<<<<",
"<<<<<<<<<<<3<<<<<<<<<<<<<<<<<<<<<<<<<<<<<<<3<<<<<<<<<<<<<<<3<<<<<<<<<<<<<<<<<<<<<<<<<<<<<<<<<<<<<<<<<<<<<<<<<<<<<<<<<<<<<<<<<<<<",
"<<<<<<<<<<<3<<<<<<<<<<<<<<<3<<<<<<<<<<<<<<<3<<<<<<<<<<<<<<<3<<<<<<<<<<<3<<<<<<<<<<<<<<<<<<<<<<<3<<<<<<<<<<<<<<<<<<<<<<<<<<<<<<<<",
"3-<3<3<<3<<-3-<33333<33<333333333333<33<3<<-3-<33333<33<3<<-3-<3<33<33333-<3<-3333<<<<<<<33<63<3<<33<<33<<33<<33<3<<33<<<<<<<33<",
",6-3-36-,3-6,6-3---------------,--------,3-6,6-3--------,3-6,6-6--------,6-3<16--<-6>6-6---------<-<6--<6--<6--<>,,>-<-6>6-<<-6-",
"--<--<--<--3--<----<---3-<---------<---3<--3--<----<---3<--3-------3-<----<--<---<---><-<--6-<6---<<--<<--<<--<<--->-<--->-<----",
"<-;;----;;-*<-;*<3-<<<<--<3<-3<-<3-<<<<-;;-*<-;*<3-<<<<-;;-*<---<<<--<<<<-;;----<*<<--*-<-<--<--<---------------<<--<*<<--<*<<--",
"--3----,-,-,-,-,<--1-->>>>>>---1---3--<--6-->>>>-<--1-->>>>>---1--3--,-,--<--1--,-,-,-,-<--<--1-,-,--1---1--<--<--<-<--1--,-,-,-",
"--------------------------------------------------------------------------------------------------------------------------------",
"--------------------------------------------------------------------------------------------------------------------------------",
"---------------------------------------------------<-----------------------<----------------------------------------------------",
"--*-*-*--*-*--*--*-*-*-*--*-*-*--**-*-*--*-*-*-*--&&&-----*-*-*--*-*--*--*-*-*-*-*-*-*-*&------&--*--*-*--*-&-----&--&-&-*-*-*-*",
"-*-*-*-**-*--*-**-*-*-*-*--*-*-**--*-*-**-*---*-&-----&&*--*-*-**-*--*-**-*-*-*-*-*---*---&-&&---*-**-*--*-*--&-&------&*-*---*-",
"*-*-*-*--*-**-*--**--*-*--*-*-*---*-*-*--*-**--*&----&----*-*-*--*-**-*--**--*-*-*-**--*-&-&--&-&-*--**-*-*--&-&-&-&&-&--*-**--*",
"***************%********%*******%***************-&&&&-&&%**************%****************&-&-&&-&-%-%*******%&-&-%-&--&-&********",
"************************************************-&&&-&&-&&&-&--&********************&&--&&&-&-&&&&-&&&-&&-&&&-&&&--&-&&&********",
"************************************************&&-&-&&---&&&&&&********************-&&&&-&&&-&-&-&&-&-&&-&-&&-&&&&&&&--********",
"********************************-*-*-*-*********&-&-&&&&&&-&-&&-********************-&&&-&-&&&-&&&--&-&&&&-&--&&-&&-&-&&********",
"************************************************&-&&&--&&-&&-&&-********************&&--&&-&-&&&-&&&&&&--&&&&&&--&&-&&-&********",
"************************************************&&-&-&&-&-&&&&&&******************-&&-&&&-&&-&&-&-&&-&&--&&-&&-&&&-&&&-&-&&-*-&&",
"&&&&&&&&&&&&%&&&&&&&&&&&&&&&&&&&&&&&&&&&&&&&%%&&&&&&&&&&&&&&&%&&&%&&&&&&&&&&&&&&%%&&&%&&&&&&&&&&&&&&%&&&&&&&&&&&&&&&&&&&&&%&%%&&",
"&&&&&&&&&&&&&&&&%%%%%%%%%%%%%%%%%%%%%%%%&&&&&&&&&&&&&&&&%%&%%%%%&&&&&&&&%%%%%%%%%%%%%%%%&&&&&&&&&&&&&&&&&&&&&&&&&&&&&&&&%%%%%%%%",
"&&&&&&&&&&&&&&&&%%%%%%%%%%%%%%%%%%%%%%%%&&&&&&&&&&&&&&&&%%%%%%%%&&&&&&&&%%%%%%%%%%%%%%%%&&&&&&&&&&&&&&&&&&&&&&&&&&&&&&&&%%%%%%%%",
"%%%%%%%%%%%%%%%%%%%%%%%%%%%%%%%%%%%%%%%%%%%%%%%%%%%%%%%%%%%%%%%%%%%%%%%%%%%%%%%%%%%%%%%%%%%%%%%%%%%%%%%%%%%%%%%%%%%%%%%%%%%%%%%%",
"%%%%%%%%%%%%%%%%%%%%%%%%%%%%%%%%%%%%%%%%%%%%%%%%%%%%%%%%%%%%%%%%%%%%%%%%%%%%%%%%%%%%%%%%%%%%%%%%%%%%%%%%%%%%%%%%%%%%%%%%%%%%%%%%",
"%#%#%#%##%#%#%#%#%#%#%#%#%#%#%#%#%#%#%#%#%#%#%#%#%#%#%#%#%#%#%#%#%#%#%#%#%#%#%#%#%#%#%#%#%#%#%#%%#%#%#%##%#%#%#%#%#%#%#%#%#%#%#%",
"%%#%#%#%%#%#%#%#%#%#%#%#%#%#%#%#%#%#%#%#%#%#%#%#%#%#%#%#%#%#%#%#%#%#%#%#%#%#%#%#%#%#%#%#%#%#%#%#%%#%#%#%%#%#%#%#%#%#%#%#%#%#%#%#",
"%#%#%#%##%#%#%#%#%#%#%#%#%#%#%#%#%#%#%#%#%#%#%#%#%#%#%#%#%#%#%#%#%#%#%#%#%#%#%#%#%#%#%#%#%#%#%#%%#%#%#%##%#%#%#%#%#%#%#%#%#%#%#%",
"#%#%#%#%%#%#%#%#%#%#%#%#%#%#%#%#%#%#%#%#%#%#%#%#%#%#%#%#%#%#%#%#%#%#%#%#%#%#%#%#%#%#%#%#%#%#%#%##%#%#%#%%#%#%#%#%#%#%#%#%#%#%#%#",
"%#%#%#%##%#%#%#%#%#%#%#%#%#%#%#%#%#%#%#%#%#%#%#%#%#%#%#%#%#%#%#%#%#%#%#%#%#%#%#%#%#%#%#%#%#%#%#%%#%#%#%##%#%#%#%#%#%#%#%#%#%#%#%",
"#%#%#%#%%#%#%#%%%#%#%#%#%#%#%#%#%#%#%#%%%#%#%#%#%#%#%#%#%#%#%#%%%#%#%#%#%#%#%#%%%#%#%#%#%#%#%#%%#%#%#%#%%#%#%#%%%#%#%#%#%#%#%#%#",
"O#######################OO######################O###############OO##############OO##############O#######################OO######",
"################################################O###############################################################################",
"##########################################################################################%@####################################",
"##########################################################################################O@####################################",
"################OOOOOOOOOOOOOOOOOOOOOOOO####%O##OOOOOOOO########OOOOOOOOOOOOOOOOOOOOOOOOOOOOOOOO########OOOOOOOOOOOOOOOOOOOOOOOO",
"OOOOOOOOOOOOOOOO################OOOOOOOO####@@##########OOOOOOOOOOOOOOOOOOOOOOOOOOOOOOOOOOOOOOOOOOOOOOOOOOOOOOOOOOOOOOOOOOOOOOOO",
"OOOOOOOOOOOOOOOOOOOOOOOOOOOOOOOOOOOOOOOOOOOOOO++OOOOOOOOOOOOOOOOOOOOOOOOOOOOOOOOOOOOOOOOOOOOOO+OOOOOOOOOOOOOOOOOOOOOOOOOOOOOOOOO",
"OOOOOOOOOOOOOOOOOOOOOOOOOOOOOOOOOOOOOOOOOOOOOOO+OOOOOOOOOOOOOOOOOOOOOOOOOOOOOOOOOOOOOOOOOOOOOO++OOOOOOOOOOOOOOOOOOOOOOOOOOOOOOOO",
".+.+.+.++.+.....OO..+.@.@@@@@@@@.+.....++@@@@@@@@@@@@@@@....+.+.O..+..+.++@@@@@@@@@@@@@@@@@@@@@@@@@@@@@@....+.+.O++X++..@@@@@@@@",
"@+@+@+@++.+ +++++++@++++@@@@@@@@.+++++ +.@@@@@@@@@@@@@@@+++++.+.OO.O+.+.X+@@@@@@@@@@@@@@++++++++@@@@@@@@+++++.+.OO.+ +++@@@@@@@@",
"++++++++.+.++O++++++++++@+++++++.++++.+ +++++++++++++++++ +..++++.+O++++@++++++++++++++++++++++++++++++++ +..++++.+O+ .+++++++++",
"+++++++@+++++++@+++++++@@@@@@@@@+++@++++@@@@@@@@@@@@@@@@+++++++++++++++@@@@@@@@@@@@@@@@@++++++++@@@@@@@@++++++++ O+..+++@@@@@@@@",
"@@@@@@@@+++X@@@@@@@@@@@@@@@+@@@@@@@@@@X+@@+@@@+@@@@@@@@@++@@@@@@+.@@@@@@@@X+@@@@@@@@@@X+@@@@@@@@@@@@@@@@++@@@@@@.+.@.@.@@@X+@@@@",
"+..@.@@...XX..@..+...@...@..+..@XXXXXXX+@...@....@@..+.@..@.@..@+..@.@.@XXX+.@@..+.@XXX+@.@.@.@..@@..+.@..@.@..@..@.@.@.XXX+.@@.",
"..@...X.XXXX.+.+@...@...@.+..+@.XXXXXX....++..++...@...+@..@+.....@.@.@.XX.....@....XX...@.@.@.@...@...+@..@+...+@.@.@.@XX.....@",
"+++++.++........+O++++++.+  ...+........+...+...+ +. +....................  + +.  ++..  ........+ +. +............@.@.@...  + +.",
"..                      .                                               +                                               +       ",
"................................................................................................................................",
"................................................................................................................................",
"................................................................................................................................",
"................................................................................................................................",
"................................................................................................................................",
"................................................................................................................................",
"................................................................................................................................"
};
