/* XPM */
static char *__NO1699569677[] = {
/* columns rows colors chars-per-pixel */
"128 128 69 1 ",
"  c #1E1212",
". c #1F1313",
"X c #201212",
"o c #211313",
"O c #221414",
"+ c #231514",
"@ c #231515",
"# c #241414",
"$ c #241415",
"% c #251515",
"& c #241616",
"* c #261616",
"= c #271717",
"- c #291717",
"; c #281818",
": c #2A1818",
"> c #2B1919",
", c #2D191A",
"< c #2C1A1A",
"1 c #2D1B1B",
"2 c #2E1A1B",
"3 c #2F1B1C",
"4 c #2E1C1C",
"5 c #311D1C",
"6 c #301C1D",
"7 c #321D1C",
"8 c #331E1D",
"9 c #311D1E",
"0 c #321C1E",
"q c #331F1E",
"w c #341F1E",
"e c #34201F",
"r c #35201F",
"t c #351F21",
"y c #371E21",
"u c #3B2323",
"i c #3C2223",
"p c #3D2324",
"a c #3C2424",
"s c #3D2525",
"d c #3E2425",
"f c #3F2526",
"g c #4D2B2A",
"h c #4E2A2A",
"j c #4B2B2C",
"k c #4A2C2C",
"l c #53292A",
"z c #512B2A",
"x c #55292A",
"c c #542A2B",
"v c #5B292A",
"b c #5A2A2A",
"n c #632727",
"m c #6B2525",
"M c #6A2625",
"N c #6A2627",
"B c #6D2526",
"V c #6C2626",
"C c #622827",
"Z c #722221",
"A c #732221",
"S c #722223",
"D c #7B2120",
"F c #7C2120",
"G c #951919",
"H c #941A19",
"J c #A51515",
"K c #A61616",
"L c #C70B0A",
/* pixels */
"ffffffffffffffffffffffffffffffffffffffffffffffffffffffffffffffffffffffffffffffffffffffffffffffffffffffffffffffffffffffffffffffff",
"ffffffffffffffffffffffffffffffffffffffffffffffffffffffffffffffffffffffffffffffffffffffffffffffffffffffffffffffffffffffffffffffff",
"ffffffffffffffffffffffffffffffffffffffffffffffffffffffffffffffffffffffffffffffffffffffffffffffffffffffffffffffffffffffffffffffff",
"ffffffffffffffffffffffffffffffffffffffffffffffffffffffffffffffffffffffffffffffffffffffffffffffffffffffffffffffffffffffffffffffff",
"ffffffffffffffffffffffffffffffffffffffffffffffffffffffffffffffffffffffffffffffffffffffffffffffffffffffffffffffffffffffffffffffff",
"ffffffffffffffffpfpfpfpfpfpffppfffififfiiffiiffiiffififfffififfifffffffffiffififfffffffffffffffffpfppffpfffffffffpfpfpfpfpfppffp",
"fpfpfpfpfpfpfpfpfpfpfpfpfpfpfpfpfififfffffffffffffffififfififfffffiifffffifififfpfpfpfpfpfpfpfpfpfpfpfpfpfpfpfpfpfpfpfpfpfpfpfpf",
"pfpfpfpfpfpfpfpfpfpfpfpfpfpfpfpffifffiiffiiffiiffiifffiffifffiififfffiiffffifffifpfpfpfpfpfpfpfpfpfpfpfpfpfpfpfpfpfpfpfpfpfpfpfp",
"fpfppfpfpfpffpfppfpfpfpffpfpfpfpffiiffiffffifiufffifffiifffififffffifiufiffifffipfpfpfpfpfpfpfafpfpfpfpfpfpfpfpfpfpfpfafpfpfpfpf",
"pfpffufpfpfppfpffpfpfpfppfpfpfpfiffffiffiiffffffifififfffifffifiiiffffffiffififffpfpfpfpfpfpfpfffpfpfpfpfpfpfpfpfpfpfpfffpfpfpfp",
"fpfpffafpfpffpfppfpfpfpffpfpfpfpufffffiiffififfafiffufffififffufffififfaffffififafffpfpfpfpfpffapfpfafffpfpfafffpfpfpffapfpfpfpf",
"pfpfaffffpfppfpffpfpfpfppfpfpfpfffafiffffiffiffffffiffafffififfffiffiffffiifffifffaffpfpfpfpfpfffpfpffaffpfpffaffpfpfpfffpfpfpfp",
"ffafassspffpfpfppfpfpfpfssssfafassssssssaafafaasufasssssaffaaffaaafassssssssaafassssssssaaaffaaaaaaassssaaaassssaaaffaaapfpfpfpf",
"aaafssssfppfpfpffpfpfpfpsssafafassssssssfasaafssaaafssssaaufaaaffasassssssssfasassssssssafaaaffaaffassssaffassssafaaaffafpfpfpfp",
"aaaaaaaaupppppppppipfuufaaaaaaaaaaaaaaaaaaaaaaaaaaaaaaaafifffuaiaaaaaaaaaaaaaaaaaaaaaaaaaaaaaaapaaaaaaaaaaaaaaaaaaaaaaaappppppup",
"aaaaaaaaipppppppppppiufaaaaaaaaaaaaaaaaaaaaaaaaaaaaaaaaauaiiufifaaaaaaaaaaaaaaaaaaaaaaaaaaaaaaauaaaaaaaaaaaaaaaaaaaaaaaupppppppp",
"auufauufuufiufiifuuafuuaaafuuaaaifuuaafuuaaafuuaaaapaaapauufauufaafuuaaapupupaupupupupaaupupaaupauufauufpppiiifiaaaaaaaauuuuuuuu",
"uuuuuuuuuuuuuuuuuuuuuuuuuuuuuuuuuuuuuuuuuuuuuuuuuuuuuuuuuuuuuuuuuauuuuuuuuuuuuuuuuuuuuuuuuuuuuuuuuuuuuuuiiiuiuuuaaaauuuuuuuuuuuu",
"uiiiuiiiuiiiuuuuiiuiiiiiuiiiiiuiiiiuuiiiiiuiiiiiuiiiuiuuuiiiuiiiuuuiiiuipuuuupupupuppuupuppuupupuiiiuiuippfippfuuuuuuuuupppppppp",
"uuuuuuuuuuuuuuuuuuuuuuuuuuuuuuuuuuuuuuuuuuuuuuuuuuuuuuaauuuuuuuuuuuuuuuuuuuuuuuuuuuuuuuuuuuuuuuuuuuuuuuaufuufpufuuuuuuuaaaaaaaaa",
"BBBBBBBBBBBBBBBBBBBBBBBBBBBBBBBBBBBBBBBmBBBBBBBBBBBBBBBBBBBBBBBBBBBBBBBBBBBBBBBBBBBBBBBBBBBBBBBBBBBBBBBBmBmVVVVVmmBBBBBBBBBBBBBB",
"DDDDDDDDDDDDDDDDDDDDDDDDDDDDDDDDDDDDDDDDDDDDDDDDDDDDFFDDDDDDDDDDDDDDDDDDDDDDDDDDDDDDDDDDDDDDDDDDDDDDDDDDDDDDDFDDDDFFFFFFDDDFDDDD",
"JJJJJJJJJJJJJJJJJJJJJJJJJJJJJJJJJJJJJJJJJJJJJJJJKJJJKKJJJJJJJJJJJJJJJJJJJJJJJJJJJJJJJJJJJJJJJJJJJJJJJJJJJJJJJJJJJJJJJJJJKKKKKKJJ",
"LLLLLLLLLLLLLLLLLLLLLLLLLLLLLLLLLLLLLLLLLLLLLLLLLLLLLLLLLLLLLLLLLLLLLLLLLLLLLLLLLLLLLLLLLLLLLLLLLLLLLLLLLLLLLLLLLLLLLLLLLLLLLLLL",
"GHHHHHHHGGGGGGHHGGHHGGGGGGGGGGGGGHHHHHHHGGGGGGGGGGGGGGGGGGGGGGGGGGGGHGGGGGGGHGGGGGGGGGGGGGGGGGGGGHGGGGGGGGGGGGGGGGGGGGGGGGGGGGGG",
"SSSSSSSSSBSSSSSSSSSSSSSSSSSSSSSSSBSSSSSSSSSSSSSSSSSSSSSSSSSSSSSSSSSSSSSSSSSSSSSSSSSSSSSSSSSSSSSSSSSSSZAZSSSSSSSSSSSSSSSSSSSSSSSS",
"mmmmmmmmmmmmmmmmmmmmmmmmmmmmmmmmmmmmmmmmmmmmmmBmBBmmmmmmmmmBmmmmmmmmmmmmmmmmmmmmmmmmmmmmmmmmmmmmmmmNNmmmMMMMMMMMmmmmmmBmmmmmmmmm",
"CCCCCCCCnnnnnnnnnnCCnnnnnnnnnnnnnnnnnnCCnnnnnnnnCCCCCCCCCCCCCCCCCCCCCnnnCCCnnnnnnnnnCCCCCCCCCCCCCCCCCnCCnnnnnnnnCCCCCCCnCCCCCCCC",
"vvvvvvvvvvvvvvvvvvvvvvvvvvvvvvvvvvvvvvvvvvvvvvvvvvvvvvvvvvvvvvvvvvvvvvvvvvvvvvvvvvvvvvvvvvvvvvvvvvvvvvvvbbbbbvbvvvvvvvvvvvvvbvvv",
"llllzcxzllllllxxzcccccccccccccccllllllllcccccxccccccccccccccccccczlcllllczzxcxcxcccccccccccccccczxclzczzcccccczccccccccccccccccc",
"zzzzzzzzzzzzzzzzzzzzzzzzzzzzzzzzzzzzzzzzzzzzzzzzzzzzzzzzzzzzzzzzzzzzzzzzzzzzzzzzgzzzzzzzzzzzzzzzzzzzzzzzzzzzzzzzzzzzzzzzzzzzzzzz",
"ggggggggggggggggggggzggggggggggggggggggggggggggghggzgggggggggggggggggggggggzghhhggggggggggggggggggzggggggggggggggggggggggggggggj",
"jjkkkkkkkkkkkkkkkkkkkkjkkkkkkkkkkkkkkkkkkkjkkkkkkkkkkkkkkjjjjjjjkkkkkkkkkkkkkkkkkkkkkkkkkkkjkkkkjjkkkkkkkkkkkkjkjjjjjjjjkkjkkkkk",
"jjkkkkkkkkkgkkkkkkkkkkjjkkkkkkkkkkkkkkkkkkjjkkkkkkkkkkkkkkkkkgkkkkkgkkkkkkkkkkkkkkkgkkkkkkkjkkkkjjkkkkkkkkkkkkjjkkkkjjjkkkjjkkkk",
"eeeeee8ueeereeu8eeeteeerrreeeeeerreeeeu8eeerrree4e88e8e8eeeerrrru8rreeeee8eee8e8u8eeeeeeeeeeeeeew8ueeeeeeeeteeerrreerreeerrrrree",
"eeeeeee8eeereeeeeee8eeeerrreeeeerrreee48eerrrrreu4u8eeeeeeeerrreeereeeeeee4u4u4ueeeeeeetreeeeet8u88eeeeeeee8eeeerrrerreeeerrrrre",
"yuyutttttut8yuwyyututuuyuyyu8tttyuttttyutut8uu8tyututtuyyyyyyyyyyu8tttttuu8tyu8tyu8tttt8uyutyututut8yuwyyututuuyuyyyyyyytuuyuu8t",
"w8ee888u88tueeu8ee88888eeeeeu88uw88uu8ee88tueeu8e848888weeeeeeeeee8t8uee4888ww88ee8t8u8uww88ee8888tueeu8ee88888wwweeeeee888eeeu8",
"8wwwe8ew88ewe8888e8e88ww8www88e8wwww8e8e88ewe88888888888wwwwwwww8ee8e88e888888888ee8wwwwe8e8wwww88ewe8888e8e88wwwwwwwwww8t8e8e88",
"ewww8eww4u8e8e88e8e84uwwewww888ewwww88e84u8e8e88e8e8e8wwwwwwwwww888888888e8twwww88888888we8ewwww4u8e8e88e8e84uwwwwwwwwwwe8e8e8e8",
"wwwwwwww8e8e8wwwwwwwwwwwwwwwwwwwwwwwwwww8e8e8wwwwwwwwwwwwwwwwwwwewwwwwwwwwwwwwwwewwwwwwwwwwwwwww8e8ewwwwwwwwwwwwwwwwwwww8e8e8eww",
"wwwwwwwee8e8ewwwwewwwwwwwwwwwwwwwwwwwwwee8e8ewwwwewwwwwwwwwwwwwwwwwwwwwwwewwwwwwwwwwwwwwwwwwwwwwe8e8wwwwwwwwwwwwwwwwwwwee8e8e8ww",
"88888888888888888888888888888888888888888888888888888888888888888888888888888888888888888888888888888888888888888888888888888888",
"8888888888888888888888888888888888888888888888888888888888888888888888888888888888888888888888888888888w8888888w8888888888888888",
"88e8www88www888ewww88www888eww8888e8www88www888ewww88www8888www88www888ewww88www8www888ewww888888ewww8ww88www8ww88e8www88www888e",
"85845555855588845555855588845555858455558555888455558555888455558555888455558555855588845555484848555855585558558584555585558884",
"77557777557755557777557755555584775577775577555577775577558877685577555577775577557755557755888655775557555755577755777755775555",
"75557775557775557775557775555688755577755577755577755577755475565577755577755575557775557555588855775577557755777555777555777555",
"8834t34t6t336tt36t34t34t4t44t4t38834t34t6t336tt36t34t34t6t336tt383t39999t3t366t3t4tt4t3t34t34t444tt3t43tt43t3t4384t34t44t4t34t34",
"48t44tt43t6t633t43t44tt43tt33t4t48t44tt43t6t633t43t44tt43t6t633t88993t99t393t3t6433443t44tt43tt3t43t3t433t4344tt883t3tt33t4tt44t",
"tt3tt434t34tt6t4tt3tt434t34t43t4tt3tt434t34tt6t4tt3tt434t34tt6t43t99t44t3t4tt3333t4tt99t994tt4t434t44t4t4t4tt4t44t4tt4t443t44tt3",
"333433t466643333333433t466644t33333433t466643333333433t46664333339433933343933t3t433334443333333t444333t333t4333343333334t336443",
"33433t3334t3333333433t3334t3333333433t3334t3333333433t3334t33333493939393939393933433t334t34t34t34t34t34433333334t34t34t66666666",
"43t3344333333t4343t3344333333t4343t3344333333t4343t3344333333t4393939393939334933tt3343t33333333333333334tt4t44t3333333366666666",
"t3t33tt34tt44t4tt3t33tt34tt44t4tt3t33tt34tt44t4tt3t33tt34tt44t4t393939393939393934433434333t4333t44tt33t33333333333t433366666666",
"3343343333333333334334333333333333433433333333333343343333333333939393939393939333t33t334t34t34t333343343t433t434t34t34t66666666",
"466644t3334t44t3466644t3334t44t3466644t3334t44t3466644t3334t44t3939393943939393944t3334t66666644334t333444t3334t6666664466666666",
"63333333333333336333333333333333633333333333333363333333333333333333333333333333333333333333336333333336333333333333336333333333",
"33333333333333333333333333333333333333333333333333333333333333333333333333333333333333333333333333333333333333333333333333333333",
"33333333333333333333333333333333333333333333333333333333333333333333333333333333333333333333333333333333333333333333333333333333",
"33433333333333333343333333333333334333333333333333433333333333333333333333333333333334333333333434333333333334333333333334333333",
"43134444<344444443134444<344444443134444<344444443134444<34444443444434444433444434441333444331444133444434444133444434444133444",
"3<<<<<<<<<<<<<<<3<<<<<<<4<4<4<4<3<<<<<<<<<<<<<<<3<<<<<<<<<<<<<<<3<<4<<3<<4<<3<<4<<3<<43<<<3<3<3<<4<3<<3<<<3<<4<3<<3<<<3<<4<3<<3<",
"33333333333333333333333333333333333333333333333333333333333333333<333<3<333<3<333<3<33>333>3>3>>33<333333<3<33<333333<3<33<33333",
"<3<3<3<3<3<3<3<3<66<<66<<3<3<3<<<3<3<3<3<3<3<3<3<3<3<3<33<3<3<3<<3<333<3<333<3<33<3<3<3<3<3<<3<3<3<3<3<3<3<3<3<3<3<3<3<3<3<3<3<3",
"3<343<343<343<34<<<3<<<<3<3<3<343<343<343<343<343<3<3<3<<3<3<3<4<3<<<3<3<<<3<3<<<4<3<3<3<3<33<3<3<3<3<3<343<3<343<3<343<3<343<3<",
">><<>><<>><<>><<<<<<<<<<<<<<<<<<>><<>><<>><<>><<<<<<<<<<<<<<<<<<<<<<<<<<<<<<<<<<<<<<<<<<<<<<<<<<<<<<<<<<<<<<><<<<<>><<<<><<<<<>>",
"<<<<<<<<<<<<<<<<<<<<<<<<<<<<<<<<<<<<<<<<<<<<<<<<<<<<<<<<<<<<<<<<<<<<<<<<<<<<<<<<<<<<<<<<<<<<<<<<<<<<<<<<<<<<><<<<<<<<<<<><<<<<<<",
"<<<<<<<<<<<<<<<<<<<<<<<<<<<<<<<<<<<<<<<<<<<<<<<<<<<<<<<<<<<<<<<<<<<<<<<<<<<<<<<<<<<<<<<<<<<<<<<<<<<<<<<<<<<<<<<<<<<<<<<<<<<<<<<<",
"<<<<<<<<<<<<<<<<<<<<<<<<<<<<<<<<<<<<<<<<<<<<<<<<<<<<<<<<<<<<<<<<<<<<<<<<<<<<<<<<<<<<<<<<<<<<<<<<<<<<<<<<<<<<<<<><<<<<<<<<<<<<<<<",
">>>>>>>>>>>>>>>>>,<,>>>>>><>>>>>>>>>>>>>>>>>>>>>>>>>>>>>>><>>>>>>>>>>>>>>>>>>>>>>>>>>>>><>>>>>>>>>>>>>>>>>>>>>>>>>>>>>>>>>>>>>>>",
"<<<<<<<<<<<<<>>><<<<<<<<<<<<<<<><<<<<<<<<<<<<>>><<<<<<<<<<<<<<<><<<<<<<<<<<<<<<<<<<<<<<><<<<<<<<<<<<<<<<<<<<<<>><<<<<<<<<<<<<<<<",
">>>>>>>>>>>>>>>>>>>>>>>>>>>>>>>>>>>>>>>>>>>>>>>>>>>>>>>>>>>>>>>>>>>>>>>>>>>>>>>>>>>>>>>>>>>>>>>>>>>>>>>>>>>>>>>>>>>>>>>>>>>>>>>>",
">>>>>>>>>>>>>>>>>>><>>>>>>>>>>>>>>>>>>>>>>>>>>>>>>>>>>>>>>>>>>>>>>>>>>>>>>>>>>>>>>>>>>>>>>>>>>>>>>>>>>>>>>>>>>>>>>>>>>>>>>>>>>>>",
">>>>>>>>>>>>>>>>><<<><>>>>>>>>>>>>>>>>>>>>>>>>>>>>>>>>>>>>>>>>>>>>>>>>>>>>>>>>>>>>>>>>>>>>>>>>>>>>>>>>>>>>>>>>>>>>>>>>>>>>>>>>>>",
">>>-->->>->-->->----->--::::::::>>>-->->>->-->->>->-->->->->>->->->->->=>>>==>>>->->>->-->->->->->->>->->->->->->->->->->>>-->->",
"->->>->-->->->->->->->->::::::::->->>->-->->->->->->>->->->->->-->->>>=>>>>>>->->->->->->->->->->-->->->->->->->->->->->->->>->-",
">->>->->>>>->->>>->>>->-::::::::>->>->->>>>->->>>->>->->->->->->>->->>>>>=>>->->->->->->->->->->->>>>->>>->>>->>>->->>>->->>->->",
"==;;;;=;;;;;==;;==;;;;->;;;;;;=-==;;;;=;;;;;==;;==;;;;>=;;;;;;-;====;;=>==;;>===;;;;;;;;;;;;;;=->;;;=;;;=;;;=;;;;;==;;;;==;;;;=;",
";;;;;;;;;;;;;;;;;;;;;;==;;;;;;-=;;;;;;;;;;;;;;;;;;;;;;;=;;;;;;=->=>=;;====;====>;;;;;;;;;;;;;;-===;;=;;;=;;;=;;;;;;;;;;;;;;;;;;;",
"================================================================================================================================",
">=------------------------------>=------------------------------>=---------------------------------------------->=--------------",
"-------=-----------------------=-------=------------------------=>=----------------------------------------------------=--------",
"================================================================================================================================",
"================================================================================================================================",
"================================================================================================================================",
"======================================================-==============-==========================================================",
"===$==#=#==#==#=#==#==#===#==#=====$==#=#==#==#==#==#==#=#==#==#==$==$=$=#==#==##==#==#==#==#==#==#==#==#==#==#====$==#=#==#==#=",
"=##====#====##====##==#==##====#=##====#====##===#===#===##=#===$$==#===##==#======#==##===##===#=#===#=#===#=#==##=#=====#===#=",
"====##===##====##====#======##======##===##====#=#=#==#=======##===#==#====#==#==#==#====#====#=#===#=#===#=#=========##=#==#=#=",
"#==#===========##=====###==#==-=#==#===========#==#=##==#==#=#=====#=#=-===#=#=-#=#=-===#=#==#=#=========#=-====#==#=#====##=#==",
"##=###########=#==#=#===##=#######=###########=##======##==#==#=##=#=#####=#=####=######==#==#==########=########==#==#=#======#",
"==####===######==######===####====####===######=#=###==###=#$$==##=##==###=##==#=##=###=###=###=###=##=##=###==###=###===####=##",
"###==#####==#=####=#==#####==######==#####==#=###=#=####=#=#-$#$#=#######=######=##=#=#=#=#=#=#===##=#=##=#=####=#=#=#####==###=",
"#################=#=##=########o##################=#=##=#=##$$$$#o#######o######o########=###=########o##########=##=####=##=##=",
"##=##=##=###=##=+++++++###=##=#=##=##=##=###=##=############$$$$#=#==##=#=#==##=#=###=#############=##=###=##==################o",
"$$$$$$$$@@@$$$@$$$$$$$$$$$@@@$$$@@$$$$@$$$$$$$$$$$@@$$$$@@$$$$@$$$@@$$@@$$@@$$@@$$@@$$@@$$@@$$@@$$$$$$$$@@$$$$@$$$$$$$$$$$@@$$$$",
"$$$$$$$$@@$$$$@@$$$$$$$$$$@@$$$$@@$$$$@@$$$$$$$$$$@&$$$$@@$$$$@@$$$@$$@@$$$@$$@@$$$@$$@@$$$@$$@@$$$$$$$$@@$$$$@@$$$$$$$$$$@&$$$$",
"==+&&&&&&&&&$$=&&=$$&&&&&&&&&=$$&&&&$=&&&=$$&&&&&&&&&&$=&&&&$=&&$$&&$=&&$$&&$=&&$$&&$=&&$$&&$=&&=++=&&+&&&&&$=&&&=$$&&&&&&&&&&$=",
"o++++&+++&+&@@@@@@@@$&+&.&&+@@@@&.&+@@@@@@@@&+&++&$.@@@@&.&+@@@@@@@@@@+&@@@@@@+&@@@@@@+&@@@@@@+&o=++&+&+&.&+@@@@@@@@&+&++&$.@@@@",
".$$+$$.++$..+..$@$$.$$.++..$$$.$.+$$.$$+$.$.+$$.+..$$$.$.+$$.$$+@.$$+$..@.$$+$..@.$$+$..@.$$+$..+..$$.$$.+$$.$$+$.$.+$$.+..$$$.$",
"++...$.$.$+$$$++$..$+.$+$$++.$$.$..+++..$$+.+.$.$$+..$$.$..+++..$$$..$+$$$$..$+$$$$..$+$$$$..$+$$$+..$+.$..+++..$$+.+.$.$$+..$$.",
"&&++&++&&+&+++++@@@&++&+&.&.+++&+&+&++++$+&+&&+&+&+&+&+++&+&++++&+++&+&+&+++++++&+++&+&+&++++++++&+&+&+++&+&++++$+&+&&+&+&+&+&++",
"$.$$.+.$.$.$+..$.$$.$.$.$+$+.$$.$$.+.$$+.$.$.$.$$.$$.+.$$$.+.$$+.$$..$.$.$$.+.$+.$$..$.$.$$.+.$+$.$$.+.$$$.+.$$+.$.$.$.$$.$$.+.$",
"..+$$ +.++$.$.++$+$+.$ $.+.+$$.+$ +.+$ +$+$+o$$+..+$.+$$..+$$ +.$.+$..+$ +++$. +$.+$..+$$ +.+$ +..+$ +++$$.++$..$+$++ + .+$.++$.",
"$$+.+o+$$.$++.$..+ o++++.$$$.+.$+o+$+.$+.+ o++oo+$+.$+.++$+.+o+$$+.$+$+.$+$.$+$+$+.$+$+.+o+$+.$++$+.$+$..+.$.$+$.+ o+$$$.$+.$.$+",
"$$$.+$$+.$.++$+o+$+$$.$o+.$.+ +$+$$+$+$o+$+$$ o$$+$. +$o$+$.+$$+..++$+$.$oo$.o+o..++$+$.+$$+$+$o$$$.$oo$+.+$++o$+$+$$.$o++$$.$.+",
" .$.oo o++.$+ $$. o $.oo.$.$$$..oo o . $.  $ +oo..$+$+o$  $.oo o+$$...$+oooo.$ $+$$...$+oo o . $..$.o+ o$$+. $++. o $.oo$..+++.$",
".$oooooo.$oooooo$ooooooooooo ooooooooooo$ooooooo.$oooooooooooooooooo.$..oooooooooooo.$..oooooooo.$oooooo .oooooo$ooooooooooo..$.",
"o ooooooo oooooo ooooooooooooooooooooooo ooooooo$.oooooooooooooooooo$. $oooooooooooo$. $ooooooooo oooooo $oooooo ooooooooooo$. $",
"oooooooooooooooooooooooooooooooooooooooooooooooo. oooooooooooooooooooooooooooooooooooooooooooooooooooooooooooooooooooooooooooooo",
"oooooooooooooooooooooooooooooooooooooooooooooooo.$oooooooooooooooooooooooooooooooooooooooooooooooooooooooooooooooooooooooooooooo",
"oooooooo $o+oooooooooooooooooooooooooo+ooooooooooooooooo $o+ooooo$ oooooooooooooooooooooo+ooooo oooooooo $o+ooooo+ooooo oooooooo",
"oooooooo . . o  oooooooooooooooo o o. ..oooooooooooooooo . . o   .$  o oooo+oooooooooooo ..  o $oooooooo . . o   ..  o $ooo+oooo",
" $o    o.. . o o.  .  o o  o.  .  o . . .  .  o  $o    o.. . $ o      o   . .  .  o o  o. ..  o  $o    o.. . $ o. ..  o   . .  .",
"o ooooooo+oooooo$oo+oooooooo$oo+oooo+o$ +o $ooooo ooooooo+ooo oo+$ +oooo+o$ +o $oooooooo+o $ooooo ooooooo+ooo oo+o $oooo+o$ +o $",
"oooooooooooooooo ooooooooooo ooooooooooooooooooooooooooooooooooo $oooooooooooooooooooooooooooooooooooooooooooooooooooooooooooooo",
" o oXXXX oo XXXXo o XXXXXXXX o oXXXXXXXXo XoXXXX o oXXXX oo XXXX  XXXXXXXXXX oo XXXXXXXXo XXXXXX o oXXXX oo XXXXo XXXXXXXXXX oo ",
"o ooXXXXXXo XXXXo ooXXXXXXXXo ooXXXXXXXX oo XXXXo ooXXXXXXo XXXXoo XXXXXXXXXXoo XXXXXXXX  oXXXXXo ooXXXXXXo XXXX  oXXXXXXXXXXoo ",
"        XXXoXXXX                XXXXXXXX                XXXoXXXX ooXXXXX                ooXXXXXX        XXXoXXXXooXXXXXX        ",
"                XXXXXXXXXXXXXXXX        XXXXXXXXXXXXXXXXXXXXXXXXXXXXXXXX        XXXXXXXXXXXXXXXXXXXXXXXXXXXXXXXXXXXXXXXXXXXXXXXX",
"XXXXXXXXXXXXXXXXXXXXXXXXXXXXXXXXXXXXXXXXXXXXXXXXXXXXXXXXXXXXXXXXXXXXXXXXXXXXXXXXXXXXXXXXXXXXXXXXXXXXXXXXXXXXXXXXXXXXXXXXXXXXXXXX",
"XXXXXXXXXXXXXXXX                XXXXXXXX                                XXXXXXXX                                                ",
"                                                                                                                                ",
"                                                                                                                                ",
"                                                                                                                                ",
"                                                                                                                                ",
"                                                                                                                                "
};
