/* XPM */
static char * 0_SO_xpm[] = {
"128 128 83 1",
" 	c #513132",
".	c #503031",
"+	c #4F3131",
"@	c #4F2F30",
"#	c #4E3030",
"$	c #4E2E2F",
"%	c #4D2D2E",
"&	c #4C2E2E",
"*	c #4B2D2D",
"=	c #4A2E2D",
"-	c #4A2C2C",
";	c #492D2C",
">	c #482C2B",
",	c #472B2A",
"'	c #462A29",
")	c #43292A",
"!	c #442A2B",
"~	c #442729",
"{	c #422829",
"]	c #412728",
"^	c #402627",
"/	c #3F2526",
"(	c #3F2727",
"_	c #3E2626",
":	c #3D2525",
"<	c #3C2424",
"[	c #3B2323",
"}	c #392423",
"|	c #3A2222",
"1	c #382322",
"2	c #372221",
"3	c #362221",
"4	c #362120",
"5	c #352120",
"6	c #35201F",
"7	c #331F1E",
"8	c #34201F",
"9	c #322020",
"0	c #331F20",
"a	c #341E20",
"b	c #321E1F",
"c	c #321E1D",
"d	c #331E1D",
"e	c #3E2425",
"f	c #412524",
"g	c #402423",
"h	c #402325",
"i	c #422321",
"j	c #432422",
"k	c #462222",
"l	c #482122",
"m	c #4D2122",
"n	c #4D2120",
"o	c #571F20",
"p	c #562020",
"q	c #611D1C",
"r	c #611D1E",
"s	c #601C1D",
"t	c #691B1B",
"u	c #931314",
"v	c #911314",
"w	c #CF090A",
"x	c #CD090A",
"y	c #A50F0E",
"z	c #711918",
"A	c #721818",
"B	c #711717",
"C	c #701817",
"D	c #611B1B",
"E	c #271919",
"F	c #281818",
"G	c #271717",
"H	c #281819",
"I	c #261818",
"J	c #271718",
"K	c #271918",
"L	c #261817",
"M	c #261616",
"N	c #251716",
"O	c #261617",
"P	c #251717",
"Q	c #251516",
"R	c #241616",
"                                                                                                                                ",
"                                                                                                                                ",
"................................................................................................        ........................",
"........++++++++........++++++++++++++++........................++++++++................++++++++................................",
"................................................................................................................................",
"................................................................................................@@@@@@@@........................",
"@@@@@@@@@@@@@@@@@@@@@@@@@@@@@@@@@@@@@@@@@@@@@@@@@@@@@@@@@@@@@@@@@@@@@@@@@@@@@@@@@@@@@@@@@@@@@@@@@@@@@@@@@@@@@@@@@@@@@@@@@@@@@@@@",
"################################################################################################################################",
"@@@@@@@@@@@@@@@@@@@@@@@@@@@@@@@@@@@@@@@@@@@@@@@@@@@@@@@@@...@@@.@@@@@@@@@@@@@@@@@@@@@@@@@@@@@@@@@@@@@@@@@@@@@@@@@@@@@@@@@@@@@@@@",
"@@@@@@@@@@@@@@@@@@@@@@@@@@@@@@@@@@@@@@@@@@@@@@@@@@@@@@@@@@@@@@@@@@@@@@@@@@@@@@@@@@@@@@@@@@@@@@@@@@@@@@@@@@@@@@@@@@@@@@@@@@@@@@@@",
"@@@@@@@@@@@@@@@@@@@@@@@@@@@@@@@@@@@@@@@@@@@@@@@@@@@@@@@@@@@@@@@@@@@@@@@@@@@@@@@@@@@@@@@@@@@@@@@@@@@@@@@@@@@@@@@@@@@@@@@@@@@@@@@@",
"$$$$$$$$$$$$$$$$$$$$$$$$$$$$$$$$$$$$$$$$$$$$$$$$$$$$$$$$@$$$$@$$$$$$$$$$$$$$$$$$$$$$$$$$$$$$$$$$$$$$$$$$$$$$$$$$$$$$$$$$$$$$$$$$",
"$$$$$$$$$$$$$$$$$$$$$$$$$$$$$$$$$$$$$$$$$$$$$$$$$$$$$$$$$$$$$$$$$$$$$$$$$$$$$$$$$$$$$$$$$$$$$$$$$$$$$$$$$$$$$$$$$$$$$$$$$$$$$$$$",
"$$$$$$$$$$$$$$$$$$$$$$$$$$$$$$$$$$$$$$$$$$$$$$$$$$$$$$$$$$$$$$$$$$$$$$$$$$$$$$$$$$$$$$$$$$$$$$$$$$$$$$$$$$$$$$$$$$$$$$$$$$$$$$$$",
"$$$$$$$$$$$$$$$$$$$$$$$$$$$$$$$$$$$$$$$$$$$$$$$$$$$$$$$$$$$$$$$$$$$$$$$$$$$$$$$$$$$$$$$$$$$$$$$$$$$$$$$$$$$$$$$$$$$$$$$$$$$$$$$$",
"$$$$$$$$$$$$$$$$$$$$$$$$$$$$$$$$$$$$$$$$$$$$$$$$$$$$$$$$@$$$@@$$$$$$$$$$$$$$$$$$$$$$$$$$$$$$$$$$$$$$$$$$$$$$$$$$$$$$$$$$$$$$$$$$",
"$$$$$$$$$$$$$$$$$$$$$$$$$$$$$$$$$$$$$$$$$$$$$$$$$$$$$$$$$$$$$$$$$$$$$$$$$$$$$$$$%%%%%%%%$$$$$$$$$$$$$$$$$$$$$$$$$$$$$$$$$$$$$$$$",
"%%%%%%%%%%%%%%%%%%%%%%%%%%%%%%%%%%%%%%%%%%%%%%%%%%%%%%%%%%%%%%%%%%%%%%%%%%%%%%%%%%%%%%%%%%%%%%%%%%%%%%%%%%%%%%%%%%%%%%%%%%%%%%%%",
"&&&&&&&&&&&&&&&&&&&&&&&&&&&&&&&&&&&&&&&&&&&&&&&&&&&&&&&&&&&&&&&&&&&&&&&&&&&&&&&&&&&&&&&&&&&&&&&&&&&&&&&&&&&&&&&&&&&&&&&&&&&&&&&&",
"&&&&&&&&&&&&&&&&&&&&&&&&&&&&&&&&&&&&&&&&&&&&&&&&&&&&&&&&&&&&&&&&&&&&&&&&&&&&&&&&&&&&&&&&&&&&&&&&&&&&&&&&&&&&&&&&&&&&&&&&&&&&&&&&",
"&&&&&&&&&&&&&&&&&&&&&&&&&&&&&&&&&&&&&&&&&&&&&&&&&&&&&&&&&&&&&&&&&&&&&&&&&&&&&&&&&&&&&&&&&&&&&&&&&&&&&&&&&&&&&&&&&&&&&&&&&&&&&&&&",
"&&&&&&&&&&&&&&&&&&&&&&&&&&&&&&&&&&&&&&&&&&&&&&&&&&&&&&&&&&&&&&&&&&&&&&&&&&&&&&&&&&&&&&&&&&&&&&&&&&&&&&&&&&&&&&&&&&&&&&&&&&&&&&&&",
"&&&&&&&&&&&&&&&&&&&&&&&&&&&&&&&&&&&&&&&&&&&&&&&&&&&&&&&&&&&&&&&&&&&&&&&&&&&&&&&&&&&&&&&&&&&&&&&&&&&&&&&&&&&&&&&&&&&&&&&&&&&&&&&&",
"&&&&&&&&&&&&&&&&&&&&&&&&&&&&&&&&&&&&&&&&&&&&&&&&&&&&&&&&&&&&&&&&&&&&&&&&&&&&&&&&&&&&&&&&&&&&&&&&&&&&&&&&&&&&&&&&&&&&&&&&&&&&&&&&",
"&&&&&&&&&&&&&&&&&&&&&&&&&&&&&&&&&&&&&&&&&&&&&&&&&&&&&&&&&&&&&&&&&&&&&&&&&&&&&&&&&&&&&&&&&&&&&&&&&&&&&&&&&&&&&&&&&&&&&&&&&&&&&&&&",
"********************************************************************************************************************************",
"================================================================================================================================",
"********************************************************************************************************************************",
"********************************************************************************************************************************",
"--------------------------------------------------------------------------------------------------------------------------------",
"--------------------------------------------------------------------------------------------------------------------------------",
";;;;;;;;;;;;;;;;;;;;;;;;;;;;;;;;;;;;;;;;;;;;;;;;;;;;;;;;;;;;;;;;;;;;;;;;;;;;;;;;;;;;;;;;;;;;;;;;;;;;;;;;;;;;;;;;;;;;;;;;;;;;;;;;",
";;;;;;;;;;;;;;;;>;;;;;;;;;;;;;;;;;;;;;;;;;;;;;;;;;;;;;;;;;;;;;;;;;;;;;;;;;;;;;;;>>>>>>>>;;;;;;;;;;;;;;;;>>>>>>>>;;;;;;;;;;;;;;;;",
">>>>>>>>>>>>>>>>>>>>>>>>>>>>>>>>>>>>>>>>>>>>>>>>>>>>>>>>>>>>>>>>>>>>>>>>>>>>>>>>>>>>>>>>>>>>>>>>>>>>>>>>>>>>>>>>>>>>>>>>>>>>>>>>",
">>>>>>>>>>>>>>>>>>>>>>,,>>>>>>>>>>>>>>>>>>>>>>>>>>>>>>>>>>>>>>>>>>>>>>>>>>>>>>>>>>>>>>>>>>>>>>>>>>>>>>>>>>>>>>>>>>>>>>>>>>>>>>>>",
">>>>>>>>,,,,,,,,>>>>>>,,>>>>>>>>>>>>>>>>,,,,,,,,>>>>>>>>>>>>>>>>>>>>>>>>>>>>>>>>>>>>>>>>>>>>>>>>>>>>>>>>,,,,,,,,>>>>>>>>,,,,,,,,",
",,,,,,,,>>>>>>>>,,,,,,>>,,,,,,,,,,,,,,,,>>>>>>>>,,,,,,,,,,,,,,,,,,,,,,,,,,,,,,,,,,,,,,,,,,,,,,,,,,,,,,,,,,,,,,,,,,,,,,,,>>>>>>>>",
",,,,,,,,,,,,,,,,,,,,,,,,,,,,,,,,,,,,,,,,,,,,,,,,'''''''''''''''',,,,,,,,,,,,,,,,'''''''',,,,,,,,,,,,,,,,,,,,,,,,'''''''',,,,,,,,",
"'''''''''''''''''''''''''''''''''''''''''''''''''''''''''''''''',,,,,,,,,,,,,,,,,,,,,,,,''''''''''''''''''''''''''''''''''''''''",
"'''''''''''''''','''''''''''''''''''''''''''''''''''''''''''''''''''''''''''''''''''''''''''''''''''''''''''''''''''''''''''''''",
"'''''''''''''''',,'''',,''''''''''''''''''''''''''''',,,'''''''''''''''''''''''''''''''''''''''''''''''''''''''''',,,,''''''''''",
"'''''''''''''''','''''','''''''''''''''''''''''''''',,,,''''''''''''''''''''''''''''''''''''''''''''''''''''''''''',,'''''''''''",
"''''''''''''''''''''''''''''''''''''''''''''''''''''''''''''''''''''''''''''''''''''''''''''''''''''''''''''''''''''''''''''''''",
"''''''''''''''''''''''''''''''''''''''''''''''''''''''''''''''''''''''''''''''''''''''''''''''''''''''''''''''''''''''''''''''''",
"))))))))))))))))))))))))!!!!!!!!))))))))))))))))!!!)))))))))))))))))))))))))))))))))))))))))))))))))))))))))))))))))))))))))))))",
"))))))))))))))))))))))))))))))))))))))))))))))))))))))))))))))))))))))))))))))))))))))))))))))))))))))))))))))))))))))))))))))))",
"))))))))))))))))))))))))))))))))))))))))))))))))))))))))))))))))))))))))))))))))))))))))))))))))))))))))))))))))))))))))))))))))",
"))))))))))))))))))))))))))))))))))))))))))))))))))))))))))))))))))))))))))))))))))))))))))))))))))))))))))))))))))))))))))))))))",
"~~~~~~~~~~~~~~~~~~~~~~~~~~~~~~~~~~~~~~~~~~~~~~~~~~~~~~~~~~~~~~~~~~~~~~~~~~~~~~~~~~~~~~~~~~~~~~~~~~~~~~~~{{{{{{{{~~~~~~~~~~~~~~~~",
"{{{{{{{{{{{{{{{{{{{{{{{{{{{{{{{{{{{{{{{{{{{{{{{{{{{{{{{{{{{{{{{{{{{{{{{{{{{{{{{{{{{{{{{{{{{{{{{{{{{{{{{{{{{{{{{{{{{{{{{{{{{{{{{{",
"{{{{{{{{{{{{{{{{{{{{{{{{{{{{{{{{{{{{{{{{{{{{{{{{{{{{{{{{{{{{{{{{{{{{{{{{{{{{{{{{{{{{{{{{{{{{{{{{{{{{{{{{{{{{{{{{{{{{{{{{{{{{{{{{",
"{{{{{{{{{{{{{{{{{{{{{{{{{{{{{{{{{{{{{{{{{{{{{{{{{{{{{{{{{{{{{{{{{{{{{{{{{{{{{{{{{{{{{{{{{{{{{{{{{{{{{{{{{{{{{{{{{{{{{{{{{{{{{{{{",
"]]]]]]]]]]]]]]]]]]]]]]]]]]]]]]]]]]]]]]]]]]]]]]]]]]]]]]]]]]]]]]]]]]]]]]]]]]]]]]]]]]]]]]]]]]]]]]]]]]]]]]]]]]]]]]]]]]]]]]]]]]]]]]]]",
"]]]]]]]]]]]]]]]]]]]]]]]]]]]]]]]]]]]]]]]]]]]]]]]]]]]]]]]]]]]]]]]]]]]]]]]]]]]]]]]]]]]]]]]]]]]]]]]]]]]]]]]]]]]]]]]]]]]]]]]]]]]]]]]]",
"^^^^^^^^^^^^^^^^^^^^^^^^^^^^^^^^^^^^^^^^^^^^^^^^^^^^^^^^^^^^^^^^]]]]]]]]^^^^^^^^^^^^^^^^]]]]]]]]]]]]]]]]^^^^^^^^^^^^^^^^]]]]]]]]",
"^^^^^^^^^^^^^^^^^^^^^^^^^^^^^^^^^^^^^^^^^^^^^^^^^^^^^^^^^^^^^^^^^^^^^^^^^^^^^^^^^^^^^^^^^^^^^^^^^^^^^^^^^^^^^^^^^^^^^^^^^^^^^^^^",
"^^^^^^^^^^^^^^^^^^^^^^^^^^^^^^^^^^^^^^^^^^^^^^^^^^^^^^^^^^^^^^^^^^^^^^^^^^^^^^^^^^^^^^^^^^^^^^^^^^^^^^^^^^^^^^^^^^^^^^^^^^^^^^^^",
"////////////////////////////////////////////////////////////////////////////////////////^^^^^^^^////////////////////////////////",
"((((((((((((((((((((((((((((((((________((((((((((((((((((((((((________((((((((((((((((________________________((((((((((((((((",
"________________________________________________________________________________________________________________________________",
"________________________________________________________________________________________________________________________________",
"________________________________________________________________________________________________________________________________",
"::::::::::::::::::::::::::::::::::::::::::::::::::::::::::::::::::::::::::::::::::::::::::::::::::::::::::::::::::::::::::::::::",
"::::::::::::::::::::::::::::::::::::::::::::::::::::::::::::::::::::::::::::::::::::::::::::::::::::::::::::::::::::::::::::::::",
"::::::::::::::::::::::::::::::::::::::::::::::::::::::::::::::::::::::::::::::::::::::::::::::::::::::::::::::::::::::::::::::::",
"<<<<<<<<<<<<<<<<<<<<<<<<<<<<<<<<<<<<<<<<<<<<<<<<<<<<<<<<<<<<<<<<<<<<<<<<<<<<<<<<<<<<<<<<<<<<<<<<<<<<<<<<<<<<<<<<<<<<<<<<<<<<<<<<",
"<<<<<<<<<<<<<<<<<<<<<<<<<<<<<<<<<<<<<<<<<<<<<<<<<<<<<<<<<<<<<<<<<<<<<<<<<<<<<<<<<<<<<<<<<<<<<<<<<<<<<<<<<<<<<<<<<<<<<<<<<<<<<<<<",
"<<<<<<<<<<<<<<<<<<<<<<<<<<<<<<<<<<<<<<<<<<<<<<<<<<<<<<<<<<<<<<<<<<<<<<<<<<<<<<<<<<<<<<<<<<<<<<<<<<<<<<<<<<<<<<<<<<<<<<<<<<<<<<<<",
"[[[[[[[[[[[[[[[[[[[[[[[[[[[[[[[[[[[[[[[[[[[[[[[[[[[[[[[[[[[[[[[[[[[[[[[[[[[[[[[[[[[[[[[[[[[[[[[[[[[[[[[[[[[[[[[[[[[[[[[[[[[[[[[[",
"[[[[[[[[[[[[[[[[[[[[[[[[[[[[[[[[[[[[[[[[[[[[[[[[[[[[[[[[[[[[[[[[[[[[[[[[[[[[[[[[[[[[[[[[[[[[[[[[[[[[[[[[[[[[[[[[[[[[[[[[[[[[[[[[",
"[[[[[[[[[[[[[[[[[[[[[[[[[[[[[[[[[[[[[[[[[[[[[[[[[[[[[[[[[[[[[[[[[[[[[[[[[[[[[[[[[[[[[[[[[[[[[[[[[[[[[[[[[[[[[[[[[[[[[[[[[[[[[[[[",
"[[[[[[[[[[[[[[[[}}}}}}}}}}}}}}}}[[[[[[[[}}}}}}}}}}}}}}}}[[[[[[[[[[[[[[[[}}}}}}}}[[[[[[[[}}}}}}}}[[[[[[[[[[[[[[[[[[[[[[[[[[[[[[[[",
"||||||||||||||||||||||||||||||||||||||||||||||||||||||||||||||||||||||||||||||||||||||||||||||||||||||||||||||||||||||||||||||||",
"11111111||||||||||||||||||||||||||||||||||||||||||||||||||||||||||||||||||||||||||||||||||||||||||||||||||||||||11111111||||||||",
"11111111111111111111111111111111111111111111111111111111111111111111111111111111111111111111111111111111111111111111111111111111",
"11111111111111111111111111111111111111111111111111111111111111111111111111111111111111111111111111111111111111111111111111111111",
"11111111111111112222222211111111111111111111111122222222111111111111111111111111222222221111111111111111111111111111111111111111",
"33333333222222222222222233333333333333332222222222222222222222223333333322222222222222223333333322222222222222223333333322222222",
"33333333222222222222222233333333333333332222222222222222222222223333333322222222222222223333333322222222222222223333333322222222",
"22222222444444444444444444444444444444444444444444444444444444444444444444444444444444444444444444444444444444442222222244444444",
"55555555555555555555555555555555555555555555555555555555555555555555555555555555555555555555555555555555555555553355555555555555",
"44444444444444444444444444444444444444444444444444444444444444444444444444444444444444444444444444444444444444444444442244444444",
"44444444444444444444444444444444444444444444444444444444644466644444444444444444444444444444444444444444444444444444444444444444",
"44444444444444444444444444444444444444446666666644444444644466644444444444444444444444444444444444444444444444446666444444444444",
"66666666666666666666666666666666666666666666666666666666666664666666666666666666666666666666666666666666666666666666666666666666",
"77777777777777777777777777777777777777778888888877777777877788777777777777777777777777778888888877777777777777778887777777777777",
"77777777777777777777777777777777777777777777777777777777777777777777777777777777777777777777777777777777777777777777777777777777",
"77777777777777777777777777777777777777777777777777777777778777787777777777777777777777777777777777777777777777777777777777777777",
"99999999000000000000000000000000999999999999999900000000000000009999999900000000000000000000000099999999000000000000000000000000",
"000000000000000000000000000000000000000000000000aaaaaaaa000000000000000000000000000000000000000000000000000000000000000000000000",
"bbbbbbbbbbbbbbbbccccccccbbbbbbbbbbbbbbbbbbbbbbbbbbbbbbbbccccccccbbbbbbbbbbbbbbbbbbbbbbbbccccccccbbbbbbbbbbbbbbbbcccccccccccccccc",
"bbbbbbbbbbbbbbbbbbbbbbbbbbbbbbbbbbbbbbbbbbbbbbbbbbbbbbbbbbbbbbbbbbbbbbbbbbbbbbbbbbbbbbbbbbbbbbbbbbbbbbbbbbbbbbbbbbbbbbbbbbbbbbbb",
"bbbbbbbbbbbbbbbbbbbbbbbbbbbbbbbbbbbbbbbbbbbbbbbbbbbbbbbbbbbbbbbbbbbbbbbbbbbbbbbbbbbbbbbbbbbbbbbbbbbbbbbbbbbbbbbbbbbbbbbbbbbbbbbb",
"bbbbbbbbbbbbbbbbddddddddbbbbbbbbbbbbbbbbbbbbbbbbbbbbbbbbddddddddbbbbbbbbbbbbbbbbbbbbbbbbddddddddbbbbbbbbbbbbbbbbdddddddddddddddd",
"::::::::::::::::::::::::::::::::::::::::::::::::::::::::::::::::::::::::::::::::::::::::::::::::::::::::::::::::::::::::::::::::",
"________////////eeeeeeee________________________eeeeeeeeeeeeeeee________________________eeeeeeee::::::::////////eeeeeeeeeeeeeeee",
"ffffffffggggggggggggggggggggggggffffffffgggggggghhhhhhhhgggggggggggggggghhhhhhhhgggggggggggggggggggggggggggggggggggggggggggggggg",
"iiiiiiiiiiiiiiiijjjjjjjjjjjjjjjjiiiiiiiiiiiiiiiiiiiiiiiiiiiiiiiiiiiiiiiiiiiiiiiiiiiiiiiiiiiiiiiiiiiiiiiiiiiiiiiiiiiiiiiiiiiiiiii",
"kkkkkkkkkkkkkkkkkkkkkkkkkkkkkkkkkkkkkkkkllllllllkkkkkkkkkkkkkkkkkkkkkkkkkkkkkkkkkkkkkkkkllllllllkkkkkkkkkkkkkkkkkkkkkkkkkkkkkkkk",
"mmmmmmmmnnnnnnnnnnnnnnnnnnnnnnnnnnnnnnnnnnnnnnnnnnnnnnnnnnnnnnnnnnnnnnnnnnnnnnnnnnnnnnnnnnnnnnnnnnnnnnnnnnnnnnnnnnnnnnnnnnnnnnnn",
"ooooooooooooooooooooooooppoooooooooooooooooooooooooooooooooooooooooooooooooooooooooooooooooooooooooooooooooooooooooooooooooooooo",
"qqqqqqqqrrrrrrrrssssssssssssssssrrrrrrrrrrrrrrrrqqqqqqqqqqqqqqqqqqqqqqqqqqqqqqqqqqqqqqqqqqqqqqqqqqqqqqqqqqqqqqqqqqqqqqqqqqqqqqqq",
"tttttttttttttttttttttttttttttttttttttttttttttttttttttttttttttttttttttttttttttttttttttttttttttttttttttttttttttttttttttttttttttttt",
"uuuuuuuuvvvvvvvvvvvvvvvvuuvvvvvvvvvvvvvvvvvvvvvvvvvvvvvvvvvvvvvvvvvvvvvvvvvvvvvvvvvvvvvvvvvvvvvvvvvvvvvvvvvvvvvvvvvvvvvvvvvvvvvv",
"wwwwwwwwwwwwwwwwxxxxxxxxwwwwwwwwwwwwwwwwwwwwwwwwwwwwwwwwxxxwwwwwxxxxxxxxxxxxxxxxxxxxxxxxxxxxxxxxxxxxxxxxxxxxxxxxxxxxxxxxxxxxxxxx",
"yyyyyyyyyyyyyyyyyyyyyyyyyyyyyyyyyyyyyyyyyyyyyyyyyyyyyyyyyyyyyyyyyyyyyyyyyyyyyyyyyyyyyyyyyyyyyyyyyyyyyyyyyyyyyyyyyyyyyyyyyyyyyyyy",
"zzzzzzzzAAAAAAAAzzzzzzzzBAAAAAAAAAAAAAAAzzzzzzzzzzzzzzzzzzzzzzzCzzzzzzzzzzzzzzzzAAAAAAAAAAAAAAAAAAAAAAAAAAAAAAAAAAAAAAAAzzzzzzzz",
"DDDDDDDDDDDDDDDDDDDDDDDDDDDDDDDDDDDDDDDDDDDDDDDDDDDDDDDDDDDDDDDDDDDDDDDDDDDDDDDDDDDDDDDDDDDDDDDDDDDDDDDDDDDDDDDDDDDDDDDDDDDDDDDD",
"EEEEEEEEFFFFFFFFEEEEEEEEFFFGGGGGHHHHHHHHIIIIIIIIEEEEEEEEIIIIIIEEIIIIIIIIIIIIIIIIGGGGGGGGFFFFFFFFJJJJJJJJFFFFFFFFFFFFFFFFEEEEEEEE",
"GGGGGGGGIIIIIIIIGGGGGGGGKLLLLLLLLLLLLLLLGGGGGGGGGGGGGGGGFGGGGGGGGGGGGGGGMMMMMMMMIIIIIIIILLLLLLLLLLLLLLLLLLLLLLLLIIIIIIIIGGGGGGGG",
"MMMMMMMMMMMMMMMMGGGGGGGGJJJJJJJJMMMMMMMMMMMMMMMMGGGGGGGGNNMGGGGGGGGGGGGGMMMMMMMMMMMMMMMMJJJJJJJJMMMMMMMMOOOOOOOOGGGGGGGGMMMMMMMM",
"MMMMMMMMPPPPPPPPNNNNNNNNPPPPPPIINNNNNLNNMMMMMMMMGGGGGGGGNNNNMMMMNNNNNNNNNNNNNNNNIIIIIIIIPPPPPPPPLLLLLLLLIIIIIIIIIIPPPPIILLLLLLLL",
"OOOOOOOOOOOOOOOOOOOOOOOOOOOOOOOOJOOJJOOJOOOOOOOOJJJJJJJJJJJJJJJJJJJJJJJJOOOOOOOOOOOOOOOOJJJJJJJJOJOJJOJOOOOOOOOOJJJJJJJJOOOOOOOO",
"OOOOOOOOJJJJJJJJOOOOOOOOJJJJJJJJJJJJJJJJJJJJJJJJOOOOOOOOOOOOOOOOOOOOOOOOOOOOOOOOJJJJJJJJJJJJJJJJOJOJJOJOJJJJJJJJJJJJJJJJOOOOOJJJ",
"OOOOOOOOOOOOOOOOOOOOOOOOJJJJJJJJOJJOOJJOOOOOOOOOJJJJJJJJJJJJJJJJJJJJJJJJOOOOOOOOJJJJJJJJOOOOOOOOOOJOOJOOOOOOOOOOOOOOOOOOJJJJJOOO",
"OOOOOOOOOOOOOOOOOOOOOOOOOOOOOOOOQOOQQOOQOOOOOOOOOOOOOOOOOOOOOOOOOOOOOOOOOOOOOOOOOOOOOOOOJJJJJJJJOOOOOOOOOOOOOOOOJJJJJJJJOOOOOOOO",
"OOOOOOOOQQQQQQQQOOOOOOOOOOOOOOOOQOOQQOOQQQQQQQQQOOOOOOOOOOOOOOOOOOOOOOOOOOOOOOOOOOOOOOOOQQQQQQQQOQOOOOQOQQQQQQQQQQQQQQQQOOOQQQQQ",
"QQQQQQQQQQQQQQQQQQQQQQQQQQQQQQQQQQQQQQQQQQQQQQQQQQQQQQQQQQQQQQQQQQQQQQQQQQQQQQQQQQQQQQQQOOOOOOOOQQQQQQQQQQQQQQQQOOOOOOOOQQQQQOOO",
"QQQQQQQQQQQQQQQQQQQQQQQQQQQQQQQQOQQOOQQOQQQQQQQQOOOOOOOOOOOOOOOOOOOOOOOOQQQQQQQQQQQQQQQQQQQQQQQQQQQQQQQQQQQQQQQQQQQQQQQQOOOOOQQQ",
"QQQQQQQQQQQQQQQQQQQQQQQQQQQQQQQQQOOQQOOQQQQQQQQQQQQQQQQQQQQQQQQQQQQQQQQQQQQQQQQQQQQQQQQQQQQQQQQQQOQQQQOQQQQQQQQQQQQQQQQQQQQQQQQQ",
"RRRRRRRRRRRRRRRRRRRRRRRRRRRRRRRRRRRRRRRRRRRRRRRRRRRRRRRRRRRRRRRRRRRRRRRRRRRRRRRRRRRRRRRRRRRRRRRRRRRRRRRRRRRRRRRRRRRRRRRRRRRRRRRR",
"RRRRRRRRRRRRRRRRRRRRRRRRRRRRRRRRRRRRRRRRRRRRRRRRRRRRRRRRRRRRRRRRRRRRRRRRRRRRRRRRRRRRRRRRRRRRRRRRRRRRRRRRRRRRRRRRRRRRRRRRRRRRRRRR",
"RRRRRRRRRRRRRRRRRRRRRRRRRRRRRRRRRRRRRRRRRRRRRRRRRRRRRRRRRRRRRRRRRRRRRRRRRRRRRRRRRRRRRRRRRRRRRRRRRRRRRRRRRRRRRRRRRRRRRRRRRRRRRRRR",
"RRRRRRRRRRRRRRRRRRRRRRRRRRRRRRRRRRRRRRRRRRRRRRRRRRRRRRRRRRRRRRRRRRRRRRRRRRRRRRRRRRRRRRRRRRRRRRRRRRRRRRRRRRRRRRRRRRRRRRRRRRRRRRRR",
"RRRRRRRRRRRRRRRRRRRRRRRRRRRRRRRRRRRRRRRRRRRRRRRRRRRRRRRRRRRRRRRRRRRRRRRRRRRRRRRRRRRRRRRRRRRRRRRRRRRRRRRRRRRRRRRRRRRRRRRRRRRRRRRR",
"RRRRRRRRRRRRRRRRRRRRRRRRRRRRRRRRRRRRRRRRRRRRRRRRRRRRRRRRRRRRRRRRRRRRRRRRRRRRRRRRRRRRRRRRRRRRRRRRRRRRRRRRRRRRRRRRRRRRRRRRRRRRRRRR",
"RRRRRRRRRRRRRRRRRRRRRRRRRRRRRRRRRRRRRRRRRRRRRRRRRRRRRRRRRRRRRRRRRRRRRRRRRRRRRRRRRRRRRRRRRRRRRRRRRRRRRRRRRRRRRRRRRRRRRRRRRRRRRRRR",
"RRRRRRRRRRRRRRRRRRRRRRRRRRRRRRRRRRRRRRRRRRRRRRRRRRRRRRRRRRRRRRRRRRRRRRRRRRRRRRRRRRRRRRRRRRRRRRRRRRRRRRRRRRRRRRRRRRRRRRRRRRRRRRRR"};
