/* XPM */
static char * 0_WE_xpm[] = {
"128 128 65 1",
" 	c #653D3D",
".	c #643E3D",
"+	c #643C3C",
"@	c #633D3C",
"#	c #633C3D",
"$	c #623B3C",
"%	c #633B3B",
"&	c #643C3D",
"*	c #633B3C",
"=	c #623A3A",
"-	c #613A3B",
";	c #60393A",
">	c #603A39",
",	c #5F3839",
"'	c #5E3738",
")	c #5C3838",
"!	c #5B3737",
"~	c #5A3636",
"{	c #593535",
"]	c #583635",
"^	c #573534",
"/	c #583434",
"(	c #563433",
"_	c #553332",
":	c #533432",
"<	c #523331",
"[	c #543231",
"}	c #513230",
"|	c #513132",
"1	c #533132",
"2	c #503031",
"3	c #4F2F30",
"4	c #4E3030",
"5	c #4E2E2F",
"6	c #4D2F2F",
"7	c #4C2E2E",
"8	c #4B2D2D",
"9	c #4A2C2C",
"0	c #492D2C",
"a	c #482C2B",
"b	c #492B2B",
"c	c #472B2A",
"d	c #462A29",
"e	c #442A29",
"f	c #452928",
"g	c #43292A",
"h	c #422829",
"i	c #412728",
"j	c #402627",
"k	c #402828",
"l	c #3F2727",
"m	c #3E2626",
"n	c #3F2526",
"o	c #3D2525",
"p	c #3C2424",
"q	c #3B2323",
"r	c #392423",
"s	c #382322",
"t	c #372221",
"u	c #362120",
"v	c #352120",
"w	c #34201F",
"x	c #35201F",
"y	c #342021",
"z	c #331F20",
"                                                                                                                                ",
"                                                                                                                                ",
"                                                                                                                                ",
"        ........        ................                        ........                ........                                ",
"++++++++++++++++++++++++++++++++++++++++++++++++++++++++++++++++++++++++++++++++++++++++++++++++++++++++++++++++++++++++++++++++",
"++++++++++++++++++++++++++++++++++++++++++++++++++++++++++++++++++++++++++++++++++++++++++++++++++++++++++++++++++++++++++++++++",
"++++++++++++++++++++++++++++++++++++++++++++++++++++++++++++++++++++++++++++++++++++++++++++++++++++++++++++++++++++++++++++++++",
"@@@@@@@@@@@@@@@@@@@@@@@@@@@@@@@@@@@@@@@@@@@@@@@@@@@@@@@@@@@@@@@@@@@@@@@@@@@@@@@@@@@@@@@@@@@@@@@@@@@@@@@@@@@@@@@@@@@@@@@@@@@@@@@@",
"++++++++########################++++++++################$####$##################++++++++++++++++################%+++%%%+%%%%%%%%",
"++++++++########################++++++++########################################++++++++++++++++################++++++++++++++++",
"%%%%%%%%&&&&&&&&&&&&&&&&********%%%%%%%%****************************************%%%%%%%%%%%%%%%%****************%%%%%+%%++++++++",
"%%%%%%%%************************%%%%%%%%****************************************%%%%%%%%%%%%%%%%****************%%=%%%%=%%%%%%%%",
"$$$$$$$$************************$$$$$$$$****************************************$$$$$$$$$$$$$$$$****************-$$$$-$$$$$$$$$$",
"--------$$$$$$$$$$$$$$$$$$$$$$$$--------$$$$$$$$----------$$---$$$$$$$$$------------------------$$$$$$$$$$$$$$$$-$$$--$$--------",
"$$$$$$$$$$$$$$$$$$$$$$$$------------------------$$$$$$$$------------------------$$$$$$$$$$$$$$$$------------------------$$$$$$$$",
"--------------------------------------------------------$---$$-------------------------------------------------------$----------",
"--------------------------------;;;;;;;;----------------========----------------;;;;;;;;------------------------;;;;;;;;--------",
";;;;;;;;;;;;;;;;;;;;;;;;;;;;;;;;;;;;;;;;;;;;;;;;;;;;;;;;>>>>>>>>;;;;;;;;;;;;;;;;;;;;;;;;;;;;;;;;;;;;;;;;;;;;;;;;;;;;;;;;;;;;;;;;",
";;;;;;;;;;;;;;;;;;;;;;;;;;;;;;;;;;;;;;;;;;;;;;;;;;;;;;;;;;;;;;;;;;;;;;;;;;;;;;;;;;;;;;;;;;;;;;;;;;;;;;;;;;;;;;;;;;;;;;;;;;;;;;;;",
";;;;;;;;;;;;;;;;;;;;;;;;;;;;;;;;;;;;;;;;;;;;;;;;;;;;;;;;--------;;;;;;;;;;;;;;;;;;;;;;;;;;;;;;;;;;;;;;;;;;;;;;;;;;;;;;;;;;;;;;;;",
";;;;;;;;;;;;;;;;;;;;;;;;;;;;;;;;;;;;;;;;;;;;;;;;;;;;;;;;;;;;;;;;;;;;;;;;;;;;;;;;;;;;;;;;;;;;;;;;;;;;;;;;;;;;;;;;;;;;;;;;;;;;;;;;",
",,,,,,,,;;;;;;;;,,,,,,,,,,,,,,,,,,,,,,,,,,,,,,,,,,,,,,,,;;;;;;;;,,,,,,,,,,,,,,,,,,,,,,,,,,,,,,,,,,,,,,,,,,,,,,,,,,,,,,,,,,,,,,,,",
",,,,,,,,,,,,,,,,,,,,,,,,,,,,,,,,,,,,,,,,,,,,,,,,,,,,,,,,,,,,,,,,,,,,,,,,,,,,,,,,,,,,,,,,,,,,,,,,,,,,,,,,,,,,,,,,,,,,,,,,,,,,,,,,",
",,,,,,,,,,,,,,,,,,,,,,,,,,,,,,,,,,,,,,,,,,,,,,,,,,,,,,,,,,,,,,,,,,,,,,,,,,,,,,,,,,,,,,,,,,,,,,,,,,,,,,,,,,,,,,,,,,,,,,,,,,,,,,,,",
",,,,,,,,,,,,,,,,,,,,,,,,,,,,,,,,,,,,,,,,,,,,,,,,,,,,,,,,,,,,,,,,,,,,,,,,,,,,,,,,,,,,,,,,,,,,,,,,,,,,,,,,,,,,,,,,,,,,,,,,,,,,,,,,",
"''''''''''''''''''''''''''''''''''''''''''''''''''''''''''''''''''''''''''''''''''''''''''''''''''''''''''''''''''''''''''''''''",
"))))))))))))))))))))))))))))))))))))))))))))))))))))))))))))))))))))))))))))))))))))))))))))))))))))))))))))))))))))))))))))))))",
"))))))))))))))))))))))))))))))))))))))))))))))))))))))))))))))))))))))))))))))))))))))))))))))))))))))))))))))))))))))))))))))))",
"))))))))))))))))))))))))))))))))))))))))))))))))))))))))))))))))))))))))))))))))))))))))))))))))))))))))))))))))))))))))))))))))",
"!!!!!!!!!!!!!!!!!!!!!!!!!!!!!!!!!!!!!!!!!!!!!!!!!!!!!!!!!!!!!!!!!!!!!!!!!!!!!!!!!!!!!!!!!!!!!!!!!!!!!!!!!!!!!!!!!!!!!!!!!!!!!!!!",
"!!!!!!!!!!!!!!!!!!!!!!!!!!!!!!!!!!!!!!!!!!!!!!!!!!!!!!!!!!!!!!!!!!!!!!!!!!!!!!!!!!!!!!!!!!!!!!!!!!!!!!!!!!!!!!!!!!!!!!!!!!!!!!!!",
"!!!!!!!!!!!!!!!!!!!!!!!!!!!!!!!!!!!!!!!!!!!!!!!!!!!!!!!!!!!!!!!!!!!!!!!!!!!!!!!!!!!!!!!!!!!!!!!!!!!!!!!!!!!!!!!!!!!!!!!!!!!!!!!!",
"!!!!!!!!!!!!!!!!!!!!!!!!!!!!!!!!!!!!!!!!!!!!!!!!!!!!!!!!!!!!!!!!!!!!!!!!!!!!!!!!!!!!!!!!!!!!!!!!!!!!!!!!!!!!!!!!!!!!!!!!!!!!!!!!",
"~~~~~~~~~~~~~~~~~~~~~~~~~~~~~~~~~~~~~~~~~~~~~~~~!!!!!!!!!!!!!!!!~~~~~~~~~~~~~~~~~~~~~~~~~~~~~~~~~~~~~~~~!!!!!!!!!!!!!!!!~~~~~~~~",
"~~~~~~~~~~~~~~~~~~~~~~~~~~~~~~~~~~~~~~~~~~~~~~~~~~~~~~~~~~~~~~~~~~~~~~~~~~~~~~~~~~~~~~~~~~~~~~~~~~~~~~~~~~~~~~~~~~~~~~~~~~~~~~~~",
"~~~~~~~~~~~~~~~~~~~~~~~~~~~~~~~~~~~~~~~~~~~~~~~~~~~~~~~~~~~~~~~~~~~~~~~~~~~~~~~~~~~~~~~~~~~~~~~~~~~~~~~~{{{{{{{{~~~~~~~~~~~~~~~~",
"~~~~~~~~~~~~~~~~{{{{~~~~~~~~~~~~~~~~~~~~~~~~~~~~{{{{{{{{{{{{{{{{~~~~~~~~~~~~~~~~{{{{{{{{~~~~~~~~~~~~~~~~~~~~~~~~{{{{{{{{~~~~~~~~",
"{{{{{{{{{{{{{{{{{{{{{{{{{{{{{{{{{{{{{{{{{{{{{{{{{{{{{{{{{{{{{{{{{{{{{{{{{{{{{{{{{{{{{{{{{{{{{{{{{{{{{{{{{{{{{{{{{{{{{{{{{{{{{{{{",
"]]]]]]]]^^^^^^^^^^]]]]]]]]]]]]]]{{{{{{{{^^^^^^^^]]]]]]]]]]]]]]]]]]]]]]]]]]]]]]]]]]]]]]]]]]]]]]]]]]]]]]]]^^^^^^^^]]]]]]]]^^^^^^^^",
"^^^^^^^^]]]]]]]]]]]^^^^^^^^^^^^^////////]]]]]]]]^^^^^^^^^^^^^^^^^^^^^^^^^^^^^^^^]]]]]]]]^^^^^^^^^^^^^^^^^^^^^^^^^^^^^^^^]]]]]]]]",
"^^^^^^^^^^^^^^^^^^^^^^^^^^^^^^^^^^^^^^^^^^^^^^^^^^^^^^^^^^^^^^^^^^^^^^^^^^^^^^^^^^^^^^^^^^^^^^^^^^^^^^^^^^^^^^^^^^^^^^^^^^^^^^^^",
"((((((((((((((((((((((((^^^^^^^^((((((((((((((((((((((^^((((((((((((((((((((((((((((((((((((((((((((((((((((((((((((((((((((((((",
"((((((((((((((((((((((((((((((((((((((((((((((((^^((((((((((((((((((((((((((((((((((((((((((((((((((((((((((((((((((((((((((((((",
"((((((((((((((((((((((((((((((((((((((((((((((((((((((((((((((((((((((((((((((((((((((((((((((((((((((((((((((((((((((((((((((((",
"__________________((((__((((((((((((((((((((((((((((____________________((((((((________((((((((________((((((((((____((((((((((",
"________________________________________________________________________________________________________________________________",
"________________________________________________________________________________________________________________________________",
"::::::::::::::::::::::::::::::::::::::::::::::::<:::::::::::::::::::::::::::::::::::::::::::::::::::::::::::::::::::::::::::::::",
"[[[[[[[[[[[[[[[[[[[[[[[[[[[[[[[[[[[[[[[[[[[[[[[[[[[[[[[[[[[[[[[[[[[[[[[[[[[[[[[[[[[[[[[[[[[[[[[[[[[[[[[[[[[[[[[[[[[[[[[[[[[[[[[[",
"<<<<<<<<<<<<<<<<<<<<<<<<<<<<<<<<<<<<<<<<<<<<<<<<<<<<<<<<<<<<<<<<<<<<<<<<<<<<<<<<<<<<<<<<<<<<<<<<<<<<<<<<<<<<<<<<<<<<<<<<<<<<<<<<",
"<<<<<<<<<<<<<<<<}}}}}}}}<<<<<<<<}}}}}}}}<<<<<<<<}}}}}}}}}}}}}}}}}}}}}}}}<<<<<<<<<<<<<<<<}}}}}}}}}}}}}}}}}}}}}}}}<<<<<<<<}}}}}}}}",
"}}}}}}}}<<<<<<<<<<<<<<<<}}}}}}}}}}}}}}}}}}}}}}}}}}}}}}}}<<<<<<<<<<<<<<<<<<<<<<<<}}}}}}}}<<<<<<<<<<<<<<<<}}}}}}}}<<<<<<<<<<<<<<<<",
"||||||||||||||||||||||||11111111||||||||||||||||||||||||||||||||||||||||||||||||||||||||||||||||||||||||||||||||||||||||||||||||",
"||||||||||||||||||||||||||||||||22222222||||||||22222222||||||||||||||||||||||||||||||||||||||||||||||||22222222||||||||||||||||",
"2222222222222222||||||||22222222222222222222222222222222||||||||||||||||2222222222222222||||||||||||||||2222222222222222||||||||",
"22222222222222222222222222222222333333332222222233333333222222222222222222222222222222222222222222222222333333332222222222222222",
"22222222222222222222222222222222333333332222222222233222233223322222222222222222222222222222222222222222222222222222222222332223",
"33333333333333333333333333333333333333333333333333333333333333333333333333333333333333334444444433333333333333333333333333333333",
"33333333333333333333333353355335555555553333333333333333444444443333333333333333333333336666666655555555444444443333333333333333",
"66666666666666666666666666666666666666666666666666666666666666666666666666666666666666665555555566666666666666666666666666666666",
"66666666666666666666666666666666666666666666666666666666666666666666666666666666666666665555555566666666666666666666666666666666",
"66666666666666666666666666666666666666666666666666666666666666666666666666666666666666666666666666666666666666666666666666666666",
"77777777777777777777777777777777777777777777777777777777777777777777777777777777777777777777777777777777777777777777777777777777",
"77777777777777777777777777777777777777777777777777777777777777777777777777777777777777777777777777777777777777777777777777777777",
"77777777777777777777777777777777777777777777777777777777777777777777777777777777777777777777777777777777777777777777777777777777",
"88888888888888888888888888888888888888888888888888888888888888888888888888888888888888888888888888888888888888888888888888888888",
"88888888888888888888888888888888888888888888888888888888888888888888888888888888888888888888888888888888888888888888888888888888",
"88888888888888888888888888888888888888888888888888888888888888888888888888888888888888888888888888888888888888888888888888888888",
"99999999999999999999999999999999999999999999999999999999999999999999999999999999999999999999999999999999999999999999999999999999",
"99999999999999999999999999999999999999999999999999999999999999999999999999999999999999999999999999999999999999999999999999999999",
"00000000000000000000000000000000000000000000000000000000000000000000000000000000000000000000000000000000aaaaaaaa0000000000000000",
"00000000aaaaaaaaaaaaaaaaaaaaaaaaaaaaaaaaaaaaaaaaaaaaaaaaaaaaaaaaaaaaaaaaaaaaaaaaaaaaaaaaaaaaaaaaaaaaaaaaaaaaaaaaaaaaaaaa00000000",
"bbbbbbbbaaaaaaaaaaaaaaaaaaaaaaaaaaaaaaaaaaaaaaaaaaaaccccaaaaaaaaaaaaaaaaaaaaaaaaaaaaaaaaaaaaaaaaaaaaaaaaaaaaaaaabbbbbbbbaaaaaaaa",
"ccccccccccccccccccccccccccccccccccccccccccccccccaacccccccccccccccccccccccccccccccccccccccccccccccccccccccccccccccccccccccccccccc",
"aaaaaaaaaaaaaaaaaaaaaaaaaaaaaaaaccccccccccccccccaaacccccccccccccaaaaaaaaccccccccccccccccaaaaaaaaccccccccaaaaaaaaaaaaaaaaaaaaaaaa",
"ccccccccccccccccccccccccccccccccccccccccddddddddccccccccddddddddcccccccccccccccccccccccccccccccccccccccccccccccccccccccccccccccc",
"dddddddddddddddddddddddddddddddddddddddddddddddddddddddddddddddddddddddddddddddddddddddddddddddddddddddddddddddddddddddddddddddd",
"eeeeeeeeeeeeeeeeeeeeeeeeeeeeeeeeeeeeeeeeeeeeeeeeeeeeeeeeeeeeeeeeeeeeeeeeeeeeeeeeeeeeeeeeeeeeeeeeeeeeeeeeeeeeeeeeeeeeeeeeeeeeeeee",
"eeeeeeeeeeeeeeeeeeeeeeeeeeeeeeeeeeeeeeeeeeeeeeeeeeeeeeeeeeeeeeeeeeeeeeeeeeeeeeeeeeeeeeeeeeeeeeeeeeeeeeeeeeeeeeeeeeeeeeeeeeeeeeee",
"ffffffffffffffffffffffffffffffffffffffffffffffffffffffffffffffffffffffffffffffffffffffffffffffffffffffffffffffffffffffffffffffff",
"gggggggggggggggggggggggggggggggggggggggggggggggggggggggggggggggggggggggggggggggggggggggggggggggggggggggggggggggggggggggggggggggg",
"gggggggggggggggggggggggggggggggghhhhhhhhgggggggggggggggghhghhhhghhhhhhhhgggggggggggggggggggggggggggggggggggggggghhhhgggggggggggg",
"hhhhhhhhhhhhhhhhhhhhhhhhhhhhhhhhhhhhhhhhhhhhhhhhhhhhhhhhhhhhhhhhhhhhhhhhhhhhhhhhhhhhhhhhhhhhhhhhhhhhhhhhhhhhhhhhhhhhhhhhhhhhhhhh",
"hhhhhhhhhhhhhhhhhhhhhhhhhhhhhhhhhhhhhhhhhhhhhhhhhhhhhhhhhhhhhhhhhhhhhhhhhhhhhhhhhhhhhhhhhhhhhhhhhhhhhhhhhhhhhhhhhhhhhhhhhhhhhhhh",
"hhhhhhhhhhhhhhhhhhhhhhhhhhhhhhhhhhhhhhhhhhhhhhhhhhhhhhhhhhhhhhhhhhhhhhhhhhhhhhhhhhhhhhhhhhhhhhhhhhhhhhhhhhhhhhhhhhhhhhhhhhhhhhhh",
"iiiiiiiiiiiiiiiiiiiiiiiiiiiiiiiiiiiiiiiiiiiiiiiiiiiiiiiiiiiiiiiiiiiiiiiiiiiiiiiiiiiiiiiiiiiiiiiiiiiiiiiiiiiiiiiihhiiiiiiiiiiiiii",
"iiiiiiiiiiiiiiiiiiiiiiiiiiiiiiiiiiiiiiiiiiiiiiiiiiiiiiiiiiiiiiiiiiiiiiiiiiiiiiiiiiiiiiiiiiiiiiiiiiiiiiiiiiiiiiiiiiiiiiiiiiiiiiii",
"iiiiiiiiiiiiiiiiiiiiiiiiiiiiiiiiiiiiiiiiiiiiiiiiiiiiiiiiiiiiijiiiiiiiiiiiiiiiiiiiiiiiiiiiiiiiiiiiiiiiiiiiiiiiiiiiiiiiiiiiiiiiiii",
"jjjjjjjjiiiiiiiikkkkkkkkkkkkkkkkkkkkkkkkkkkkkkkkjjjjjjjjkkkkkkkkiiiiiiiikkkkkkkkkkkkkkkkiiiiiiiilllllllliiiiiiiikkkkkkkkkkkkkkkk",
"jjjjjjjjjjjjjjjjlllllllllllllllllllllllllllllllljjjjjjjjlllllllljjjjjjjjlllllllllllllllljjjjjjjjlllllllljjjjjjjjllllllllllllllll",
"mmmmmmmmmmmmmmmmnnnnnnnnnnnnnnnnnnnnnnnnnnnnnnnnmmmmmmmmnnnnnnnnmmmmmmmmnnnnnnnnnnnnnnnnmmmmmmmmnnnnnnnnmmmmmmmmnnnnnnnnnnnnnnnn",
"llllllllmmmmmmmmnnnnnnnnnnnnnnnnnnnnnnnnnnnnnnnnmmmmmmmmnnnnnnnnmmmmmmmmnnnnnnnnnnnnnnnnmmmmmmmmnnnnnnnnmmmmmmmmnnnnnnnnnnnnnnnn",
"mmmmmmmmmmmmmmmmnnnnnnnnnnnnnnnnnnnnnnnnnnnnnnnnmmmmmmmmnnnnnnnnmmmmmmmmnnnnnnnnnnnnnnnnmmmmmmmmnnnnnnnnmmmmmmmmnnnnnnnnnnnnnnnn",
"mmmmmmmmoooooooooooooooooooooooooooooooooooooooommmmmmmmoooooooooooooooooooooooooooooooooooooooommmmmmmmoooooooooooooooooooooooo",
"oooooooooooooooooooooooooooooooooooooooooooooooooooooooooooooooooooooooooooooooooooooooooooooooooooooooooooooooooooooooooooooooo",
"oooooooooooooooooooooooooooooooooooooooooooooooooooooooooooooooooooooooooooooooooooooooooooooooooooooooooooooooooooooooooooooooo",
"oooooooooooooooooooooooooooooooooooooooooooooooooooooooooooooooooooooooooooooooooooooooooooooooooooooooooooooooooooooooooooooooo",
"pppppppppppppppppppppppppppppppppppppppppppppppppppppppppppppppppppppppppppppppppppppppppppppppppppppppppppppppppppppppppppppppp",
"pppppppppppppppppppppppppppppppppppppppppppppppppppppppppppppppppppppppppppppppppppppppppppppppppppppppppppppppppppppppppppppppp",
"pppppppppppppppppppppppppppppppppppppppppppppppppppppppppppppppppppppppppppppppppppppppppppppppppppppppppppppppppppppppppppppppp",
"pppppppppppppppppppppppppppppppppppppppppppppppppppppppppppppppppppppppppppppppppppppppppppppppppppppppppppppppppppppppppppppppp",
"qqqqqqqqqqqqqqqqqqqqqqqqqqqqqqqqqqqqqqqqqqqqqqqqqqqqqqqqqqqqqqqqqqqqqqqqqqqqqqqqqqqqqqqqqqqqqqqqqqqqqqqqqqqqqqqqqqqqqqqqqqqqqqqq",
"qqqqqqqqqqqqqqqqqqqqqqqqqqqqqqqqqqqqqqqqqqqqqqqqqqqqqqqqqqqqqqqqqqqqqqqqqqqqqqqqqqqqqqqqqqqqqqqqqqqqqqqqqqqqqqqqqqqqqqqqqqqqqqqq",
"qqqqqqqqqqqqqqqqqqqqqqqqqqqqqqqqqqqqqqqqqqqqqqqqqqqqqqqqqqqqqqqqqqqqqqqqqqqqqqqqqqqqqqqqqqqqqqqqqqqqqqqqqqqqqqqqqqqqqqqqqqqqqqqq",
"rrrrrrrrrrrrrrrrrrrrrrrrrrrrrrrrrrrrrsrrrrrrrrrrssssssssrrrrrrrrrrrrrrrrssssssssrrrrrrrrrrrrrrrrrrrrrrrrrrrrrrrrsrrrrrrsrrrrrrrr",
"ssssssssssssssssssssssssssssssssssssssssssssssssssssssssssssssssssssssssssssssssssssssssssssssssssssssssssssssssssssssssssssssss",
"ssssssssssssssssssssssssssssssssssssssssssssssssssssssssssssssssssssssssssssssssssssssssssssssssssssssssssssssssssssssssssssssss",
"ssssssssssssssssssssssssssssssssstttssstssssssssttttttttssssssssssssssssttttttttssssssssssssssssttttttttsssssssssssttsssssssssss",
"ssssssssssssssssttttttttttttttttssssssssttttttttssssssssttttttttttttttttssssssssssssssssttttttttsssssssstttttttttttssttttttttttt",
"tttttttttttttttttttttttttttttttttttttttttttttttttttttttttttttttttttttttttttttttttttttttttttttttttttttttttttttttttttssttttttttttt",
"ttttttttttttttttttttttttttttttttttttttttttttttttttttttttttttttttttttttttttttttttttttttttttttttttttttttttttttttttttuuuutttttttttt",
"ttttttttttttttttttttttttttttttttttuutttuttttttttttttttttttttttttttttttttttttttttttttttttttttttttuuuuuuuutttttttttttttttttttttttt",
"ttttttttttttttttttttttttttttttttttttttttttttttttttttttttttttttttttttttttttttttttttttttttttttttttututtututtttttttuuuuuuuutttttttt",
"uuuuuuuuuuuuuuuuuuuuuuuuuuuuuuuuuuuuuuuuuuuuuuuuuuuuuuuuuuuuuuuuuuuuuuuuuuuuuuuuuuuuuuuuuuuuuuuuuuuuuuuuuuuuuuuuuuuuuuuuuuuuuuuu",
"vvvvvvvvvvvvvvvvvvvvvvvvvvvvvvvvvvvvvvvvvvvvvvvvvvvvvvvvvvvvvvvvvvvvvvvvvvvvvvvvvvvvvvvvvvvvvvvvvvvvvvvvvvvvvvvvvvvvvvvvvvvvvvvv",
"vvvvvvvvvvvvvvvvvvvvvvvvvvvvvvvvwvvwwvvwvvvvvvvvvvvvvvvvvvvvvvvvvvvvvvvvvvvvvvvvvvvvvvvvvvvvvvvvvvvvvvvvvvvvvvvvvvvvvvvvvvvvvvvv",
"xxxxxxxxxxxxxxxxxxxxxxxxxxxxxxxxxuuxxuuxxxxxxxxxwwwwwwwwxxxxxxxxxxxxxxxxxxxxxxxxxxxxxxxxwwwwwwwwxxxxxxxxxxxxxxxxxxxxxxxxuuxxxxxx",
"xxxxxxxxxxxxxxxxxxxxxxxxxxxxxxxxxxxxxxxxxxxxxxxxxxxxxxxxxxxxxxxxxxxxxxxxxxxxxxxxxxxxxxxxxxxxxxxxxxxxxxxxxxxxxxxxxxxxxxxxxxxxxxxx",
"wwwwwwwwwwwwwwwwwwwwwwwwwwwwwwwwvwwvvwwvwwwwwwwwwwwwwwwwwwwwwwwwxxxxxxxxwwwwwwwwwwwwwwwwwwwwwwwwwwwwwwwwwwwwwwwwwwwwwwwwvvwwwwww",
"wwwwwwwwwwwwwwwwwwwwwwwwwwwwwwwwwwwwwwwwwwwwwwwwwwwwwwwwwwwwwwwwwwwwwwwwwwwwwwwwwwwwwwwwwwwwwwwwwwwwwwwwwwwwwwwwwwwwwwwwwwwwwwww",
"yyyyyyyyyyyyyyyyyyyyyyyyyyyyyyyyyyyyyyyyyyyyyyyyyyyyyyyyyyyyyyyyyyyyyyyyyyyyyyyyyyyyyyyyyyyyyyyyyyyyyyyyyyyyyyyyyyyyyyyyyyyyyyyy",
"zzzzzzzzzzzzzzzzzzzzzzzzzzzzzzzzzzzzzzzzzzzzzzzzzzzzzzzzzzzzzzzzzzzzzzzzzzzzzzzzzzzzzzzzzzzzzzzzzzzzzzzzyyyyyyyyzzzzzzzzzzzzzzzz",
"zzzzzzzzzzzzzzzzzzzzzzzzzzzzzzzzzzzzzzzzzzzzzzzzzzzzzzzzzzzzzzzzzzzzzzzzzzzzzzzzzzzzzzzzzzzzzzzzzzzzzzzzzzzzzzzzzzzzzzzzzzzzzzzz",
"zzzzzzzzzzzzzzzzzzzzzzzzzzzzzzzzzzzzzzzzzzzzzzzzzzzzzzzzzzzzzzzzzzzzzzzzzzzzzzzzzzzzzzzzzzzzzzzzzzzzzzzzzzzzzzzzzzzzzzzzzzzzzzzz",
"zzzzzzzzzzzzzzzzzzzzzzzzzzzzzzzzzzzzzzzzzzzzzzzzzzzzzzzzzzzzzzzzzzzzzzzzzzzzzzzzzzzzzzzzzzzzzzzzzzzzzzzzzzzzzzzzzzzzzzzzzzzzzzzz",
"zzzzzzzzzzzzzzzzzzzzzzzzzzzzzzzzzzzzzzzzzzzzzzzzzzzzzzzzzzzzzzzzzzzzzzzzzzzzzzzzzzzzzzzzzzzzzzzzzzzzzzzzzzzzzzzzzzzzzzzzzzzzzzzz",
"zzzzzzzzzzzzzzzzzzzzzzzzzzzzzzzzzzzzzzzzzzzzzzzzzzzzzzzzzzzzzzzzzzzzzzzzzzzzzzzzzzzzzzzzzzzzzzzzzzzzzzzzzzzzzzzzzzzzzzzzzzzzzzzz",
"zzzzzzzzzzzzzzzzzzzzzzzzzzzzzzzzzzzzzzzzzzzzzzzzzzzzzzzzzzzzzzzzzzzzzzzzzzzzzzzzzzzzzzzzzzzzzzzzzzzzzzzzzzzzzzzzzzzzzzzzzzzzzzzz"};
