/* XPM */
static char *__WE1699569678[] = {
/* columns rows colors chars-per-pixel */
"128 128 68 1 ",
"  c #34201F",
". c #35201F",
"X c #331F20",
"o c #351F21",
"O c #352120",
"+ c #342021",
"@ c #362120",
"# c #372221",
"$ c #352122",
"% c #362022",
"& c #372123",
"* c #382322",
"= c #3B2323",
"- c #392423",
"; c #3C2424",
": c #3D2525",
"> c #3F2526",
", c #3E2626",
"< c #3F2727",
"1 c #402627",
"2 c #412728",
"3 c #402828",
"4 c #422829",
"5 c #43292A",
"6 c #452928",
"7 c #442A29",
"8 c #462A29",
"9 c #472B2A",
"0 c #492B2B",
"q c #482C2B",
"w c #492D2C",
"e c #4A2C2C",
"r c #4B2D2D",
"t c #4C2E2E",
"y c #4D2F2F",
"u c #4E2E2F",
"i c #4F2F30",
"p c #4E3030",
"a c #503031",
"s c #513230",
"d c #523331",
"f c #513132",
"g c #533132",
"h c #543231",
"j c #553332",
"k c #563433",
"l c #573534",
"z c #583434",
"x c #593535",
"c c #583635",
"v c #5A3636",
"b c #5B3737",
"n c #5E3738",
"m c #5C3838",
"M c #5F3839",
"N c #603A39",
"B c #60393A",
"V c #613A3B",
"C c #623A3A",
"Z c #633B3B",
"A c #623B3C",
"S c #633B3C",
"D c #633D3C",
"F c #633C3D",
"G c #643C3C",
"H c #643C3D",
"J c #653D3D",
"K c #643E3D",
/* pixels */
"JJJJJJJJJJJJJJJJJJJJJJJJJJJJJJJJJJJJJJJJJJJJJJJJJJJJJJJJJJJJJJJJJJJJJJJJJJJJJJJJJJJJJJJJJJJJJJJJJJJJJJJJJJJJJJJJJJJJJJJJJJJJJJJJ",
"JJJJJJJJJJJJJJJJJJJJJJJJJJJJJJJJJJJJJJJJJJJJJJJJJJJJJJJJJJJJJJJJJJJJJJJJJJJJJJJJJJJJJJJJJJJJJJJJJJJJJJJJJJJJJJJJJJJJJJJJJJJJJJJJ",
"JJJJJJJJJJJJJJJJJJJJJJJJJJJJJJJJJJJJJJJJJJJJJJJJJJJJJJJJJJJJJJJJJJJJJJJJJJJJJJJJJJJJJJJJJJJJJJJJJJJJJJJJJJJJJJJJJJJJJJJJJJJJJJJJ",
"JJJJJJJJDJDJKKKKJJJJJJJJJDJDKKKKKKKJKKKKJJJJJJJJJJJJJJJJJJJJJJJJDJDJDJDJJJJJJJJJJJJJJJJJKDJJDJDJJJJJJJJJJJJJJJJJJJJJJJJJJJJJJJJJ",
"JZJZJZJZZJZJSJSJJDZJZJZJZJZJJDZJGGGGGGGGDGGGGGGGGGGGGGGGZJZJSJSJJDZJZJZJZJZJJDZJJZJZJZJZJDZJZJZJZJZJJDZJZJZJSJSJZJZJZJZJZJZJZJZJ",
"ZJZJZJZJJZJZJSJSDJJZJZJZJZJZDJJZGGGGGGGGGGGGGGGGGGGGGGGGJZJZJSJSDJJZJZJZJZJZDJJZZJZJZJZJDJJZJZJZJZJZDJJZJZJZJSJSJZJZJZJZJZJZJZJZ",
"JZJZZJJZZJJZSJSJZDZDZDZDZJZJJZZJGGGGGGGGGGGGGGGGGGGGGGGGZJJZSJSJZDZDZDZDZJZJJZZJDZZDJZDZZDZDZDZDZJZJJZZJZJJZSJSJZDZDZDZDZJZJJZZJ",
"DDDDDDDDDDDDDDDDJDJDJDJDDDDDDDDDDDDDDGGGDDDDDDDDDDDDDDDDDDDDDDDDJDJDJDJDDDDDDDDDDDJDDJDJJDJDJDJDDDDDDDDDDDDDDDDDJDJDJDJDDDDDDDDD",
"JZJZJZJZJAJAHHHFFFFFFFHHAJADFFFFSJZJZJZJFFFFFFDADAJASSHFAFFFSASFFFFFFFSSAJADFFFFJZJZJZJZJZJZJZJSADAJSSHFFFFFSSHFZJZZZZZJZJZJZJZJ",
"ZJZJZJZJADFDHHFFFFFHFFHSDAJSFFFFSSJZJZJZFFFHFFFJDDFDSSFFFFFFSSHFFFFHFHSSDAJSFFFFZJZJZJZJZJZJZJZJJADASSFFFFFFSSFFZZJZZJZAJZJZJZJZ",
"ZZZZZZSAHHHHSSSSHHHHHHSSASSSSSASZZSAZZZZASSSASSSSSASSSSSSSASSSSSASSSASSSASSSSSASZZZAZZZZZZZZZZSSSSASSSSSSSASSSSSJZZZZJZZZJZJJZZJ",
"ZZZZZZSASSSASSSSSASSSASSSSSSSSSSZZZAZZZZSSSSSSSSSSSSSSSSSSSSSSSSSSSSSSSSSSSSSSSSZZZAZZZZZZZZZZAASSSSSSSSSSSSSSSSZZZZZZAZZZZZZZZZ",
"AADAAAAASSAAAASSSSSSSSSSSAAASSSSAAAAAAAASSSSAAASSSAASSAASSAAASASSSSSASSSSSSASAASAAAAAAAAAAAAAAAASSAASSAASSAASSAAZMAAAMAAAAAAZAAA",
"ZZMAMAMAAAAAAAAAAAAAAAAAAAAAAAAAAMAMAAMAAAAAAAAAAAMAAAABAAAABAAAAAAAAAAAABABAAAAAMAMAAMAZZAMAMAMAAAAAAAAAAAAAAAAZZAAAAAAMAAMZMAA",
"AAAAAAAAAAAAAAAAAAAAAAAAABMAAAAAAAMAMAMAAAAAMAAAAAAAAAAAAMAAABABAAAABABABABABABAAAAAAAAAAAAAAAAAAAMMAABAAAMMAABAAAAMAMAAAAAAAAAA",
"MAMAAAMAAAAABABAAAAABABABAAAMMAAMAAAMAAAMMAAAAMMAAMABABAAAAMAABAMMAAABABABABABABAAMAAMAMAAMAAAMAAAAAABABAAAAABABMMAAAAMMAAAAMAAM",
"MAMAAAAAAAAAAAAAMAMAAAAAAAAAAAAAAMMMAMMAAAAMDAMAMAMAAAADZDZDZDZZAAAAAAAAAMAAAAAAMMAMMMAMAMAAAAAAAAAAAAAAAAAAAAAAMMAMAMMMAAAMAAAA",
"MAMAMMMMMMMMMMMMMAAnnAnMMnnAnMMnMMAMAMMAMMAMMMMAMAMAMMMMmMMMmMMZMnnAnMMnAMMMMMMMMAMMAMAMAMMMMMMMMMnMMMMMMMnMMMMMAMAMMMAMMMAMMMMM",
"AMMMMMMAMMMAMAAMnAnAAnAnAnAnAnAnMAMAMMMMMAMMMAMAAMMMMMAMZMMMMZMMAnAnAnAnAMMMMMAAMMAAMAMMAMMMMMAAMAMAMAAMMAMAMAAMMAMMMAMAAAMMMMMA",
"AMAMMAMAMAMAMMMMAnAnnAnAnAnAnAnAMAMMMAAMMMMAMAMMAMAMMAMMZZDMZMAAnAnAnAnAMMAAAMMMAMMMMMMAMMAAAMMMMMMAMMMMMMMAMMMMMMMAMAMMMMMAAAMM",
"MMAMMAMMMMAMMMAAnAAnAnAnnAMAAAnAMMAMAMMMAMMAMMAMMMAMAMMAMMZMMMZMnAMAAAnAMAMMAMAMAMAMAMAMMAMMAMAMAAMMAMMAAAMMAMMAAMMAMMAMMMAMMMAM",
"MMMMMMMMAMAMAMMMnnBnBnBnnBnnnnnnMMMMMMMMMMMMMMMMMMMMMMMMMMMMMZMMnBnnnnnnMMMMnMnMnMnMnMMMMMMMnMnMnnMMMMMMnnMMMMMMMMMMMMMMMMMMMMMM",
"MMMMMMMMMMnMMMMMnBnBnBnBBnnBnBnBMMMMMMMMMMMMMMMMMMMMMMMMMMMMMMMnBnnBnBnBMMMMMMMMMMMMMMMMMMMMMMMMMMMMMMMMMMMMMMMMMMMMMMMMMMMMMMMM",
"MMMMMMMMMMMMMMMMBnBnBnBnnBBnBnBnMMMMMMMMMMMMMMMMMMMMMMMMMMMMMMMnnBBnBnBnMMMMMMMMMMMMMMMMMMMMMMMMMMMMMMMMMMMMMMMMMMMMMMMMMMMMMMMM",
"MMMMMMMMnnnMMMMMMMMMMnnnBnMMMMMMMMMMMMMMMMMMMMMMMMMMMMMMBBnBnBZnBnBnnnnMMMMMnnnMMMMMnnnMMMMMnnnMMMMMMMMMnnnnZnnnMMMMnnnnMMMMMMMM",
"nnnnnnnnnnnnnnnnnnnnnnnnnnnnnnnnnnnnnnnnnnnnnnnnMMnnnnnnNmnnnnnnnnnnnnnnnnnnnnnnnnnnnnnnnnnnnnnnnnnnnnnnnmnnnnnnnnnnnnnmMMnnnnnn",
"mmmmmmmmmmmmmmmmmmmmmmmmnmmmmmmmmmmmmmmmmmmmmmmmmmmmmmmmmmmmnmmmmmnmmmmmmmmmmmmmmmmmmmmmmmmmmmmmMmmmmmmmmmmmmmmmmmmmMmmmmmmmmmmm",
"mmmmmmmmmmmmmmmmmmmmmmmmmmmmmmmmmmmmmmmmmmmmmmmmmmmmmmmmmmmmxmmmmmmmmmmmmmmmmmmmmmmmmmmmmmmmmmmmmmmmmmmmmmmmmmmmmmmmmmmmmmmmmmmm",
"mmmmmmmmmmmmmmmmmmmmmmmmmmmmmmmmmmmmmmmmmmmmmmmmmmmmmmmmmmmmmmmmmmmmmmmmmmmmmmmmmmmmmmmmmmmmmmmmmmmmmmmmmmmmmmmmmmmmmmmmmmmmmmmm",
"mmxmmmmmmxmxmmxmmmmmmxmxmmxmmmmmmmxmxmmxmxmmmmxmxmmxmxmmmxmxmmxmmmxmmmxmmmxmmmxmmmxmmmxmmmxmmmxmmmxmmmmmxmmmmxmmmmxmxmmmmxmmmmxm",
"xmxmmmmxmmxmxmxmmmmxmmxmxmxmmmmxmxmxmmmmxmxmmxmxmmmmxmxmmmxmxmxmmxmmxxmmmxmmxxmmmxmmxxmmmxmmxxmmxmxmmmlmxmmmmxmxmxmmxmmmmxmxmxmm",
"xmmmxxmmxmmmxmmmxxmmxmmmxmmmxxmmmxmmmxxmmmxmmxmmmxxmmmxmxmmmxmmmmmmxmmmxmmmxmmmxmmmxmmmxmmmxmmmxxmmmxxmmmmxxmmmxmmmxmmxxmmmxmmmx",
"mmxmmmxmxmmxmmmmmxmMcMMcMMcmMcmMmmmcMmxmxmmxmmmmmmxxmmmxmmmxmmxxxmxmmmmmmmmmmmmmmmmmmmmmmmmmxmxmmmmmxmxmxmmmxmmmxxmmmxmmmxmmxmxm",
"lmxxxmxmxxmxxxxzmxxxcxxxxccxxmxxxxmxxxxmxxmxxxxxxmmmmxmmmxmmxmmmxmxmxxxxxxxxxxxxxxxxxxxxxxxxxmxmxzxmxmxxmmxmxmxmmmmxmmmxmxxmxmxx",
"mxmxxxmlmmxxmxmxmxxmcxmmmxmxxxmxxmxxxmxmmmxxxxxmxmxmxxxxmxxxxmxmmxxxxxxmxxxmxmmxxxxmxmmxxmmxmxxxmxxxmxmxmxmxxmxmxmxxxxmxxxxxmxmx",
"xxmxmxxmxxxmxxmxxxmcmxxxxxmxmxxxxxxmxmxxxxxmmmxxxmxcxmmxxxmxxmxcmxmxxmxmxmxmxxxxxmxmxxxxxxxxmxmxlmmxxxmxxzzzxxzxxxxmmxxmxmmxxxmx",
"xmmxmlmxlmmxxmxxxxxcxmccxmcmxxcmmxxxxmxxmxxmxxmxxxxxxxxxxxxxxxxxxxmxcmxxxmxxcmxmxmxxcmxmmxxmmxmxlmmxxmxxmxmmxmlmxxxxxxlxlmmxxmxx",
"zzxlxxxlxzzmxxxxxxxxxxxxxxxxxxxxxxxxxxxxlxxxxxxxxxxxxxxxxxxxxxxxxxxxxxxxxxxxxcxxxxxxxcxxxxxxccxxxzzmxxxxxxzzlxxlxxxlxxzmxzzmxxxx",
"llmlllmlzlllllzlclccccccxlccccccxxxxxxxxllllllllccccccxcxcccccccccxcccccccccccccccccccccccxxcccclllllmllllllllllllmllccczlllllzl",
"llzlllzlllccccllcccjxxllllllxllllxlxxzzzxlccccxllllllllllllllllllllllllllllxcjcccccccccccjcjjccjllllllllllllllllllzlllllllccccll",
"llllllllllllllllllllllllllllllllllllllllllllllllllllllllllllllllllcjccjccjccjccjxlccjjccxllcxjccllllllllllllllllllllllllllllllll",
"kkkkkkkkzlkkkkkkljjlljljlllllllxjljljljllljlljjlljjlljlljljljljljjljjlljljjlljljlljccccjjljjjljlllllllllkkkkkkkkkkkkkkkkzlkkkkkk",
"kkkkkkkkzkkkkkkkjljljljljljljlljljljljljljljljljlljljljlljljljljxljljljljljljljljjjljljlljljljljkkzzkkkkkkkkkkkkkkkkkkkkzkkkkkkk",
"kkkkkkkkjkkkkkkkljljljljljljljjljljljljljljljljlljljljljjljljljjjjljljljljljljljjxljljljjljljljlkkjzkkkkkkkkkkkkkkkkkkkkjkkkkkkk",
"jjjjjjjjjjjjjjjjjjjlljjjjljljjljljljljljjljlljljjljljjjjjjjjjjjjjjjjjjjjjljlljljjjjjjjjjljljjljjjjjjjjjjkkkkkkkkkkjjjjkkkkkkkkkk",
"jjjjjjjjjjjjjjjjjjjjjjjjjjjjjjjjjjjjjjjjjjjjfjjjjjjjjjjjjjjjjjjjjjjjjjjjjjjjjjjjjjjjjjjjjjjjjjjjjjjjjjjjjjjjjjjjjjjjjjjjjjjjjjjj",
"jjjjjjjjjjjjjjjjjjjjjjjjjjjjjjjjjjjjjjjjjjjjjjjjjjjjjjjjjjjjjjjjjjjjjjjjjjjjjjjjjjjjjjjjjjjjjjjjjjjjjjjjjjjjjjjjjjjjjjjjjjjjjjjj",
"jjjjjjjjjjjjjjjjjjjjjjjjjjjjjjjjjjjjjjjjjjjjjjjjjjjjjjjjjjjjjjjjjjjjjjjjjjjjjjjjjjjjjjjjjjjjjjjjjjjjjjjjjjjjjjjjjjjjjjjjjjjjjjjj",
"ffhhhhhhhhhhhhhhhhhhhhhhhhhhhhhhjhshhhhhhhhhhhhhhhhhhhhhhhhhhhhhjjdhhhhhhhhhhhhhhhhhhhhhhhhhhhhhhhhhhhhhhhhhhhhhffhhhhhhhhhhhhhh",
"dddddddddddddddddddddddddddddddddddddddddddddddddddddddddddddddddddddddddddddddddddddddddddddddddddddddddddddddddddddddddddddddd",
"ddddddddddddddddssssssssddffddddfdssssssdddfddddssssssssssssssssssssssssdddddddddddfddddssssssssssssssssssssssssddddddddssssssss",
"fdssssssdddfddddddddddddsssfssssddddddddssssssssdddddddddddfdddddddddddfddddddddssssssssdddddddfdddddddfdddddddfdddddddfdddddddd",
"ffffffffffffffffffffffffhgggahhfffffffffffffffffffffffffffffffffffffffffffffffffffffffffffffffffffffffffffffffffffffffffffffffff",
"ffffffffffffffffffffffffffggffffaaaafsaaffffffffaaaasaaafffffffffffffffffffffffffffffffffffffffffffffffffsaiaaaaffffffffffffffff",
"aaaaaafpaaaaaaaaffffffffaaaaaaaaaafaafaaaaaaaaaaaafaafaafffffffffffffffffififisiaaaaaaaaffffffffffffffffafaafaaaffaaaaaaffffffff",
"aaaaaisfaaaaaaaaaaaaaisfaaaaaaaaiuiiuiiuaaaaaaaaiuiiuiiuaaaaaaaafsifififififififaaaaaaaafsiaaaaaaisfaaafuuauuauafpaaaaaaaaaaaisf",
"aaaaaaaaaaaaaaaaaaaaaaaaaaaafpfaffaapfafafaafaafffauifafaiifpiiffiiffiiffiffiifiaaaaaaaafpfpfpfpaafpfaaapfaaaafpafpfafpfaauaaaau",
"uaauapuauaauapuauaauapuauaauupuauiiupuuiuiiupuuiuiiipuuiuiiupuiiufupufupfuupuffuapuaauapupppupppauupuaaupuuaauupuuauuuauauapuaua",
"puuapupupuuapupupuuapupuupuuuuuuuuuuuuuuupiiupupupiiupupppppppppufpuufpuuupupuuupupuuupupuptpuptuuuuuuuuppppupppauupauupuupuupau",
"upuutpupupuutpupupuutpupuupuptpppupuptptpupupuptpupupuptpupuptptuuptuuptupupupuptpupupupuuuuuuuuuupttpuuptptpuptpupupuptupuppupu",
"ptptptptptptptptptptptptptptptpttptptptpuptptptpuptptptptptptptptptptptptptppptpptptptptuuuuuuuuptptptpttptptptpuptptptptptpuptp",
"tptptptptptptptptptptptptptptptpptptptptptptptptptptptptptptptptptptptptptptutpttptptptppttptppttptptptpptptptptptptptptptptptpt",
"tttttttttttttttttttttttttttttttttttttttttttttttttttttttttttttttttttttttttttttttttttttttttttttttttttttttttttttttttttttttttttttttt",
"tttttttttttttttttttttttttttttttttttttttttttttttttttttttttttttttttttttttttttttttttttttttttttttttttttttttttttttttttttttttttttttttt",
"tttttuuutttttuuutttttttttttttttttttuuuuutttttuuuttttttttttttttttttttuttuttuttuttuuttttttttttuuttttttttttuuttttttttttuutttttttttt",
"ququqrqrququqrqrququququetetetetquqrqrqrququqrqrququququetetetettqttqutqqtqutqqtququuquqquuqququuquqquuqququuquqquuqququuquqquuq",
"uququqrruququqrruquququqteteteteuqrrrrrruququqrruquququqteteteteuqqtuquququququququqququququuquqququququuquqququququuquqququququ",
"quququrrquququrrquququqtetetetetqurrrrrrquququrrquququqtetetetetquqtquqtququququququuquququqququuquququqququuquququqququuquququq",
"qqreqqrrqqreqqrreeeeqteeeeeeqqttqqreqqrrqqreqqrreeeeqteeeeeeqqtteeeeeeteeeqqeeeeuqqequtqeeqrqrqrrqqueeeereeeqqqteeqrqrqrqqqteeee",
"rreeuqqrrreeuqqreeeeqteeeeeetqqqrreeuqrqrreeuqqreeeeqteeeeeetqqqeeeteeqqeetteeeeqqreqqqqeequeerqerqqeeeeqqeeruqqeequeerqruqqeeee",
"quqqqwquqrqqwwwqtqqtt9tqqtqq9t9tqrqqqquqqrqqwwwqtqqtt9tqqtqq9t9tqtqqqqttqqt9tqqtqtqqquqtqqqqqquqqqtqqqqqqqqqeeqqqqqqqquqqqtqqqqq",
"qqqrtqqqqqqqqqqq9qq9q99qqqqq9t9qqqqqqqqqqqqqqqqq9qq9q99qqqqq9t9qqqqqqq99qqq99qq9qqqqqqqqqqqqqqqqqqqqqqqqqqqqq9qqqqqqqqqqqtqqttqq",
"qqeeeqeeqqqqqqqq9qqqqqqqqqqqqqqqqqqqqqqq9qqqqq9q9qqq999999qqqq99qqqqqqqqqqqqqqqq99qqqqqqqqqqqqqqqe9q9qqqqqqqqqqqeeeeeeqqqqqqqqqq",
"qq9966e6999999999999999999999999qq99999999999999qqq9999999999999999999999q9999999999999999999999qe9999999999999969696qq9qq999999",
"qqqqqq9qqqq9qqqqqqqqqqqqqq99qqqqe999999999999999qqq9999999999999qqqqqq999999999999999999qqqqqq9q99999999qqqqqq99qqqqqq9qqqqqqqqq",
"e6q999999999999999999999999999996q9999998888988899999999696999969999999999999999999999999999999999999999999999999999999999999999",
"88886696888888888888969669669696888866968888888888889696696696699969696996969969696996969969969669969696996969696696969669696696",
"77776975777777777777597577977777777769757777777777775975779777957777775677775677777777775677657756777777777777779765777777779765",
"77777777777777777777777777777757777777777777777777777777777977957777777777777777777777777777569567777777777777777777777777777777",
"66666666666666666666666666666669666666666666666666666666666661596666666666666666666666666666692966666666666666666666666666666666",
"55555555555555555555555555555555555555555555555555555555555555555555555555555555555555555555555555555555555555555555555555555555",
"55555555555555555555555555555555775<255255555555295555552552522577255225555555555555555529555555555555555555555557<7555555555555",
"2577525252525252252525252525525225255252525252522525252552522525<252525225252525252525255252252525252525252525252525252525252525",
"525<2525252525255252525252522525525225252525252552525252252552522525252552525252525252522525525252525252525252525252525252525252",
"25525252252555255255252525525252255252522525552525255222525252252525525225255252525225255252252225252525252525252525252552522525",
"1<2222222222122122122222212222221<2222222222122122222222222222222222<22222222222222222222222222222222222222222225222222222222222",
"2222222222222222222222222222222222222222222222222222222222222222222222222222222222222222222222222222222222222222<222222222222222",
"22222222222222222222222222222222222222222222222222222222222222222222222222222222222222222222222222222222222222222222222222222222",
"11111111221222221125<<115111<5115111<5215<1115<<211111112<212<222222222222<51222<5<<112<2222222211<<<<<<22222222<221<211<522<5<<",
"1111111111;<11111;1<<<<1<<<<<<11<<<<<11;<<<<<<<<2;111112<<<<<<<22<111;11<<<<1;<<<<<<11<<2<111;11<<<1<<<<2;11112;<<<1<<<1<<11<<<<",
"<;;<<<<;<<<<;<<<1111<111<;11<<;1<;11<<11<1;11;<<<<;<;<;;<;11<;1;;<<<<<;<11<;11111;<<;1;1;<<<<<;<<11111;1<<;<<<<<<<;1<<11<;1;1;<<",
"<1<<<<<<<<=<<<;<1;11<;;1;<1;1;11;<1;1;11<;11111;;<<<1<<<111;1111<<;<;<<<;1;<1;1;111;1111<<;<;<<<;1;11;11;<<<;1;<1;111;;1;<11111;",
"<;<<<;<<;<;<<<<<11;1111111111111111111;111111111<<;;;<<<;11;;;1;<;<<;<<;11111;111;11;111<;<<;<<;11;1;111<;<<<<<1111111111111111;",
"<<<;<<<;;<;<=;;=<;;;;;;;;;;;;<=;;;;;<;;;;;;;=;;=;<<<<<;2;<;;<=;<<;;<;;<;;;;<;;<;;;<;;;;;<;;<;;<;;;1<1;;;<;;;;;;;;;;;;<;;;;;<;;;;",
"=<=<;;<;<;;;<;<;<;;;;<<;;;;<;;<;;;;<<;;;;<<;;;;<;<;<;;;;<;1;=<=<;;;;<<;;;;;;1<;;1<;;;;<<;;;;<<;;;<;<;1;1<;;;;<;<;<;;;;<;;;;;<;1;",
"<=<=<;;;<;<;;;<;;;<<;;;;<<;;<;;;<<;;;;<<;;;;<<;;;<;;;<<;;;<;<=<=;<<;;;;<;1<;;;;<;;;<1;;;;<<;;;;<;;;<;;;;;;<<;;;<;;;<<;;;<;<;;;<;",
"=<<;<<=<<;<<=<<;<<=<<;<<=<<;<<=<<=<<=<<<=<<=<=<<=<<<=<<=<=<<=<<<;<;<;<;<;<;<;<;<;<;<;<;<;<;<;<;<<;;<;;<;<;;<;;<;;<;;<;;<;;<;;<;;",
"==;;====;;====;;====;;====;;=====<===========<===========<=======;=;=;=;=;=;=;=;=;=;=;=;=;=;=;=;;;;;;;;;;;;;;;;;;;;;;;;;;;;;;;;;",
"=;;;;;=;;;;;=;;;;;=;;;;;=;;;;;=;==========<===========<=========;;;;;;;;;;;;;;;;;;;;;;;;;;;;;;;;;;;;;;;;;;;;;;;;;;;;;;;;;;;;;;;;",
";;;;;;;;;;;;;;;;;;;;;;;;;;;;;;;;=<=<=<=<=<===<=<=<=<=<===<=<=<=<;;;;;;;;;;;;;;;;;;;;;;;;;;;;;;;;;;;;;;;;;;;;;;;;;;;;;;;;;;;;;;;;",
";;;;;;;;;;;;==<-;;;;;;;;;;;;;;;;<======<<===<======<<===<======<;;;;;;;;;;;;;;;;;;;;;;;;;;;;;;;;;;;;;;;;;;;;;;;;;;;;;;;;;;;;;;;;",
"====================================================================================================;===========================",
"==============================================================================================================;=================",
"=======================================-=======================-===============-===============-==============;-================",
"=-----------------------=------------*----------=*******----------------********----------------==#-------------*------*==------",
"#--#-##-#--#-##--#-#-#-#-#-##--#****************#***************#=**************#=**************=#**#--#-##-#--#*********#******",
"#-#-#-#-#-#-#-#-#-#-#-#-#-#-#-#-********************************************************************-##--#-#-#-#****************",
"-#-#-#-#-#-#-#-#-#-#-#-#-#-#-#-#**##***#******-&*******************************************-****#########-#-#-#-***##***********",
"#-#-#-#-#-#-#-#-##################*****#########********################****************########**##**#############*############",
"###################################################################################################################*############",
"################################################################################################################################",
"############################################################################################### ### ### ########################",
"&&&&&&&&&&&&&&&&#&&&&&&&&&&&&&&&&&&&&&&&&&&&&&&&###*#=#=&&&&&&&&#-= -* .=#&&&&&&&&&&&&&&#######=&&o&&&&o&&&&&&&&Xo&o&o&o&&&&&&&&",
"o&o&o&o&o&o&o&o&o&&oo&&oo&o&&oo&X&&oo&X&&oo&X&&o #      &o&o&o&o       -o#o#o&&oo&&oo&o&## $#  #oo&&oo&&o&o&o&o&#oo&o&o&o&o&&oo&",
"$$$$$$$$$$$$$$$$$$#$$$$$$$$$$$$$&$$$&$$$$$&$$$$$#  # # #$$$$$$$$# #  *  &$$$$$$$$$$$$$$$ ##  # =$$$$$$$$$$$$$$$$$$&$$$$$$$$$$$$$",
"$$$$$$$&$$$$$$$&$$$$$$$&$$$$$$$$X$$$$$$X$$$$$$$& ## # # $$$$$$$& # # * =$$$$$$$$$$$&$$$$#  $#   $$$$$$$&$$$$$$$&$$$$$$$&$$$$$$$$",
"XoooooooXoooooooXoooooooooooXoooo&ooo#ooXooooooo        Xooooooo  ......ooooXooooooooooo        XoooooooXoooooooXoooooooo&ooXooo",
"oooooooooooooooooooooooooooooooooooooooXoooooooo        oooooXoo  ......oooXoooooooooooo        oooooooooooooXoooooooooooooooooo",
"$X$X$X$X$X$X$X$XXX$X$X$X$X$X$X$X$XX$#X$$$X$X$X$X      X$X$o$X$X$ .......o$X$X$o$$X$X$X$X        $X$X$X$X$X$X$X$X$X$X$X$X&$$X$X$X",
"X$X$X$X$X$X$X$X$o$X$X$X$X$X$X$X$$X$&XXX$X$X$X$X$       X$X$X$X$X        $X$X$X$XX$X$X$X$        X$X$X$X$X$X$X$X$X$X$X$X$X$X$X$X$",
"$X$X$X$X$X$X$X$XX$X$X$X$$X$X$X$X$X$X$X$XX$X$X$X$#$$X$X$XX$X$X$X$$X$X$X$XX$X$X$X$$X$X$X$XX$X$X$X$$X$X$X$X$X$X$X$XX$X$X$X$$X$X$X$X",
"XXXXXXXXXXXXXXXXXXXXXXXXXXXXXXXXXXXXXXXXXXXXXXXXXXXXXXXXXXXXXXXXXXXXXXXXXXXXXXXXXXXXXXXXXXXXXXXXXXXXXXXXX$X$X$X$XXXXXXXXXXXXXXXX",
"XXXXXXXXXXXXXXXXXXXXXXXXXXXXXXXXXXXXXXXXXXXXXXXXXXXXXXXXXXXXXXXXXXXXXXXXXXXXXXXXXXXXXXXXXXXXXXXXXXXXXXXXXXXXXXXXXXXXXXXXXXXXXXXX",
"XXXXXXXXXXXXXXXXXXXXXXXXXXXXXXXXXXXXXXXXXXXXXXXXXXXXXXXXXXXXXXXXXXXXXXXXXXXXXXXXXXXXXXXXXXXXXXXXXXXXXXXXXXXXXXXXXXXXXXXXXXXXXXXX",
"XXXXXXXXXXXXXXXXXXXXXXXXXXXXXXXXXXXXXXXXXXXXXXXXXXXXXXXXXXXXXXXXXXXXXXXXXXXXXXXXXXXXXXXXXXXXXXXXXXXXXXXXXXXXXXXXXXXXXXXXXXXXXXXX",
"XXXXXXXXXXXXXXXXXXXXXXXXXXXXXXXXXXXXXXXXXXXXXXXXXXXXXXXXXXXXXXXXXXXXXXXXXXXXXXXXXXXXXXXXXXXXXXXXXXXXXXXXXXXXXXXXXXXXXXXXXXXXXXXX",
"XXXXXXXXXXXXXXXXXXXXXXXXXXXXXXXXXXXXXXXXXXXXXXXXXXXXXXXXXXXXXXXXXXXXXXXXXXXXXXXXXXXXXXXXXXXXXXXXXXXXXXXXXXXXXXXXXXXXXXXXXXXXXXXX",
"XXXXXXXXXXXXXXXXXXXXXXXXXXXXXXXXXXXXXXXXXXXXXXXXXXXXXXXXXXXXXXXXXXXXXXXXXXXXXXXXXXXXXXXXXXXXXXXXXXXXXXXXXXXXXXXXXXXXXXXXXXXXXXXX"
};
