/* XPM */
static char *__EA1699569678[] = {
/* columns rows colors chars-per-pixel */
"128 128 29 1 ",
"  c #0D0E13",
". c #0D0D15",
"X c #0C0F14",
"o c #0C0F16",
"O c #0E0E16",
"+ c #0D1017",
"@ c #0E1118",
"# c #0F1219",
"$ c #0F121B",
"% c #0F131C",
"& c #10131A",
"* c #10131C",
"= c #10141D",
"- c #11141D",
"; c #11151E",
": c #12151E",
"> c #12161F",
", c #131720",
"< c #121621",
"1 c #131722",
"2 c #141823",
"3 c #151924",
"4 c #161A25",
"5 c #151B27",
"6 c #161A26",
"7 c #171B26",
"8 c #171B27",
"9 c #181C27",
"0 c #181C28",
/* pixels */
"00000000000000000000000000000000000000000000000000000000000000000000000000000000000000000000000000000000000000000000000000000000",
"00000000000000000000000000000000000000000000000000000000000000000000000000000000000000000000000000000000000000000000000000000000",
"00000000000000000000000000000000000000000000000000000000000000000000000000000000000000000000000000000000000000000000000000000000",
"00000000000000000000000000000000000000000000000000000000000000000000000000000000000000000000000000000000000000000000000000000000",
"00000000000000000000000000000000000000000000000000000000000000000000000000000000000000000000000000000000000000000000000000000000",
"00000000000000000000000000000000000000000000000000000000000000000000000000000000000000000000000000000000000000000000000000000000",
"00000000000000000000000000000000000000000000000000000000000000000000000000000000000000500000000000000000000000000000000000000000",
"99999999999999999999999999999999999999999999999999999999999999999999999999999999999990779999999999999999999990579999999999999999",
"88888888888888888888888888888888888888888888888888888888888888888888888888888888888888888888888890988888888888888888888875888888",
"88888888888888888888888888888888888888888888888888888888888888888888888888888888888888888888888875888888888888888888888890888888",
"88888855888888558888888888888888885588888888888888888888888888558888888888888888888888888888880888888855888888888888888888888888",
"88888905888889058888888888888888905788888888888888888888888889058888888888888888888888888888885588888905888888888888888888888888",
"88555555885555555555555555558555555555555555555588555555555555555555555555558555555555558555555588555555885555555555555555558555",
"55555557555555575555885555578555575555555555885555555555555555575555885555578555885555578555555555555557555555555555885555578555",
"88888777888887778888880575778888778888888888987788888888888887778888885575778888885575778888777788888777888888888888885575778888",
"88888377888883778888889577388888773888888888057788888888888883773888899777388888899777388888777788888377888888883888899777388888",
"77777777777777778883777777777777777777777777777777777777777777777777777777777777777777777777777777777777777777777777777777777777",
"77777777777777778877777777777777737777777777777777777773777777777777777777777777777777777777777777777777777777737777777777777777",
"77837783777777837777777777777777887773737977973877777788777777777373777777777777737377777777783377837783777777887777777777777777",
"88838883737373827373383337377373388388883373373373737333777777388888838833828337888883882883888888838883737373338388288383383733",
"38388838888238888838823882388882883838877888388888833888888538883887888838888238388788888838388738388838888338888278888883387828",
"38337338838888288388888888888388733838338887383883888838828388283833233288288888383323327338383338337338838888383837327388888858",
"37833737332837373337238728373328373783373833338883333733383337378337378337332837833737833737833737833737833337373373873733378333",
"73737373783373733873833333737833737373733337833333837378333873737373737373783373737373737373737373737373338373738337337383733383",
"37373737373737373737373783373737373737373737373737373737373737373737373737373737373737373737373737373737373737373737373733373737",
"73737373737373737373737373737373737373737373737373737373737373737373737373737373737373737373737373737373737373737373737338737373",
"37373737373737373737373737373737373737373737373737373737373737373737373737373737373737373737373737373737373737373737373737373737",
"73737373737373737373737373737373737373737373737373737373737373737373737373737373737373737373737373737373737373737373737373737373",
"73733737373773733737373773733737373773733737373773733737373738383737373737373737373737373737373773733737373773733737373773733737",
"33333333333333333333333333333333333333333333333333333333333333333333333333333333333333333333333333333333333333333333333333333333",
"33333333333333333333333333333333333333333333333333333333333333333333333333333333333333333333333333333333333333333333333333333333",
"33333333333333333333333333333333333333333333333333333333333333333333333333333333333333333333333333333333333333333333333333333333",
"33333333333333333333333333333333333333333333333333333333333333333333333333333333333333333333333333333333333333333333333333333333",
"33333333333333333333333333333333333333333333333333333333333333333333333333333333333333333333333333333333333333333333333333333333",
"33333333333333333333333333333333333333333333333333333333333333333333333333333333333333333333333333333333333333333333333333333333",
"33333333333333333333333333333333333333333333333333323333333333333333333333333333333333333333333333333333222222223333333333333333",
"33333333333333333333333233333333333333333333333322222222222222222222222222222222222222223333333333333333333333332222222233333333",
"22222222222222222222222222222222222222222222222222222222222222222222222222222222222222222222222222223222333333332222222222222222",
"22222222222222222222222222222222222222222222222222222222222222222222222222222222222222222222222222222222222222222222222222222222",
"22222222222222222222222222222222222222222222222222222222222222222222222222222222222222222222222222222222222222222222222222222222",
"22222222222222222222222222222222222222222222222222222222222222222222222222222222222222222222222222222222222222222222222222222222",
"22222222222222222222222222222222222222222222222222222222222222222222222222222222222222222222222222222222222222222222222222222222",
"22222222222222222222222222222222222222222222222222222222222222222222222222222222222222222222222222222222222222222222222222222222",
"22222222222222222222222222222222222222222222222222222222222222222222222222222222222222222222222222222222222222222222222222222222",
"22222222222222222222222222222222222222222222222222222222222222222222222222222222222222222222222222222222222222222222222222222222",
"<22<2<<22<2<222><22<<2<22<<2<22<<22<2<<22<2<222<<22<<2<22<<2<22<<2<22<<2<22<<2<2<2<22<<2<22<<2<2>2<2<2<2<2<2<2<22<<2<22<<2<22<<2",
"<2<2<2<2<2<2<2<22<2<2<2<2<2<2<2><2<2<2<2<2<2<2<22<2<2<2<2<2<2<2>2<2<2<2<2<2<2<2<2<2<2<2<2<2<2<2<2<2<2<2<2<2<2<2<2<2<2<2<2<2<2<2<",
"2<2<2<2<2<2<2<2<<2<2<2<2<2<2<2<22<2<2<2<2<2<2<2<<2<2<2<2<2<2<2<2<2<2<2<2<2<2<2<2<2<2<2<2<2<2<2<2<2<2<2<2<2<2<2<2<2<2<2<2<2<2<2<2",
"<2222<2<22>2>2222>>222<232>2>222<2222<2<22>2>2222>>222<232>2>2222<2<>22<2<22>2<23>32<22>2<2<>22<2<23<22>2<23<2>22<2<>22<2<22>2<2",
"2<>2>2<2>3222<>2<2222>2<>3222<>22<>2>2<2>3222<>2<2222>2<>3222<>2<2<233>2<2>32<2<>32>2<33<2<233>2<2>32>23<2>32<22<2<233>2<2>32<2<",
">2>33>>>>33>>2>3>>>>>>>>3>>3>2>3>2>33>>>>33>>2>3>>>>>>>>3>>3>2>3>>>>>>>>>>>3>>>>>33>>3>>>>>>>>>>>>>>>>>3>>>>>>3>>>>>>>>>>>>3>>>>",
">>>>>>>2>>>>>>>>>2>33>2>>>>>>>>>>>>>>>>2>>>>>>>>>2>33>2>>>>>>>>>3>>33>>3>3>>>>3>>>>>>>>>3>>33>>3>3>>3>>>>3>>3>>>3>>33>>3>3>>>>3>",
">2>>>>>3>>2>>2>>>>2>>>>>>2>>>>2>>2>>>>>3>>2>>2>>>>2>>>>>>2>>>>2>>>>3>>>>>3>>3>>>>3>>>3>>>>>3>>>>>>>3>>3>>>>3>>2>>>>3>>>>>3>>3>>>",
">>>>>>>>>>>>>>>>>>>>>>>>>>>>>>>>>>>>>>>>>>>>>>>>>>>>>>>>>>>>>>>>>>>>>>>>>>>>>>>>>>>>>>>>>>>>>>>>>>>>>>>>>>>>>>>>>>>>>>>>>>>>>>>>",
"2><<<<>2<<<<2><<2><<<<3><<<<2><<2><<<<>2<<<<2><<2><<<<3><<<<2><<3<<<2<<<><<<<<3><<<<><<<3<<<2<<<<<>2<<<<<<>2<<<<3<<<2<<<><<<<<3>",
"<<<<<>2><<<<<<<<<<<<<<>2<<<<<<<<<<<<<>2><<<<<<<<<<<<<<>2<<<<<<<<>><<><<<<<<<<<>2<<<<<<<<>><<><<<<<<><<<<<<<><<<<>><<><<<<<<<<<>2",
">>>>>>>>>>>>>>>>>>>>>>>>>>>>>>>>>>>>>>>>>>>>>>>>>>>>>>>><<<<<<<<>>>>>>>>>>>>>>>>>>>>>>>>>>>>>>>>>>>>>>>>><<<<<<<>>>>>>>>>>>>>>>>",
">>>>>>>>>>>>>>>>>>>>>>>>>>>>>>>>>>>>>>>>>>>>>>>>>>>>>>>>>>>>>>>>>>>>>>>>>>>>>>>>>>>>>>>>>>>>>>>>>>>>>>>>>>>>>>>>>>>>>>>>>>>>>>>>",
">>>>>>>>>>>>>>>>>>>>>>>>>>>>>>>>>>>>>>>>>>>>>>>>>>>>>>>>>>>>>>>>>>>>>>>>>>>>>>>>>>>>>>>>>>>>>>>>>>>>>>>>>>>>>>>>>>>>>>>>>>>>>>>>",
">>>>>>>>>>>>>>>>>>>>>>>>>>>>>>>>>>>>>>>>>>>>>>>>>>>>>>>>>>>>>>>>>>>>>>>>>>>>>>>>>>>>>>>>>>>>>>>>>>>>>>>>>>>>>>>>>>>>>>>>>>>>>>>>",
">>>>>>>>>>>>>>>>>>>>>>>>>>>>>>>>>>>>>>>>>>>>>>>>>>>>>>>>>>>>>>>>>>>>>>>>>>>>>>>>>>>>>>>>>>>>>>>>>>>>>>>>>>>>>>>>>>>>>>>>>>>>>>>>",
">%>>>%>>>%>>>%>>%>>%%>>%%>>%%>>%>%>>>%>>>%>>>%>>%>>%%>>%%>>%%>>%%>%>%>>>>%>>>>%>>%>%>>%>>>>%>%>%>>%>>>>%%>>>>%>>%>%>%>>>>%>>>>%>",
">>%%>>%%>>%%>>%%>>>>>>>>>>>>>>>>>>%%>>%%>>%%>>%%>>>>>>>>>>>>>>>>>%>>%>>>>%>%>%>>>>%>%>%>>>>%>>%>%>%>>>>%%>>>>%>%>%>>%>>>>%>%>%>>",
"%>>>%>>>%>>>%>>>>%%>>%%>>%%>>%%>%>>>%>>>%>>>%>>>>%%>>%%>>%%>>%%>>>>%>>%%>>>%>>>%%>>>%>>>%%>>%>>>%>>>%%>>>>%%>>>%>>>%>>%%>>>%>>>%",
">**>*>>>*>>>>>>*>**>*>>>*>>>>>>*>**>*>>>*>>>>>>*>**>*>>>*>>>>>>*%%>>>*>>>*>>*%>>*>>>*>>*>>>%>>**>>*>>>*>*>>>*>>*>>>%>>**>>%>>>%>",
">>>>>>**>>****>>>>>>>>**>>****>>>>>>>>**>>****>>>>>>>>**>>****>>>>>%>*>*>>*>>>>%>>*>*>>*>*>>*>>>>*>>*>%>>>*>*>>*>*>>*>>>>*>>%>%>",
"%>>*>*>>>%>>>>*>%>>*>*>>>%>>>>*>%>>*>*>>>%>>>>*>%>>*>*>>>%>>>>*>>*>%>>>>%*>>>>>%>*>*>>>>*>%>*>>>>>**>*>>>*>*>>>>*>%>*>>>>>*%>%>>",
"*>>*>>::>>*>>*>,*>>*>>::>>*>>*>,*>>*>>::>>*>>*>,*>>*>>::>>*>>*>,>>>>:*>:>>>***>>>*>>>**>>>*>>>*>*>>>>>>*>*>>>**>>>*>>>*>*>>>>>>%",
"**>**>***>**>*****>**>***>**>*****>**>***>**>*****>**>***>**>***&*>**>***>>***>***>>>*****>**>*****>*>****>>>*****>**>***:*:%>**",
">*>**>*>***>**>*>*>**>*>***>**>*>*>**>*>***>**>*>*>**>*>***>**>*&>****>*****>*>*>*****>>*>****>*>>*****>>*****>>*>****>*:*:****>",
"*>****>****>*>*>*>****>****>*>*>*>****>****>*>*>*>****>****>*>*>**>>>>**:**>*>**>****>****>>>>****>****>>****>****>>>>***:*:***>",
"***>>***>>**%>*%***>>***>>**%>*%***>>***>>**%>*%***>>***>>**%>*%>******>*>*>***>**>>**>%>******>*>**>>****>>**>%>******>:*:*>>**",
">*%%>>%%%>%%%>>%>*%>%%%>%%>>%%>%>*%>%%%>%>%%%>>%>*%>%%%>*<%*<%>%%>>%>%%%*>%>%%%>*>%%%>>%%>>%>*****>%%>%%%%>%%>%%%>>%%>>***%>%%%>",
">*>*%%%>%>%>%%%%>*%>%>%%>*%%%>%%>*%>%>%%%>%>%%%%>*%>%>%%**%*>%**%%%%%%>>**%>%>%%%>%>%%%%%%%%%*>>>*>*%>%>>%>%%>%>%%%%%*%**>%>%>%%",
"%*>***%>**>*>**>%%**>*>%>***%*>>%%**>*>%**>*>**>%%**>*>%%%%%%%%%>%*>%>**>*>*>*>%**>*>**>>%*>%>**%>%%**>*%>%%**>*>%*>>%*>*>**>*>%",
"%*%%**%%*%%*%%***>>***>***>*>****>>***>**%%*%%***>>***>*****%%**>**>**>*$*$%$**%****%%**>**>**:*%*******%********%***%******%**%",
"********************%***************%***************%***********$***********%***>*****>&%*********>***>***>***>*****>*****>&%***",
"********************************************************************************&&*****&**********&&**&&**&&**&&****&&*****&****",
"&&&&&&*&&&&&&&&&&&&&&&&&&&&&&&&&&&&&&&&&********&&&&&&&&********&&&&&&&&&&&&&&&&&&&&*#&&&#*###***##&*##&*##&*##&&&*#&&&&*#&&&#*#",
"&&&&&&&&&&&&&&&&&&&&&&&&&&&&&&&&&&&&&&&&&&&&&&&&&&&&&&&&&&&&&&&&&&&&&&&&&&&&&&&&&&&##*&&&#*#*##*#*&&#*&&#*&&#*&&&##*&&&##*&&&#*#",
"%%%%%%%%%%%%%%%%%%%%%%%%%%%%%%%%%%%%%%%%%%%%%%%%%%%%%%%%%%%%%%%%%%%%%%%%%%%%%%%%%%%%%%%%%%%%%%%%%%%%%%%%%%%%%%%%&%%%%%%%%%%%%%%%",
"%%%%%%%%%%%%%%%%%%%%%%%%%%%%%%%%%%%%%%%%%%%%%%%%%%%%%%%%%%%%%%%%%%%%%%%%%%%%%%%%%%%%%%%%%%%%%%%%%%%%%%%%%%%%%%%%&>%%%%%%%%%%%%%%",
"*******&***********&***********&*******&%%%%%%%%***************************&************%%$$%%%%%%%%%%%%**********%%************",
"$$$%$$$$$$$$$$$$$$$$$$$$$$$$$$$$$$%%$$$$$$$$$$$$$$$$$$$$$$$$$$$$$$$$$$$$$$$$$$$$$$$$$$$$$$$$$$$$$$$$$$$$$$$$$$$$%%%%$$$$$$$$$$$$",
"$$$$$$$$$$$$$$$$$$$$$$$$$$$$$$$$$$$$$$$$$$$$$$$$**$$$$**$$**$$**$$$$$$$$$$$$$$$$$$$$$$$$$$$$$$$$$$$$$$$$$$$$$$$$+*$$$$$$$$$*$$$$",
"$$$&$$$&$$$&$$$$$$$$$$$$$$$&$$$&$$$&$$$&$$$&$$$$*o$$$$*o$$*o$$*o$$$$$$$$$&$$$$$&$$$&$$$$$&$$$$$&$$$$**$$$$$$**$$$***$$**$$$*$$$$",
"$&##$###$+####$$$$$$$$$$$&##$###$&##$###$+####$$&&&&o*&&o&o&o&o&$$$$$$$$####$+##$+####$$####$+####+#######+#####+###+###+#####+#",
"$+##+&###&####&+$$$$$$$&$+##+&##$+##+&###&####&+&o&o&&&o*&&&*&&&$$$$$$$$#####&###&####&+#####&##################################",
"###########################&###&###&###&########&&o&o&&&&&&&&&&&$&##############################################################",
"##########&&####&&####&&###&###&###&###&##&&####&&&&&&&&&o&&&o&&$+##&&######&&######&&######&&##################################",
"##&&##&&++#+#+++#+#+++#+++#+++#+++#+++#+++#+#+++&o&ooo&ooo&ooo&o#+++#+#+#+++#+#+#+++#+#+#+++#+#+#####*##+#+#+#+#+#+#+#+#+#+#+#+#",
"+++#+++#+#+#+#+#+#+#+#+#+#+#+#+#+#+#+#+#+#+#+#+#o&o&o&o&o&o&o&o&+#+#+#+#+#+#+#+#+#+#+#+#+#+#+#+#+#+#++#+#+#+#+#+#+#+#+#+#+#+#+#+",
"#+#+#+#+#+#+#+#+#+#+#+#+#+#+#+#+#+#+#+#+#+#+#+#+&o&o&o&o&o&o&o&o#+#+#+#+#+#+#+#+#+#+#+#+#+#+#+#+#+#+#+#++#+#+#+#+#+#+#+#+#+#+#+#",
"+#+#+#+#+#+#+#+#+#+#+#+#+#+#+#+#+#+#+#+#+#+#+#+#o&o&o&o&o&o&o&o&+#+#+#+#+#+#+#+#+#+#+#+#+#+#+#+#+#+#+#+##+#+#+#+#+#+#+#+#+#+#+#+",
"#+#+#+#+#+#+#+#+#+#+#+#+#+#+#+#+#+#+#+#+#+#+#+#+&o&o&o&o&o&o&o&o#+#+#+#+#+#+#+#+#+#+#+#+#+#+#+#+#+#+#+#++#+#+#+#+#+#+#+#+#+#+#+#",
"+#+#+#+#+#+#+#+#+#+#+#+#+#+#+#+#+#+#+#+#+#+#+#+#o&o&o&o&o&o&o&o&+#+#+#+#+#+#+#+#+#+#+#+#+#+#+#+#+#+#+#+##+#+#+#+#+#+#+#+#+#+#+#+",
"#+#+#+#+++$+$++#+#+#+#+#+#+#+#+#&o&o&o&o&o&o&o&o&o&o&o&o&o&o&o&o&+++&+++&+++&++++#+#+#+#+#++++++#+#+#+#++&+++&&+++&++&+++&&+++&+",
"+#+#+#+#+$++#+#+#+#+#+#+#+#+#+#+o&o&o&o&o&o&o&o&o&o&o&o&o&o&o&o&++&&++&&++&&++&+#+#+#+#+#+#*+$+$+#+#+#+#+&+&++++&+&++&+&++++&+&+",
"#+#++##+++$$+#+##++#+##++#+##++#&o&*&&ooo&&o&o&&&&ooo&&o&o&&&&oo+&+++&+++&+++&+$+#+#+#+#+#++$+$+#+#++##++++$&++&+&++++&+&++&+&++",
"++++++++$oXo++++++++++++++++++++ooooooo&oo&oooooooo&oo&oooooooo&++++++++++++++++++++++++++++++X$++++++++++++++++++++++++++++++++",
"++++++++o$XXX$$o++++++++++++++++ooooo&o&o&ooo&ooo&o&ooo&ooooo&o&++++++++++++++++++++++++++++$Xoo++++++++++++++++++++++++++++++++",
"++++++++X$o$ooXX++++++++++++++++&o&ooooooo&ooo&ooooo&ooo&o&ooooo++++++++++++++++++++++++++++oX$X++++++++++++++++++++++++++++++++",
"++++++++Xo$o$Xo$++++++++++++++++ooo&o&ooooooooooo&ooo&o&ooo&o&oo++++++++++++++++++++++++++++o$X$++++++++++++++++++++++++++++++++",
"++++++++$oXX$oX$++++++++++++++++&ooooo&o&o&o&o&ooo&ooooo&ooooo&o++++++++++++++++++++++++++++X$oo++++++++++++++++++++++++++++++++",
"++++Xo$$XXo$$Xoo++++++++++++++++ooooo&oooXX$$oooooo&ooooooo&oooo++++++++O+++++++++++++++$O$$Xo$X++++++++++++$O++oXX$X$$o++++++++",
"++++$oXoo$oXoX$X++++++++++++++++&o&ooo&o$$ooOo$$&ooo&o&o&ooo&o&o++++++++$o++++++++++++++ooXXX$oX++++++++++++oo++$$ooooXX++++++++",
"++++$XoX$o$Xo$X$++++++++++++++++ooooooooXo$X$Xooo&o&ooo&o&o&ooo&++++++++$OO$++++++++++++o$oooo$$++++++++++++$OooXo$X$Xo$++++++++",
"++++oX$$XX$oX$oo++++++++++++++++%ooo&o&oX$oX$Xoooooo&ooooooo&ooo++++++++oooo++++++++++++o$oo$XXo++++++++++++oo$oX$oX$oX$++++++++",
"++oooooooooooooooooooooooooo++ +ooooooXOXoooooooooooooooooooooooooOO+XXXoooooooooooo++ +oooooooo++ooooooooooooooXoooOOXoooOO+XXX",
"+Ooooooooooooooooooooooooooo++XXooooooX.ooooooooooooooooooooooooooXOO+oXoooooooooooo+++ oooooooo++XXooooooooooooooooOOoooXOOO+oo",
"XXooooooooooooooooooooooooooooXXOOOOOOo$ooooooooooooooooooooooooooOO..ooOOOOoOooooooooXXoooooooo+ +XoooooooOOOOO..ooOO..ooOO..oo",
"XXooooooooooooooooooooooooooooooOOOOOOoooooooooooooooooooooooooo.$OOO.$oOOOOOOoooooooooXoooooooo + +ooooooOOOOOO..$oOOO.$oOOO.$o",
"ooooooooooooooooooooooooooooooooooooooooooooooooooooooooooooooooOXoooooooooooooooooooooooooooooooooooooooooooooooooooooooooooooo",
"ooooooooooooooooooooooooooooooooooooooooooooooooooooooooooooooooOXoooooooooooooooooooooooooooooooooooooooooooooooooooooooooooooo",
"ooooooooooooooooooooooooooooooooooooooooooooooooXXXXXXXXooooooooXXXXXXXXooooooooooooooooXXXXXXXXoooooooooooooooooooooooooooooooo",
"ooooooooooooooooooooooooXXXXXXXXooooooooooooooooXXXXXXXXooooooooXXXXXXXXooooooooXXXXXXXXXXXXXXXXooooooooooooooooooooooooXXXXXXXX",
"XXXXXXXXXXXXXXXXXXXXXXXXXXXXXXXXXXXXXXXXXXXXXXXXooooooooXXXXXXXXooooooooXXXXXXXXXXXXXXXXooooooooXXXXXXXXXXXXXXXXOOXXXXXXXXXXXXXX",
"XXXXXXXXXXXXXXXXXXXXXXXXooooooooXXXXXXXXXXXXXXXXooooooooXXXXXXXXooooooooXXXXXXXXooooooooooooooooXXXXXXXXXXXXXXXXO XXXXXXoooooooo",
"ooooooooooooooXXooooooooooooooooooooooXoooooooooooooooooooooooXXooooooooooooooooooooooXooooooooooooooooooooooooXXooooooooooooooo",
"oooooooooooooooXooooooooooooooooooooooXXooooooooXXXXXXXXoooooooXXXXXXXXXooooooooooooooXXXXXXXXXXoooooooooooooooXXXoooooooooooooo",
"........................Xo..............................................................................................OO......",
".........................................................................................................................X......",
"................................................................................................................................",
"OX.                     OX.                     X.O                     OO                      X.O                     O       ",
"                                                                                                                                ",
"                                                                                                                                ",
"                                                                                                                                ",
"        ................                                                                                                        "
};
