/* XPM */
static char *__NO1699569678[] = {
/* columns rows colors chars-per-pixel */
"128 128 82 1 ",
"  c #070A0F",
". c #090A0F",
"X c #0A0B0F",
"o c #080C0F",
"O c #080B10",
"+ c #0A0B10",
"@ c #0B0C11",
"# c #0C0F16",
"$ c #0D1015",
"% c #0D1017",
"& c #0E1118",
"* c #0F1219",
"= c #0E111A",
"- c #0E121B",
"; c #0F121B",
": c #0F131C",
"> c #10131A",
", c #10131C",
"< c #11141D",
"1 c #11151E",
"2 c #12151E",
"3 c #12161F",
"4 c #13161F",
"5 c #131521",
"6 c #121621",
"7 c #131722",
"8 c #141823",
"9 c #3C3F46",
"0 c #3E3E46",
"q c #3F3F47",
"w c #3D4047",
"e c #3E4148",
"r c #3F4249",
"t c #54575C",
"y c #56575C",
"u c #57575F",
"i c #55585D",
"p c #57585D",
"a c #55585F",
"s c #56595E",
"d c #575A5F",
"f c #58595E",
"g c #595A5F",
"h c #565960",
"j c #585860",
"k c #595961",
"l c #5A5B60",
"z c #606368",
"x c #60636A",
"c c #616469",
"v c #61646B",
"b c #62656A",
"n c #63666B",
"m c #62656C",
"M c #95969A",
"N c #96979B",
"B c #97989C",
"V c #98999D",
"C c #999A9E",
"Z c #9A9B9F",
"A c #9C9DA1",
"S c #A2A3A7",
"D c #A3A4A8",
"F c #A4A5A9",
"G c #A5A6AA",
"H c #AAABAD",
"J c #ABACAE",
"K c #ACADAF",
"L c #B2B3B5",
"P c #B6B7B9",
"I c #B7B7B9",
"U c #B7B8BA",
"Y c #B8B8BA",
"T c #B8B9BB",
"R c #B9B9BB",
"E c #B9BABC",
"W c #BABABC",
"Q c #FBFBFB",
"! c gray99",
"~ c #FDFDFD",
"^ c #FEFEFE",
"/ c white",
/* pixels */
"88888888888888888888888888888888888888888888888888888888888888888888888888888888888888888888888888888888888888888888888888888888",
"88888888888888888888888888888888888888888888888888888888888888888888888888888888888888888888888888888888888888888888888888888888",
"88888888888888888888888888888888888888888888888888888888888888888888888888888888888888888888888888888888888888888888888888888888",
"88888888888888888888888888888888888888888888888888888888888888888888888888888888888888888888888888888888888888888888888888888888",
"88888888888888888888888888888888888888888888888888888888888888888888888888888888888888888888888888888888888888888888888888888888",
"88888888888888888888888888888888888888888888888888888888888888888888888888888888888888888888888888888888888888888888888888888888",
"88888888888888888888888888888888888888888888888888888888888888888888888888888888888888888888888888888888888888888888888888888888",
"88888888888888888888888888888888888888888888888888888888888888888888888888888888888888888888888888888888888888888888888888888888",
"88888888888888888888888888888888888888888888888888888888888888888888888888888888888888888888888888888888888888888888888888888888",
"88888888888888888888888888888888888888888888888888888888888888888888888888888888888888888888888888888888888888888888888888888888",
"88888888888888888888888888888888888888888888888888888888888888888888888888888888888888888888888888888888888888888888888888888888",
"88888888888888888888888888888888888888888888888888888888888888888888888888888888888888888888888888888888888888888888888888888888",
"88888888888888888888888888888888888888888888888888888888888888888888888888888888888888888888888888888888888888888888888888888888",
"88888888888888888888888888888888888888888888888888888888888888888888888888888888888888888888888888888888888888888888888888888888",
"88888888888888888888888888888888888888888888888888888888888888888888888888888888888888888888888888888888888888888888888888888888",
"88888888888888888888888888888888888888888888888888888888888888888888888888888888888888888888888888888888888888888888888888888888",
"88888888888888888888888888888888888888888888888888888888888888778888888888888888888888888888888888888888888888888888888888888888",
"86868686868686867777777777777777866886866886866877777777777777778686688686688686868668868668868686868686868686866886866886866886",
"68686868686868687777777777777777686868686868686877777777777777776868686868686868686868686868686868686868686868686868686868686868",
"86868686868686867777777777777777868686868686868677777777777777778686868686868686868686868686868686868686868686868686868686868686",
"68686868686868687777777777777777686868686868686877777777777777776868686868686868686868686868686868686868686868686868686868686868",
"86868686868686867777777777777777868686868686868677777777777777778686868686868686868686868686868686868686868686868686868686868686",
"68686868686868687777777777777777686868686868686877777777777777776868686868686868686868686868686868686868686868686868686868686868",
"86868686868686867777777777777777868686868686868677777777777777778686868686868686868686868686868686868686868686868686868686868686",
"68686868686868688686666677777777686868688686666677777777777777776868686868686868686868686868686868686868686868688686868668686868",
"55555555555555555555856577555555555555555555856557555555555555555555555555555555555555555555555555555555555555555555555555555555",
"55555555555555555555555555555555555555555555555555555555557755555555555555555555555555555555555555555555555555555555555555555555",
"55555555555555555555555555555555555555555555555555555555717655555555555555555555555555555555555555555555555555555555555555555555",
"6666666666666666666666666666757566666666666666666666757:666666666666666666666666666666666666666666666666666666666666666666666666",
"666666666666666666666666666617:7666666666666666666665777666666666666666666666666666666666666666666666666666666666666666666666666",
"66666666666666666666666666667177666666666666666666666171666666666666666666666666666666666666666666666666666666666666666666666666",
"66666666666666666666666666661717666666666666666666666717666666666666666666666666666666666666666666666666666666666666666666666666",
"66666666666666666666666666666666666666666666666666666666666666666666666666666666666666666666666666757771666666666666666666666666",
"6666666666666666666666666666636666666666666666666666666666666666666666666666666366666666666666666677:717666666666666666666666666",
"11753333333333334444333333333333333333333333333344444444333333333333333333333333333333333343441471711171333333333333333333333333",
"171733333333333344443333333333333333333333333333444444444444444433333333333333333333333333444446571177:7333333333333333333333333",
"71414433333333331411411433333333333333333333333314114114333333333333433333334333333333333333164133441711333333443333333333333333",
"11614434333333334664146433333333333333333333333346641464333333343333463333334433333344333333411433441181333334443333333333333333",
"71144446333333331111111136443643333633333333333311111111:633::333:333:3::3:311113:333:3:6633641433444411444633113333::3333333333",
"111111:43:33:33:11111111:3:33:33:33:33:3:33:33:3111111113::4333:333:3:3333:31111333:3:334:3:11113:111111:33:3:113::3333::33:33:3",
"111111113:33::3311111111111111111111111133:333:31111111111111111:33:333:11111111:33:333:11111111::331111111111111111111133:333:3",
"1111111133:3333:1111111111111111111111113:33:3:31111111111111111:33:3:3311111111:33:3:3311111111433:111111111111111111113:33:3:3",
"11111111::33333:11111111111111111111111133::3:3311111111111111113333:3:3111111113333:3:311111111333:1111111111111111111133::3:33",
"11111111333:::33111111111111111111111111:333333:11111111111111113::333:3111111113::333:311111111::3311111111111111111111:333333:",
"111111111111333:4411144411114411111111111111::334411144411114411111133:311111111111133:3,441144,3311111111111111111111111111::33",
"1111111111113:33,41114,61111,411111111111111333:,41114,61111,4111111:3:3111111111111:3:344111,443:11111111111111111111111111333:",
"<<<<<<<<<<<<<1::,6,>1>,,,,11,4,4<<<<<<<<<<<<<1::,6,>1>,,,,11,4,4<<<<<<:3<<<<<<<<<<<<<<:36,,,11,4:11<<<<<<<<<<<<<<<<<<<<<<<<<11::",
"<<<<<<<<<<<<<111,,,1116,,,>1,4,,<<<<<<<<<<<<<1:4,,,1116,,,>1,4,,<<<<<11:<<<<<<<<<<<<<11:,,,>11,4111<<<<<<<<<<<<<<<<<<<<<<<<<<1:4",
"<<<<<<<<,,44,,4,,4,,44,,,,44,,4,<<<<<<<<,,44,,4,,4,,44,,,,44,,4,<<<<,,,,,4,,44,,,,44,,4,,,4,4,,,,,,4,44,,44,4,,,<<<<,,44,,4,,,4,",
"<<<<<<<<4,,,,4,,,,4,,,,44,,,,4,,<<<<<<<<4,,,,4,,,,4,,,,44,,,,4,,<<<<,,5,,,4,,,,44,,,,4,,4,4,,,4,44,,,,,,,,,,,,44<<<<5,,,,4,,4,4,",
"<<<<<<<<4,,,,,4444,,,,,44,,,,,44<<<<<<<<4,,,,,4444,,,,,44,,,,,44<<<<1;1;44,,,,,44,,,,,44,4,,,4,4,,4,4,,44,,4,4,,<<<<,,;1,,44,4,,",
"<<<<<<<<,,444,,,,,,444,,,,444,,,<<<<<<<<,,444,,,,,,444,,,,444,,,<<<<1;11,,,444,,,,444,,,,,,4,4,,,4,,4,,44,,4,,,5<<<<,,,14,,,,,,4",
";111<<<<5,,,,,,,,,4,,,4,,5,,,,,,>111<<<<5,,,,,,,,,4,,,4,,5,,,,,,<<1<<<11,,4,,,4,,5,,,,,,4,,4,,4,,4,,,4,,,,4,,,,,<<11111;,4,,4,,4",
";1;*:<<:,,,,,,,;,,,,,,,,,,,,,,,;11*1:::<,,,,,,,;,,,,,,,,,,,,,,,;::*<>>;1,,,,,,,,,,,,,,,,,,,,,,,,,,,,,,,,,,,,,,,,::*<>>1;,,,,,,,,",
"1;*1*1*<,,,,,,1;,,,,,,,,,,,,,,1;=11*<*<:,,,,,,1;,,,,,,,,,,,,,,1;<:<*1:1*,,,,,,,,,,,,,,,,,,,,,,,,,,,,,,,,,,,,,,,,<:<*1:1;,,,,,,,,",
"1;1:1*1*,,,,,,;;,,,,,,,,,,,,,,;;>;*<*<:<,,,,,,;;,,,,,,,,,,,,,,;;:<:<*1*1,,,,,,,,,,,,,,,,,,,,,,,,,,,,,,,,,,,,,,,,:<*<*1=1,,,,,,,,",
";;;1;;11;;;1;;11,,,,;;11;;;1;;1111;;;;11;;;1;;11,,,,;;11;;;1;;11,,;11;;;,,,,,,,,;1;;;1,,,,;11;;;,,,,,,,,;1;;;1,,,,;11;;;,,,,,,,,",
";1;;1>;;;1;;1>;;,,,,1>;;;1;;1>;;;;;11>;;;1;;1>;;,,,,1>;;;1;;1>;;,,;>;;11,,,,,,,,;1;1;;,,,,;>;;11,,,,,,,,;1;1;;,,,,;>;;11,,,,,,,,",
">>>>>>>>>>>>>>>>>>,>>>>>>>>>>>>>>>;>>>>>>>>>>>>>>>,>>>>>>>>>>>>>>>>>;>>>,>>>>>>>>>>>>>>>>>>>;>>>,>>>>>>>>>>>>>>>>>>>;>>>>>>>>>>>",
">>>>>>>;>>>>>>>;>>>>>>>;>>>>>>>;>>>>>>>;>>>>>>>;>>>>>>>;>>>>>>>;>>>>>>>>>>>>>>>>>>>>>>>>>>>>>>>>>>>>>>>>>>>>>>>>>>>>>>>>>>>>>>>>",
",,;;1;1;,,;;1;1;,,1;;11;,,;;1;1;>11;;11;,,;;1;1;,,1;;11;,,;;1;1;,,,,1;;;;11=,,,,1;;;;11=,,,,1;;;;11=,,,,1;;;;11=,,,,1;;;;11=,,,,",
",,1;1;=1,,1;1;=1,,=1;;=1,,1;1;=1;;=1;;=1,,1;1;=1,,=1;;=1,,1;1;=1,,,,=11;;;;1,,,,=11;;;;1,,,,=11;;;;1,,,,=11;;;;1,,,,=11;;;;1,,,,",
"11;;;;;:11;;;;;:,11>11=:11;;;;;:11;=11=:11;;;;;:,11>11=:11;;;;;:1;1;::::1;::>1,,::::1;=:1;1;::::1;::>1,,::::1;=:1;1;::::1;::;1,,",
";;;1;11=;;;1;11=,,>1;;::;;;1;11=;;;1;;::;;;1;11=,,>1;;::;;;1;11=;;1;:::=1;:>11,,:::=1;1;;;1;:::=1;:>11,,:::=1;1;;;1;:::=1;::>>11",
";;;;;:::;;;;;;::;;;;;;;;;;;:;;:*;;;;;;;;;;;:;;*:;;;;;;::;;;;;;;;;;;;::*;;;;;;;;;:=:=:=1==;;;1==;;;;;;;;;:=:=:=1==;;;:=:=:=1==;;;",
";;;;;*::;;;;;:*:;;;;;;;;;;;*;:**;;;;;;;;;;;*;;:*;;;;;:*:;;;;;;;;;;;;:::;;;:*;;;;:*=:=:=:;;;;=:;;;;;;;;;;:*=:=:=:;;;;:*=:=:=:;;;;",
";;;;;;::;;;;;;::;;;;;;*:=***=***;;;;;;*:=***=***;;;;;;::;;;;;;;;%>;%****=*****=*********;;;;:=:=;;;;;;;;********&>;;********&>;;",
";;;;;;::;;;;;;::;;;;;;:*********;;;;;;:*********;;;;;;::;;;;;;;:>>%;********************;;;;=:=:;;;;;;;;********>&>%********>&>%",
"===============:====----*===----====----*===----=======:====*:;=>=:;;;==:===*===----==::=:=:=::==:=:=:=:--------**::=:--==::*=:=",
"==:=*:====:=======:=----:===----==:=----:===----==:=======:=:*;;:**:=;=*====:===::--==**:=:=:=:*==:::=:=--------=:**==--===**:=:",
"--==**=---==**=---==*==*--==-=**--==*==*--==*=**--==**=---==>=*>===>======**--==**=-==**=1=>=:**==**====*==*==*==*=====*==*=====",
"#--=%%#-#--=%*#*#--=*#=*#--=***%#--=*#=*#--=*#-*#--=%*#*#--=#>#&=#=#==#*-=*%#--=%%#--->%=##>=#====%*#=#=*#=*#=*%=#====#*--*#=*#=",
"*%*%*%*%*%*%*%*%*%*%*%*%%*%*%*%**%*%*%*%*%*%*%*%-%*%*%*%&&&&&&&&*%*%*%*%-%*%*%*%%%>>%%>%>%%%%%%>#*%*%*%*%*%*%*%*%*%*%*%*%*%*%*%*",
"%*%*%*%*%*%*%*%*%*%*%*%**%*%*%*%%*%*%*%*%*%*%*%*%%%*%*%*&&&&&&&&%*%*%*%*%-%*%*%*>%%%%>%%%%>>>>%%*%*%*%*%*%*%*%*%*%*%*%*%*%*%*%*%",
"*%*%*%*%*%*%*%*%*%*%*%*%%*%*%*%**%*%*%*%*%*%*%*%*%*%*%*%&&&&&&&&*%*%*%*%%%*%*%*%>%%%%%>>%>%%%%>%%*%*%*%*%*%*%*%*%*%*%*%*%*%*%*%*",
"%*%*%*%*%*%*%*%*%*%*%*%**%*%*%*%%*%*%*%*%*%*%*%*%*%*%*%*&&&&&&&&%*%*%*%*%*%*%*%*%%>>>%%%%%>%%>%%*%*%*%*%*%*%*%*%*%*%*%*%*%*%*%*%",
"*%*%*%*%*%*%*%*%*%*%*%*%%*%*%*%**%*%*%*%*%*%*%*%*%*%*%*%&&&&&&&&*%*%*%*%*%*%*%*%>%%%%%%>>>%%%%>>%*%*%*%*%*%*%*%*%*%*%*%*%*%*%*%*",
"%*%*%*%*%*%*%*%*%*%*%*%**%*%*%*%%*%*%*%*%*%*%*%*%*%*%*%*&&&&&&&&%*%*%*%*%*%*%*%*%%>%>>%%%%%>>%%%*%*%*%*%*%*%*%*%*%*%*%*%*%*%*%*%",
"*%*%*%*%*%*%*%*%*%*%*%*%%*%*%*%**%*%*%*%*%*%*%*%*%*%*%*%&&&&&&&&*%*%*%*%*%*%*%*%%>%>%%>%%%%>>%%%%*%*%*%*%*%*%*%*%*%*%*%*%*%*%*%*",
"%*%*%*%*%*%*%*%*%*%*%*%**%*%*%*%%*%*%*%*%*%*%*%*%*%*%*%*&&&&&&&&%*%*%*%*%*%*%*%*%>%%%>%%>>%%%%>>*%*%*%*%*%*%*%*%*%*%*%*%*%*%*%*%",
"*%*%%*%*%**%*%*%%*%*%*%*%*%*%*%**%*%%*%*%**%*%*%&&&&&&&&&&&&&&&&*%*%*%*%&&&&&&&&&&&&&&&&>%%%>%%%%%%>%%%>%%%>%%%>%*%*%*%*%*%*%*%*",
"%*%**%*%*%%*%*%**%*%*%*%*%*%*%*%%*%**%*%*%%*%*%*&&&&&&&&&&&&&&&&%*%*%*%*&&&&&&&&&&&&&&&&%%>%>%>%>>%%>>%%>>%%>>%%*%*%*%*%*%*%*%*%",
"***%****%******%%*%%%*%**%%*%**%***%****%******%&&&&&&&&&&&&&&&&*%*%%**%&&&&&&&&&&&&&&&&%>%%%%>%%%>%%%>%%%>%%%%%%%%*%**%%*%**%%*",
"#%%#%##%#%###%%#%%%%%%%%%%%%%%%%#%%#%##%#%###%%#%%%%%%%%%%%%%%%%%%%%%%%%%%%%%%%%%%%%%%%%%%%%%%%%%%%%%%%%%%%%%%%%%-##%%%%%%%%%%%%",
"#%%%%%%%%%%%#%%%%%%%%%%%%%%%%%%%#%%%%%%%%%%%#%%%%%%%%%%%%%%%%%%%%%%%%%%%%%%%%%%%%%%%%%%%%%%%%%%%%%%%%%%%%%%%%%%%%%%%%%%%%%%%%%%%",
"%%%%%%%%%%%%%%%%%%%%%%%%%%%%%%%%%%%%%%%%%%%%%%%%%%%%%%%%%%%%%%%%%%%%%%%%%%%%%%%%%%%%%%%%%%%%%%%%%%%%%%%%%%%%%%%%%%%%%%%%%%%%%%%%",
"%%%%%%%%%%%%%%%%%%%%%%%%%%%%%%%%%%%%%%%%%%%%%%%%%%%%%%%%%%%%%%%%%%%%%%%%%%%%%%%%%%%%%%%%%%%%%%%%%%%%%%%%%%%%%%%%%%%%%%%%%%%%%%%%",
"%%%%%%%%%%%%%%%%%%%%%%%%%%%%%%%%%%%%%%%%%%%%%%%%%%%%%%%%%%%%%%%%%%%%%%%%%%%%%%%%%%%%%%%%%%%%%%%%%%%%%%%%%%%%%%%%%%%%%%%%%%%%%%%%",
"$$$$$###%%$$$$$$#####$$$$$$$$$##$$$$%###%%$$$$$$###%$$$$$$$#####%$$$####$$$$##%%$$$$#%$$$$$$#%$$%%$$$$$$#######$$$$$$$%%%$$$$$$$",
"################################################################%%$%############################$%##############################",
"################################################################################################%###############################",
"###################=############################################################################################################",
"################@==@########################################@=@###%%############################################################",
"################=@@=#######################@###########@####=@=###%%##@ ### #############################@#################@####",
";#4<111111#*1111@;111111=@111111=@44111111#*1111111111#*1111@=11:111111#114@:1114@=111114@=111111111*@<1@=411111=@11111::7#*1411",
"099trrrrrr99trrw99trrrrr99twrr0099twrr9rr999twwwrr9rr999twww9twrwwrwwwt9wwwt9r9rwt990wrwwt990r0rr9r999twt9r9rr999tww0rrrr099twww",
"ugggpggpkikggggggggggikgggggggggigggiggggggguggggggggygggyyggggigguiggigggggiggigygggggkggguggigkggggggyikkjykkkkggkkigggggiggig",
"BNVVBVBBBBVNNNNVNNNNBBVNNNNVNVVNBBCNNBBBNBBNBNNBNNBNCNBBNNBBBBBNVVVCNBBBBBNNCCBBCBNBCCNBNCNNBBBBCCNCCNBBNBBBBBBBBBBBBBBBCCBNNCCN",
"Q!!!!!Q!~QQ~!!!!~!!!~Q~Q!!!!!!QQ!!!~QQ~QQQQQ~Q~~Q~~~Q~~Q~~~~~~Q~Q!~Q~Q~!~Q~~~Q~!~Q~~Q~~~Q~~~~~~QQQQQ~QQ~~!Q!~~Q~!!~!!!Q!!!!~!!Q!",
"DDDDDDDDDDDDDFFDFDDDDDFDDDDDDDDSDDDDFDFFFDFFDDDDFFFFDFFFFFDFFDDDDDSDFFFFFFFDFSFFFFFFFSFDSFFFDDFDDDFDFFDFDDDDFFFFDDDDDDDDDDDDFDDF",
"bbzbnbznmcmmmmvbbmbvmvmvvvvmbcmmbmmmmmmbccvmmmmcmxbxcbmvmcmmmvbmbbmmmmmmmbmvbbmmmmcvmccvbcmmmmmbmvmcbmmmbbbbcbbbbbxmmxxmmmcmbmmb",
"bbbbnbbbbbbbbbcbbbbbbbbbbbccbbcbbbbbbbbbnbccbmbcmbbbmbnmbbmbmbbbnnnbbbbbnnbmzbbbcbmbbmcmbbbbbbbbbbbcbcbbbbbbcbbbbcbbbbbbbbmbbnbb",
"bbbbbzzbccccccbbbcccccbbbbcccbccbbbbbbbbbccccbcbbbbbbbbbbbccbcbcbbbbbbbcbbbbbbbbccbbccccbbcbcbbbbbbcbcccbbcbcbbbcbbbbbbmbbbbccbc",
"JJKLIRRRRRWYIWRWWRRYYWIWYWWYYYWWRRRRRRRRWWWWRYYWTWUWRRURWRRRRYRWWUIRRURRWRWRWRWRYYRWYWYWWWYWRYIRIYYIYYYYUUIUUIURITIUTTITRYRRRYYR",
"~~~~~~~~~~~~~~~~~~~~~~~~~~~~~~~~~~~~~~~~~~~~~~~~~~~~~~~~~~~~~~~~~~~~~~~~~~~~~~~~~~~~~~~~~~~~~~~~~~~~~~~~~~~~~~~~~~~~~~~~~~~~~~~~",
"AZCCBBCCBBBBNNCNNVCNNVCNBBNBCBBCVNVVNCNNBBCBCBCBBBBCNBBBBBNCBBCCBBNCBNNCNNCNNCNNNBNNCNNCBBBBBBNBBBBBNBBBBBNCNNCNCNBNBBBBBBNNBNNC",
"giiyyiiygiggiguyggiyyguuyyihiikiiguugigihhjjjyuytiiiiiiiyyigyiyyiiiigiigyyuugiiygigigigiyyyyiihiiiyuigyyyyyyuuyyigyiuyygyiiggiig",
"90w099090999990090w990000099t000w000090w0009990q000000r099w099090w0r0990w0000w0w090909w00000000009w09990rr0rr990wwr0rr00r0ww0ww0",
"@@@X@X@@@X@ @X@ XX@X++++ @+     +++++ @ @X@X++++@@@@ @@@@X@ @XX@ @X@X@X@++++@ @@@ @@@X@X@ @ @ @ @X@X@ @ @X@X@ @ @X@X @ @ @X@X@X@",
"XXX@ @X@X@X@X@ @XX @+ ++@ @@     @+++@ @@@ @ @++  @   @ X@X@X@@@@X@ XX@X @++ @ @X@X X@ @ @ @ @ @X@X@X@X@ @X@X@ @X@X@@@@ @X@ @X@X",
"@@@@@@@@@@@@@@@@ @@X @ @ @@ .   @ @ ++@@    @  @        @@@@@ @@X@@@@@ @@ @ @ @@@X@@@@@X@ @ @ @ @@@@@@@@@@@@@@@@@@@X@@@@X@@@@@ @",
"                 @  @ @ @ XXX.   @ @ @  @@@@+ @+@@@@@@@@          @      @ @ @    @     +  @ @++                 @        @     ",
"+++++++++++++++ @X@ ++++++++++++++++++++++++++++++++++++++++++ @@@ @++++++++++++++++++++++++++++++++++++++++++ @@X@ ++++++++++++",
"+++++++++++++++@@@X@+++++++++++++++++++++++++++++++++++++++++++ @ @ +++++++++++++++++++++++++++++++++++++++++ @  @ @++++++++++++",
"++++++++++++++@ @X@X++++++++++++++++++++++++++++++++++++++++++ @++ +++++++++++++++++++++++++++++++++++++++++++ @++@ ++++++++++++",
"++++++++++++++ @ @ @++++++++++++++++++++++++++++++++++++++++++@ ++++++++++++++++++++++++++++++++++++++++++++++@X++ @++++++++++++",
"++++++++++++@X@ @ ++++++++++++++ +++X@X@++++++++++++++++++++X@X@++++++++++++++++ @ +X@X@++++++++++++++++++++X@X@++++++++++++++++",
"++++++++++++ @X@ @++++++++++++++@ ++@X@X++++++++++++++++++++@X@X++++++++++++++++@ @ @X@X++++++++++++++++++++@X@X++++++++++++++++",
"++++++++++++@X@ ++++++++++++++++X@@XX@@@++++++++++++++++++++X@@@++++++++++++++++X@@XX@@@++++++++++++++++++++X@@@++++++++++++++++",
"XXXXXXXXXXXXXXX@XXXXXXXXXXXXXXXXXX XX XXXXXXXXXXXXXXXXXXXXXXXXXXXXXXXXXXXXXXXXXXXXXXX XXXXXXXXXXXXXXXXXXXXXXXXXXXXXXXXXXXXXXXXXX",
"XXXXXXXX@ @ @X@@X@@@X@X@XXXXXXXXXXXXXXXXXXXXXXXXXXXXXXXXXXXXXXXXXXXXXXXXXXXXXXXXXXXXXXXXXXXXXXXXXXXXXXXXXXXXXXXXXXXXXXXXXXXXXXXX",
"XXXXXXXX@@@@X@ @@@ @@ @@XXXXXXXXXXXXXXXXXXXXXXXXXXXXXXXXXXXXXXXXXXXXXXXXXXXXXXXXXXXXXXXXXXXXXXXXXXXXXXXXXXXXXXXXXXXXXXXXXXXXXXXX",
"XXXXXXXXOOOO @ @  OO  OOXXXXXXXXXXooXXXXXXXXXXooXXXXXXXXXXooXXXXXXXXXXooXXXXXXXXXXooXXXXXXXXXXoXXXXXXXXXXXooXXXXXXXXXXooXXXXXXXX",
"XXX oooXOOOO        @ OOXXX ooo oooOoooooooooooOXXX oooooooOoooooooooooOXXX oooooooOooooooooooooXXX ooo oooOoooooooooooOXXX oooX",
"OOOO  OOOOOOOOOO@OOOOOOOOOOO@OOOOOOOOOOO@  OOOOOOOOO@ @ OOOOOOOO@  OOOOOOOOO@ @ OOOOOOOO@@ OOOOOOOOO@OOOOOOOOOOO@  OOOOOOOOO  OO",
"OOOO @OOOOOOOOOO  OOOOOOOOOO  OOOOOOOOOO @OOOOOOOOOO  OOOOOOOOOO @OOOOOOOOOO  OOOOOOOOOO  OOOOOOOOOO  OOOOOOOOOO @OOOOOOOOOO @OO",
"                                                                                                                                ",
"                                                                                                                                "
};
