/* XPM */
static char *__SO1699569678[] = {
/* columns rows colors chars-per-pixel */
"128 128 73 1 ",
"  c #0D0E13",
". c #0B0E15",
"X c #0D0D15",
"o c #0C0F14",
"O c #0E0F14",
"+ c #0C0F16",
"@ c #0E0E16",
"# c #0F0F17",
"$ c #0D1017",
"% c #0E1118",
"& c #0F1219",
"* c #0E111A",
"= c #0F121B",
"- c #10131C",
"; c #11141D",
": c #11151E",
"> c #12151E",
", c #12161F",
"< c #13161F",
"1 c #131521",
"2 c #131720",
"3 c #131722",
"4 c #141720",
"5 c #141622",
"6 c #151723",
"7 c #141823",
"8 c #161922",
"9 c #171A23",
"0 c #151924",
"q c #151925",
"w c #161825",
"e c #161A25",
"r c #171926",
"t c #171B26",
"y c #171B27",
"u c #181B24",
"i c #1B1D29",
"p c #1A1E29",
"a c #1E2329",
"s c #1F242A",
"d c #20252B",
"f c #252932",
"g c #262A33",
"h c #272B34",
"j c #282C35",
"k c #33363F",
"l c #343740",
"z c #3D4047",
"x c #3E4148",
"c c #3F4249",
"v c #40434A",
"b c #4B4B55",
"n c #494C55",
"m c #4A4D56",
"M c #4C4C56",
"N c #53565D",
"B c #54575E",
"V c #55585D",
"C c #55585F",
"Z c #7B7C81",
"A c #7A7D82",
"S c #7B7E83",
"D c #7C7D82",
"F c #7D7E83",
"G c #7C7F84",
"H c #7E7F84",
"J c #939498",
"K c #949599",
"L c #94959A",
"P c #95969A",
"I c #95969B",
"U c #C3C4C6",
"Y c #C4C5C7",
/* pixels */
"tttttttttttttttttttttttttttttttttttttttttttttttttttttttttttttttttttttttttttttttttttttttttttttttttttttttttttttttttttttttttttttttt",
"tttttttttttttttttttttttttttttttttttttttttttttttttttttttttttttttttttttttttttttttttttttttttttttttttttttttttttttttttttttttttttttttt",
"tyyyyyyyttttyyyyyyyyyyytyyyyyyyyyyyyyyyyyyyyyyyyyyyyyyyyyyytyyyyyyyyyyyyyyyyyyyyyyyyyyyyyyyyyyyyyyyyyyyyyyytyyyyyyyyyyyyyyyyyyyy",
"tttttttttttttttttttttttttttttttttttttttttttttttttttttttttttttttttttttttttttttttttttttttttttttttttttttttttttttttttttttttttttttttt",
"tttttttttttttttttttttttttttttttttttttttytttttttttttttttttttttttttttttttttttttttttttttttytttttttttttttttttttttttttttttttttttttttt",
"tttttttttttttttttttttttttttttttttttttttytttttttttttttttttttttttttttttttytttttttttttttttytttttttttttttttttttttttttttttttytttttttt",
"t77ttttttt7t7ttttt77tttt7ttt7t7tt7t7ttt7tttt77ttt77tttt7tt7t7ttt77tttt77ttt7t7ttt7t7ttt7tttt77ttt77tttt7tt7t7ttt77tttt77ttt7t7tt",
"tttt77tt7ttt7t7t7tttt77t7t7ttt7tt7ttt7t7t77tttt7tttt77tt7ttt7t7tttt77tttt7t7ttt7t7ttt7t7t77tttt7tttt77tt7ttt7t7tttt77tttt7t7ttt7",
"77tttt77ttt7t7ttttt7t77ttt7ttt7tt7ttt7ttt77t7ttt77tttt77ttt7t7tt7tttttt7t7tt77ttt7ttt7ttt77t7ttt77tttt77ttt7t7tt7tttttt7t7tt77tt",
"ttt77tttt7ttt7t777ttttttt7tt7t7tt7t7tt7ttttttt77ttt77tttt7ttt7t7tt7777tttt7tttt7t7t7tt7ttttttt77ttt77tttt7ttt7t7tt7777tttt7tttt7",
"ttt77ttt7t7ttt7ttt7t7tt7tt77t7tttt7t77tt7tt7t7ttttt77ttt7t7ttt7tt7tttt7t77ttttt7tt7t77tt7tt7t7ttttt77ttt7t7ttt7tt7tttt7t77ttttt7",
"77tttt77tt7t7tttt7tt7tt77tttttt77tttttt77tt7tt7t77tttt77tt7t7ttttt7tt7ttttt777tt7tttttt77tt7tt7t77tttt77tt7t7ttttt7tt7ttttt777tt",
"tt7tt7ttt7tt7tt7tt7t7tttttt777tttt777tttttt7t7tttt7tt7ttt7tt7tt777tttt777tttttt7tt777tttttt7t7tttt7tt7ttt7tt7tt777tttt777tttttt7",
"t7tttt7ttt7t7tt77t7ttt7t77ttttt77ttttt77t7ttt7t7t7tttt7ttt7t7tt7ttt77ttttt77t7tt7ttttt77t7ttt7t7t7tttt7ttt7t7tt7ttt77ttttt77t7tt",
"tt7777tt77ttttttt7ttt7t7tt7tttt77tttt7tt7t7ttt7ttt7777tt77ttttttttt77tttt7tt7t7t7tttt7tt7t7ttt7ttt7777tt77ttttttttt77tttt7tt7t7t",
"7tttttt7ttt7t77tttt7t7ttt7tt77tttt77tt7ttt7t7tyy7tttttt7ttt7t77t77tttt77tt7ttt7ttt77tt7ttt7t7tty7tttttt7ttt7t77t77tttt77tt7ttt7t",
"wwwwwwwwwwwwwwww7wwwwwwwwywywwwywwwwwwwwwwywwywwwwwwwwwwwwwwwwwwwwwwwwwwwwwwwwwwwwwwwwwwwwwwwwwwywywywwwywwwwwwtwwwwwwwwwywywwwy",
"qqq7qqq777t777tt7wqqqqqqqwq7wyqw7tt7t77ty7ywq7wyqqq7qqq777t777ttt77yqqqq5ttwt77ty77yqqqq3tt7t77twqw7w7yyw7ttttwt7tq7qqqqqwq7wyqw",
"7y7t7y7tt7t7t777777tt77777tt777yt77777777t777t7t7y7t7y7tt7t7t7777777777t7t7t77777777777t7t7t77777y7t7t777t777777777tt77777tt777y",
"777t777tt777t7t7tt7777ttt777tt7777tt7tt7777y7t77777t777tt777t7t77tt7tt777t777tt77tt7tt777t777tt7777t77t777t77tt7tt7777ttt777tt77",
"tt77t777777t7t7777t77t77t777777tt777777tt77t77t7tt77t777777t7t77t777777t7t777tt7t777777t7t777tt5tt777t77tt777t7777t77t77t777777t",
"777t77t77t777t7t7t7777t777tt7t7777t7tt75t77t7t77777t77t77t777t7t77tt7t777t7t777777tt7t777t7t777t777t7t7t777t7t7t7t7777t777tt7t77",
"777t7t7tt7t7775t77tttt777t77t7t77t7t775t777777tt777t7t7tt7t777t57t77t7t777t7t75t7t77t7t777t7t7t5777t77t7777t775t77tttt777t77t7t7",
"tt777t7777t7t5tut777777t77t777t77t777ttu7tt7t777tt777t7777t7t77t77t777t7t777t7t777t777t7t777t7u7tt77t777tt77t5tut777777t77t777t7",
"77w1w55wu5ww556655575w5tw7w5ww555u55w5665w5tw55577w1w55w3w555w55w7w15w5555w5u5www7w35w55555w5t5w77w1w55wu5ww556655575w5tw7w5ww55",
"5w5w5w5557555w66w5t555557w1w555w75w5w567555555w35w5w5w55w75w55t57w5w5w5ww5w557557w1w3w5wt55575555w5w5w5557555w66w5t555557w1w555w",
"777733w3777777775777t5777777775w77775777t577773t777733w37777t7777777777777577777w3w3777777t57777777733w3777777775777t5777777775w",
"7777t3t577777777777777777777777377777777777777337777t3t577773577777777777777777733w37777777777777777t3t5777777777777777777777773",
"33333t337777777777777777777777777777777777773t3t33333t337777777777777777777777772t7777777777777733333t33777777777777777777777777",
"t3t333t37777777777777777777777777777777777773333t3t333t37777777777777777777777777377777777777777t3t333t3777777777777777777777777",
"333t33337777777777777777777777777777777777773t33333t33337777777777777777777777777777777777777777333t3333777777777777777777777777",
"t333t3t377777777777777777777777777777777777733t3t333t3t37777777777777777777777777777777777777777t333t3t3777777777777777777777777",
"3t333t3t333t3t3377777777777777777777777777777777777777777777777777777777777777777777777777777777333t3t33777777777777777777777777",
"33t33333t33333t377777777777777777777777777777777777777777777777777777777777777777777777777777777t33333t3777777777777777777777777",
"33333t333t3t3333777777777777777777777777777777777777777777777777777777777777777777777777777777773t3t3333777777777777777777777777",
"t3t333t33333t3t3777777777777777777777777777777777777777777777777777777777777777777777777777777773333t3t3777777777777777777777777",
"333t333tt333333t77777777777777777777777777777777777777777777777777777777777777777777777777777777t333333t777777777777777777777777",
"33333333333333333333333733333333333333333333333333333337333333333333333333333333333333333333333333333333333333333333333333333333",
"33333333333333333333332733333333333333333333333333333327333333333333333333333327333333333333332733333333333333333333333333333333",
"33333333333333333333337233333333333333333333333333333372333333333333333333333772333333333333377233333333333333333333333333333333",
"72273735337222777227272222277225722737353372272772272722222772253372272772273372337227277222777233332227333322272227722533722727",
"222<,,3<,,<,2233<,22337<222<322<222<,,3<33<<2233<,22337<222<322<33<<2222<,2233<<33<<2233,52233<<,,,37<2233,,7<2227,,322,33<<2222",
"22<<<75,3<<7,7,,<5,5,7,<227,3,5,22<<<75,,,7<,7,2<5,5,7,<227,3,5,,,7<,322<5,5,<7<,,7<,7,2<<5<,<7<<<,75,<<<<7,5,<<22<73,<5,<7<,322",
",3<<<,<<,,<<<<<,<<<<,,<<33<<<,<<,3<<<,<<,,,<<<,,<<<<,,<<33<<<,<<,,,<<,,3<<<<,<,<,,,<<<,,<<<<,,,<<<<,<<<<<<<<<<<<,3<<<,<<,<,<<,,3",
"31111111111153>1111111113111111131111111111153>111111111311111111111511111111111111153>11111111153111111531111115111111111115111",
"3>1111111111,51111111111>11111113>1111111111,51111111111>111111111113,11111111111111,511111111115,111111,3111111,511111111113,11",
"11111111111111111111111111115>5<11111111111111111111111111115>5<111111111111111111111111111111<<11111111511111111111111111111111",
"<<<<<<<<<<<<<<<<<<<<<<<<<<<<<<<<<<<<<<<<<<<<<<<<<<<<<<<<<<<<<<<<<<<<<<<<<<<<<<<<<<<<<<<<<<<<<<<<,<<<<<<<,<<<<<<<<<<,<<<<<<<<<<<<",
"<<<<<<<<<<<<<<<<<<<<<<<<<<<<<<<<<<<<<<<<<<<<<<<<<<<<<<<<<<<<<<<<<<<<<<<<<<<<<<<<<<<<<<<<<<<<<<<<<<<<<<<<<<<<<<<,<<<<<<<<<<<<<<<<",
"<<<<<<<<<<<<<<<<<<<<<<<<<<<<<<<<<<<<<<<<,,,,,,,,<<<<<<<<<<<<<<<<<<<<<<<<<<<<<<<<,,,,,,,,<<<<<<<<<<<<<<<<<<<<<<<,<<<<<<<<<<<<<<<<",
",,,,,,,,,,,,,,,,,,,,,,,,,,,,,,,,,,,,,,,,,,,,,,,,,,,,,,,,,,,,,,,,,,,,,,,,,,,,,,,,,,,,,,,,,,,,,,,,,,,,,,,,,,,,,,,,,,,,,,,,,,,,,,,,",
",,,,,,,,,,,,,,,,,,,,,,,,,,,,,,,,,,,,,,,,,,,,,,,,,,,,,,,,,,,,,,,,,,,,,,,,,,,,,,,,,,,,,,,,,,,,,,,,,,,,,,,,,,,,,,,,,,,,,,,,,,,,,,,,",
",,,,,,,,,,,,,,,,,,,<,,,,,,,,,,,,,,,,,,,,<<,,,,,,,,,<,,,,,,,,,,,,,,,,,,,,,,,,,,,,<<,,,,,,,,,,,,,,,,,,,,,,,,,,,,,,,,,,,,,,,,,,,,,,",
",,,,,,,,<<,,,,,,,,,<,,,,<<,,,,,,,,,,,,,,<<<<<<<<,,,<,,,,<<,,,,,,,,,,,,,,,,,,,,,,<<<<,,,,,,,<,,,,,,,,,<,,,,,,,,,,,,,,,,,,,,,,,,,,",
">>>>>>>><-<-,,,-<<<<<<<<<-<-,,,->>>>>>>><-<-,,,-,,<-<-,,<<<<<<,<<<<<<<<<>>>>>>>><-<-,,,,<<<<<<<<<<<<<<<<<<,--,,,>>>>>>>><<<<<<<<",
">>>>>>>><-<,<-,-,,-<<-,,<-<,<-,->>>>>>>><-<,<-,-<-<-<<<--,<-,,-,>>>>>>>>>>>>>>>><-<,<-,,,,-<,-<<<<-,<-<<--,<,,,,>>>>>>>>>>>>>>>>",
">>=3,-,,,,=,-,,,--,,,-,,,,=,-,,,>>=3,-,,,,=,-,,,,,-,,,-=,,,=,-,,,==,-,,,>>=,,=2=,,-=,,=2,,,=,--,-,,=,,,=,,-=,,=2,,,=,--,>>,=3,=2",
">>,=,-,-=,=,,,-,,,,-,-,-=,=,,,-,>>,=,-,-=,=,,,-,-,-,-,,,,=,,,-,-,,,,,,-->>3==2,2-,,,,=,,==,,,,,,-,,-,=,,-,,,,=,,==,,,,,,>>,==,2=",
"=,,=,,-,,=,,,-,-,,,-,,-,,=,,,-,-=,,=,,-,,=,,,-,-,-,,-,,,=,=,,,-,=,,=,-,,==3,,,=2-,,,,,==,,=,-,,-,,,,=,=,-,,,,,==,,=,-,,-==,3,,,=",
"3,=3-,,,,,,=,-,,=-,,-,,,,,,=,-,,3,=3-,,,,,,=,-,,,,,-,,-<2,=,-,,,=,,=,,-,,,=,=,=,,,-<=,,,2=,,=,,<,--,2,=,,,-<=,,,2=,,=,,<,,,=,=,2",
"=,-,--<-=,--,--<,--,--<-=,--,--<=,-,--<-=,--,--<=-,--<--=,-,--<-,,,=--<<,---,=2=<------,==,,<------,==,,<------,==,,<------,==,=",
"=,-,-,--=,,-,--<,--,-<--=,,-,--<=,-,-,--=,,-,--<-,----<-=,-,-,--,=-,<-----,,=,=,--<-<,--,,,=--<-<,--,,,=--<-<,--,,,=--<-,,--=2,,",
",-----<<,,------------<<,,------,-----<<,,--------,,<<--,,----,<,-,-<----,--,=,,-<-<--,----,-<-<--,----,-<-<--,----,-<-<--,-=,=,",
"-,,-,---,=-,-,<--,,-<---,=-,-,<--,,-,---,=-,-,<-,------<,=,-,-----,---<,--,=,,,=-<---<--,,---<---<--,,---<---<--,,---<---,--,,=,",
"---<---<---<---,-<<--<<--<<--<,----<---<---<---,-<<--<<--<<--<,---,--<---<<---<--<---<<---<--<---<<---<-,---<---<<--<---<---<<--",
"<<--<<--<<--<,------------------<<--<<--<<--<,------------------,-,--<-<----<-<--,-<----<-<--<-<----<-<---<-<-<----<--<-<-<----<",
"--------------------------------------------------------------------------------------------------------------------------------",
"---<---<---<-----<<--<<--<<--<-----<---<---<-----<<--<<--<<--<---<----<-<--<-<------<--<-<----<-<--<-<--,-----<---<-<--<--<---<-",
"--------------------------------------------------------------------------------------------------------------------------------",
"--------------------------------------------------------------------------------------------------------------------------------",
"--------------------------------------------------------------------------------------------------------------------------------",
"--------------------------------------------------------------------------------------------------------------------------------",
"--------------------------------------------------------------------------------------------------------------------------------",
"--------------------------------------------------------------------------------------------------------------------------------",
"--------------------------------------------------------------------------------------------------------------------------------",
"--------------------------------------------------------------------------------------------------------------------------------",
"--------------------------------------------------------------------------------------------------------------------------------",
"====----============----============----============----====================----================--==========================----",
"======-$==============$-==============-$==============$-======================#===============-----===========================-$",
"======--===============-======--======--===============-======--============================--%--$============================--",
"=-----$--$--$--$--=-----------=-=-----$--$--$--$--=-----------=-==--$--$-==--=--==--=--=%%-&&&-%------=-------=-=-----$--$--$--$",
"$%%$-%%--%-%%--%%-$%%$%%$%%$%-$%$%%$-%%--%-%%--%%-$%%$%%$%%$%-$%-$-%%--%-$$&&$&%&$&%$&&$%-%&&&%%%%$%%%$-%%$%%%$-$%%$-%%--%-%%--%",
"-$-%-$$-%%-%%%%%$%%$%%%-%-%-$%%$-$-%-$$-%%-%%%%%$%%$%%%-%-%-$%%$%$%$%%%%$=$$&-%-&-%--%&&$%%$&%-%%%%-%%=$%%%-%%=$-$-%-$$-%%-%%%%%",
"$=#-$==$-$$---$-====-=-$=$-%====$=#-$==$-$$---$-====-=-$=$-%======-=--$-=====$=$=$=$$=$=====-$%-=-=$=-$==-=$=-$=$=#-$==$-$$---$-",
"==-=$=-====-===$-======-$=-==$-===-=$=-====-===$-===-%--$=-==$-====-===$-======-===-=-==-======-$-==-===$-==-=====-=$=-====-===$",
"$$%%$$%%$$$%$$$$%%$$$$$%$$%%$$%%$$%%$$%%$$$%$$$$%%$$#%$%$$%%$$%%$$$%$$$$%%#$$$$%$$$%$$$$%%$$$$$%$%$$%%$$$%$$%%$$$$%%$$%%$$$%$$$$",
"$$$%$$%%$$%%%%-$%%%%$$%%%%%%=%%%$$$%$$%%$$%%%%-$%%%%$$%%%%%%=%%%$$%%%%-$%%%%$$%%$$%%%%$$%%%%$$%%%%$$%%%%%%$$%%%%$$$%$$%%$$%%%%-$",
"$-%%-$%%%%%%%%%$%%%%%%%$%%%%$$%%$-%%-$%%%%%%%%%$%%%%%$%%%%%%$$%%%%%%%%%$%%%%%%$$%%%%%%%%%%%%%%%%%%%%%%%%%%%%%%%$$-%%-$%%%%%%%%%$",
"$$$$$$$$%%$$$$$$%%%$$%$$$$$$$$$$$$$$$$$$%%$$$$$$%%%%%%%%%$$$$$%%%$$$$$$$$$$$$$$$%$$$$$$$$$$$%%%$%%$$$$$$$$$$$$$$%$$$%$%%%%$$$$$$",
"==--==--=-=--==--%%-$-=-==--==--==--==--=-=--==-%%%%%%%%-$----%--==-=--====-=--=-==-=--====-%--$=-=--==-=--==-=--$--%-%-=-=--==-",
"$$%%$$$$$%%%%%$$%%%%$%%%$$%%$$$$$$%%$$$$$%%%%%$$%%%%%%%%$$%%$$%%%%$$%%=$%%$$%%%%%%$$%%$$%%$$%%%%$%%%%%$$%%%%$%%%$$%%%%%%$%%%%%$$",
"%%%$$-$=$$%%%%%$%%%%%%%%%%%$$-$=%%%$$-$=$$%%%%%$%%%%%%%%%%%%%%%%%%%$%$$$%%%$%%%$%%%$$$-$%%%$%%%%$$%%%%%$%%%%$$%%%%%%%%%%$$%%%%%$",
"%%%%#$=$$=$=%%%%%%%%%%$-%%%%#$=$%%%%#$=$$=$=%%%%%%%%%%%%%%%%%%%%%%$=$$=$%%=$$%=$%%$-$$$=%%%%%%%%$$#=%%%%#$$$%%%%%%%%%%%%%%%%%%%%",
"%%%%=#$$$$$#%%%%&-%%%%$$%%%%=#$$%%%%=#$$$$$#%%%%%%%%%%%%%%%%%&%%%%$#-$$#%%$$%%$$%%$$%%$#%%%&%%%%$=$#%%%%=#=$%%%%%%%%&&%%%%%-%%%%",
"555<3>5<55,1555<<<<<<<<<555<3>5,555<3>5<55,1555<<<<<<<<<<<<<<<<<5<55<5,555<555<55<555<55<<<<<<<<533>5<55111<555<<<<<<<<<<<<<<<<<",
"5555555555555555<<<7<<<<55555555555555555555555555555557<<7<<7<<555555555555555575555555<<7<<<<95555555555555557<<7<<9<<<<<<<7<<",
"79799999ee977u7u99992e92t77999u979977u7uu999999999999999t79uu97u9777977t97977u7tu7t77te2997tu77t79799999999999799999999999999999",
"ppppppppeaappppppppppaapppppppppppapppppppiiiiiiiiiiiiiippppppppppapappppaipapppppppappappppappppippppppipiiiiiiiiiiiiiiiiiiiiii",
"daddddddssssssssaadassssssssssddssssssssddddddddddddddddssssdsssddssasssdassasssddsssassddssaassddddddddssssdddddddddddddddddddd",
"ffggfgffgghhggggggggggghgggggggggggghgghghggggfggggggggghjjjhhhhggjgjgjjhhhhhhjjhghhhhgjgghhhhjjhhhhghhhgjgjggggghgggggggggggggg",
"kkkkkkkkkllklkkkkkkklkkkkkklkkkklllllkllkkkkkkkkkkkkkkkkllllllllkkkkllllllllllllkkkkllkkkkkkllllkkkkkkkkllkkkkkkkkkkkkkkkkkkkkkk",
"ccvcvvzvzcccvzzzzvzzcczczczczzvvxcxxvvxxvvvvvvvvvvvvvvvvcxccvvxxvvvvccxcvxxvxxxcvvvvccccvvvvxxxcccccvvvvvvvxxvxvvvvvvvvvvxvvvxvv",
"mmmmmmbmnnnnmmmmmmmmmmmmmmnmmnmmmmmmmmmmbNMMbbbMbbbbbbbbnnnmmmmmmmmmnnmmmmmnnnmmmmmmnnnmnnmmnnnmmmnnmmmmMMMMMMMMbbbMbNbbbbbbbbbb",
"SFSSSSSFSSSZZZFZZFSSSZZSSSSSZZZZSSZZGZGGCJFFFFFFFZZFZFFZSSSSSZZZZGZZSZSSZSZZSSZSZZZZSAZSZZZZASZSSSSSZZZZZZZZHZZZZZZZCJFFFZDDDZZF",
"YYYYYYYYYYYYUUUUUYYYYUYYYYUUUUYYYYYYYYYYUUUUUUYUUYYYUYYUYUUYYYYYUYUUUUUUUUUUUYUYYYUUUUUYUUUUYYUUYYYYYYYUUUUUYYYYYYYUUUUUYYYYYYYY",
"PKKKKIKIKKKKJJPIKKKJIIIPLLKKIILIIIKKKKIIIIIIIIIKPIKKKIIKIIIIIIIIKIKIIIIIIKIIIIIIKKJJIKKKKKIKKIKKKKKKIIIIIJIIKIKKKKIKIKIKIPKKKKIK",
"CVVVBBCCVVBBVVCCBVVBBVCCVVVCCCCCCCCCBVCCCCBBCVVCBCBBVVCCBBBBBBCCCVVCCCBBCCCCBCCCVVVCVCCCVBBBVCBBVVVVCCBBBBVBBBBBBBBBCBBBBBBBBBBB",
"zzzzxxvlzzzzzvvllxzzzzlxzzzzzzzzxxvlzzxlzzzzzzvlxvlxzvvlxxvlxxvlxzzzxxclxxxlxlxxzzzzzzzzzzzzxzzzzzzzvlxxzzvzxxxzxxxxxxxxxxxxxxxx",
".$.#+=..#....#..=# $.#...##.$$.$........+..+.#####..#...#$#.....$...$+=..#.+....+...$+++ .......$$...+..$#...#..$....#+.....##..",
"#.X#.##X###X###X-#.#X####.##$$#########.####X##. ##X###X##X####X#####.##X###########.+###########.####.#############.########X##",
"###X##X###.#.#X############X#X.######X###X.#.X####X###X#.#.X#.X#######.##########X#####.#######..####### ###.############.#####X",
"#.X##X#X ##X#X#X........#.X#X# #....#.#.X.#### .#X#X#X####X####X...#....+.....++..+..++.$...$.$.++.....................#.....#..",
"##..######..########..###.  .##...##.#  .#.#..###.  ##.##.  ##.#####..##.#  .#.#..###.  .##...###.  #####.  ####.$.$$ .$....###.",
"..$o.. ...$o.. ...... $....$$... $.$..$..$..$..$..$....$..$....$....$..$..$..$... $....$$.... $..$.$...$.$.$...$$.$. $$..$.o$...",
" $oo $.$ $oo $.$$    $  $ $ $ $ $ $  $ $ $ $$ . $  $ $$ $  $ $$  $.$$ .  $ $ $ $ $ $$ $ $ $  $ . $$.   . $$.   .$ # $ # $ $o$ $ ",
"$ o $  .$ o $  ..$ $$. # $ $ $ $ $ .$ $ $ $  $   $$ $  . $$ $  .$ $  $  $ $ $ $ $ $. $ $ $ $$ $#$  $ $..$  $ $.. $ $ $   $ o $ $",
" .$...#. .$...#.$........#..$.$..#....#..$.....#$ .$.#..$ .$.#.. o...#.#.....$.$..#.....$....... .$...#. .$...#.$ .#...#....$.$.",
"................................................................................................................. ..............",
"....... .............................................................................. ................ ....... ................",
"#...X..X#...XXXX   .#.#..#...   XXXX.#X.   X..#.... XXX.... XX.# ....#.X..XXX   XXXX.#X#    .#.X... X..#... X..X ...#.XXX#..    ",
"                                                                                                                        #       ",
"                                                                                                                                ",
"                                                                                                                                ",
"                                                                                                                                ",
"                                                                                                                                ",
"                                                                                                                                ",
"                                                                                                                                ",
"                                                                                                                                "
};
