/* XPM */
static char *__WE1699569679[] = {
/* columns rows colors chars-per-pixel */
"128 128 45 1 ",
"  c #131720",
". c #121621",
"X c #131722",
"o c #141823",
"O c #151924",
"+ c #151925",
"@ c #161A25",
"# c #161A26",
"$ c #171B27",
"% c #161C28",
"& c #171D29",
"* c #171D2B",
"= c #181C28",
"- c #191D29",
"; c #1A1D2C",
": c #181E2C",
"> c #191F2D",
", c #1A202E",
"< c #1B212F",
"1 c #1A2030",
"2 c #1B2131",
"3 c #1B2232",
"4 c #1C2230",
"5 c #1C2232",
"6 c #1C2333",
"7 c #1D2333",
"8 c #1D2434",
"9 c #1E2434",
"0 c #1E2535",
"q c #1E2537",
"w c #1F2636",
"e c #1F2638",
"r c #202739",
"t c #20273A",
"y c #21283A",
"u c #21283B",
"i c #22293B",
"p c #22293C",
"a c #232A3C",
"s c #222A3D",
"d c #232A3D",
"f c #232B3E",
"g c #242B3E",
"h c #242C3F",
"j c #252C3F",
/* pixels */
"hhhhhhhhhhhhhhhhhhhhhhhhhhhhhhhhhhhhhhhhhhhhhhhhhhhhhhhhhhhhhhhhhhhhhhhhhhhhhhhhhhhhhhhhhhhhhhhhhhhhhhhhhhhhhhhhhhhhhhhhhhhhhhhh",
"hhhhhhhhhhhhhhhhhhhhhhhhhhhhhhhhhhhhhhhhhhhhhhhhhhhhhhhhhhhhhhhhhhhhhhhhhhhhhhhhhhhhhhhhhhhhhhhhhhhhhhhhhhhhhhhhhhhhhhhhhhhhhhhh",
"hhhhhhhhhhjjhhhhhhhhhhhjhhhhhhhhhhhjhhhhhhhhhhhjhhhhhhhhhhhjhhhhhhhhhhhhhhhhhhhhhhjjhhhhhhhhhhhhhhhhhhhhhhjjhhhhhhhhhhhjhhhhhhhh",
"hhhhhhhhhhjjhhhhjjjjjjjjjjjjjjjjjjjjjjjjjjjjjjjjjjjjjjjjjjjjjjjjhhhhhhhjjjjjjjjjhhjjhhhhhhhhhhhjjjjjjjjjhjjjhhhhjjjjjjjjjjjjjjjj",
"jjjhhhhhjjjjjgggjjjjjjjjjjjjjjjjjjjjjjjgjjjjjjjjjjjjjjjjjjjjjjggjjjjjjjjjjjjjjjjjjjjjgggjjjjjjjjjjjjjjjjjjjjggggjjjjjjjjjjjjjjjj",
"gggggggggggggggggfggggggggggfggggggggggggfggggggggggfggggggggggggfggggggggggfggggggggggggfggggggggggfggggggggggggfggggggggggfggg",
"ggggggggggggggggffffffffggggggggggggggggggggggggffffffffffffggffgggggggggggggggggggggggggggggggggggggggggggggggggggggggggggggggg",
"ggggggggggggggggfffffffffffffffffffffgffffffffffffffffffffffffffggggggggffffffffggggggggggggggggffffffffggggggggffffffffffffffff",
"gggfffffffffffffggggggggggggggggffffffffggggggggggggggggggggggggggggggggffffffffffffffffffffffffggggggggggggggggffffffffffffffff",
"ggffffffffffffffggggggggggggggggffffffffggggggggggggggggggggggggggggggggffffffffffffffffffffffffggggggggggggggggffffffffffffffff",
"fffffffffffffffffffffffffffffffffffgfffffffffffffffffffgffffffffffffffffffffffffffffffffffffffffffffffffffffffffffffffffffffffff",
"fffffffgfffffffgfffffffffffffffffffgfffffffffffgfffffffgfffffffgfffffffffffffffffffgfffffffffffgffffffffffffffffffffffffffffffff",
"gggggggggggggggggggggggggggggggggggggggggggggggggggggggggggggggggggggggggggggggggggggggggggggggggggggggggggggggggggggggggggggggg",
"gggggggggggggggggggggggggggggggggugugguggggggggggggggggggggggggggggggggggggggggggggggggggggggggggggggggggggggggggggggggggggggggg",
"figgfgggfgggggggggtgggggtgggggffggugugugggfuugfffugggguufggguuggugugggugugggugffgggtgtgggtftgggtfftgtgtgtgtgtgtgggtgggggtgggggff",
"fffitgtgtgtgtgtggtgggtgtgggtgtffuggguggguuggfguuffguugggfuuggggugguguggguguggguftgggggtgggggtfffffgggggggggggggggtgggtgtgggtgtff",
"tftftftftftftftftftffftftffftftfffffftffffftufffftftftftftftftftfuffuuffffffftffftffffftffffftfftftftftftftftftftftffftftffftftf",
"ffffffffffffffffffffftffffftfffftftffftftfffffufffffffffffffffffffuffffutftffftffftftffftftffftfffffffffffffffffffffftffffftffff",
"fftffftffftffftffftffffgtftffftfgfftffffuffefufuftffftgfftffftgfuufffffugfftffffffffuffegfftfffffftffftffftffffifftffffgtftffftf",
"ftffftggftffftfgftffgtftffffftfftfggtftfffffgufgfftffftgfftffftgfffuuufftfggtftftftffffftfggtftfftffftggftffftggftffgtftffffftff",
"fgtgggtgfgtgggggtgggtggggtgtttgtgtggtgggtftgtgtgtftgtgtgfggggtggtgtguftftgtgtgtggiigiiiggtggtgggfgtggftgtftggtgttgggtggggtgtttgt",
"tfgtgtgttfgttgtigtgtgtgttgtgtftggttgggttftgtgtgtftgtgtgtttftfttggtgtftgtgtgtgtgiiiiitfiigttgggtitfgtgtgtftgttgtggtgtgtgttgtgtftg",
"tgtgtgtgtgtggtgttgtgtgtggtgtgtgttgtgtgigtgtgtgtgtgtgtgtgtgtgtfiitgtgtgtgtgtgtggiiigtgtiitgtgtggitgtgtgtgtgtggtgttgtgtgtggtgtgtgt",
"gtgtgtgtgtgttgtggtgtgtgttgtgtgtggtgtgtigftgtgtgtgtgtgtgtgtgtftffgtgtgtgtgtgtgtiitgtgtftfgtgtgtiigtgtgtgtgtgttgtggtgtgtgttgtgtgtg",
"tiiiiiiiiiiiiiiiiiiiiiiigtiiiiiiiiiiiiiiiiiiiiiitiiiiiiiiiiiiiiitiiiiiiiiiiiiiiiiiiiiiiiiiiiiiiitiiiiiiiiiiiiiiiiiiiiiiigtiiiiii",
"iiiiiiiiiiiiiiiiiiiiiiiiiiiiiiiiiiiiiiiiiiiiiiiiiiiiiiiiiiiiiiiiiiiiiiiiiiiiiiiiiiiiiiiiiiiiiiiiiiiiiiiiiiiiiiiiiiiiiiiiiiiiiiii",
"giiigigtiiiiiiiiigiiiiiiiigiiiigiiiiiiiigiiiiiiiigiiiigiiiiiiiiigigtiiiiiiiiiiiigigtiiiiiiiiiiiigiiigigtiiiiiiiiigiiiiiiiigiiiig",
"tttittititirtitittititirtittittttitiitittttitiritttttitttitiitittitttitititititititttititititititttittititirtitittititirtittittt",
"rirititiriririrititiriririrititiiririritititiririrititititirititttiririrititirirttiririrititirirrirititiriririrititiriririrititi",
"irititiritirirititiritirirititittiririritiritiririritititirititititirirititirirititirirititiririirititiritirirititiritirirititit",
"rititirititirititirititirititiriititirititirititirititiritititutititititititititititititititititrititirititirititirititirititiri",
"itititititititititititititititittititititititititititititititieftitititititititititititititititiitititititititititititititititit",
"rrrrrrrrttttitirieeeieeieeeieieeeeieieeeftitititieeeieeieeeieieerrrrrrrrrrrrttefeiieieeeieeeeeeirrrrrrrritititirrrrrrrrrrrrrrrrr",
"rrrrrrrrrrrrrrrreeieieeieieeeieiieieeeieterr0irreeieieeieieeeieirrrrrrrrrrrrteeeeeeeeeiieeiiiieerrrrrrrrrr0irrrrrrrrrrrrrrrrrrrr",
"rrrrrrrrrrrrrrrreieieeeeieieeeieeieeeieitttttttteieieeeeieieeeierrrrrrrrrrrrtteeieeieieeeieeeeeerrrrrrrrrrrrrrrrrrrrrrrrrrrrrrrr",
"rrrrrrrtrrrrrrrreieeeiieeeieieeeeeeieieetttrrrrreieeeiieeeieieeerrrrrrrrrrrrrtfeieeieeieeeieeiferrrrrrrrrrrrrrrrrrrrrrrtrrrrrrrr",
"rrttrrttrrrtrrrrefeeeeeeeieeieeiieeieeierrttrrrrefeeeeeeeieeieeirtrrttttrtrreeeeeeieeeieieeieeeettttrrrrrrrreeeerrtttrttttttrtrr",
"rrt0t0eerrrtrrrreeeeeeeeeeeeeeeeeeeeeeeerrrtrrrreeeeeeeeeeeeeeee0tt0ee0t0tt0eeeeeeeeeeeeeeeeeeee0t0errrrrtrrtefer0eet0ee0t0e0tt0",
"rr0t0tee0t0t0rrreeeeeeeeeeeeeeeeeeeeeeee0teeet0reeeeeeeeeeeeeeeeee0teeeeee0teeeeeeeeeeeeeeeeeeeet0ee0t9r0r0teeee0tee0teet0eeee0t",
"r9r0t0eet0r0r0rreeeeeeeeeeeeeeeeeeeeeeeet0eee0t0eeeeeeeeeeeeeeeeeet0eeeeeet0eeeeeeeeeeeeeeeeeeee0tt0t0r0r0r0t00et0eet0ee0teeeet0",
"eeeeeeee0teeeeeeeeeeeeeeeeeeeeeeeeeeeeee0teeeeeeeeeeeeeeeeeeeeeeeeeeeeeeeeeeeeeeeeeeeeeeeeeeeeeeteeeeeeeeeeeeeeeeeeeeeeeteeeeeee",
"eeeeeeeeeeeeeeeeeeeeeeeeeeeeeeeeeeeeeeeeeeeeeeeeeeeeeeeeeeeeeeeeeeeeeeeeeeeeeeeeeeeeeeeeeeeeeeeeeeeeeeeeeeeeeeeeeeeeeeeeeeeeeeee",
"eeeeeeeeeeeeeeeeeeeeeeeeeeeeeeeeeeeeeeeeeeeeeeeeeeeeeeeeeeeeeeeeeeeeeeeeeeeeeeeeeeeeeeeeeeeeeeeeeeeeeeeeeeeeeeeeeeeeeeeeeeeeeeee",
"qqqqqqqq9qqqqqqqqqqqqqqqqqqqqqqqqqqqqqqq0ee0qqqeqqqqqqqqqqqqqqqq0ee0qqqeqqqqqqqqeee9qqqeqqqqqqqqqqq9qqqqqqqqqqqqqqqqqqqq0ee0qqqe",
"qqqqqqqqqqqqqqqqqqqqqqqqqqqqqqqqqqqqqqqqqqqqqqqqqqqqqqqqqqqqeqqqqqqqqqqqqqqqqqqqqqqqqqqqqqqqqqe0qqqqqqqqqqqqqqqqqqqqqqqqqqqqqqqq",
"qqqqqeqqqqqeqqqqqeqqqqqeqqqqqeqqqqqqqeqqqqqeqqqqqeqqqqqeqqqq0eqqqqqeqqqqqeqqqqqeqqqeqqqqqeqqqqqeqqqeqqqeqqqeqqqeqqqqqeqqqqqeqqqq",
"00900000900000900000800000900000008000009000009000008000008000009000009000008000800000800000800090009000900090000080000090000090",
"00000000000000000000000000000009000000000000000000000000000000000000000000000000000000000000000000000000000000000000000000000000",
"99999999999999999999999999999999999999999999999999999999999999999999999999999999999999999999999999999999999999999999999999999999",
"89888888888888888888888888888888888888888888888888888888888888888888888899999999999999998888888888888888888888888888888899999999",
"88888888888888888888888888888888888888888888888888888888888888888888888888888888888888888888888888888888888888888888888888888888",
"88888888888988888888888888888888888888888889888888888888888988888888888888888888888988888888888888888888888888888888888888888888",
"88998888988989888988888888898889898888889880908890898098988090898899889989888888988088888898889889889988898899888899889989888888",
"28828888928289288929889299292882892988929282828982898228928282898829882989298892928289282892289229282988292828888829882989298892",
"99992929992929282929999292929988292999829929298229929299992929822299229929299992992929289999999992992999929929882299229929299992",
"92299929299929882999229992999228299922992999298229929992299929829892999229992299299929889229922999929922999288289892999229992299",
"22222222218122228888882822812822222828228888882822282222888228888282222228282222828888828282222228828888228281222222222228282222",
"88888888888888882222282882882888882828881211282888288888828880288288888828288888822221828288888822822221898288888888888828288888",
"28229222221892222228228222182929222829292882229422289222281222922222222922892822922288222222222988228282229222222228289222892822",
"22282299882222998822922988222922882229222228922288222299222892228282282982222228229922288282282922282282922228822828222282222228",
"82929292229282922249244422228292222292928240224022929292828228292222449422948822402420442262402429442249929922942282229922948822",
"824492442844924442444444288282222892922222444444284492448222222922444424982422284444444422,6444424442222442298248282942298242228",
"2>4<2>4<2,242,<<2,4,22,22222222222222222,2,,2,4,2,<<22,<22222222<,222,,22>,4,42,2,,22,2,,2<<2,,22,,44,,4<<<<2>2,222222222>,4,42,",
">2<<>2<<>2,,>2<<22222242222222222222222222222222,2<<,,<<2222222242222244,24,4,,2224224224224224224222222<<<<,2>222222224,24,4,,2",
"41414144141414142224222422242422242224222422242224222422242224222422222222222222222422422422222422422422442222422442222442422442",
"1414141>41414141>224>224>22424>22,2,2,222,2,2,222,2,2,222<,22<,22,,2,22,2,,2,2<,442,,2<<2,,2442,,2<<2,,2>2224>4>2>22442>224>2>22",
"4>2>4144>2>>>2>>><>>><>>><>>>>>>,,>2,,>>,,>2,,>>,,>2,,>>,<,,,<,,,,,,:,,:,,,,,,,,>>2>>>>>2>>,>>2>>>>>2>>,>424<4222>>>>>2>>4224>>4",
"112>2211>222>222222>222>222>22222,>22,2>2,>22,2>2,>22,2>,222,22222,21221,22,22,22>2>22222>222>2>22222>2222>42>>22>222>2>2>>222>2",
">>4>>4>>22224222>2>222>2>2>24222222>22>2222>22>2222>22>2,,,,,,,,,22>2222>222,22>22>22222>222>2222222>2>2<><><>>2>222>222><<>>2>>",
"4>4>>4>4>>>>>>>>>2>><>>2>2>>>>>>>>2>,,>2>>2>,,>2>>2>,,>2,,,,,,,,,,,,,:,,,,>,,,,,,,>2>>>>>>,,>>,,>>>,>2>>><><><>>>><>>><><>><>><>",
">4>>>>4>>>>22>>><>2>><<><>2>>2>>,,>,,,,,,,>,,,,>,,>,,,,,,,,,2>>>,,,,,,,,,,,,,2,,>,2>>>>22>,,2>,,>,,,,,2><>><<>>>2>><2>><><<>><><",
">>>>>>>>>>>>>>>>>>>>>>>>>>>>>>>>>>>>>>>>>>>>>>>>>>>>>>>>>>>>>>>>:,:,:,:,,::,::,:>>>>>>>>>>>>>>>>>>>>>>>>>>>>>>>>>>>>>>>>>>><>>>>",
">>>>>>>>>>>>>>>>>>>>>>>>>>>>>>>>>>>>>>>>>>>>>>>>>>>>>>>>>>>>>>>>>>>>>>>>:,:,:,:,>>>>>>>>>>>>>>>>>>>>>>>>>>>>>>>>>>>>>>>>>>>>>>>>",
">>>>>>>>>>>>>>>>>>>>>>>>>>>>>>>>>>>>>>>>>>>>>>>>>>>>>>>>>>>>>>>>>>>>>>>>,:,:,:,:>>>>>>>>>>>>>>>>>>>>>>>>>>>>>>>>>>>>>>>>>>>>>>>>",
">>>>>>>>>>>>>>>>>>>>>>>>>>>>>>>>>>>>>>>>>>>>>>>>>>>>>>>>>>>>>>>>>>>>>>>>:,:,:,:,>>>>>>>>>>>>>>>>>>>>>>>>>>>>>>>>>>>>>>>>>>>>>>>>",
">>>>>>>>>>>>>>>>>>>>>>>>>>>>>>>>>>>>>>>>>>>>>>>>>>>>>>>>>>>:>>>>>>>>>>>>,:,:,:,:>>>>>>>>>>>>>>::>>>>>>>>>>>>>>>>>>>>>>>>>>>>>>>>",
"::::>>;=>*>**>*>::::>>::::::::::*>*>>=>:::::::::::::>:::::::::::::::::::::::::::::::::::::::::::>>::::::::::::::>*>*>*>**>*>>=>>",
";;;;>;;>;;;;;;;>::::>=::;;;;;;>>;;;;>;;>::::::::::::::::;;;;;;;;;;;;;;;;;;;;>>;;::::::::>;;;;;;;>=;;;;;;::::::::;;;;;;;;;;;;>;;;",
"::::::>;>*>*>*::::::::::::::::::>*>*>*>*::::::::::::::::::::::::::::::::::::::::::::::::::::::::>:::::::::::::::>*>*>*>*>*>*>*>*",
"::::::::*>*>*>::::::::::::::::::*>*>*>*>::::::::::::::::::::::::::::::::::::::::::::::::::::::::>;::::::::::::::*>*>*>*>*>*>*>*>",
"::::::::::::::::>>=:::>=>:::>=,:>*>*::::::::::::,=,:::>>::::::::::::::::::::::::::::::::::::::::::::::::::::::::>*>*::::::::::::",
"****************>=::&:>>::**,=:&****************==:&::=>&:*:************&::::&:&*:&&::*****************:*******:**********:&&:*:",
"******&:********=-==&=>===*;=-==******&:********=,==&==>******&:********&&&&*&&&*%&&&&**:*&:**********&:******&:******&:*&&&&&**",
"*****::&********,============,==*****::&********==,=&===*****::&********&&&&*#&&*%&&&&%%&::&**********:&******:&*****::&*#&&&&&#",
"**&&&&&&&&&&*%&&&&&&&&&&==&&&&&&**%&&&&&&&&&*%&&&&&&&&=%**&&&&&&&&&&*#&&&&&&&&&&&&&=&&&&&&&&&&&&*%&&&&&&*%&&&&&&**%&&&&&&&&&&&&&",
"##%#%%%%%%%%#*&#%%%%%%%%&&%%%%%%##*&&#%%%%%%#*&#%%%%%%%%##%%%%%%#&&##*#&&#&##&&#%%%%%%%%%%%%%%%##*&#%%%%#*&#%%%%##*&&#%%%%%%%%%%",
"&=============%%%%%%%%%%&%%%%%%%====%===%%%%%%%%%%%%%%%%&=======&&====&&====&&========%%==========%%======%%========%=========%%",
"*=======================&=====================%%========%==============================%========================================",
"================================================================================================================================",
"================================================================================================================================",
"================================================================================================================#=#=#=#=========",
"=#=#=#=##=#==#=#=#=##=#==#=#=#=#=#=#=#=##=#==#=#=#=##=#==#=#=#=#=#=#=#=#=#=#=#=#=#=%=#=#=#=#=#=##=#==#=#=#=##=#==#=#=#=##=#==#=#",
"#=#=#=#=#=#=#=#=#=#=#=#=#=#=#=#=#=#=#=#=#=#=#=#=#=#=#=#=#=#=#=#=#=#=#=#=#=#=#=#=#=#=#=#=#=#=#=#=#=#=#=#=#=#=#=#=#=#=#=#=#=#=#=#=",
"=#=#=#=#=#=#=#=#=#=#=#=#=#=#=#=#=#=#=#=#=#=#=#=#=#=#=#=#=#=#=#=#=#=#=#=#=#=#=#=#=#=#=#=#=#=#=#=#=#=#=#=#=#=#=#=#=#=#=#=#=#=#=#=#",
"#=#=#=#=#=#=#=#=#=#=#=#=#=#=#=#=#=#=#=#=#=#=#=#=#=#=#=#=#=#=#=#=#=#=#=#=#=#=#=#=#=#=#=#=#=#=#=#=#=#=#=#=#=#=#=#=#=#=#=#=#=#=#=#=",
"=#=#=#=#=#=#=#=#=#=#=#=#=#=#=#=#=#=#=#=#=#=#=#=#=#=#=#=#=#=#=#=#=#=#=#=#=#=#=#=#=#=#=#=#=#=#=#=#=#=#=#=#=#=#=#=#=#=#=#=#=#=#=#=#",
"################################################################################################################################",
"################################################################################################################################",
"################################################################################################################################",
"################################################################################################################################",
"################################################################################################################################",
"#O#O###O##O##O#O#O#O#O#O#O#OO##O##O##O###O#O#O#O#O#OO##O#OO##O#OO##O#OO#O##O#OO#O##O##O#O##O##O##O#O###O##O##O#O#O#O#O#O#O#OO##O",
"OOOOOOOOXOOOOOOOOOOOOOOOOOOOOOOOXOOOOOXOOOOOOOOOOOOOOOOOOOOOOOOOOOOOOOOOOOOOOOOOOOOOXOOOOOOOOOOOOOOOOOOOXOOOOOOOOOOOOOOOOOOOOOOO",
"#O#O#O#O#O#O#O#OO#O#O#O##O#O#O#O#O#O#O##O#O#O#O##O#O#O#O#O#O#O#O#O#O#O#O#O#O#O#O#O#O#O#O#O#O#X###O#O#O#O#O#O#O#OO#O#O#O##O#O#O#O",
"OOOOOOOOOOOOOOOOOOOOOOOOOOOOOOOOOOOOOOOOOOOOOOOOOOOOOOOOOOOOOOOOOOOOOOOOOOOOOOOOOOOOOOOOOOOOOOOOOOOOOOOOOOOOOOOOOOOOOOOOOOOOOOOO",
"OOOOOOOOOOOOOOOOOOOOOOOOOOOOOOOOOOOOOOOOOOOOOOOOOOOOOOOOOOOOOOOOOOOOOOOOOOOOOOOOOOOOOOOOOOOOOOOOOOOOOOOOOOOOOOOOOOOOOOOOOOOOOOOO",
"OOOOOOOOOOOOOOOOOOOOOOOOOOOOOOOOOOOOOOOOOOOOOOOOOOOOOOOOOOOOOOOOOOOOOOOOOOOOOOOOOOOOOOOOOOOOOOOOOOOOOOOOOOOOOOOOOOOOOOOOOOOOOOOO",
"OOOOOOOOOOOOOOOOOOOOOOOOOOOOOOOOOOOOOOOOOOOOOOOOOOOOOOOOOOOOOOOOOOOOOOOOOOOOOOOOOOOOOOOOOOOOOOOOOOOOOOOOOOOOOOOOOOOOOOOOOOOOOOOO",
"XOXOXOXOXOXOXOXOOXOXOXOXOXOXOXOXXOXOXOXOXOXOXOXOOXOXOXOXOXOXOXOXOXOXOXOXOXOXOXOXOXOXOXOXXOXOXOXOXOXOXOXOXOXOXOXOOXOXOXOXOXOXOXOX",
"OXOXOXOXOXOXOXOXXOXOXOXOXOXOXOXOOXOXOXOXOXOXOXOXXOXOXOXOXOXOXOXOXOXOXOXOXOXOXOXOXOXOXOXOOXOXOXOXOXOXOXOXOXOXOXOXXOXOXOXOXOXOXOXO",
"XOXOXOXOXOXOXOXOOXOXOXOXOXOXOXOXXOXOXOXOXOXOXOXOOXOXOXOXOXOXOXOXOXOXOXOXOXOXOXOXOXOXOXOXXOXOXOXOXOXOXOXOXOXOXOXOOXOXOXOXOXOXOXOX",
"OXOXOXOXOXOXOXOXXOXOXOXOXOXOXOXOOXOXOXOXOXOXOXOXXOXOXOXOXOXOXOXOXOXOXOXOXOXOXOXOXOXOXOXOOXOXOXOXOXOXOXOXOXOXOXOXXOXOXOXOXOXOXOXO",
"OXOXOXOXOXXXX#XXOXOXOXOXOXOXOXOXXXXX#XXOXOXOXOXOOXOXOXOXOXXXX#XXOXOXOXOXOXOXOXOXXXXX#XXOXOXOXOXOOXOXOXOXOXXXX#XXOXOXOXOXOXOXOXOX",
"XOXOXOXOXX##XXXXXOXOXOXOXOXOXOXOXX#XOXOXOXOXOXOXXOXOXOXOXX##XXXXXOXOXOXOXOXOXOXOXX#XOXOXOXOXOXOXXOXOXOXOXX##XXXXXOXOXOXOXOXOXOXO",
"XXXXXXXXXXXXXXXXXXXXXXXXXXXXXXXXXXXXXXXXXXXXXXXXXXXXXXXXXXXXXXXXXXXXXXXXXXXXXXXXXXXXXXXXXXXXXXXXXXXXXXXXXXXXXXXXXXXXXXXXXXXXXXXX",
"XXXXXXXXXXXXXXXXXXXXXXXXXXXXXXXXXXXXXXXXXXXXXXXXXXXXXXXXXXXXXXXXXXXXXXXXXXXXXXXXXXXXXXXXXXXXXXXXXXXXXXXXXXXXXXXXXXXXXXXXXXXXXXXX",
"XXXXXXXXXXXXXXXXXXXXXXXXXXXXXXXXXXXXXXXXXXXXXXXXXXXXXXXXXXXXXXXXXXXXXXXXXXXXXXXXXXXXXXXXXXXXXXXXXXXXXXXXXXXXXXXXXXXXXXXXXXXXXXXX",
"XXXXXXXXXXXXXXXXXXXXXXXXXXXXXXXXXXXXXXXXXXXXXXXXXXXXXXXXXXXXXXXXXXXXXXXXXXXXXXXXXXXXXXXXXXXXXXXXXXXXXXXXXXXXXXXXXXXXXXXXXXXXXXXX",
"XXXXXXXXXXXXXXXXXXXXXXXXXXXXXXXXXXXXXXXXXXXXXXXXXXXXXXXXXXXXXXXXXXXXXXXXXXXXXXXXXXXXXXXXXXXXXXXXXXXXXXXXXXXXXXXXXXXXXXXXXXXXXXXX",
"XXXXXXXXXXXXXXXXXXXXXXXXXXXXXXXXXXXXXXXXXXXXXXXXXXXXXXXXXXXXXXXXXXXXXXXXXXXXXXXXXXXXXXXXXXXXXXXXXXXXXXXXXXXXXXXXXXXXXXXXXXXXXXXX",
"XXXXXXXXXXXXXXXXXXXXXXXX                        XXXXXXXX        XXXXXXXX        XXXXXXXXXXXXXXXXX               XXXXXXXXXXXXXXXX",
"XXXXXXXXXXXXXXXXXXXXXXXXXXXXXXXXXXXXXXXXXXXXXXXXXXXXXXXXXXXXXXXXXXXXXXXXXXXXXXXXXXXXXXXXXXXXXXXXXXXXXXXXXXXXXXXXXXXXXXXXXXXXXXXX",
"X X..................... X .....................X X..................... X .....................X X..................... X .....",
"XX......................X ......................XX......................X ...................... X......................X ......",
"................................................................................................................................",
"................................................................................................................................",
"................................................................................................................................",
"................................................................................................................................"
};
