/* XPM */
static char *__EA1699569679[] = {
/* columns rows colors chars-per-pixel */
"128 128 18 1 ",
"  c #020E00",
". c #030E00",
"X c #030F01",
"o c #040F00",
"O c #031000",
"+ c #041100",
"@ c #051200",
"# c #041300",
"$ c #051401",
"% c #061500",
"& c #041600",
"* c #051700",
"= c #051701",
"- c #041800",
"; c #051900",
": c #061800",
"> c #071901",
", c #061A00",
/* pixels */
",,,,,,,,,,,,,,,,,,,,,,,,,,,,,,,,,,,,,,,,,,,,,,,,,,,,,,,,,,,,,,,,,,,,,,,,,,,,,,,,,,,,,,,,,,,,,,,,,,,,,,,,,,,,,,,,,,,,,,,,,,,,,,,,",
",,,,,,,,,,,,,,,,,,,,,,,,,,,,,,,,,,,,,,,,,,,,,,,,,,,,,,,,,,,,,,,,,,,,,,,,,,,,,,,,,,,,,,,,,,,,,,,,,,,,,,,,,,,,,,,,,,,,,,,,,,,,,,,,",
",,,,,,,,,,,,,,,,,,,,,,,,,,,,,,,,,,,,,,,,,,,,,,,,,,,,,,,,,,,,,,,,,,,,,,,,,,,,,,,,,,,,,,,,,,,,,,,,,,,,,,,,,,,,,,,,,,,,,,,,,,,,,,,,",
",,,,,,,,,,,,,,,,,,,,,,,,,,,,,,,,,,,,,,,,,,,,,,,,,,,,,,,,,,,,,,,,,,,,,,,,,,,,,,,,,,,,,,,,,,,,,,,,,,,,,,,,,,,,,,,,,,,,,,,,,,,,,,,,",
",,,,,,,,,,,,,,,,,,,,,,,,,,,,,,,,,,,,,,,,,,,,,,,,,,,,,,,,,,,,,,,,,,,,,,,,,,,,,,,,,,,,,,,,,,,,,,,,,,,,,,,,,,,,,,,,,,,,,,,,,,,,,,,,",
",,,,,,,,,,,,,,,,,,,,,,,,,,,,,,,,,,,,,,,,,,,,,,,,,,,,,,,,,,,,,,,,,,,,,,,,,,,,,,,,,,,,,,,,,,,,,,,,,,,,,,,,,,,,,,,,,,,,,,,,,,,,,,,,",
",,,,,,,,,,,,,,,,,,,,,,,,,,,,,,,,,,,,,,,,,,,,,,,,,,,,,,,,,,,,,,,,,,,,,,,,,,,,,,,,,,,,,,,,,,,,,,,,,,,,,,,,,,,,,,,,,,,,,,,,,,,,,,,,",
",,,,,,,,,,,,,,,,,,,,,,,,,,,,,,,,,,,,,,,>,,,,,,,,,,,,,,,,,,,,,,,,,,,,,,,,,,,,,,,,,,,,,,,>,,,,,,,,,,,,,,,,,,,,,,,,,,,,,,,,,,,,,,,,",
",>>>>>>>>>>>>>>>>>>>>>>>>>>>>>>>>>>>>>>>>>>>>>>>>>>>>>>>>>>>>>>>>>>>>>>>>>>>>>>>>>>>>>>>>>>>>>>>>>>>>>>>>>>>>>>>>>>>>>>>>>>>>>>>",
">>>>>>>>>>>>>>>>>>>>>>>>>>>>>>>>>>>>>>>>>>>>>>>>>>>>>>>>>>>>>>>>>>>>>>>>>>>>>>>>>>>>>>>>>>>>>>>>>>>>>>>>>>>>>>>>>>>>>>>>>>>>>>>>",
">>>>>>>>>>>>>>>>>>>>>>>>>>>>>>>>>>>>>>>>>>>>>>>>>>>>>>>>>>>>>>>>>>>>>>>>>>>>>>>>>>>>>>>>>>>>>>>>>>>>>>>>>>>>>>>>>>>>>>>>>>>>>>>>",
">>>>>>>>>>>>>>>>>>>>>>>>>>>>>>>>>>>>>>>>>>>>>>>>>>>>>>>>>>>>>>>>>>>>>>>>>>>>>>>>>>>>>>>>>>>>>>>>>>>>>>>>>>>>>>>>>>>>>>>>>>>>>>>>",
">>>>>>>>>>>>>>>>>>>>>>>>>>>>>>>>>>>>>>>>>>>>>>>>>>>>>>>>>>>>>>>>>>>>>>>>>>>>>>>>>>>>>>>>>>>>>>>>>>>>>>>>>>>>>>>>>>>>>>>>>>>>>>>>",
">>>>>>>>>>>>>>>>>>>>>>>>>>>>>>>>>>>>>>>>>>>>>>>>>>>>>>>>>>>>>>>>>>>>>>>>>>>>>>>>>>>>>>>>>>>>>>>>>>>>>>>>>>>>>>>>>>>>>>>>>>>>>>>>",
">>>>>>>>>>>>>>>>>>>>>>>>>>>>>>>>>>>>>>>>>>>>>>>>>>>>>>>>>>>>>>>>>>>>>>>>>>>>>>>>>>>>>>>>>>>>>>>>>>>>>>>>>>>>>>>>>>>>>>>>>>>>>>>>",
">>>>>>>>>>>>>>>>>>>>>>>>>>>>>>>>>>>>>>>>>>>>>>>>>>>>>>>>>>>>>>>>>>>>>>>>>>>>>>>>>>>>>>>>>>>>>>>>>>>>>>>>>>>>>>>>>>>>>>>>>>>>>>>>",
"::::::::::::::::=:::::::>>>>>>>>>>>>>>>>>>>>>>>>::::::::>>>>>>>>,=::::::::::::::>>>>>>>>::::::::::::::::::::::::>>>>>>>>::::::::",
"::::::::::::::::,=::::::>>>>>>>>::::::::>>>>>>>>>>>>>>>>::::::::::::::::::::::::::::::::::::::::::::::::>>>>>>>>,=::::::>>>>>>>>",
">>>>>>>>>>>>>>>>>>>>>>>>::::::::::::::::::::::::>>>>>>>>::::::::>>>>>>>>>>>>>>>>::::::::>>>>>>>>>>>>>>>>>>>>>>>>::::::::>>>>>>>>",
"::::::::::::::::::::::::::::::::>>>>>>>>::::::::::::::::>>>>>>>>::::::::::::::::>>>>>>>>::::::::::::::::::::::::>>>>>>>>::::::::",
"::::::::::::::::::::::::::::::::::::::::::::::::::::::::::::::::::::::::::::::::::::::::::::::::::::::::::::::::::::::::::::::::",
"::::::::::::::::::::::::::::::::::::::::::::::::::::::::::::::::::::::::::::::::::::::::::::::::::::::::::::::::::::::::::::::::",
"::::::::::::::::::::::::::::::::::::::::::::::::::::::::::::::::::::::::::::::::::::::::::::::::::::::::::::::::::::::::::::::::",
"::::::::::::::::::::::::::::::::::::::::::::::::::::::::::::::::::::::::::::::::::::::::::::::::::::::::::::::::::::::::::::::::",
"::::::::::::::::::::::,=::::::::::::::::::::::,=::::::::::::::::::::::::::::::::::::::::::::::::::::::::::::::::::::::,=::::::::",
"::::::::::::::::::::::==::::::::::::::::::::::==::::::::::::::::::::::::::::::::::::::::::::::::::::::::::::::::::::::==::::::::",
"::::::::,===::::::::::=,::::::::,===::::::::::=,::::::::=:,=::::::::::=,::::::=,::::::=,::::::=,::::::::,===::::::::::=,::::::::",
"::::::::==,=::::::::::==::::::::==,=::::::::::==::::::::,===::::::::=,==::::=,==::::=,==::::=,==::::::::==,=::::::::::==::::::::",
"--,===--=-----,===--=-----,===--=-----,===--=-----,===--=,-----==,=-----=,=-----=,=-----=,=-------,===--=-----,===--=-----,===--",
",-,,,,,,,,,,,-,,,,,,,,,,,-,,,,,,,,,,,-,,,,,,,,,,,-,,,,,,=,,--,,,=,,,,,=,=,,,,,=,=,,,,,=,=,,,,,=,,-,,,,,,,,,,,-,,,,,,,,,,,-,,,,,,",
"====,=====,=====,=====,=====,=====,=====,=====,=====,====,=,=====,=====,=,=====,=,=====,=,=====,====,=====,=====,=====,=====,===",
"================================================================================================================================",
"================================================================================================================================",
"================================================================================================================================",
"================================================================================================================================",
"================================================================================================================================",
"================================================================================================================================",
"================================================================================================================================",
"================================================================================================================================",
"================================================================================================================================",
"-##-#--#---#--#---#--#----#--#---##-#--##--#--#--#--#--##--#--#--#--#--##--#--#--##-##-#-#--#--#---#--#--#--#--#--#--#----#--#--",
"#--#--#--#-##--##--##-#-##----###--#--#--#-##--#-##--#-#--#-##--#-#--##--##--#-#---------##--#-#-##-#--##--#-##-##----##-#-##--#",
"----#-#--#--#--#-##---##-#-##-#-----#-#--#--#--##--#-#--#-#--#-#--##--------##--#--#-##-#--#-#-------##--##------#-##-#-##---##-",
"-##-#--##--#--#--#---#----#--#---##-#--##--#--#---#-#--##--#--#--#--##-##-##--#--##-#--#--#-#--###-#-#----#-#-##--#--#----#---#-",
"##-#-#---#--##-##--#-##-#--##--###-#-#---#--##-#--#-#--#--#---#-#--#--#--#--#--#--#---#---#-#--#-##-#--##--#-##-#--##--#-##-#--#",
"-----##---##-----##-#--#-##--##------##---##----#--#-#--#--##--#-#--#--##--#--#-##---##-#--#-#------#-#--#-#-----##--##-#--#-##-",
"-##-#--##-#--##---------------=@-##-#--##-#--##--##--#-##--#-##--#-##--##--##-#--#-##--#-##--#-##--#--#--#--#--#----------------",
"#--#--#--#--#--##-##-##-##-##-==#--#--#--#--#--#-#--#--#--#--#--#--#--#--#--#--#--#--#---#--#--#-##-#--##--#-##-##-##-##-##-##-#",
"--@=--#-@=--#-==-#==--#-%%%%%%%%=@%%%%%%==-#--@==@%%%%%%==-#--@=--#-==--#-==-#--%%%%%%%%@=-#@=--#-@=#-@=%%%%%%%%--#-==-#--@=--#-",
"-#==-##-==-##-@=--@=#--#%%%%%%%%@=%%%%%%=@#--#==@=%%%%%%=@#--#==-##-@=#--#=@#--#%%%%%%%%==#-==-#--==--==%%%%%%%%#--#=@#--#==-##-",
"@=%%%%@=%%%%@@:%@=%%%%@=%%%%%%%%:%%%%%%%%%%%@=%%:%%%%%%%%%%%@=%%%%@=%%%%@=:%%%@=%%%%%%%%%%=@%%%%@=%%@=%%%%%%%%%%%%@=%%%%@=%%%%@=",
"=@%%%:@=%%%%==%%@=%%%:=@%%%%%%%%%%%%%%%%%%%%=@%%%%%%%%%%%%%%=@%%%:@=%%%%=@%%%%=@%%%%%%%%%:@=%%%%=@%%=@%%%%%%%%%%%:=@%%%%=@%%%:@=",
"%%%%%%%%%%%%%%%%%%%%%%%%%%%%%%%%%%%%%%%%%%%%%%%%%%%%%%%%%%%%%%%%%%%%%%%%%%%%%%%%%%%%%%%%%%%%%%%%%%%%%%%%%%%%%%%%%%%%%%%%%%%%%%%%",
"%%%%%%%%%%%%%%%%%%%%%%%%%%%%%%%%%%%%%%%%%%%%%%%%%%%%%%%%%%%%%%%%%%%%%%%%%%%%%%%%%%%%%%%%%%%%%%%%%%%%%%%%%%%%%%%%%%%%%%%%%%%%%%%%",
"%%%%%%%%%%%%%%%%%%%%%%%%%%%%%%%%%%%%%%%%%%%%%%%%%%%%%%%%%%%%%%%%%%%%%%%%%%%%%%%%%%%%%%%%%%%%%%%%%%%%%%%%%%%%%%%%%%%%%%%%%%%%%%%%",
"%%%%%%%%%%%%%%%:%%%%%%%%%%%%%%%:%%%%%%%%%%%%%%::%%%%%%%%%%%%%%::%%%%%%%%%%%%%%%%%%%%%%::%%%%%%%%%%%%%%%%%%%%%%%:%%%%%%%%%%%%%%%%",
"@@@=$$$$$$$$$$$$@=@=$$$$$$$$$$$$@@=@$$$$$$$$$$$$@@=@$$$$$$$$$$$$$$$$$$$$@@$$$$$$$$$$$$$$$$$$$$$$@@$$$$$$$$$$$$$$$$$$$$$$@@$$$$$$",
"@=$@$$$$$$$$$$$$@@$@$$$$$$$$$$$$@=$@$$$$$$$$$$$$@=$@$$$$$$$$$$$$$$$$$$$$@=$$$$$$$$$$$$$$$$$$$$$$@=$$$$$$$$$$$$$$$$$$$$$$@=$$$$$$",
"$$$$$$$$$$$$$$$$$$$$$$$$$$$$$$$$$$$$$$$$$$$$$$$$$$$$$$$$$$$$$$$$$$$$$$$$=$$$$$$$$$$$$$$$$$$$$$$$=$$$$$$$$$$$$$$$$$$$$$$$@$$$$$$$",
"$$$$$$$$$$$$$$$$$$$$$$$$$$$$$$$$$$$$$$$$$$$$$$$$$$$$$$$$$$$$$$$$$$$$$$$$@@$$$$$$$$$$$$$$$$$$$$$$@@$$$$$$$$$$$$$$$$$$$$$$=@$$$$$$",
"$$$$$$$$$$$$$$$$$$$$$$$$$$$$$$$$$$$$$$$$$$$$$$$$$$$$$$$$$$$$$$$$$$$$$$$$$$$$$$$$$$$$$$$$$$$$$$$$$$$$$$$$$$$$$$$$$$$$$$$$$$$$$$$$",
"$$$$$$$$$$$$$$$$$$$$$$$$$$$$$$$$$$$$$$$$$$$$$$$$$$$$$$$$$$$$$$$$$$$$$$$$$$$$$$$$$$$$$$$$$$$$$$$$$$$$$$$$$$$$$$$$$$$$$$$$$$$$$$$$",
"$$$$$$$$$$$$$$$$$$$$$$$$$$$$$$$$$$$$$$$$$$$$$$$$$$$$$$$$$$$$$$$$$$$$$$$$$$$$$$$$$$$$$$$$$$$$$$$$$$$$$$$$$$$$$$$$$$$$$$$$$$$$$$$$",
"$$$$$$$$$$$$$$$$$$$$$$$$$$$$$$$$$$$$$$$$$$$$$$$$$$$$$$$$$$$$$$$$$$$$$$$$$$$$$$$$$$$$$$$$$$$$$$$$$$$$$$$$$$$$$$$$$$$$$$$$$$$$$$$$",
"################################################################=@##############################################################",
"################################################################@@##############################################################",
"################################################################################################################################",
"################################################################################################################################",
"################################################################################################################################",
"################################################################################################################################",
"################################################################################################################################",
"###############################@################################################################################################",
"@@@@@@@@@@@@@@@@@@@@@@@@@@@@@@@@@@@@@@@@@@@@@@@@@@@@@@@@@@@@@@@@@@@@@@@@@@@@@@@@@@@@@@@@@@@@@@@@@@@@@@@@@@@@@@@@@@@@@@@@@@@@@@@@",
"@@@@@@@@@@@@@@@@@@@@@@@@@@@@@@@@@@@@@@@@@@@@@@@@@@@@@@@@@@@@@@@@@@@@@@@@@@@@@@@@@@@@@@@@@@@@@@@@@@@@@@@@@@@@@@@@@@@@@@@@@@@@@@@@",
"@@@@@@@@@@@@@@@@@@@@@@@@@@@@@@@@@@@@@@@@@@@@@@@@@@@@@@@@@@@@@@@@@@@@@@@@@@@@@@@@@@@@@@@@@@@@@@@@@@@@@@@@@@@@@@@@@@@@@@@@@@@@@@@@",
"@@@@@@@@@@@@@@@@@@@@@@@@@@@@@@@@@@@@@@@@@@@@@@@@@@@@@@@@@@@@@@@@@@@@@@@@@@@@@@@@@@@@@@@@@@@@@@@@@@@@@@@@@@@@@@@@@@@@@@@@@@@@@@@@",
"@@@@@@@@@@@@@@@@@@@@@@@@@@@@@@@@@@@@@@@@@@@@@@@@@@@@@@@@@@@@@@@@@@@@@@@@@@@@@@@@@@@@@@@@@@@@@@@@@@@@@@@@@@@@@@@@@@@@@@@@@@@@@@@@",
"@@@@@@@@@@@@@@@@@@@@@@@@@@@@@@@@@@@@@@@@@@@@@@@@@@@@@@@@@@@@@@@@@@@@@@@@@@@@@@@@@@@@@@@@@@@@@@@@@@@@@@@@@@@@@@@@@@@@@@@@@@@@@@@@",
"@@@@@@@@@@@@@@@@@@@@@@@@@@@@@@@@@@@@@@@@@@@@@@@@@@@@@@@@@@@@@@@@@@@@@@@@@@@@@@@@@@@@@@@@@@@@@@@@@@@@@@@@@@@@@@@@@@@@@@@@@@@@@@@@",
"@@@@@@@@@@@@@@@@@@@@@@@@@@@@@@@@@@@@@@@@@@@@@@@@@@@@@@@@@@@@@@@@@@@@@@@@@@@@@@@@@@@@@@@@@@@@@@@@@@@@@@@@@@@@@@@@@@@@@@@@@@@@@@@@",
"##X@#X@#X@#X@#X@X@XX@XX@XX@XX@XXX@#X@#X@#X@#X@#X#X@#X@#X@#X@#X@###X@#X@##X@#X@#X@XX@XX@XX@#X@#X@@X#@X@@X#@X#@X#@#X@#X@#X@#X@#X@#",
"X@@X@XX@@X@XX@@X#@@##@#@@##@#@@#@XX@X@@XX@X@@XX@@XX@@X@XX@@X@XX@@X@XX@@X@XX@@X@X#@#@@##@@XX@@X@X#@XX@X#@XX@@#@XXX@@X@XX@@X@XX@@X",
"X##XX@@X#X@@X##X@XX@X@#X@XX@@XX@#@@##XX#@@XX#@@#X@@X#X@@X##XX@@XXX@#@XX@X@@X#X@@X@#X@XX@@##@XX@#X@X@#X#X@X@XX@X@@XX@@##@XX@#@XX@",
"@@X@#@X#X@#X@@X@X#@X@XX@X#@XX#@XXX@X@X@@#X@#XX@X#@X#X@#X@@X@#@X#@#X@#@X##@X#X@#X@XX@X#@XX@XX@#X@@X#@X@@X#@X#@X#@#@X#X@XX@#X@#@X#",
"X@@X@#X@@X#@XX@X#X@#@X#@@#X@#X@#@XX@X@@XX@@X@#X@@#X@X@@XX@@X@#X@@XX@X@#X@#X@X@@X#@X#@@X@@X@@X#@X#X@#@X@@X@#XX@#XX@#X@XX@@XX@X@#X",
"X#X#@X@X#@XX@##@@XX@#@XX@X@XX@X@#@#@X#X#@X#@X@@XX@@X@X#@X#X#@X@XX#@X@XX@X@@X@X#@XX@@#XX#X##X@@X#X@@XX##X@XX@@XX@@X@X#@#@X#@X@XX@",
"@#X@XX@#X@X@@XX@X@@XX@X@XX@#@@XXX@#X@#X@#X#XX##X#XX##X#X@#X@XX@#@#@##@@##XX##X#X@X@XX@@XX@@XX@X@@XX@X@@X#@@#@##@#X@@X@#X@#@##@@#",
"X@@X@#X@@X#@X#@X#@X#@X#@@#X@#X@#@XX@X@@XX@@X@@X@@X@@X@@XX@@X@#X@@XX@XX@X@X@@X@@X#@X#@X#@@X#@X#@X#@X#@X#@XX@XX@XXX@#X@XX@@XX@XX@X",
"@XX#@XX##XX@#X@#X@#X@#@XX#@XX#@XX#@XX#@X@#@X@@X@@X@@X@X@#@X##@X#XX@X@X@@XX@X@X@@X@#X#X@#X@#X#X@#X@@#X@#X@X@@X@X@#@X##@X#X@X@XX@X",
"X#@@X#@@X@#@X@@X#@X@@XX#@@X#@@X#@@X#@@X#@XX##XX#X##XX##@XX@#XX@#@##@X##X@##@X##X@XX@@XX@@XX@@XX@@XX#@XX@X##XX##@XX@#XX@#X##@@##@",
"X#XXX#XXXXXXXXXXXXXXXXXXXXXXXXXXXXXXXXXXXXXX#XXXXX#XXXXXXXXXXXXXXXXXXX#XXXXXXX#XXXX#X#XXXXX#X#XXXX#XXXX#XX#XXXXXXXXXXXXXXXXXXXXX",
"@XX#@XX#@##X#@X#X##@#X@#X##@X##@X##@X##@#X@#XX#@#@XX@##X#@@X#@@X#@X##@XX#@X##@XX##@XX#@X##@XX#@X#XX@##@X#@XX@##X#@@X#@@X@##X#@X#",
"#X@#@#X@@XX##X@#X@#XX#@X@@X@X@#X@@X@X@#XX#@X@@X@@X@@#@X#XX@X.@@@X@X@X@X@X@X@X@X@X@@#X@@#X@@#X@@#X@@XX@#X@X@@#@X#XX@X@X@@#@X#XX@X",
"X@@XX#@XX#@@X@@X#@X@@@X##XX##@X@#XX##@X@@@X##XX#X##XXX@#@##@@@#XX##@X##@X##@X##@@XX#@XX#@XX#@XX#@X##@XX@X##XXX@#@##@X##XXX@#@##@",
"XXXXXXXXX#XXXXXXXXXXXXXX#XXXXXXX#XXXXXXXXXXX#XXXXX#XXXXXXXXX.@@.XXXXXXXXXXXXXXXXXX#XXX#XXX#XXX#XXXXXXXX#XX#XXXXXXXXXXX#XXXXXXXXX",
"#@X#@X##@XX##@X#X##@X##@XX#@X##@XX#@X##@X##@XX#@#@XX#@@X#@X#@.@.@##X@##X@##X@##X#XX@#XX@#XX@#XX@##@X##@X#@XX#@@X#@X##@XX#@@X#@X#",
"#X@.@@@@@@.@.@o%.%.@@@.@.@o%.%.@@@.@.@o%.%.@@@.@.@o%.%.@@.@@@@o%.%.%@@@@@..%@@@@.%.%@@@@@@@@@@@@X@%.@%.@@@.@.@o%.%.@@@.@.@o%.%.@",
"..@......@.@..oo.o...@.@..oo.o...@.@..oo.o...@.@..oo.o..@.....oo.o.o.....%.......o.o.............X.......@.@..oo.o...@.@..oo.o..",
"....oo.@....@.%ooooo....@.%ooooo....@.%ooooo....@.%ooooo...@....oo...@...o...@..oooo...@..@...@..@.@oooo....@.%ooooo....@.%ooooo",
"@.@.oo...@.@....oooo.@.@....oooo.@.@....oooo.@.@....oooo@...@.%.oo@...@.oo@...@.oo..@....%...@......oooo.@.@....oooo.@.@....oooo",
"....o.@.XX..XXXXoo.@....@...o..%.....XXXoo.@....@...o..%X...XXXXo.@..@..o..%XXX.o.@....@.%..XXXX....o.@.XX..XXXXoo.@....@...o..%",
"@X@@@.@.#XXXXXXX@..@.@X@..@@.@..X#@XXXXX@..@.@X@..@@.@..#X.@XXXX@.@..@.@.@..XXXX@.@.@.@.....XXXX@X@@@.@.#XXXXXXX@..@.@X@..@@.@..",
"XXXXXX..XXXXXXXX...XXXXXXXXXXX.XXXXXXXXX...XXXXXXXXXXX.XXXXXXXXXXXXXXXXXXX..XXXXXXXXXXXXXX@.XXXXXXXXXX..XXXXXXXX...XXXXXXXXXXX.X",
"XXXXX..@XXXXXXXX.@XXXXXXXXXXXXXXXXXXXXXX.@XXXXXXXXXXXXXXXXXXXXXXXXXXXXXXX..@XXXXXXXXXXXXX@..XXXXXXXXX..@XXXXXXXX.@XXXXXXXXXXXXXX",
"XXXXXXXXXXXXXXXXXXXXXXXXXXXXXXXXXXXXXXXXXXXXXXXXXXXXXXXXXXXXXXXXXXXXXXXXXXXXXXXXXXXXXXXXXXXXXXXXXXXXXXXXXXXXXXXXXXXXXXXXXXXXXXXX",
"XXXXXXXXXXXXXXXXXXXXXXXXXXXXXXXXXXXXXXXXXXXXXXXXXXXXXXXXXXXXXXXXXXXXXXXXXXXXXXXXXXXXXXXXXXXXXXXXXXXXXXXXXXXXXXXXXXXXXXXXXXXXXXXX",
"XXXXXXXXXXXXXXXXXXXXXXXXXXXXXXXXXXXXXXXXXXXXXXXXXXXXXXXXXXXXXXXXXXXXXXXXXXXXXXXXXXXXXXXXXXXXXXXXXXXXXXXXXXXXXXXXXXXXXXXXX.XXXXXX",
"XXXX............................................XXX...............XX..XX..........XX..XX........XXXX.....................XXX.XXX",
"................................................XX..............................................................................",
"................................................................................................................................",
"................................................................................................................................",
"................................................................................................................................",
"................................................................................................................................",
"................................................................................................................................",
"................................................................................................................................",
"................................................................................................................................",
"................................................................................................................................",
"................................................................................................................................",
"................................................................................................................................",
"................................................................................................................................",
"................................................................................................................................",
"................................................................................................................................",
"................................................................................................................................",
"................................................................................................................................",
"................................................................................................................................",
"................................................................................................................................",
"................................................................................................................................",
"................................................................................................................................"
};
