/* XPM */
static char *__NO1699569679[] = {
/* columns rows colors chars-per-pixel */
"128 128 35 1 ",
"  c #020901",
". c #020A00",
"X c #030B00",
"o c #030A02",
"O c #020D00",
"+ c #030E00",
"@ c #030F01",
"# c #040D08",
"$ c #050E09",
"% c #040E0F",
"& c #041100",
"* c #051200",
"= c #041300",
"- c #051201",
"; c #061301",
": c #051400",
"> c #051401",
", c #061500",
"< c #041004",
"1 c #040E17",
"2 c #030E24",
"3 c #020B32",
"4 c #020C30",
"5 c #020B34",
"6 c #020B36",
"7 c #030B3C",
"8 c #030A3E",
"9 c #010B48",
"0 c #010B49",
"q c #010870",
"w c #010872",
"e c #00078B",
"r c #02068B",
"t c #0105C0",
"y c #0104C1",
/* pixels */
",,,,,,,,,,,,,,,,,,,,,,,,,,,,,,,,,,,,,,,,,,,,,,,,,,,,,,,,,,,,,,,,,,,,,,,,,,,,,,,,,,,,,,,,,,,,,,,,,,,,,,,,,,,,,,,,,,,,,,,,,,,,,,,,",
",,,,,,,,,,,,,,,,,,,,,,,,,,,,,,,,,,,,,,,,,,,,,,,,,,,,,,,,,,,,,,,,,,,,,,,,,,,,,,,,,,,,,,,,,,,,,,,,,,,,,,,,,,,,,,,,,,,,,,,,,,,,,,,,",
",,,,,,,,,,,,,,,,,,,,,,,,,,,,,,,,,,,,,,,,,,,,,,,,,,,,,,,,,,,,,,,,,,,,,,,,,,,,,,,,,,,,,,,,,,,,,,,,,,,,,,,,,,,,,,,,,,,,,,,,,,,,,,,,",
",,,,,,,,,,,,,,,,,,,,,,,,,,,,,,,,,,,,,,,,,,,,,,,,,,,,,,,,,,,,,,,,,,,,,,,,,,,,,,,,,,,,,,,,,,,,,,,,,,,,,,,,,,,,,,,,,,,,,,,,,,,,,,,,",
",,,,,,,,,,,,,,,,,,,,,,,,,,,,,,,,,,,,,,,,,,,,,,,,,,,,,,,,,,,,,,,,,,,,,,,,,,,,,,,,,,,,,,,,,,,,,,,,,,,,,,,,,,,,,,,,,,,,,,,,,,,,,,,,",
",,,,,,,,,,,,,,,,,,,,,,,,,,,,,,,,,,,,,,,,,,,,,,,,,,,,,,,,,,,,,,,,,,,,,,,,,,,,,,,,,,,,,,,,,,,,,,,,,,,,,,,,,,,,,,,,,,,,,,,,,,,,,,,,",
",,,,,,,,,,,,,,,,,,,,,,,,,,,,,,,,,,,,,,,,,,,,,,,,,,,,,,,,,,,,,,,,,,,,,,,,,,,,,,,,,,,,,,,,,,,,,,,,,,,,,,,,,,,,,,,,,,,,,,,,,,,,,,,,",
",,,,,,,,,,,,,,,,,,,,,,,,,,,,,,,,,,,,,,,,,,,,,,,,,,,,,,,,,,,,,,,,,,,,,,,,,,,,,,,,,,,,,,,,,,,,,,,,,,,,,,,,,,,,,,,,,,,,,,,,,,,,,,,,",
",>>>>>>>>>>>>>>>>>>>>>>>>>>>>>>>>>>>>>>>>>>>>>>>>>>>>>>>>>>>>>>>>>>>>>>>>>>>>>>>>>>>>>>>>>>>>>>>>>>>>>>>>>>>>>>>>>>>>>>>>>>>>>>>",
">>>>>>>>>>>>>>>>>>>>>>>>>>>>>>>>>>>>>>>>>>>>>>>>>>>>>>>>>>>>>>>>>>>>>>>>>>>>>>>>>>>>>>>>>>>>>>>>>>>>>>>>>>>>>>>>>>>>>>>>>>>>>>>>",
">>>>>>>>>>>>>>>>>>>>>>>>>>>>>>>>>>>>>>>>>>>>>>>>>>>>>>>>>>>>>>>>>>>>>>>>>>>>>>>>>>>>>>>>>>>>>>>>>>>>>>>>>>>>>>>>>>>>>>>>>>>>>>>>",
">>>>>>>>>>>>>>>>>>>>>>>>>>>>>>>>>>>>>>>>>>>>>>>>>>>>>>>>>>>>>>>>>>>>>>>>>>>>>>>>>>>>>>>>>>>>>>>>>>>>>>>>>>>>>>>>>>>>>>>>>>>>>>>>",
">>>>>>>>>>>>>>>>>>>>>>>>>>>>>>>>>>>>>>>>>>>>>>>>>>>>>>>>>>>>>>>>>>>>>>>>>>>>>>>>>>>>>>>>>>>>>>>>>>>>>>>>>>>>>>>>>>>>>>>>>>>>>>>>",
">>>>>>>>>>>>>>>>>>>>>>>>>>>>>>>>>>>>>>>>>>>>>>>>>>>>>>>>>>>>>>>>>>>>>>>>>>>>>>>>>>>>>>>>>>>>>>>>>>>>>>>>>>>>>>>>>>>>>>>>>>>>>>>>",
">>>>>>>>>>>>>>>>>>>>>>>>>>>>>>>>>>>>>>>>>>>>>>>>>>>>>>>>>>>>>>>>>>>>>>>>>>>>>>>>>>>>>>>>>>>>>>>>>>>>>>>>>>>>>>>>>>>>>>>>>>>>>>>>",
">>>>>>>>>>>>>>>>>>>>>>>>>>>>>>>>>>>>>>>>>>>>>>>>>>>>>>>>>>>>>>>>>>>>>>>>>>>>>>>>>>>>>>>>>>>>>>>>>>>>>>>>>>>>>>>>>>>>>>>>>>>>>>>>",
"=,=,=,=,=,=,,=,,>>>>>>>>>>>>>>>>,=,=,==,=,=,=,=,=,=,=,=,=,=,=,=,=,=,=,=,=,=,=,=,=,=,=,=,=,=,=,=,=,=,=,=,=,=,,=,,=,=,=,=,=,=,=,=,",
",=,=,=,=,=,==,=,>>>>>>>>>>>>>>>>,,=,=,,=,=,=,=,=,=,=,=,=,=,=,=,=,=,=,=,=,=,=,=,=,=,=,=,=,=,=,=,=,=,=,=,=,=,==,=,,=,=,=,=,=,=,=,=",
">>>>>>>>>>>>;>>>>>>>>>>>>>>>>>>>>>>>;>>>>>>>>>>>>>>>>>>>>>>>>>>>>>>>>>>>>>>>>>>>>>>>>>>>>>>>>>>>>>>>>>>>>>>>;>>>>>>>>>>>>>>>>>>>",
">>>>>>>>>>>>>>>>>>>>>>>>>>>>>>>>>>>>>>>>>>>>>>>>>>>>>>>>>>>>>>>>>>>>>>>>>>>>>>>>>>>>>>>>>>>>>>>>>>>>>>>>>>>>>>>>>>>>>>>>>>>>>>>>",
">>>>>>>>>>>>>>>>>>>>>>>>>>>>>>>>>>>>>>>;>>>>>>>>>>>>>>>>>>>>>>>>>>>>>>>>>>>>>>>>>>>>>>>>>>>>>>>>>>>>>>>>>>>>,;;>>>>>>>>>>>>>>>>>",
">>>>>>>>>>>>>>>>>>>>>>>>>>>>>>>>>>>>>>>;>>>>>>>>>>>>>>>>>>>>>>>>>>>>>>>>>>>>>>>>>>>>>>>>>>>>>>>>>>>>>>>>>>>>,;;>>>>>>>>>>>>>>>>>",
">>>>>>>>>>>>>>,;>>>>>>>>>>>>>>>>>>>>>>,;>>>>>>>>>>>>>>>>>>>>>>>>>>>>>>>>>>>>>>>>>>>>>>>>>>>>>>>>>>>>>>>>;;;;;;;;>>>>>>>>>>>>>>>>",
">>>>>>>>>>>>;;,,>>>>>>>>>>>>>>>>>>>>>>,;>>>>>>>>>>>>>>>>>>>>>>>>>>>>>>>>>>>>>>>>>>>>>>>>>>>>>>>>>>>>>>>>;;;;;;;;>>>>>>>>>>>>>>>>",
";;;;;;;;>><*<;;;;;;;<>>>>>;;;;;;>***;;;;;;;;@>>>;;;;;;;;;;;;;;;;;;;;>><**;;;;;;;;;;;>***;;;;;;;;;;;;;;;;>***;;;;;;;;@>>>;;;;;;;;",
";;;;;;;;>>**;;;;;;;;*>>>>>;;;;;;>>*<;;;;;;;;*>>>;;;;;;;;;;;;;;;;;;;;>>***;;;;;;;;;;;>>*<;;;;;;;;;;;;;;;;>>*<;;;;;;;;*>>>;;;;;;;;",
";;;;;;;;>>,=;;;;;;;;**,,***;*>;;>>>,;;;;;;;;<;,,;;;;;;;;;;,=;;;;;;;;>>,,;;;;;;,=;;;;>>>,;;;;;;,=;;;;;;;;>>>,;;;;;;;;<;,,;;;;;;;;",
">>>>>>>>>,==;;;;;;;;;*==>>*;;,,;>>>=;;;;,,;;;;==>>>>>>>>;===>>>>>>>>>>>=;;;;;===>>>>>>>=;;;;;===>>>>>>>>>>>=;;;;,,;;;;==>>>>>>>>",
"================,===========,---========,-==============================,,----==========,,-=====================,-==============",
"===============-,===========>>=-========,-==============================>,->=-==========>,--====================,-==============",
"==============----================================-=--========--========>>>>=====-======----==============================-=--==",
"------,=--------->>>--------------------------------->>=--------=,------>@>@----=>------>>------------,=--------------------->>=",
"--------------------------------------------------------------------------------------------------------------------------------",
"--------------------------------------------------------------------------------------------------------------------------------",
"--------------------------------------------------------------------------------------------------------------------------------",
"--------------------------------------------------------------------------------------------------------------------------------",
"--------------------------------------------------------------------------------------------------------------------------------",
"--------------------------------------------------------------------------------------------------------------------------------",
"--------------------------------------------------------------------------------------------------------------------------------",
"--------------------------------------------------------------------------------------------------------------------------------",
"--------------------------------------------------------------------------------------------------------------------------------",
"--------------------------------------------------------------------------------------------------------------------------------",
"--------------------------------------------------------------------------------------------------------------------------------",
"--------------------------------------------------------------------------------------------------------------------------------",
"--------------------------------------------------------------------------------------------------------------------------------",
"--------------------------------------------------------------------------------------------------------------------------------",
"--------------------------------------------------------------------------------------------------------------------------------",
"--------------------------------------------------------------------------------------------------------------------------------",
"---------------------------------------------------------------------------------------------------------O--O--O----------------",
"---O--O-O--------O-O--O-O--OO-O-----O------O--------O------O-------O-O--O-O----------O-O--O-O------O-O-----O-----------O-------O",
"-O----------O----O------------O-O---O--OO--O---OO---O--OO--O---O----------O--OO--OO--O-----------O--------------O--OO--O---O----",
"-----O---O----O------O---O--------O----------O----O----------O----O---O------------------O---O------O-O--O--O--O---------O----O-",
"O--O----O--O--O-O--O----O--O--O------O----O----------O----O-----O--O--O---O----------O---O--O--O------O--O---O-----------O--O--O",
"----O--O----O-------O--O----O-----O----------O----O----------O----------O----OO--OO----O---------OO-------------O-O--O-O---O----",
"--------------------------------O-O--OO--OO--O-OO-O--OO--OO--O-O----O----------------------O---------OO--OO-O--O--O--O----------",
"O--O--O-O--O--O-O--O--O-O--O--O---------------------------------O--O--O---O--O----O--O---O--O--O-O-----------------------O--O--O",
"--O--O--O--O--O---O--O--O--O--O----------------------------------O--O--OO--O--O--O--O--OO--O--O--O--O--O------------------------",
"--------------------------------O--O-OO--OO-O--OO--O-OO--OO-O--O---O------------------------O------------OO--O-O--O--O--O-O--OO-",
"O--OO--O-----OO-O--OO--O-----OO---------------------------------------------O--OO--O---------------O---------O--O-O--O-O--O-----",
"--------O--O------------O--O------O---O--O---O----O---O--O---O---O--O--OO--O--------O--OO--O--O--O--O--O--O------------------O--",
"----------O---------------O-----O--O--O--O--O--OO--O--O--O--O--O-O---O-------O----O-------O---O-------O-----O--O--------O--O----",
"O-O--O-O----O-O-O-O--O-O----O-O-------------------------------------------O----------O-----------O------O--O----O--OO--O----O--O",
"--O--O--O-----O---O--O--O-----O-----O------O--------O------O-----OO-O--OO-O--OO--OO--O-OO--O-OO--O-OO--O------------------------",
"----------O---------------O-----O--O--O--O--O--OO--O--O--O--O--O-----------------------------------------O--O--O--O--O--O--O--O-",
"@@@@@@@@@@@@@@@@@@@@@@@@@@@@@@@@@@@@@@@@@@@@@@@@@@@@@@@@@@@@@@@@OO-O@@@@@@@@@@@@@@@@@@@@@@@@@@@@@@@@@@@@@@@@@@@@@@@@@@@@@@@@@@@@",
"@@@@@@@@@@@@@@@@@@@@@@@@@@@@@@@@@@@@@@@@@@@@@@@@@@@@@@@@@@@@@@@@-OO-@@@@@@@@@@@@@@@@@@@@@@@@@@@@@@@@@@@@@@@@@@@@@@@@@@@@@@@@@@@@",
"@@@@@@@@@@@@@@@@@@@@@@@@@@@@@@@@@@@@@@@@@@@@@@@@@@@@@@@@@@@@@@@@O-O-@@@@@@@@@@@@@@@@@@@@@@@@@@@@@@@@@@@@@@@@@@@@@@@@@@@@@@@@@@@@",
"@@@@@@@@@@@@@@@@@@@@@@@@@@@@@@@@@@@@@@@@@@@@@@@@@@@@@@@@@@@@@@@@-O<O@@@@@@@@@@@@@@@@@@@@@@@@@@@@@@@@@@@@@@@@@@@@@@@@@@@@@@@@@@@@",
"@@@@@@@@@@@@@@@@@@@@@@@@@@@@@@@@@@@@@@@@@@@@@@@@@@@@@@@@@@@@@@@@O@@@@@@@@@@@@@@@@@@@@@@@@@@@@@@@@@@@@@@@@@@@@@@@@@@@@@@@@@@@@@@@",
"@@@@@@@@@@@@@@@@@@@@@@@@@@@@@@@@@@@@@@@@@@@@@@@@@@@@@@@@@@@@@@@@@@@@@@@@@@@@@@@@@@@@@@@@@@@@@@@@@@@@@@@@@@@@@@@@@@@@@@@@@@@@@@@@",
"@@@@@@@@@@@@@@@@@@@@@@@@@@@@@@@@@@@@@@@@@@@@@@@@@@@@@@@@@@@@@@@@@@@@@@@@@@@@@@@@@@@@@@@@@@@@@@@@@@@@@@@@@@@@@@@@@@@@@@@@@@@@@@@@",
"@@@@@@@@@@@@@@@@@@@@@@@@@@@@@@@@@@@@@@@@@@@@@@@@@@@@@@@@@@@@@@@@@@@@@@@@@@@@@@@@@@@@@@@@@@@@@@@@@@@@@@@@@@@@@@@@@@@@@@@@@@@@@@@@",
"@X@@@@@X@@@@@X@@@X@@@@@X@@@@@X@@@@@X@X@@@X@X@@@X@@@X@X@@@X@X@@@X@@@@@@@@OOOO@@X@X@@@@@X@X@X@X@X@@@@@X@@@@@@@X@@@X@X@X@X@@@X@@@@@",
"@@X@X@@@X@X@@@X@@@X@X@@@X@X@@@X@X@@@@@X@@@@@X@@@X@@@@@X@@@@@X@@@@X@X@X@X-O>O@@@@@@@X@X@@@@@@@@@@@X@X@@@X@X@X@@@X@@@@@@@@@X@@@X@X",
"@@@@@X@X@@@X@@@@@@@@@X@X@@@X@@@@@X@X@@@@@X@@@X@X@X@X@@@@@X@@@X@XX@@@X@@@OO-O@@X@X@X@@@@@@@X@@@X@X@@@X@X@X@@@X@X@@@X@@@X@@@@@X@@@",
"X@X@@@@@X@@@X@X@X@X@@@@@X@@@X@X@@@@@X@X@@@X@@@@@@@@@X@X@@@X@@@@@@@@X@@@XOOOO@X@@@@@@@X@X@X@@@X@@@@@X@@@@@@@X@@@@@X@@@X@@@X@X@@@X",
"@X@X@@@X@@@@@X@X@X@X@@@X@@@@@X@X@@@@@X@@@X@X@@@@@@@@@X@@@X@X@@@@X@X@@@X@@@@@X@X@X@@@X@X@@@@@X@@@@@X@@@X@@@X@@@X@@@@@X@@@X@X@@@@@",
"@@@@X@@@X@X@@@@@@@@@X@@@X@X@@@@@X@X@@@X@@@@@X@X@X@X@@@X@@@@@X@X@@@@@@X@@@X@X@@@@@@@X@@@@@X@X@@@X@X@@@X@@@X@@@X@@@X@X@@@X@@@@@X@X",
"@X@@@X@X@@@X@X@@@X@@@X@X@@@X@X@@@@@X@@@@@X@@@@@X@@@X@@@@@X@@@@@X@@X@@@@@X@@@@@X@X@X@@@X@X@@@X@X@@@@@@@@@@@@@@@@@X@@@X@X@@@X@X@@@",
"@@X@@@@@X@@@@@X@@@X@@@@@X@@@@@X@X@@@X@X@@@X@X@@@X@@@X@X@@@X@X@@@@X@@@X@X@@@X@X@@@@@@@X@@@@@X@@@@@X@X@X@X@X@X@X@X@@@X@@@@@X@@@@@X",
"@@@X@@@@@X@@@@@X@@@@@X@@@@@X@@@@@X@@@X@X@@@X@X@@@X@X@@@X@X@@@X@XX@@@X@X@X@@@@@X@@@X@@@@@X@@@@@X@X@X@X@X@X@X@X@X@@@@@X@@@@@X@@@@@",
"X@@@X@X@@@X@X@@@X@X@@@X@X@@@X@X@@@X@@@@@X@@@@@X@@@@@X@@@@@X@@@@@@@@X@@@@@@@X@X@@@X@@@X@X@@@X@X@@@@@@@@@@@@@@@@@@@X@X@@@X@X@@@X@X",
"@X@X@@@X@@@@@X@X@@@X@@@@@X@X@@@X@@@@@X@@@X@X@@@@@X@@@X@X@@@@@X@@X@X@@@X@X@X@@@@@@@@@X@@@X@X@@@@@@@X@@@X@@@X@@@X@X@@@X@X@@@@@X@@@",
"@@@@X@@@X@X@@@@@X@@@X@X@@@@@X@@@X@X@@@X@@@@@X@X@@@X@@@@@X@X@@@X@@@@@@X@@@@@@@X@X@X@X@@@X@@@@@X@X@X@@@X@@@X@@@X@@@@@X@@@@@X@X@@@X",
"@X@@@X@@@X@X@@@X@@@@@X@X@X@@@X@@@@@X@@@X@@@@@X@@@X@X@@@@@@@X@@@X@@@@X@X@X@@@X@X@X@X@@@@@X@@@X@X@@@@@X@@@@@@@X@@@@@X@@@X@X@X@@@@@",
"@@X@@@X@@@@@X@@@X@X@@@@@@@X@@@X@X@@@X@@@X@X@@@X@@@@@X@X@X@@@X@@@@X@X@@@@@@@X@@@@@@@@@X@X@@@X@@@@@X@X@@@X@X@X@@@X@X@@@X@@@@@@@X@X",
"@@@@@@@@@X@@@X@X@@@X@X@@@@@@@@@@@X@X@X@X@@@X@@@@@X@@@@@X@X@X@X@XX@@@@@X@X@X@@@X@@@X@X@@@X@X@@@X@X@@@X@X@X@@@X@X@@@@@@@@@@@X@X@@@",
"X@X@X@X@@@X@@@@@X@@@@@X@X@X@X@X@@@@@@@@@X@@@X@X@@@X@X@@@@@@@@@@@@@@X@X@@@@@@@X@@@X@@@@@X@@@@@X@@@@@X@@@@@@@X@@@@@X@X@X@X@X@@@@@X",
"@@@O@@@O@X@@@OO@O@@O@@@@@@@O@@@O@O@@@O@@@@O@@O@@@@@OO@O@@O@@OOOOX@@@O@@@@O@@O@@@@O@@O@@@@O@@O@@@@@@@@O@@O@@@@@@@@@@O@@@O@@@@@O@@",
"XOOOXOOOOOOOXXOOOOXOOOOOXOOOXOOOOOXOOOXOOXOOXOOOOOXXOOOOOOXOOOOOOOXXOOOOXOOXOOOOXOOXOOOOXOOXOOOOXXOOXOOXOOOOXXOOXOOOXOOOXXOOXOOX",
"OOXOOOXOOXOOOXOOXOOOOXOOOOXOOOXOOOOOOOOOOOOXXXOOOOOXOOOXOOOOOOOOOOOOXXOOOOOOXOOOOOOOXOOOOOOOXOOOOOOOOOOOXOOOOOOOOOXOOOXOOOOOOOOO",
"@O@@@O@@@@O@O@@@@@@O@@O@@O@@@O@@@@X@@@@OO@@@O@@@@@O@@@@@@@@OO>-O@@OO@@@@@@@O@@@O@@@O@@@O@@@O@@@OOO@@@@@O@@@OOO@@@O@@@O@@OO@@@@@O",
"OXOOXOOXOXX@OOOO@XOXOXOXOXOOX@XXXOOO@XOXOXOXOOOOXOOXOXX@XOOOOOOOOOXOOOXXXOXOOOXOXOXOOOXOXOXOOOXOOXXXXOOOXXOXOXOXOXOOXOOXOXXXXOOO",
"@@@O@@@@O@@X@@@@X@@@@@@@@@@O@@@@O@@@X@@@@@@@O@@@@@@@O@@XO@@@OOOO@@@@@@@@@O@X@O@X@O@X@O@X@O@X@O@XO@@@O@@@@@@@@@@@@@@O@@@@O@@@O@@@",
"@>>@>@@>>@@>>@@>@>>@@>>@@>>@>@@>>@@>@>>@@>>@@>>@>@@>>@@>>@@>----@>@@@@>@>@@>>@@>>@@>>@@>>@@>>@@>>@@>>@@>>@@>>@>@@>>@@@@@>@@>>@@>",
"@@>@@@>@@>>@@>@@@>@@>@@>@@>@@@>@@>@@@>@@>@@>@@>@@@>@@>>@@>@@-O-->@@>>@@>@>>@@>>@@>>@@>>@@>>@@>>@@>@>@@>@@>@@>@@@>@@>>@>>@>@>@@>@",
"@>@@$@@$@>$@@$@@$<<<@@$<<<@@@@@$<<<<<<<<<<<<<<<<<<<<<<<<<<<<<<<<$@>$@@>@$@>@@@@>>@@>$@>*@@>@@@$>@@@$>@@<<<<<<<<<<<<<<<<<<<<<<<<<",
"$$$o$$#$$@$##$$@$###$@$$##$@%$$$################$$$$$$$$$$$$$$$$$$$$$$$$$$$$%$%$$$$$$$$$$$%@%$$@$$$@%$$$$$$$$$$$################",
"1$$1%%1%%%%11%%%%%%%%%%11%%%%%%%%%%%%%%%%%%%%%%%%%%%%%%%%%%%%%%%1%%%%%%%1%%%%%%%1%%%1%%%%%%%1%1%1%%%%%%%%%%%%%%%%%%%%%%%%%%%%%%%",
"11111111111111111111111111111111111111111111111111111111111111111111111111111111111111111111111111111111111111111111111111111111",
"22222222222222222222222222222222222222222222222222222222222222222222222222222222222222222222222222222222222222222222222222222222",
"44444444444444444444444444444444444444444444444444444444444444444444444444444344444433345333444443333333444444444444444444444444",
"77777767777777678677777788777786777777777777777777777777777777887777777777776888777777777777677777777777777777887777777777777777",
"wwwwwwwwwwwwwwwwwwwwwwwwwwwwwwwwwwwwwwwwwwwwwwwwwwwwwwwwwwwwwwwwwwwwwwwwwwwwwwwwwwwwwqqqqqqqqqwwqqwwwqqqwwwwwwwwwwwwwwwwwwwwwwww",
"yyyyyyyyyyyyyyyyyyyyyyyyyyyyyyyyyyyyytyyyyyyyyyyyyyyyyyyyyyyyyyyttyyyyyyyyyyyyyyyyyyyyyyyyyyyyyyttttyyyyyyyyyyyyyyyyyyyyyyyyyyyy",
"eeeerrrreeeerreeeerrrrrreeereeeerreeeeereeerrrrreeeerrrrrreerrrreeeeeeeerrrrrrrreeeeeeeerrrrrrerreeeeeeeeeeerrrreeerrrrreeeeeeee",
"99999999999999999999999999999990999999090000009999999999999999999090000999999999900000099999999999009999999999999999999999999999",
"55465555646433336655555566646666333344536655555564665555466655553535355355555555353535535555666436665555665566666666665566666666",
"XX      XXX X X XX          X    X XX X XXo     XX      XXX X  X                         ooXo oXXX      X X X  XXXXXX X X  XXXXX",
"XXXXXXXXXXXXXXXXXXXXXXXXooo XXooXXXXXXXXXoooo ooXXXXXXXXoXoooXoXXXXXXXXXXXXXXXXXXXXXXXXXX X XX  XXXXXXXXoXo oXX XXXXXXXX oX XXoo",
"X X XX  XXXXX X X XX XX X  XX XX XX  X XX  X XX XX  X XXXX    X  X XX XXX X X X  X X XX  X X X XXXXXX X  X X X XX XXX  XX  XX  X",
"oooo oXoXXXXXXXX oX oooXXXXXXXXXXXXXXXXXXXXXXXXXXoXooo oooXoXoooX ooooX oo ooXooo ooXo XooXoo X XXXXXXXXXXXXXXXXXXXXXXXXXXXXXXXX",
"XXXXXXXXXXXXXXXXXXXXXXXXX X X X XXXXXXXXXXXXXXXXXXXXXXXXXXXXXXXXXXXXXXXXXXXXXXXX X X X XXXXXXXXXXXXXXXXXXXXXXXXXXXXXXXXX X X X X",
"XXXXXXXXXXXXXXXXXXXXXXXX X X X XXXXXXXXXXXXXXXXXXXXXXXXXXXXXXXXXXXXXXXXXXXXXXXXXX X X X XXXXXXXXXXXXXXXXXXXXXXXXXXXXXXXXX X X X ",
"XXXXXXXXXXXXXXXXXXXXXXXXX X X X XXXXXXXXXXXXXXXXXXXXXXXXXXXXXXXXXXXXXXXXXXXXXXXX X X X XXXXXXXXXXXXXXXXXXXXXXXXXXXXXXXXX X X X X",
"XXXXXXXXXXXXXXXXXXXXXXXX X X X XXXXXXXXXXXXXXXXXXXXXXXXXXXXXXXXXXXXXXXXXXXXXXXXXX X X X XXXXXXXXXXXXXXXXXXXXXXXXXXXXXXXXX X X X ",
"XXXXXXXXXXXXXXXXXXXXXXXXX X X X XXXXXXXXXXXXXXXXXXXXXXXXXXXXXXXXXXXXXXXXXXXXXXXX X X X XXXXXXXXXXXXXXXXXXXXXXXXXXXXXXXXX X X X X",
"XXXXXXXXXXXXXXXXXXXXXXXX X X X XXXXXXXXXXXXXXXXXXXXXXXXXXXXXXXXXXXXXXXXXXXXXXXXXX X X X XXXXXXXXXXXXXXXXXXXXXXXXXXXXXXXXX X X X ",
"XXXXXXXXXXXXXXXXXXXXXXXXX X X X XXXXXXXXXXXXXXXXXXXXXXXXXXXXXXXXXXXXXXXXXXXXXXXX X X X XXXXXXXXXXXXXXXXXXXXXXXXXXXXXXXXX X X X X",
"XXXXXXXXXXXXXXXXXXXXXXXX X X X XXXXXXXXXXXXXXXXXXXXXXXXXXXXXXXXXXXXXXXXXXXXXXXXXX X X X XXXXXXXXXXXXXXXXXXXXXXXXXXXXXXXXX X X X ",
"                                                                                                                                ",
"                                                                                                                                ",
"                                                                                                                                ",
"                                                                                                                                ",
"                                                                                                                                ",
"                                                                                                                                ",
"                                                                                                                                ",
"                                                                                                                                "
};
