/* XPM */
static char *__SO1699569679[] = {
/* columns rows colors chars-per-pixel */
"128 128 43 1 ",
"  c #020600",
". c #020901",
"X c #02070C",
"o c #020415",
"O c #03041A",
"+ c #08041E",
"@ c #030424",
"# c #0A0324",
"$ c #0C0329",
"% c #12022F",
"& c #020532",
"* c #0B0333",
"= c #02053B",
"- c #0D023E",
"; c #140233",
": c #180234",
"> c #140239",
", c #0E0241",
"< c #1E0245",
"1 c #1E034A",
"2 c #010455",
"3 c #210246",
"4 c #210249",
"5 c #270154",
"6 c #280255",
"7 c #010372",
"8 c #2C026E",
"9 c #350166",
"0 c #390167",
"q c #35016A",
"w c #39016A",
"e c #2D0272",
"r c #3A0170",
"t c #430165",
"y c #440168",
"u c #01038A",
"i c #0001BE",
"p c #7A00B7",
"a c #7601BC",
"s c #7A01BC",
"d c #0000C0",
"f c #7601C1",
"g c #7B01C0",
/* pixels */
".........................................................................................................................X......",
"................................................................................................................................",
"..........................X..............................................X......................................................",
"................................................................................................................................",
"................................................................................................................................",
"................................................................................................................................",
"................................................................................................................................",
"................................................................................................................................",
"........................................................X.......................................................................",
"................................................................................................................................",
"................................................................................................................................",
"................................................................................................................................",
"................................................................................................................................",
"................................................................................................................................",
"................................................................................................................................",
".......................................................................................................X........................",
".................... ...........................................................................................................",
". ... .. ... .......   . ......... ... ....  ... ... ..... ... ............ .. ... ... ... . .. . .... . ... ....... .... .. .  ",
"  .   .  .   .  .... .    .       .   ...    .   .   .     .   .........   . . . .   .  . .   ..  .   .  .   .  .... .          ",
" .  .      .  . ....  ... ....  .         .   ..  .   . .   .   .........          .   .    .   .   .     .   . ....  .. .. .   ",
"   . . .. . .   .. .    .    .   . ..    . .      . .         ..    ..  .    ..    .. .  . ..      .  ... . .   .. .       .    ",
" .   .    .   . ..   . .  ..   . .    .    . .. . .    . . ..   . .... .   .     .    .  .    .. .   .    .   . .... .. .... . .",
"   .   ..   .   . ..         . .   .   .  .     .    .   . .  .      .   .   . ..   .      .       .   ..    .  ....       .   .",
"..  .      .  ...    ..  . .     .   . ..    ..   .   ..    .    . .   . . .    . .   . .    . . .  .     .   ...... ..  . . .  ",
"    . .  . .        . .  . .      ..        .      . .  .    ..    ..      .  ..      . ..      .     .  . .        . .  . .    ",
". .   .  .   . .. ..         . . .   .. .. .  .  . .   .  .     .      ..    .   . ..      .. . . . . .  .   . .. ..       . . .",
"    .      .         . .  ..   .   .         . .  .  . . .  . ..  .  .  ...   .  . .  .  .  .       .      .         . .  .  . .",
" . .  .  .  . .  . .    .    .  .    ..  ..    ..         ..    ..   .    ...       .      .  .  . .  . .    ..  ..    ..       ",
" ..    ..    ..    .  ..    ..   .  . .    .  .    .. .   .    .    .   .    .. . .  . . ..    . ..    ..    ..    .  .     ..  ",
"    .      .    .   .   .. .  .    .     .  .   ..    . .   ..   .. .   . .     .            . .     .     .     .  .   .. .  . ",
" ..   .  .   ..   .   .      .   .   . .   .. .     .   . .          .      .. . .  . .... .  .  . .  .  .   . .  .   .     .   ",
"    ..    ..    ..  .    ..    . . .    ..      . .    .    . .  ..      . .       .        .       ..   . .    ..  .   . .    .",
"..  .    ..    .  . .     . .      . .     . .    . .     . .       .   .    ..  . .       ..   . .    . .     . .    . .     . ",
"  .   .      .  .   . . . .    ..    . . . .   ..   . . . .    ... .  .   ..        .. ...    ..    .      . . .   ..   . . .   ",
".   .   .. .  .   .     .    .    .    .     .    .     .    .       . .     . .. .             ..    .  . .  .  . .. .  .  . . ",
"   .  ..    ..  .    . .  .  . .. .  .  . .    ..    . .  .  . . ..    . . .    .    .. . .  . .   .. .  .  .              .  . ",
" . .    .    .   . ..      .        .      .. .  . ..      .       .  .    .  .. .  .           .       .    . .. .  . .. .    .",
"     . .  ..   . .    .  . .. .  . .. .  .    .  .    .  . .. .  .  .   .    .     .  .  . .. .   .  . .  .                  .  ",
". ..         . .   .   .  .          .  .   .      .   .  .        .. .   .   .  .   .     ..    . .   ..   . . ..    .. . .   .",
"    . .  . .     .   . ..    ..  ..    .. .   .  .   . ..    .. ..      . . .      .  .. .    .    . .    ..       ..       ..  ",
"    . .  . .      ..        .      .        ..    ..        .       . . .    .. . .    . .     .  .  .     . . .. .  . .. .    .",
". ..         . . .   .. .. .  .  .  . .. ..   .  .   .. .. .  . . .   .   .         .      . . ..      ..    .              .   ",
"     . .  ..   .   .         . .. .         .      .         . .    .   .   .. ... .  .  . .  . . .  .    .    . . .. . .. .  . ",
" . .    .    .  .    ..  ..    ..    ..  ..    ..    ..  ..    . . .  .   ..        ..   .  .     .  . ...   .     .        ..  ",
"   .  ..    ..   .  . .    .  .  .  .    . .  .  .  . .    .  .  ..    .  .     .       .    . .   .        . .   .  . ..       ",
".   .   .. .  .    .     .  .      .  .     .      .     .  .       .   .   .. .  .  . .  .      . .. .  .. .   . .  .    .  . .",
"  .   .      .   .   . .   .. .  . ..   . .   .  .   . .   .. .  ..   .   .        . . ..   . .              .  .      .   . . .",
"..  .    ..    . . .    ..            ..    . .  . .    ..          ..  .   . .  . .      ..    . .  . . ..    .  .  .   . .    ",
"    ..  .    . .    ..  .    . .. .    ..    . .    ..  .    . ...  .    ..    ..   . .    . . ..    .. . .  . .   . . .    ..  ",
" ..   .    .     . .  .    .        .      .     . .  .    .      .   .      .    .     .    .    .              .   .   . .  . ",
"    .    .    ..     .   .    ....    .  .    ..     .   .    ...   .   .. .  . .   .. .  .    .   . ..  . .. .   .    .     .  ",
" ..    . . ..    ..    . . ..      .. .  . ..    ..    . . ..      .  ..    ..    .     ..   .   . .        .   ..  .    ..    .",
" . .  .        . . .  .        ..              . . .  .        . . .    .    .    ..        . .   .   ... .  .      . .  . .  . ",
"    .   . .  .      .   . .  .    .  . .. .  .      .   . .  .       . .  ..   ..   .. . .. .   .    .    .  . .. .         .   ",
". .   . .   .   . . . . .   .    . .   ..   .   . . . . .   .   . ..         . .  .          .    .    ..      .    ..  . . . . ",
"    . .   . .   .     .   . .      . .    . .   .     .   . .       . .  . .    .    ..  ..    .. . .     .  .   ..    ..     . ",
"..         .     .         .      .        .     .         .             .  . .                   .   .                    .   .",
"   .               .            .                  .            . .       .   .       . . .      .  .         . . .     .    .  ",
" .        .      .        .       .       .      .        .              .  .        .            .   .      .             .   .",
"                                                                                                                                ",
"                                                                                                                                ",
"                                                                                                                                ",
"                                                                                                                                ",
"                                                                                                                                ",
"                                                                                                                  :             ",
"                                                                                          :                             :       ",
"                      :       :                                                  :                                              ",
":              :                 :       :             :      :                                  :       :                      ",
"       ::                                      ::                                                              :             :  ",
"                :        :             :                :                             :                :                        ",
"                                                                                                                    :           ",
"                                                                                             :                                  ",
"   :        :                     :        :        :                                                      :                    ",
"                    :        :                                                   :       :         :                    :       ",
"                                                                                                                  :             ",
"                                                                      :                                                         ",
"                                                                                                                             :  ",
"                                                                :                    :                                          ",
"                                     :                                                                                :         ",
"    :      :      :       :                 :       :                                               :       :                   ",
"          :                                                                                                              :      ",
"                                           :                        :                                            :              ",
":                                :                                                                                              ",
"                                                                                     :                                          ",
"      :                                                                                          :                   :          ",
"                                      :                                                                                     :   ",
"             :                                                                  :                                               ",
"                                             :                    :                                                             ",
"                                                                                                                                ",
"                                                                                                                                ",
"                                                                                                                                ",
"                                                                                                                                ",
"                                                                                                                                ",
"                                     +                      ..                                                                  ",
"    +                       X                       X       ....           +       +                                  +     +   ",
"            +        X                      +               ....   +                        +       +        +                  ",
" X  ... .X.....X....X...................X..............X..................X.......X.X......X..X.    .........X..X...............",
" +X.XX +XXXXXXXXXXXXXXXXXXXXXXXXXXXXXXXXXXXXXXXXXXXXXXXXXXXXXXXXXXXXXXXXXXXXXXXXXXXXXXXXXXXXXXXX :X.XX +XXXXXXXXXXXXXXXXXXXXXXXX",
"X X XX+XXXXXXXXXXXXXXXXXXXXXXXXXXXXXXXXXXXXXXXXXXXoXXXXXXXXXXXXXXXXXXXXXXoXXoXXoXXXXXXXXXXXXXXXXX X X.+XXXXXXXXXXXXXXXXXXXXXXXXX",
"+++++X+XoooXooooooooXOOXOOoOOoOOOoooooOoooooOoOXooOoOoooOOOooOOOOOOOOOOOooooooXooooooOOXoooOoooo++++++X+OOooooOoOOooOOOOOOOOOOOO",
"@@@@#@@@@@@@@@@@@@@@@@@@@@@@@@@@@@@@@@@@@@@@@@@@@@@@@@@@@@@@@@@@@@@@@@@@@@@@@@@@@@@@@@@@@@@@@@@@@O@@#@@@@@@@@@@@@@@@@@@@@@@@@@@@",
"&&&&*$&&&&&&&&&&&&&&&&&&&&&&&&&&&&&@&&&&&&&&&&&&&&&&&&&&&&&&&&&&&&&&&&&&&&&@&&&&&&&&&&&&&&&&&&&&&&&&$&&&&&&&&&&&&&&&&&&&&&&&&&&&",
"======&==========,===========&========,=========&========,=,========,===,===,=========,==,==============,=========,=============",
"77777777777777777777777777777777777777777777777777777777777777777777777777777777777777777777777777777777777777777777777777777777",
"iiididdiiiddiiididiiiiiiiidddiddddddiidddddiddiiiddddidddddddddiddiiiiiiiiiddddddddiiiidddddddddiiiiiiiiiddiddddddiiddidddiddddd",
"uuuuuuuuuuuuuuuuuuuuuuuuuuuuuuuuuuuuuuuuuuuuuuuuuuuuuuuuuuuuuuuuuuuuuuuuuuuuuuuuuuuuuuuuuuuuuuuuuuuuuuuuuuuuuuuuuuuuuuuuuuuuuuuu",
"22222222222222222222222222222222222222222222222222222222222222222222222222222222222222222222222222222222222222222222222222222222",
"=&=&=&===&==========&&==&=&====&=======&====&==&&==&&==&===&===========&&===&==&===&=&=================,&===&=&==&&==========&==",
"@@@@@&&@@@@@&@@@@@@@@@@@&@@@@@@@@&@@@@&@@@@@@@@@@@@&@@&@@@@@@@@@@@@@@@@@@@@@@@@@@@@&@@@&@@@@@@@@@@@@@@@@@@@&@@@&@@&@@&@@@@@@@@@@",
"ooooooOOOOOoooooooOOooOOoOooOOOOOoooOooooOOOooO@OOOOOOOoOOOOOOOOOOOOOOO@OoOOOOOOOOoOOOOoOoOOOoooOOOOOOO@OOOOOOOOOOOoOOoOOOOoOOOO",
"ooooooooooooooooooooooooooooXoOoooooooooooooooooooooooooooooooooooXoXoooooooooooooooooooooooooooooooooooooooooooooooooooooXooooo",
"oooooooooooooOoooOoooooooooooooOOooOooOooooooooooOoooOooooooOoooOoOOOOOOoOoOoOOOOOoOoooooooooooooOoooOoooooOoooOOoooOoooooOoOOOO",
"#@@@@@@#@+#@@@@@@@@@@@@@@@@@#O@@@@@@#@@O@@@$@##@##@@@#@@@O@@@@+#@@@@##@@@@@@@O@@@@#@@@@@+##@#@@@@@@@@#@@@@@##+@#@@@@@#@@@@@#@@#@",
"*&****$*$***&*$******$***$&*****$****$&**$$*&***&&$************&*****&*******************&**********&&******&&*&*******$********",
"------------>---,---------------,-,*,-------,,-,--------------,----->,-,-----------=>-=---=----->,-->--,----,------------------=",
"e88ee8eeeeeee8eeeeeee88eeeeeeee8eee8eeeeeeeeeeeeeee8eeeeee8e8eeeeeeeeeee8eeeeeeeeeeeeeeee888eee8e8ee8ee8e8eeee88eeeeee8eeeeee8e8",
"sssgsfasfssspsssssssssaassspassgsssssasssspsgspssgssfssafaagsfffsagsaspsssasapaasssssssssssssgssaggsgsspsspsssssppsssgpggssaspag",
"990wqqqqqq9099999qw9ww9909q9999909000099w999www0ww0wqw9r9qrwrw9w99qwqqw09qwq990wyw000wwywww0www099rwww00w0w0wwwww0q8qqwrqwqqwwww",
"<<<<<<<333<<3<<3<<<<<<<<33<<<<<<333311333<<<3<3<34343431333313333313444334<43333433114333<133444333111444114313333114144<1443344",
"%%;;%%;;%%%;;*%*%;;%;%%%%%%%%%%;%%%%%*%%:%%;;:%:;;;:;>;>;;>;>>>;;;>>>;;>;;;;;::::;;:;::::::;::;:>>;;;;:;:;;;>;:::>;;;;;;>;>>;:::",
"################$#$#############+##+#########$$$#$##$$$$$$##$$$$#$##$$$$$#$#$#####$$#$$$$$$$$$%#$$$$#$$#$$#$$$$#$$$$$#$$##$$#$$$",
"++++++++++++++++++++++O+++OO++O+++++++O+++++++++++++++#+++++++++++++O++++#++++++++++++++++++++++++++++++++++++++++##++++##++++#+",
"O+OOOOo+O+O++OO+O+OO+OOOOO+OOO+O+OOO++O+OOOOO++O+++OOOO++OO+O+O+++OO+OO++O+O++++O++++++++OO++O+O+OOO++++OOOOX+O++++O+OO++O++++++",
"###+###+#++@++#+#++###@+#######+##+#+#+####+#+##+#+###+###+++#+#++@####@##+#++####+@+++#+++#+#@++#####++###+###@#+##++#@##@#+#++",
"1111<1<1111141144441111111113111444411113111111111111111111311113441111111114441111111114444111111433313111111114411311113113331",
"tytttttyyyyytttyttttttttttttyytytttttttyytttyytttttyttttyyytyyyytttttttttttyttttyytttttyttyyy0yyyyyyttyyyy0tttttttttyytty0ytttyy",
"66666666666666666666666666666666666666666666666666666666666666666666666666666666666666666666666666666666666666666666666666666666",
"**>********>*;**;****>****;***;*****>**>*******;*****;*****;*****>****>;*****;*****>***;****>>***********>**>**;;****;****>***>*"
};
