/* XPM */
static char *__WE1699569679[] = {
/* columns rows colors chars-per-pixel */
"128 128 16 1 ",
"  c #030B00",
". c #020D00",
"X c #020C01",
"o c #030E00",
"O c #040C00",
"+ c #040C01",
"@ c #040F00",
"# c #040F01",
"$ c #031000",
"% c #041100",
"& c #051200",
"* c #041300",
"= c #051201",
"- c #061301",
"; c #051400",
": c #051401",
/* pixels */
"::::::::::::::::::::::::::::::::::::::::::::::::::::::::::::::::::::::::::::::::::::::::::::::::::::::::::::::::::::::::::::::::",
"::::::::::::::::::::::::::::::::::::::::::::::::::::::::::::::::::::::::::::::::::::::::::::::::::::::::::::::::::::::::::::::::",
"::::::::::::::::::::::::::::::::::::::::::::::::::::::::::::::::::::::::::::::::::::::::::::::::::::::::::::::::::::::::::::::::",
"::::::::::::::::::::::::::::::::::::::::::::::::::::::::::::::::::::::::::::::::::::::::::::::::::::::::::::::::::::::::::::::::",
"::::::::::::::::::::::::::::::::::::::::::::::::::::::::::::::::::::::::::::::::::::::::::::::::::::::::::::::::::::::::::::::::",
"::::::::::::::::::::::::::::::::::::::::::::::::::::::::::::::::::::::::::::::::::::::::::::::::::::::::::::::::::::::::::::::::",
"::::::::::::::::::::::::::::::::::::::::::::::::::::::::::::::::::::::::::::::::::::::::::::::::::::::::::::::::::::::::::::::::",
"::::::::::::::::::::::::::::::::::::::::::::::::::::::::::::::::::::::::::::::::::::::::::::::::::::::::::::::::::::::::::::::::",
"::::::::::::::::::::::::::::::::::::::::::::::::::::::::::::::::::::::::::::::::::::::::::::::::::::::::::::::::::::::::::::::::",
"::::::::::::::::::::::::::::::::::::::::::::::::::::::::::::::::::::::::::::::::::::::::::::::::::::::::::::::::::::::::::::::::",
"::::::::::::::::::::::::::::::::::::::::::::::::::::::::::::::::::::::::::::::::::::::::::::::::::::::::::::::::::::::::::::::::",
"--------------------------------------------------------------------------------------------------------------------------------",
"--------------------------------------------:-----------------------------------------------------------------------------------",
"--------------------------------------------::----------------------------------------------------------------------------------",
":::::::::::::::::::::::::::::::::::::::::::::::$::::::::::::::::::::::::::::::::::::::::::::::::::::::::::::::::::::::::::::::::",
":::::::::::::::::::::::::::::::::::::::::::::::-:::::::::::::::::::::::::::::::::::::::::::::::-::::::::::::::::::::::::::::::::",
"--------------------------------------------------------------------------------------------------------------------------------",
"--------------------------------------------------------------------------------------------------------------------------------",
"--------------------------------------------------------------------------------------------------------------------------------",
"--------------------------------------------------------------------------------------------------------------------------------",
"--------------------------------------------------------------------------------------------------------------------------------",
"--------------------------------------------------------------------------------------------------------------------------------",
"--------------------------------------------------------------------------------------------------------------------------------",
"--------------------------------------------------------------------------------------------------------------------------------",
"--------------------------------------------------------------------------------------------------------------------------------",
"---------------------------------------------------------:-----------------------------------------------------------------:----",
"$$-----$-$-$-------$-$$--$-----$--$-$$--$------$--$$-$---$-$-$---o---$-$-$---$-$-$---$-$-$---$-$----$-$-$-----$$-$$-$-----$$$---",
"---$$$---$---$$--$-$-------$$$--$------$$-$--$-$$------$-$-----$-----$-----$-$-----$-$-----$-$---$$---$---$$$-------$-$-$-----$-",
"$------$-$---$$---$---$$$------$--$$$------$$------$$$---$---$$-$--$--$-$--$--$-$--$--$-$--$--$--$$---$-$------$$$---$---$$---$-",
"--$$-$---$-$----$-$-$-----$$-$--$-----$$-$----$-$$-----$-$-$----$--$-$--$--$-$--$--$-$--$--$-$------$-$---$-$$-----$-$-$----$-$-",
"-$--$-$---$-$--$-$--$----$--$-$-$----$--$-$--$-$--$----$--$-$--$------$$------$$------$$------$$$--$-$---$-$--$----$--$-$--$-$--",
"--$---$-$---$--$---$--$$--$---$---$$--$---$--$---$--$$--$---$--$-$$-$----$$-$----$$-$----$$-$---$--$---$-$---$--$$--$---$--$---$",
"$$--$---$-$---$-:---$-$---$-$---$$--:---$-$---$--$---$:---$-:----$:$-$:$-$:$-$$--$:$-$$-$---$-----$---$--$---$:---$-:---$-$---$-",
"---$--$-$---$-$-$-$-$---$-$---$----$$-$-$---$-$--:-$--$-$-$-$-$---------------------------$:--$:-$--$-$--:-$--$-$-$-$-$-$---$-$-",
"**$*******************************$*****************$***********$***$***$***$***$***$***$***$***$***********$*******************",
"*******************$*******************$***********$***********$*******$***********************$***********$***********$********",
"---$---$$------$$------$---$---$:---$---$------$-------------$---:----$--:---$---:---$--:$---$--$------$-$---$$------$--$------$",
"-$---$----$--$----$-$$---$---$--$-$-$-$---$--$--$$$$$$$$$$$$-$$-$$$$$-$-$$$$-$$$$$$$-$$$---$---$--$--$-----$----$$$$-$$---$--$--",
"$$$$$$$$$$$$-$$$-$$$$-$-$$$$$$$$$$--$$--$$$$-$$$$-$-$$$-$$--$$$$$$$-$$-$$$$--$$$$$$--$$$$-$$$$-$$$$$-$$$$$-$$$-$$$--$$$$$$$$-$$$",
"$--$$--$$--$$$-$$$--$$$-$--$$--$-$$$-$$$$--$$$-$$-$$$-$--$$$$--$--$$-$$$--$$$$----$$$$--$$$--$$$$--$$$-$-$$$-$$$-$$$$--$$--$$$-$",
"-$$$$$$-$-$$--$$$-$$$-$$$--$-$$$-$$$$$$-$-$$--$$$-$$$-$$$--$-$$$$$-$$$-$$-$$$-$$$$-$$$-$-$$$-$$-$$-$-$$$--$$$$---$$$$$$-$-$$--$$",
"$$----$$$$-$$$$-$-$-$$-$$$$$$$--$$----$$$$-$$$$-$-$-$$-$$$$$$$--$-$$-$-$$-$-$$-$$-$$-$-$$$-$-$$--$-$$$-$$$$--$$$$$----$$$$-$$$$-",
"$-$$$$-$--$$$$$-$$-$--$$-$$-$-$$$-$$$$-$--$$$$$-$$-$--$$-$$-$-$$$$--$-$$$$-$--$$$$--$-$$$-$-$$$$$-$$$-$-$$$--$$$$-$$$$-$--$$$$$-",
"$$-$$-$$$$$---$$-$$$$$$--$$-$$-$$$-$$-$$$$$---$$-$$$$$$--$$-$$-$-$$$$$$--$$$$$$--$$$$$$-$-$$$--$$$$-$-$$--$$$$--$$-$$-$$$$$---$$",
"--$$$$---$$$$$$-$$---$$$$$$-$-$$--$$$$---$$$$$$-$$---$$$$$$-$-$$$$$---$$$$---$$$$$$---$$$-$$$--$-$$-$$-$$$-$$-$$--$$$$---$$$$$$-",
"$$$--$$$$$--$-$$-$$$$$--$-$$$-$-$$$--$$$$$--$-$$-$$$$$--$-$$$-$---$$$$$--$$$$$----$$$$$-$-$-$$$$-$$-$-$$$-$$$$-$$$$--$$$$$--$-$$",
"$$$--$$$$-$$-$-$-$$$$-$$-$-$$$-$$$$--$$$$-$$-$-$-$$$$-$$-$-$$$-$$$-$$$$--$$$$-$$$$-$$$$-$$-$-$$-$$$$$$--$$----$$$$$--$$$$-$$-$-$",
"--$$$$--$$-$$$-$$$--$$-$$$-$-$$$--$$$$--$$-$$$-$$$--$$-$$$-$-$$$$-$$--$$$$--$$-$$-$$--$$-$$$-$$-$--$-$$$-$$$$$$---$$$$--$$-$$$-$",
"$$$-$$$-$$--$$$-$$$-$$$--$$$-$$-$$$$--$$$$--$$$-$$$$--$$$$--$$$-$$-$$-$$$--$$$-$$$--$$$$--$$-$$$$$$-$$$-$$$-$--$$$$-$$--$$$-$$$-",
"$-$-$-$$-$$$$-$-$-$-$-$$$$-$-$$-$--$$$$--$$$$-$-$--$$$$--$$$$-$--$-$$-$-$$$$-$-$-$$$$--$$$$-$$-$--$$--$$--$$$$$$$-$$-$$$$-$-$-$$",
"$$$$$$$$$$$$$$$$$$$$$$$$$-$-$$$$$$$$$$$$$$$$$$$$$$$$$$$$$$$$$$$$$$$$$$$$$$$$$$$$$$$$$$$$$$$$$$$$$$$$$$$$$$-$-$$-$$$$$$$$$$$$$$$$",
"$-$$-$$-$-$$$-$$$-$$-$$-$-$$$--$$$$$$$$$$-$$$-$$$$$$$$$$$-$$$-$$$-$$$$-$-$$-$-$$$$$$$$$$$$-$-$$-$$$-$$$-$-$$-$$--$$-$-$$$-$$-$$-",
"-$$$$$$-$$---$$$-$$$$$$-$-$$$--$$--$$$-$$$---$$$$--$$$-$$$---$$$$--$$--$$--$$$-$$-$$$--$-$$$-$$$--$$-$$$$$-$-$$$$$$-$$$--$$$$$$-",
"$$--$-$$-$$$$$--$$--$-$$$-$-$$$$$$$$-$-$-$$$$$--$$$$-$-$-$$$$$--$$$$$$$$$$$$-$-$$-$-$$$$-$-$-$-$$$$-$$-$-$-$$$-$$-$-$-$-$$--$-$$",
"$$$$$$$$$$$$o$$$$$$$$$$$$$$$$$$$-$$-$-$$$$$$o$$$-$$-$-$$$$$$o$$$$$$$$$$$$$$$$$$$$$-$-$$-$$$$$$$$$$$$$$$o$-$$$-$-$$$$$$$$$$$$$$$$",
"-$$$-$$-$-$$-$$$-$$$-$$-$$$$$$$o$$$$$$$$$-$$-$$$$$$$$$$$$-$$-$$$-$$--$$-$--$$-$$$$$$$$$o$$-$$$-$$$-$-$$-$$$-$-$$$-$$$-$$-$$$-$$-",
"$$$-$$--$$$-$$--$$$-$$--$$$-$$--$$-$$$--$$$-$$--$$-$$$--$$$-$$--$$$-$$$-$--$$$-$$$--$$-$$$$-$$$--$-$$$-$$$--$$-$$$$-$$$-$$-$$$-$",
"$-$$-$$$$-$$-$$$$-$$-$$$$-$$-$$$-$-$-$$$$-$$-$$$-$-$-$$$$-$$-$$$--$$--$$$$$$-$-$-$$$$-$$--$$--$$-$$$-$-$-$$$$-$$--$$--$$$-$$-$-$",
"$--$-$$-$--$-$$-$--$-$$-$--$-$$-$-$$-$$-$--$-$$-$-$$-$$-$--$-$$-$$-$$$-$--$-$-$$-$$-$-$-$$-$$$-$$-$-$-$$-$$-$-$-$$-$$$-$$$--$-$$",
"o@@$@@o@o@@o@@o@o@@$@@o@o@@o@@o@ooo-@@o@o@@o@@o@ooo-@@o@o@@o@@o@@@@@@@@@o$o@o@@@@@o@@@o@@@@@@@@@$@o@o@@@@@o@@@o@@@@@@@@@-oooo@@@",
"@@@@@@@@@@@@@@@@@@@@@@@@@@@@@@@@@@@@@@@@@@@@@@@@@@@@@@@@@@@@@@@@@@@@@@@@@@@@@@@@@@@@@@@@@@@@@@@@@@@@@@@@@@@@@@@@@@@@@@@@@@@@@@@@",
"@@@@@@@@@@@@@@@@@@@@@@@@@@@@@@@@@@@@@@@@@@@@@@@@@@@@@@@@@@@@@@@@@@@@@@@@@@@@@@@@@@@@@@@@@@@@@@@@@@@@@@@@@@@@@@@@@@@@@@@@@@@@@@@@",
"@@@@@@@@@@@@@@@@@@@@@@@@@@@@@@@@@@@@@@@@@@@@@@@@@@@@@@@@@@@@@@@@@@@@@@@@@@@@@@@@@@@@@@@@@@@@@@@@@@@@@@@@@@@@@@@@@@@@@@@@@@@@@@@@",
"@@@@@@@@@@@@@@@@@@@@@@@@@@@@@@@@@@@@@@@@@@@@@@@@@@@@@@@@@@@@@@@@@@@@@@@@@@@@@@@@@@@@@@@@@@@@@@@@@@@@@@@@@@@@@@@@@@@@@@@@@@@@@@@@",
"################################################################@@@@############################################################",
"@@@@@@@@@@@@@@@@@@@@@@@@@@@@@@@@@@@@@@@@@@@@@@@@@@@@@@@@@@@@@@@@@@@@@@@@@@@@@@@@@@@@@@@@@@@@@@@@@@@@@@@@@@@@@@@@@@@@@@@@@@@@@@@@",
"@@@@@@@@@@@@@@@@@@@@@@@@@@@@@@@@@@@@@@@@@@@@@@@@@@@@@@@@@@@@@@@@@@@@@@@@@@@@@@@@@@@@@@@@@@@@@@@@@@@@@@@@@@@@@@@@@@@@@@@@@@@@@@@@",
"@@@@@@@@@@@@@@@@@@@@@@@@@@@@@@@@@@@@@@@@@@@@@@@@@@@@@@@@@@@@@@@@@@@@@@@@@@@@@@@@@@@@@@@@@@@@@@@@@@@@@@@@@@@@@@@@@@@@@@@@@@@@@@@@",
"@@@@@@@@@@@@@@@@@@@@@@@@@@@@@@@@@@@@@@@@@@@@@@@@@@@@@@@@@@@@@@@@@@@@@@@@@@@@@@@@@@@@@@@@@@@@@@@@@@@@@@@@@@@@@@@@@@@@@@@@@@@@@@@@",
"#############################@###############################@###@##############################################################",
"############################@@@@############################@@@o################################################################",
"oooooooooooooooooooooooooooooooooooooooooooooooooooooooooooooooooooooooooooooooooooooooooooooooooooooooooooooooooooooooooooooooo",
"oooooooooooooooooooooooooooooooooooooooooooooooooooooooooooooooooooooooooooooooo@@@#####oooooooooooooooooooooooooooooooooooooooo",
"oooooooooooooooooooooooooooooooooooooooo########oooooooooooooooooooooooooooooooo@o######oooooooooooooooooooooooooooooooooooooooo",
"oooooooooooooooooooooooooooooooooooooooooooooooooooooooooooooooooooooooooooooooooooooooooooooooooooooooooooooooooooooooooooooooo",
"oooooooooooooooooooooooooooooooooooooooooooooooooooooooooooooooooooooooooooooooooooooooooooooooooooooooooooooooooooooooooooooooo",
"oooooooooooooooooooooooooooooooooooooooooooooooooooooooooooooooooooooooooooooooooooooooooooooooooooooooooooooooooooooooooooooooo",
"oooooooooooooooooooooooooooooooooooooooooooooooooooooooooooooooooooooooooooooooooooooooooooooooooooooooooooooooooooooooooooooooo",
"oooooooooooooooooooooooooooooooooooooooooooooooooooooooooooooooooooooooooooooooooooooooooooooooooooooooooooooooooooooooooooooooo",
"oooooooooooooooooooooooooooooooooooooooooooooooooooooooooooooooooooooooooooooooooooooooooooooooooooooooooooooooooooooooooooooooo",
"oooooooooooooooooooooooooooooooooooooooooooooooooooooooooooooooooooooooooooooooooooooooooooooooooooooooooooooooooooooooooooooooo",
"oooooooooooooooooooooooooooooooooooooooooooooooooooooooooooooooooooooooooooooooooooooooooooooooooooooooooooooooooooooooooooooooo",
"oooooooooooooooooooooooooooooooooooooooooooooooooooooooooooooooooooooooooooooooooooooooooooooooooooooooooooooooooooooooooooooooo",
"oooooooooooooooooooooooooooooooooooooooooooooooooooooooooooooooooooooooooooooooooooooooooooooooooooooooooooooooooooooooooooooooo",
"oooooooooooooooooooooooooooooooooooooooooooooooooooooooooooooooooooooooooooooooooooooooooooooooooooooooooooooooooooooooooooooooo",
"oooooooooooooooooooooooooooooooooooooooooooooooooooooooooooooooooooooooooooooooooooooooooooooooooooooooooooooooooooooooooooooooo",
"oooooooooooooooooooooooooooooooooooooooooooooooooooooooooooooooooooooooooooooooooooooooooooooooooooooooooooooooooooooooooooooooo",
"oooooooooooooooooooooooooooooooooooooooooooooooooooooooooooooooooooooooooooooooooooooooooooooooooooooooooooooooooooooooooooooooo",
"oooooooooooooooooooooooooooooooooooooooooooooooooooooooooooooooooooooooooooooooooooooooooooooooooooooooooooooooooooooooooooooooo",
"ooooooooooooooooooooooooooooooooooooooooooooooooooooooooooooooo+oooooooooooooooooooooooooooooooooooooooooooooooooooooooooooooooo",
"oXoXoXoXoXoXXooXoXXooXoXoXoXoXoXoXoXoXoXoXoXXooXXooXXoXoXoXoXoXXXooooXXoXooXoXXoXooXoXXoXooXoXXoXoXooXXoXooXXoXoXoXoXoXoooXooXXo",
"+X+++X++X++++++X++X+X++++X+++X+++X+++X++X++++++X++++X++++X+++X++X++X++++X++X++++X++X++++X++X++++X+++X++X++++X++++X+++X++X+++X++X",
"++++++++++++++++++++++++++++++++++++++++++++++++++++++++++++++++++++++++++++++++++++++++++++++++++++++++++++++++++++++++++++++++",
"++++++++++++++++++++++++++++++++++++++++++++++++++++++++++++++++++++++++++++++++++++++++++++++++++++++++++++++++++++++++++++++++",
"XXXXXXXXXXXXXXXXXXXXXXXXXXXXXXXXXXXXXXXXXXXXXXXXXXXXXXXXXXXXXXXXXXXXXXXXXXXXXXXXXXXXXXXXXXXXXXXXXXXXXXXXXXXXXXXXXXXXXXXXXXXXXXXX",
"XXXXXXXXXXXXXXXXXXXXXXXXXXXXXXXXXXXXXXXXXXXXXXXXXXXXXXXXXXXXXXXXXXXXXXXXXXXXXXXXXXXXXXXXXXXXXXXXXXXXXXXXXXXXXXXXXXXXXXXXXXXXXXXX",
"++++++++++++++++++++++++++++++++++++++++++++++++++++++++++++++++++++++++++++++++++++++++++++++++++++++++++++++++++++++++++++++++",
"XXXXXXXXXXXXXXXXXXXXXXXXXXXXXXXXXXXXXXXXXXXXXXXXXXXXXXXXXXXXXXXXXXXXXXXXXXXXXXXXXXXXXXXXXXXXXXXXXXXXXXXXXXXXXXXXXXXXXXXXXXXXXXXX",
"XXXXXXXXXXXXXXXXXXXXXXXXXXXXXXXXXXXXXXXXXXXXXXXXXXXXXXXXXXXXXXXXXXXXXXXXXXXXXXXXXXXXXXXXXXXXXXXXXXXXXXXXXXXXXXXXXXXXXXXXXXXXXXXX",
"XXXXXXXXXXXXXXXXXXXXXXXXXXXXXXXXXXXXXXXXXXXXXXXXXXXXXXXXXXXXXXXXXXXXXXXXXXXXXXXXXXXXXXXXXXXXXXXXXXXXXXXXXXXXXXXXXXXXXXXXXXXXXXXX",
"XXXXXXXXXXXXXXXXXXXXXXXXXXXXXXXXXXXXXXXXXXXXXXXXXXXXXXXXXXXXXXXXXXXXXXXXXXXXXXXXXXXXXXXXXXXXXXXXXXXXXXXXXXXXXXXXXXXXXXXXXXXXXXXX",
"++++++++++++++++++++++++++++++++++++++++++++++++++++++++++++++++++++++++++++++++++++++++++++++++++++++++++++++++++++++++++++++++",
"++++++++++++++++++++++++++++++++++++++++++++++++++++++++++++++++++++++++++++++++++++++++++++++++++++++++++++++++++++++++++++++++",
"   X+X+X                                                                                            X+X+                        ",
"                                                                                                                                ",
"                                                                                                                                ",
"                                                                                                                                ",
"                                                                                                                                ",
"                                                                                                                                ",
"                                                                                                                                ",
"                                                                                                                                ",
"                                                                                                                                ",
"++++++++        ++++++++                                                                                                        ",
"                                                                                                                                ",
"                                                                                                                                ",
"                                                                                                                                ",
"                                                                                                                                ",
"                                                                                                                                ",
"                                                                                                                                ",
"                                                                                                                                ",
"                                                                                                                                ",
"                                                                                                                                ",
"                                                                                                                                ",
"                                                                                                                                ",
"                                                                                                                                ",
"                                                                                                                                ",
"                                                                                                                                ",
"                                                                                                                                "
};
