/* XPM */
static char * credit_xpm[] = {
"190 25 247 2",
"  	c #080705",
". 	c #070604",
"+ 	c #090907",
"@ 	c #070705",
"# 	c #060604",
"$ 	c #050402",
"% 	c #040301",
"& 	c #0C0A0B",
"* 	c #0B0B0B",
"= 	c #0A0A0A",
"- 	c #090909",
"; 	c #030301",
"> 	c #030200",
", 	c #070506",
"' 	c #080808",
") 	c #080806",
"! 	c #040402",
"~ 	c #040404",
"{ 	c #030303",
"] 	c #020200",
"^ 	c #050505",
"/ 	c #020202",
"( 	c #010101",
"_ 	c #000000",
": 	c #010100",
"< 	c #050304",
"[ 	c #070707",
"} 	c #060606",
"| 	c #0A0A08",
"1 	c #0B0D0C",
"2 	c #050503",
"3 	c #0A0809",
"4 	c #040203",
"5 	c #050400",
"6 	c #060503",
"7 	c #0A0907",
"8 	c #090806",
"9 	c #060405",
"0 	c #080607",
"a 	c #0C0C0C",
"b 	c #060501",
"c 	c #0D0D0D",
"d 	c #09090B",
"e 	c #060805",
"f 	c #070803",
"g 	c #090708",
"h 	c #030102",
"i 	c #020001",
"j 	c #0E0E0E",
"k 	c #0B0B09",
"l 	c #303030",
"m 	c #B9B9B9",
"n 	c #B7B7B7",
"o 	c #606060",
"p 	c #2F2F2D",
"q 	c #B8B8B8",
"r 	c #5C5C5C",
"s 	c #2E2E2E",
"t 	c #5D5D5D",
"u 	c #232323",
"v 	c #2F2F2F",
"w 	c #8B8B8B",
"x 	c #262624",
"y 	c #31312F",
"z 	c #8C8C8C",
"A 	c #313131",
"B 	c #B7B7B5",
"C 	c #B8B8B6",
"D 	c #5E5E5C",
"E 	c #30302E",
"F 	c #5C5E5D",
"G 	c #010000",
"H 	c #8D8B8C",
"I 	c #5E5E5E",
"J 	c #1A1A1A",
"K 	c #525252",
"L 	c #3B3B3B",
"M 	c #0D0D0B",
"N 	c #2E2E2C",
"O 	c #1A1A18",
"P 	c #272727",
"Q 	c #353535",
"R 	c #333331",
"S 	c #515151",
"T 	c #101010",
"U 	c #494949",
"V 	c #333333",
"W 	c #121210",
"X 	c #323230",
"Y 	c #6A6A6A",
"Z 	c #3D3D3D",
"` 	c #545454",
" .	c #1C1C1C",
"..	c #3A3A3A",
"+.	c #181818",
"@.	c #464646",
"#.	c #020100",
"$.	c #191718",
"%.	c #969696",
"&.	c #181816",
"*.	c #454545",
"=.	c #171717",
"-.	c #262626",
";.	c #535353",
">.	c #484848",
",.	c #282828",
"'.	c #3E3E3E",
").	c #555555",
"!.	c #1B1B1B",
"~.	c #242424",
"{.	c #8D8D8D",
"].	c #2A2A2A",
"^.	c #777777",
"/.	c #818181",
"(.	c #323232",
"_.	c #A2A2A2",
":.	c #222222",
"<.	c #80807E",
"[.	c #A4A4A2",
"}.	c #171715",
"|.	c #11110F",
"1.	c #282826",
"2.	c #ABABAB",
"3.	c #A3A3A3",
"4.	c #ADADAD",
"5.	c #474747",
"6.	c #262425",
"7.	c #5E5C5D",
"8.	c #5C5C5A",
"9.	c #ACACAC",
"0.	c #686868",
"a.	c #979797",
"b.	c #696969",
"c.	c #A1A1A1",
"d.	c #747474",
"e.	c #8A8A8A",
"f.	c #828282",
"g.	c #3C3C3C",
"h.	c #6B6B6B",
"i.	c #545452",
"j.	c #3F3F3D",
"k.	c #B9B9B7",
"l.	c #7F7F7F",
"m.	c #8C8B89",
"n.	c #5D5D5B",
"o.	c #676767",
"p.	c #3A3A3C",
"q.	c #989898",
"r.	c #111111",
"s.	c #8C8C8A",
"t.	c #212121",
"u.	c #8E8E8E",
"v.	c #252525",
"w.	c #757575",
"x.	c #1D1D1D",
"y.	c #0F0F0D",
"z.	c #474745",
"A.	c #767676",
"B.	c #262523",
"C.	c #737373",
"D.	c #B6B6B6",
"E.	c #0E0E0C",
"F.	c #6C6C6C",
"G.	c #565656",
"H.	c #808080",
"I.	c #AEAEAE",
"J.	c #0F0F0F",
"K.	c #BABABA",
"L.	c #5F5F5F",
"M.	c #757573",
"N.	c #0F0E0C",
"O.	c #A3A3A1",
"P.	c #161616",
"Q.	c #3C3C3A",
"R.	c #131311",
"S.	c #121212",
"T.	c #616161",
"U.	c #A2A2A0",
"V.	c #272624",
"W.	c #484846",
"X.	c #8A8A88",
"Y.	c #5F5F5D",
"Z.	c #7F7F7D",
"`.	c #393939",
" +	c #343432",
".+	c #343434",
"++	c #1B1B19",
"@+	c #8F8F8F",
"#+	c #747472",
"$+	c #A1A19F",
"%+	c #6A6967",
"&+	c #8B8B89",
"*+	c #555553",
"=+	c #302E2F",
"-+	c #B8B8BA",
";+	c #3B3B39",
">+	c #5E5D5B",
",+	c #8D8C8A",
"'+	c #0D0C0A",
")+	c #242223",
"!+	c #8C8A8B",
"~+	c #696866",
"{+	c #3D3C3A",
"]+	c #6A6A68",
"^+	c #11100E",
"/+	c #6B6B69",
"(+	c #AEAEAC",
"_+	c #81817F",
":+	c #4A4A4A",
"<+	c #A3A1A2",
"[+	c #494846",
"}+	c #81807E",
"|+	c #828280",
"1+	c #ADADAB",
"2+	c #979795",
"3+	c #757472",
"4+	c #100F0D",
"5+	c #61615F",
"6+	c #989896",
"7+	c #252523",
"8+	c #696967",
"9+	c #969694",
"0+	c #959595",
"a+	c #292929",
"b+	c #010302",
"c+	c #000201",
"d+	c #040605",
"e+	c #5D5B5C",
"f+	c #AEACAD",
"g+	c #030504",
"h+	c #020403",
"i+	c #070908",
"j+	c #050601",
"k+	c #0B090A",
"l+	c #050706",
"m+	c #080A09",
"n+	c #060807",
"o+	c #040300",
"p+	c #020305",
"q+	c #040507",
"r+	c #070602",
"s+	c #060608",
"t+	c #030406",
"u+	c #040406",
"v+	c #060709",
"w+	c #030305",
"x+	c #050608",
"  .   + @ @ # # $ $ % % % $ $ . # & & * = = - - + ; ; > % . , , - - ' ' ' @ ) # . ; ; ; % $ ! ! ~ { ; ] ] ! ~ ~ ^ ^ { { / ( ( ( _ ( ( ( / ; / / : ( ( ( ( ( ( : ( ( : : : _ ( ( / { ; ; ! ] : : ] _ ( ( ( ( ( ( _ _ ( _ ( ~ ~ < ~ ^ ^ ^ ^ [ @ ) ) @ @ . . # # # [ } } ^ ^ ~ ~ ( ( ( ( ( ( ( : : ( / ( ] > < < < # # @ @ # + + | = * * = 1 1 = - = _ _ _ _ ( ( ( ~ ~ # 2 # ) ' 3 - [ } , 4 { ",
"! # 2 @ + ) + + . . $ 5 5 6 6 . # 7 3 - - - - - + 2 2 % > $ $ $ @ @ # } } # @ ! ^ 2 # # 8   $ ! ^ / ] ! ! ; ~ ~ ( ( ( ( ( / / / / ( ( ( / : / / ( ( ( ( ( ( ( ( ( / : ] _ ( ( ( ( ( : : ] ] ; ! ! ( ( ( ( ( ( ( ( ( ( ( _ ( ( { { ~ { ^ ~ ~ # 2 ^ ^ ^ 9 9 } } } } } } [ [ } } ~ { / ( _ ( ( : : _ ( ( ( ( 4 4 4 ^ ~ ^ 9 0 ^ } - - = - * a a = = = - - _ _ ( _ ( { ~ @ @ @ + - ' ' } } } / / ",
"^ ^ # + @ ) + + . . 5 5 5 b 6 . # 7 7 - - - - - - } 2 % % $ $ ! @ @ # 2 # @ @ ; ; # # @ @   9 { ! ] ] ! ! ! ! ! ( ( ( ( ( / / / / / _ ( _ : ( / ( ( ( ( ( ( ( ( / _ ( _ : : _ ( / ( : : ] ] ! ! ! / ( ( ( ( ( ( ( ( ( ( ( ( ( ~ ~ ~ ^ { ^ ^ 2 2 ^ ^ ^ 9 , } } } ^ } [ [ [ } } ~ ~ ( ( ( ( ( ( ( ( ( ( / / 4 % % ^ ^ ^ 9 < ' ^ - - = = * c c = = = - d _ _ ( _ ( ~ ~ @ e @ - - ' ) # # # ] ] ",
"^ } # @ ) ) ) + . . $ $ $ 6 6 . # 7 7 - - - - - - ^ ! % $ $ ! ! f @ # 2 } @ @ ! ! # # 2 ' g 4 ^ ! ; ] ; ; ! ! ! ( ( ( ( ( / / / ( ( _ ( ( ( / ( ( ( ( ( ( ( ( ( _ ( ( ] _ : ( _ ( _ : : : ] ! ! 4 h i ( ( ( ( ( _ ( ( ( ( ( ( { { ^ ~ ^ ^ ^ ^ 2 ^ ^ ^ ^ ^ } } } } } [ [ [ } } ~ ! : ( / ( ( ( ( ( ( ( / / { ; % ^ ~ } } } ^ [ ' - * = - j a = = = - - ( _ _ ( _ ~ ~ [ [ } - - ' ' } } } / / ",
"! 2 2 2 ! } 9 9 $ $ > > > % % 6 2 8 8 ' = = ' ' ) ; ! $ 2 2 2 ~ ! ! ! ~ ^ } @ 2 ! ! ; ! 2 2 ! 2 2 ! ; 2 ! ] : ] ( ( / / / ( _ _ ( _ ( ( _ ( ( ( ( ( ( ( ( ( ( ( / ( _ _ ] _ ( ( : : ( _ ( ( / ( h i i ( ( ( ( / ( ( ( ( ( / / { 4 h h h 4 4 < < ^ ^ ^ ~ ~ ^ ^ ^ } } } } } } } ^ # ; ; ; ( ( ( ( ( ( ( ( ( / ] ] ; ! 2 ! 2 2 # @ [ - - = = a * * * - - [ - _ _ ( ( ( ^ } ^ - - [ [ ~ ^ ^ ( ( ",
"! 2 ! # } ^ 9 9 ~ ~ / ] ] { { ^ # 8 g ' = = ' ' ) ; ! 2 } ~ ^ ^ ! ! ~ ~ ~ } } ^ 2 ; ! ! 2 2 ^ ^ 2 2 ! 2 ! ] : ] ( ( / / / ( ( ( : / ( _ / ( ( ( ( ( ( ( ( ( ( ( ( ( ( ( : _ ( _ : : ( ( ( ( ( ( ( ( / ( ( : ( ( ( ( _ ( ( / / / / / { { { { ~ ^ ^ ^ ^ ~ ~ ^ ^ ^ } } } } } } } ^ 2 ; ; ; : ( ( ( : ( ( ( ( / / / ; ; 2 # 2 2 2 @ [ - = - * * * a k ' = [ - _ _ _ ( ( ^ ^ ^ - - @ [ ^ ^ ^ ( ( ",
"( ( / ~ l m n o { { ( ( ( ( / ^ ~ 9 6 2 @ ) + + + ! ! ] ] ( ( ( ( ( / h > ^ ^ ^ $ 2 2 ! p m q r / / ] ] ] ; { { ( ( ( ( ( ( ( ( : _ ( ( s m q t ( ( ( ( ( ( ( ( : : ( u v v ( ( : : ( ( ( ( ( ( ( ( ( ( ( : ( ( _ _ _ _ _ _ _ _ _ / _ ( ( m q w { ~ ~ ~ ^ ^ ^ ^ ^ ^ ^ ^ ^ } } ^ } 2 2 2 ] ] ( ( : _ _ : ( ( ( ( ] : x y x 2 ! # q q z ' = = = = + q n q ' / _ / _ _ ; { { [ ) # # ! ! ! _ : ",
"( / ( ~ A B C D { { ( ( ( ( ( ^ ^ 6 6 2 ) ) + ) + 2 2 ] ] : : : ( ( h > > 6 2 ^ < ^ ! 2 E n q F / / ] : ] ; ~ ~ ( ( ( ( ( ( ( ( : ( _ ( v q q t ( ( ( : : ( ( ( : : ( z q m _ ( : : ( ( ( ( ( ( ( ( ( _ ( : ( ( G ( _ _ _ _ _ _ _ ( ( ( / q q w ] ; ! 2 2 2 2 2 ^ ^ ^ ^ ^ ^ } } } ^ 2 ! ] ] ( ( : : : : ( ( ( ( / / q q q ~ ^ ^ q q H 0 = - = = = q q q - _ ( ( ( _ ; ; { [ ) @ . ! ! ! : : ",
"/ ( ( / v q q I J K L ( _ M N E O ^ ^ P Q R ) ) ) > % : a v S t l / 2 # # ^ T U D V W # X q n Y Z `  .~ ! : / v S t ..a ( ( +.l v J @.l v m n t #.] / c L t l / % 4 $.%.q n v u : ( / _ ( _ / v S I ../ ( _ &.v v u *.*.( _ _ _ _ =.S *.=.q m w < ~ ! 2 ! 2 { ^ -.;.>.P ^ # ,.V V [ '.).!.{ _ : ( ( +.@.S u ( _ ] ~.q n q A -.2 q q {.V o ].* * * ^.z /.' T (.(.u L K c ] 6 $ @ # ! ~ ~ ( ( ",
"_ / ( / A q q _.q q q _.a :.m q <.^ ^ q q [.@ ) ) ; #.}.q q q q q %.|.# 2 >.q q q q %.1.R q q q n m q ;.! : 2.m q q q 3.+.( t q q 4.q I v n q I : ( 5.q q q q 4.6.i 7.q n m q w ( ( _ / ( ( 4.q q n m %.a ] 8.q q q q m 9.u _ _ 0.q m q 4.m q z ~ ^ ! 2 # ; T a.q q q m b.} z q q c.m q q U ( _ / d.q q q q %.c : e.q q n q w # q q n q q q f.= * {.q q - (.q q q q q q ;.$ 2 # # ! ~ ~ ( ( ",
"( _ ( ( l n q q n m n m %./ _.q q T g.m n h.) ' ) ] ] : _.m q q q q i.2 j.q q m n q q '.R q q k.q q q 3.{ ( l.q q q m q d.( t q n q m r v q m t ( L q n q m n q 4.J r m q q n m.: ( / ( ( / %.q q q n q b._ n.q m q q n q o._ p.q q q q q q q w ~ { 2 2 2 ; a.q q q q q q.r.w q q q q q q q v ( o.q n q m q n %./ w q q q q s.2 q q q m q q q t.= u.n q ' (.n m q q q q _.2 ! # # ! ~ ~ ( ( ",
"( / _ ( l q q 4.v.J 3.n m c S q q >.w.q m x.= - = ! ! ^ g.5.K d.q q s.! s.q m L y.b.>.# A q q z V 3.n q P ( ~.5.K t q m z ( r q m q d.u v q n t ( a.n q z.y.A.n q >.! w q q ! > > % > % % % B.5.K b.q q w _ n.q q 0...q q c.( C.n q r _ d.D.m w ( ~ / ! ; P m n a.j v.<.E.! {.q n A.[ F.q q t / 4.q 4.v +.%.q n u ( m q m { 2 2 q m q (.^.q q G.= {.m q - V q q w l 3.n q v.; 2 2 ^ ^ ^ ( ( ",
"( ( ( / v q m w.; ; t q q s c q q H.I.n q.} = = = ~ ~ J._.q q n q q w ! C K.e.! ! 2 . 2 y m q L.^ h.m q (./ %.q q m D.m w ( t q q d.( ( v n q r ( q m a.% ! -.m q M.! s.q q % % % > % > $ N.O.n q n n q w : n.q q E : %.n q ( w q q _ _ P.m m z _ { { ! ! ;.q q Q.; ! ; ! 2 z q q R.' S.q q z E q n d.( ( ..q m K ( q q q ~ ; # m n {.^ V q q T.* z q q - (.q q I { b.q m v ! 2 2 ^ ^ ^ ( ( ",
"( ( ( ( v m n a.2 2 H.n q ~._ d.q q n m >.[ - = = = = L.n q d.o.q n z ] U.n 4.y.; V.B.% y n q t ] L.n q (.5.q q w I I.q e.( r q m ../ ( l q q t / 3.q c.E.. W.q q D ; X.q q ; % > G #.( _ @.q m H.Y m q z ! Y.q q E ! s.q q ] Z.n q u ( `.m q w _ ( ( / ( g.q q w./ { E ; ! {.q m  +[ .+q q M.++q m e.( ( b.q q `./ q q q { ^ ! q q z ^ V m q T.[ @+q q - V q n D / I m n A ! # } ~ ~ ~ ( ( ",
"_ ( / _ l n q q z z n m 4.( ( ..q q q n r.# * = = - = H.q q `.0.n q w ] #+m m $+M.9.4.++E m q 7.> L.q q (.d.q q >.5.q q w _ t q q v / ( v m q t : d.q m c.w.q q q 1.; <.n q a.%+> > i ( ( H.q q Z L.n q z ! D q q E $ &+q q ] n.q q _.C.4.q q w _ _ / ( ( j m q q e.z q w.{ w m q I.A.4.m n *+2 a.q q w w n q q a ( _.q q w 5.~ q n z ^ V n m o - {.q m - .+q q D ! t q q A { # [ ~ ~ ~ ( ( ",
"( ( _ h =+q q q q q q q 5.( ( ( _.q q A.# # = = = = = 5.q q q q q q w ] M %.q k.q -+q ;+y q q >+% L.q q (.v.q q q q q n w ( t q q l ( ( l q q t ] * a.n m n q m L.# ; z.q -+m m.> #.> G #.p q q q q q q z ! D q q E 5 ,+q q ] '+%.q q q q q q w _ ( _ ( / / 5.q q q n q _.!.z q q q q m q a.y.2 P 9.q q q q n @.( ( b.q q q I ~ n q z ^ V q q T.' {.q n - V q q D ] I m q l ~ # } ~ ~ ~ ( ( ",
"( ( / i )+!+,+~+H.U.Z.{+$ > $.t %.q q Q.. . = * = * * ^ ` a.%.S w w ]+$ $ ^+/+a.(+_+'.^ P z z U } :+z z P ~ >./.<+b.A.w Y / 5.w w ~.( / u w w 5.( { J.o z I./.Z 4 % % N.b._.&+z.; ; ] ; % % [+}+U.]+_+s.]+! W.s.s.++! ]+s.|+! 2 J.b._.H...e.w 0.( ( _ ( ( / ] ;+M.1+2+3+4+! z q q 5+6+6+/+W # ^ . 7+8+9+U.d...( ( ( +.b.0+/.l ! z z h.^ a+z z :+[ F.z {.- a+{.{.>.^ 5.w w ,.} } } / { / ( ( ",
": ( _ ( / $ > % ^ 2 ! 2 % #.7.q n m w 2 . . = = = = * ^ } _ ( ( / ( ; $ 6 6 # 2 } } ^ } ^ ^ } } } } [ ^ ^ ^ ~ } } ^ { ^ { / / ( / / { / / b+b+b+c+~ { } ^ ~ ^ d+{ { ; { { ~ / ; ] ~ { ; ; % $ ; ; 2 2 2 2 2 ; ! ! 2 ; ; ! ! # ! ~ / ~ { / ( ( ( ( _ ( ( ( : ; ] ; ] > % > 2 &+n C @ ) + # @ # 2 . ; ; ] ] : ( ( ( / ( ( ( { { ~ ~ } ^ ^ } } ' [ } ' = ' - ' - [ ^ ~ ~ / { } } } } / / / ( ( ",
"_ ] ( ( _ ] > > ^ 2 ! ! # > e+f+q /.v.{ , < g - + a = = = ' } } ] ] ] #.#.$ ! @ [ ^ } ^ ^ ^ } } } [ [ ~ ^ ~ ~ ~ ^ ^ [ ^ } ^ ~ ~ ~ ^ ^ g+h+b+g+h+g+i+' ^ ^ { g+g+~ ~ ~ ~ ~ / { ^ ^ { ~ ~ ! 2 ! 2 2 2 # # @ # # 2 # # 2 # # # # @ } [ ^ } ^ } ~ ~ ~ / / ; ; > > > > $ % % $ $ s.C C ) ) @ ) @ # . # ! ; ] ] : _ ( ( _ / ( / ( { ! ~ ^ ^ ^ [ } [ } [ [ [ + ) [ [ - . # ! 2 } ^ } ~ ^ ( ( ( ( _ ",
"( _ _ ( ( ] % > $ 6 2 j+5 #.> G h { ~ { ~ , k+7 + | * = = ^ [ [ ] ; _ > #.6 ; @ [ ^ } ^ ^ ^ [ ^ } ' } } ~ ~ { { ^ ^ } [ } ^ } h+h+d+g+l+c+b+g+h+h+m+n+^ ~ h+g+h+g+d+g+h+d+h+{ ^ ^ ~ ^ { ^ ; # ^ 2 # # # @ # # # ^ } [ ^ } } } ^ ^ } } ^ ^ ^ ~ ~ ~ / ] $ #.% > > $ > $ $ o+6 6 # # ) ) ) # ) .   # ; 2 ] ] _ / ( ( / _ ( ( { ] ! ! 2 2 ^ [ ^ } } } } @ ) ) + ' [ . # 2 ^ ^ } ^ ~ ~ ( ( ( ( ( ",
"/ ( ( _ / #.% % $ % b b b % #.> #.: / / ^ ~ , 6 2 + = = = ~ ~ ~ h ( ( h i > ; # 2 ^ ^ ^ ^ ~ } } } ^ } ^ ^ ^ ^ ^ ^ ^ ^ ~ } ~ ^ ^ } ^ l+d+d+l+g+d+d+d+l+~ ^ g+g+g+p+h+h+g+h+q+~ } } ^ l+} } # } } # 2 # # 2 # # # } } } ^ } ^ } } } } ^ [ ^ } } } } } ! $ $ > > > o+$ $ $ 5 6 6 . # @ ) ) + ) . . } 2 ! ] ] ; / / : : : ( : ] ; ! ! 2 ! ^ } } ^ } } } @ ) + ) ' '   @ } [ } } } / ; : : : : : ",
"/ _ ( / i % > > $ $ r+b b > % #.] ] / ( ^ ~ < , 6 | = = * ~ ~ 9 h ( ( ( h h > # @ ! 2 ^ { ^ ^ } } [ } ^ } ~ ^ } ^ ^ ^ ^ ^ ~ } ^ s+s+} } } d+g+d+d+d+[ ^ ~ ~ g+h+p+b+d+h+p+t+u+} } [ l+^ ^ } } } # @ # 2 # # # 2 } } } } } } } } } } } ^ } [ ~ } } 2 # ; ; > % > % % $ 6 $ 6 2 # # ) ) ) @ ) . . } } 2 ; ] / / / : : : _ : ] ; ! ! 2 2 2 [ ^ [ } } } } | + ' ' [ . ) } } } } ^ / ] : : : : : ",
"/ / ( ( i > % > $ 6 $ 6 $ % > > #.] / { < < , 9 . + * = = ~ ^ < i / / ( G % > # ^ } ^ ^ ~ ~ ^ } } } } ^ ^ } ^ ^ ^ ^ ^ ^ ~ } ~ } t+v+l+l+d+l+g+d+g+} } ~ } { ~ h+w+h+h+h+p+t+w+} ^ } } } [ 2 [ } } ^ } } } } } } # # # # 2 # 2 # # # # 2 # 2 @ 2 # # ! ! ! ] ] ] % % ! ! ; 2 2 # # ) ) ) ) + . . , ^ 2 ] ; : ] ( ( / _ ( ( ; ] ! ! ! 2 2 ^ [ ^ } } [ ^ - - [ [ - ) # [ } [ ^ ^ ] ] : : : : : ",
"/ / / { > $ ! ! ! ! 2 6 6 $ 6 : #.#.] i 4 h < < 6 - [ = = - ) 7 h ( : : #.#.#.# ^ ' ' ' [ } [ [ } [ [ } } ~ ~ ~ ^ ^ [ i+i+i+i+} x+d+d+d+g+g+g+g+~ ^ ^ ^ { { / { u+^ l+l+x+v+s+^ ^ ^ } ^ ^ @ # } ^ } ^ } ^ } } } # # # # # # # # # # # # # # # # # 2 # ! 2 ; ] ; ! ; 2 2 # # @ [ [ ) ) )     . , . 2 2 ; ! : : : ( ( ( ( ( / { ; ; 2 2 2 2 ^ } } } ~ } } [ [ ' [ @ ) [ ' ' } # ] { ( ( ( _ _ ",
"b+/ / > ] ! ! ! $ $ 6 9 6 $ $ #.: ( ( ( ] ] ~ ~ < 8 ) = = - + - i ( ( ( : #.#.6 ^ ' ' ' [ [ [ [ n+[ [ } } ^ ~ d+^ ^ i+n+n+i+i+} } ^ ^ ^ ~ ~ ~ ~ g+^ ^ ~ u+w+w+p+d+d+x+x+l+[ [ ^ ^ ^ ^ } } } } # } } } } } } } } } } } } } } } } } } } } } } } } # # } 2 2 ; ; ; ! ! 9 9 ^ [ @ @   ' ' ' [   . , . 9 2 ! ! : i #.( ( ( ( ( / ] ! ! 2 ^ ^ 2 2 # } } 9 ^ [ [ 0 0 [ @   0 0 [ } # ] > : : ( _ _ "};
