/* XPM */
static char *EA1699569679[] = {
/* columns rows colors chars-per-pixel */
"128 128 30 1 ",
"  c #1D1D1D",
". c #1E1E1E",
"X c gray12",
"o c #202020",
"O c gray13",
"+ c #222222",
"@ c #232323",
"# c gray14",
"$ c #252525",
"% c gray15",
"& c #272727",
"* c #282828",
"= c gray16",
"- c #2A2A2A",
"; c gray17",
": c #2C2C2C",
"> c #2D2D2D",
", c gray18",
"< c #2F2F2F",
"1 c gray19",
"2 c #313131",
"3 c #323232",
"4 c gray20",
"5 c #343434",
"6 c #353535",
"7 c gray21",
"8 c #373737",
"9 c gray22",
"0 c #393939",
"q c #3A3A3A",
/* pixels */
"qqqqqqqqqqqqqqqqqqqqqqqqqqqqqqqqqqqqqqqqqqqqqqqqqqqqqqqqqqqqqqqqqqqqqqqqqqqqqqqqqqqqqqqqqqqqqqqqqqqqqqqqqqqqqqqqqqqqqqqqqqqqqqqq",
"qqqqqqqqqqqqqqqqqqqqqqqqqqqqqqqqqqqqqqqqqqqqqqqqqqqqqqqqqqqqqqqqqqqqqqqqqqqqqqqqqqqqqqqqqqqqqqqqqqqqqqqqqqqqqqqqqqqqqqqqqqqqqqqq",
"qqqqqqqqqqqqqqqqqqqqqqqqqqqqqqqqqqqqqqqqqqqqqqqqqqqqqqqqqqqqqqqqqqqqqqqqqqqqqqqqqqqqqqqqqqqqqqqqqqqqqqqqqqqqqqqqqqqqqqqqqqqqqqqq",
"qqqqqqqqqqqqqqqqqqqqqqqqqqqqqqqqqqqqqqqqqqqqqqqqqqqqqqqqqqqqqqqqqqqqqqqqqqqqqqqqqqqqqqqqqqqqqqqqqqqqqqqqqqqqqqqqqqqqqqqqqqqqqqqq",
"qqqqqqqqqqqqqqqqqqqqqqqqqqqqqqqqqqqqqqqqqqqqqqqqqqqqqqqqqqqqqqqqqqqqqqqqqqqqqqqqqqqqqqqqqqqqqqqqqqq888qqqqqqqqqqqqqqqqqqqqqqqqqq",
"q8qqqq8qq8q8qq8qqq8qqq8qqq8qqqq8qq8q8qq88qq88qq88qq8q8qqq8q8qq8qqq8qqq8qqq8qqqq88qqqq8qqq8qqq8qq88qqqqq88qqqq8qqq8qqq8qqq8qq8q8q",
"q8q8q8qqqq8q8q8q88qq88qq8q8qqqq8q8q8qqqqqqqqqqqqqqqq8q8qqq8q8q8q88qq88qq8q8qqqq88qqqq8q8qq88qq88qq8qqqq88qqqq8q8qq88qq88q8q8q8qq",
"qqq8qqq88qqq8qqqqqq8qqq88qqq88qqq8qqq88qq88qq88qq88qqq8q8qqq8qqqqqq8qqq88qqq88qqqq88qqq88qqq8qqqq8qq88qqqq88qqq88qqq8qqqqqq8qqq8",
"88qqq8qqqq8qqq88q88qqqq8qqqq88qq8qqq8q8qqqq88qqqqq8qqq88qqq8qq88q88qqqq8qqqq88qqqq88qqqq8qqqq88qqq8qqq88qqq88qqq8qqqq88q8q8qqq8q",
"qqq8q8q88q8q8qqqqqqq88qqq88qqqq8qq8q8qqq88qqqq888q8q8qqqq8qq8qqqqqqq88qqq88qqqq88qqqq88qqq88qqqq8q8q8qqqq8qqqq8qqq88qqqq8qqq8q8q",
"qqq8qq8qqqqqqqqq8qq8qqqqqqqqqqq8q8qqqqqqqqqqq8qqqqqqqqqqq888qqqq8qq8qqqqqqqqqqq8qqqqqqqqq8qq8qq8qqqqqqqq8q8qq8qqq8qq8qq8qqqqqqqq",
"88q88q8q8888888888q88888888888q8q88888888888q88q8888888888q8888888q88888888888q888888888q88q88q8888888888q88q888q88q88q888888888",
"88q88q888q88q88qqq8888qqq888888q8q888qq888q8q8888q88q88qq88q88q8qq8888qqq888888q88qqq888888q8q888q88q88qq88q88q8888q8q888qq888q8",
"8q8888q888q8q88q888qq88888qq8q888q8q8888q8q888q888q8q88qq88q8q88888qq88888qq8q88q88888qq8q888q8q88q8q88qq88q8q888q888q8q8888q8q8",
"88qqqq88qq888888888qq8888q88q8q888q8q88q8q888q88qq888888888888qq888qq8888q88q8q8q8888q88q8q888q8qq888888888888qqq8q888q8q88q8q88",
"q888888q888q8qq8qq8888qq88q888q8q888q88q888q8q88888q8qq88qq8q888qq8888qq88q888q888qq88q888q8q888888q8qq88qq8q88888q8q888q88q888q",
"88888888888888888888888888888888888888888888888888888888888888888888888888888888888888888888888888888888888888888888888888888888",
"88888888888888888888888888888888888888888888888888888888888888888888888888888888888888888888888888888888888888888888888888888888",
"88888888888888888888888888888888888888888888888888888888888888888888888888888888888888888888888888888888888888888888888888888888",
"88888888888888888888888888888888888888888888888888888888888888888888888888888888888888888888888888888888888888888888888888888888",
"88888888888888888888888888888888888888888888888888888888888888888888888888888888888888888888888888888888888888888888888888888888",
"88888888888888888888888888888888888888888888888888888888888888888888888888888888888888888888888888888888888888888888888888888888",
"88888488888884888484848488848888888484888888888884848884848488848884888884888884888488888488888488488888884888888848484848888848",
"48488848484888488888888848884848488888484848484888884888888848884888484888484888488848488848488884888484848884848888888888848488",
"88848488848488848888888888848488888884888484848484888884888884888488848484888484848884848488848448884848884848888888888848884848",
"48888848888848884848484848888848484888488888888888484888484888488848888888488888884888888848888888888888888888888488848888888888",
"84848484848484848484848484848484484848484848484848484848484848488484848484848484848484848484848444848444848444844484448444848444",
"48484848484848484848484848484848848484848484848484848484848484844848484848484848484848484848484848484848484848484848484848484848",
"48488484848448488484848448488484484884844848484884844848484884848484848484848484848484848484848448488484848448488484848448488484",
"84844848484884844848484884844848848448488484848448488484848448484848484848484848484848484848484884844848484884844848484884844848",
"48888484844848888484844848888484888484844848888484844848888484848848884888488848884888488848884848484884848848484884848848484884",
"44444844484444444844484444444844444844484444444844484444444844484444444444444444444444444444444444844484444444844484444444844484",
"44448444448444448444448444448444444484444484444444848444848444844444848484848484848484848484848448444448444448444448844444844444",
"48484448484448484448484448484448484844484844484848444448444448448484444444444444444444444444444444848444848444848444444848444848",
"48448444448448448444448448448444484484444484484444448444448444444448444444844444448444444484444448444448444448444448444444844844",
"44444444444444444444444444444444444444444444444444444444444444444444444444444444444444444444444444444444444444444444444444444444",
"44444444444444444444444444444444444444444444444444444444444444444444444444444444444444444444444444444444444444444444444444444444",
"44444444444444444444444444444444444444444444444444444444444444444444444444444444444444444444444444444444444444444444444444444444",
"4<4<4<4<444<44444<44444<4<4<4<4<4<4<4<4<444<4444444<4<44444444444444444<4<44444<4<44444<4<44444<<44444444444<44444<4<444444<4444",
"44444444<444<4<444<4<4444444444444444444<444<4<4<44444<444<4<4<4<4<4<4444444<4444444<4444444<444444<4<444<4<444<4444444<<444<4<4",
"4<4<4<4<444<4<444<4<444<4<4<4<4<4<4<4<4<444<4<4444444<4444444444444<4<4444444<444<44444<44444<44<4<444<4<4<444<44<4<4<4<444<4<44",
"44444444<44444<44444<4444444444444444444<44444<4<4<444<4<4<4<4<4<44444<4<4<444<444<4<444<4<444<444444<4444444<4444444444<44444<4",
"4<444<44444444444<<444444<444<444<444<444444444444444444444<444<44444444444444444444<44<4444444444<4444444<444444<444<4444444444",
"<4<4<4<4<4<<<<4<4<44<4<<<4<4<4<4<4<4<4<4<4<<<<4<<4<<<<<44<4<4<4<<4<<<<4<<4<<<<<4<<<444<4<4<<<<<4<<4<4<<4<<4<4<<4<4<4<4<4<4<<<<4<",
"4<4<4<4<4<4<4<4<4<4<4<4<4<4<4<4<4<4<4<4<4<4<4<4<<4<4<4<4<4<4<4<44<4<4<4<<4<4<4<4<4<4<4<4<4<4<4<44<4<4<4<4<4<4<4<4<4<4<4<4<4<4<4<",
"<4<4<4<4<4<4<4<4<4<4<4<4<4<4<4<4<4<4<4<4<4<4<4<4444<4<444<4<444<<4<4<4<4444<4<444<444<4<444<4<44<4<4<4<4<4<4<4<4<4<4<4<4<4<4<4<4",
"4<<<4<4<<<4<4<<<4<4<<<4<4<<<4<4<4<<<4<4<<<4<4<<<<<<<<<<<<<<<<<<<<<4<4<<<<<<<<<<<<<<<<<<<<<<<<<<<<<<<<<<<<<<<<<<<4<<<4<4<<<4<4<<<",
"<<<4<<<<<4<<<<<4<<<<<4<<<<<4<<<<<<<4<<<<<4<<<<<4<4<4<<<4<4<<<4<4<4<<<<<4<4<4<<<4<<<4<4<<<4<4<<<44<4<4<4<4<4<4<4<<<<4<<<<<4<<<<<4",
"<<4<<<<<4<<<<<4<<<4<<<<<4<<<<<4<<<4<<<<<4<<<<<4<<<4<<<<<<<4<4<<<<<<<4<<<<<4<<<<<<<4<4<<<4<4<<<4<<<<<<<<<<<<<<<<<<<<<4<<<<<4<<<<<",
"<4<<<4<4<<<4<4<<<4<<<4<4<<<4<4<<<4<<<4<4<<<4<4<<<4<<<4<4<<<<<<<4<4<4<<<4<4<<<4<4<4<<<<<4<<<<<<<<<4<4<4<<<4<4<4<<<4<4<<<4<4<<<4<4",
"<<<<<<<<<<<<<<<<<<<<<<<<<<<<<<<<<<<<<<<<<<<<<<<<<<<<<<<<<<<<<<<<<<<<<<<<<<<<<<<<<<<<<<<<<<<<<<<<<<<<<<<<<<<<<<<<<<<<<<<<<<<<<<<<",
"<<<<<<<<<<<<<<<<<<<<<<<<<<<<<<<<<<<<<<<<<<<<<<<<<<<<<<<<<<<<<<<<<<<<<<<<<<<<<<<<<<<<<<<<<<<<<<<<<<<<<<<<<<<<<<<<<<<<<<<<<<<<<<<<",
"<<<<<<<<<<<<<<<<<<<<<<<<<<<<<<<<<<<<<<<<<<<<<<<<<<<<<<<<<<<<<<<<<<<<<<<<<<<<<<<<<<<<<<<<<<<<<<<<<<<<<<<<<<<<<<<<<<<<<<<<<<<<<<<<",
"<<<<<<<<<<<<<<<<<<<<<<<<<<<<<<<<<<<<<<<<<<<;;<<<<<<<<<<<<<<<<<<<<<<<<<<<<<<<<<<<<<<<<<;<<<<<<<<<<<<<<<<<<<<<<<<<<<<<<<<<<<<<<<<<",
"<<<;<<<<<;<<<<<;<<<;<<<<<;<<<<<;<<<;<<<<<;<<<<<;<;;<;<<<<<<;<;<<<;<;<;<;<<<;<<<<<;<<<<<<<<<<<<<<<;<<<<<;<;<<<<<;<;<;<;<;<;;<;<<<",
";<<<;<;<<<;<;<<<;<<<;<;<<<;<;<<<;<<<;<;<<<;<;<<<<<<<<<<;;<<<<<;<<<<<<<<<;<<<;<;<<<;<;<;<<<;<;<;<<<<<;<<<<<<<;<<<<<<<<<<<<<<<<<<;",
"<<<;<<<<<<<;<<<<<<<;<<<<<<<;<<<<<<<;<<<<<<<;<<<<<<<<<;<<<<<<<;<<<<;<<<;<<<<;<<<;<;<<<;<<;<<<;<<<<;<<<<<<<;<<<;<<;<<<;<<<<;<<<<<<",
";<;<;<;;;<;<;<;;;<;<;<;;;<;<;<;;;<;<;<;;;<;<;<;;;;<;<;;<;;<;<;;<;;<<;;<<<;<;;<;<<;;<;<;<<<;;<<;;;<;<;;<;<;;<;<;<<<;;<<;;;<;<;;<;",
"<;<;<;<;<;<;<;<;<;<;<;<;<;<;<;<;<;<;<;<;<;<;<;<;;<;<;<;<;<;<;<;<<;<;<;<;;<;<<;<;;<;<<;<;;<;<;<;<<;<;;<;<;<;<<;<;;<;<;<;<<;<;;<;<",
";<;<;<;<;<;<;<;<;<;<;<;<;<;<;<;<;<;<;<;<;<;<;<;<<;<;<;<;<;<;<;<;;<;<;<;<<;<;;<;<<;<;;<;<<;<;<;<;;<;<<;<;<;<;;<;<<;<;<;<;;<;<<;<;",
"<;<;<;<;<;<;<;<;<;<;<;<;<;<;<;<;<;<;<;<;<;<;<;<;;<<<;<<<;<<<;<<<<<;<<<;<<;;<<<;<<;<<;<<;;<<;<;<<;<<;;<<;<;<<;<<;;<<;<;<<;<<;;<<;",
";;;<;;;<;;;<;;;<;;;<;;;<;;;<;;;<;;;<;;;<;;;<;;;<;;;;;;;;;;;;;;;;;;;;;;;;;<;;;;;;;<;;;;;<;;;;;<;;;;;<;;;;;<;;;;;<;;;;;<;;;;;<;;;;",
"<;<;<;<;<;<;<;<;<;<;<;<;<;<;<;<;<;<;<;<;<;<;<;<;;;;;;;;;;;;;;;;;<;;;<;<;;;<;<;;;;;;;<;;;;;<;;;;;<;;;;;<;;;;;<;;;;;<;;;;;<;;;;;<;",
";;;;;;;;;;;;;;;;;;;;;;;;;;;;;;;;;;;;;;;;;;;;;;;;;<;<;<;<;<;<;<;<;;;<;;;;;<;;;;;<;<;<;;;<;<;;;<;<;;;<;<;;;<;<;;;<;<;;;<;<;;;<;<;;",
";;;;;;;;;;;;;;;;;;;;;;;;;;;;;;;;;;;;;;;;;;;;;;;;;;;;;;;;;;;;;;;;;;;;;;;;;;;;;;;;;;;;;;;;;;;;;;;;;;;;;;;;;;;;;;;;;;;;;;;;;;;;;;;;",
";;;;;;;;;;;;;;;;;;;;;;;;;;;;;;;;;;;;;;;;;;;;;;;;;;;;;;;;;;;;;;;;;;;;;;;;;;;;;;;;;;;;;;;;;;;;;;;;;;;;;;;;;;;;;;;;;;;;;;;;;;;;;;;;",
";;;;;;;;;;;;;;;;;;;;;;;;;;;;;;;;;;;;;;;;;;;;;;;;;;;;;;;;;;;;;;;;;;;;;;;;;;;;;;;;;;;;;;;;;;;;;;;;;;;;;;;;;;;;;;;;;;;;;;;;;;;;;;;;",
";;;;;;;;;;;;;;;;;;;;;;;;;;;;;;;;;;;;;;;;;;;;;;;;;;;;;;;;;;;;;;;;;;;;;;;;;;;;;;;;;;;;;;;;;;;;;;;;;;;;;;;;;;;;;;;;;;;;;;;;;;;;;;;;",
";;;;&;;;;;;;&;;;;;;;&;;;;;;;&;;;;;;;&;;;;;;;&;;;&;&;;;&;&;&;;;&;;;;&;;;&;&;&;&;;;&;&;&;&;;;&;;;&;&;&;&;;;&;&;&;&;;;&;;;&;;;;;&;;",
";&;&;;;&;&;&;;;&;&;&;;;&;&;&;;;&;&;&;;;&;&;&;;;&;;;;;&;;;;;;;&;;&;;;&;;;;;;;;;&;;;;;;;;;&;;;&;;;;;;;;;&;;;;;;;;;&;;;&;;;&;&;;;&;",
";;;;;;;;;;;;;;;;;;;;;;;;;;;;;;;;;;;;;;;;;;;;;;;;;;&;;;;;;;&;;;;;;;;;;;;;;&;;;;;;;&&;;&;;;;;;;;;;;&;;;;;;;&&;;&;;;;;;;;;;;;;&;;;;",
"&;&&&;&&&;&&&;&&&;&&&;&&&;&&&;&&&;&&&;&&&;&&&;&&&&;&;&&;&&;&;&&;&;&&&;&&&;&;&&;&;&;;&;&;&;&&&;&&&;&;&&;&;&;;&;&;&;&&&;&&&;;;&&&;",
"&;&;&;&;&;&;&;&;&;&;&;&;&;&;&;&;&;&;&;&;&;&;&;&;;&;&;&;&;&;&;&;&&;&;&;&;;&;&;&;&&;&;&;;&&;&;&;&;;&;&;&;&;&;&;&;&;&;&;&;&&;&;&;&;",
";&;;;&;&;&;&;&;&;&;&;&;&;&;&;&;&;&;&;&;&;&;&;&;&&;&;&;&;&;&;&;&;;&;&;&;&&;&;&;&;;&;&;&&;;&;&;&;&&;&;&;&;&;&;&;&;&;&;&;&;;&;&;&;&",
"&&;&&;&&&;&&&;&;&&;;;;&;&;&;&&;;&&;;;;&;&;&;&&;;;;&&&;&;;&;;;;&&&;;;&;;;;;&;;&;&&;;&&;&&&;;;&;;;&&;&;&&&;&;&;&&;;&;&;&;&&;&;&&&&",
"&;&&&&;&&&;&&&&&&;&&&&&&;&&&&;&&&;&&&&&&;&&&&;&&&&&;&&&&&&&&&&&;&&&&&&&&&&&&&;&&;&&&&&&;&&&&&&&&&;&&&;&;&;&&&;&&;&&&;&&&&&&&;&;&",
"&;&&&&&;&;&;&;&;&;&;&;&&&;&;&;&;&;&;&;&&&;&;&;&;&;&;;&;&&&&&&&&&&&&&;&&&&&&&&&&&;&&&&&&&&&&&;&&&;&&&;&&&&&;&&&;&&;&&&;&;&;&;&;&&",
"&&&;;&;&&&&&&&&&&&&&&&;&&&&&&&&&&&&&&&;&&&&&&&&&&&&&&&&&;&;&;&;&&;&;&&&;&;&;&;&;&&&;&;&;&;&;&&&;&&&;&&&;&;&&&;&&&&;&&&&&&&&&&&;&",
"&;;&&&&&&;&&&;&&&;&&;&&&&;&&&;&&&;&&;&&&&;&&&;&&&;&&;&&&&&;&&&&&&;&&;&&&;&&&&;&&;&&&;&&&&;&&;&&&;&&&;&&&&&;&&&;&;&&&&;&&&;&&;&&&",
"&&&&&&&&&&&&&&&&&&&&&&&&&&&&&&&&&&&&&&&&&&&&&&&&&&&&&&&&&&&&&&&&&&&&&&&&&&&&&&&&&&&&&&&&&&&&&&&&&&&&&&&&&&&&&&&&&&&&&&&&&&&&&&&&",
"&&&&&&&&&&&&&&&&&&&&&&&&&&&&&&&&&&&&&&&&&&&&&&&&&&&&&&&&&&&&&&&&&&&&&&&&&&&&&&&&&&&&&&&&&&&&&&&&&&&&&&&&&&&&&&&&&&&&&&&&&&&&&&&&",
"&&&&&&&&&&&&&&&&&&&&&&&&&&&&&&&&&&&&&&&&&&&&&&&&&&&&&&&&&&&&&&&&&&&&&&&&&&&&&&&&&&&&&&&&&&&&&&&&&&&&&&&&&&&&&&&&&&&&&&&&&&&&&&&&",
"@&&&@&@&&&&&@&&&@&@&&&&&@&&&@&@&@&&&@&@&&&&&@&&&&&&&@&@&&&@&&&&&&@&@&&&&&@&&&@&@&@&@&&&&&@&&&@&@&&@&&&@&&&@&&&@&@&&&@&@&&&&&@&&&",
"&&&@&&&&&@&@&&&@&&&&&@&@&&&@&&&&&&&@&&&&&@&@&&&@&@&@&&&&&@&&&@&@&&&&@&@&&&@&&&&&&&&&@&@&&&@&&&&&&@&&&@&&&@&&&@&&&&&@&&&&&@&@&&&@",
"&&@&&&@&@&@&&&&&@&&&@&@&&&@&&&@&&&@&&&@&@&@&&&&&&&@&&&&&@&&&@&&&&&&&&@&&&@&@&&&&&&&&&@&&&@&@&&&&&&&&@&&&&&&&@&&&&&@&&&@&@&@&&&&&",
"&@&&&@&&&&&&&@&@&&&@&&&&&@&&&@&&&@&&&@&&&&&&&@&@&&&&&@&&&&&&&&&&@&@&&&@&&&&&@&@&@&@&&&@&&&&&@&@&&@&@&&&@&@&@&&&@&@&&&@&&&&&&&@&@",
"@&@&@&@&@&@&@&@&@&@&@&@&@&@&@&@&@&@&@&@&@&@&@&@&&@&@@@&@@@&@@@&@&@&@&@&@&@&@&@&@&@&@&@&@&@&@&@&@@&@&@&@&@&@&@&@&@&@&@&@&@&@&@&@&",
"&@&@&@&@&@&@&@&@&@&@&@&@&@&@&@&@&@&@&@&@&@&@&@&@@&@&@&@&@&@&@&@&@&@&@&@&@&@&@&@&@&@&@&@&@&@&@&@&&@&@&@&@&@&@&@&@&@&@&@&@&@&@&@&@",
"@&@&@&@&@&@&@&@&@&@&@&@&@&@&@&@&@&@&@&@&@&@&@&@&&@&@&@&@&@&@&@&@&@&@&@&@&@&@&@&@&@&@&@&@&@&@&@&@@&@&@&@&@&@&@&@&@&@&@&@&@&@&@&@&",
"&@&@&@&@&@&@&@&@&@&@&@&@&@&@&@&@&@&@&@&@&@&@&@&@@&@&@&@&@&@&@&@&@&@&@&@&@&@&@&@&@&@&@&@&@&@&@&@&&@&@&@&@&@&@&@&@&@&@&@&@&@&@&@&@",
"@@@&@@@&@&@&@@@@@&@@@&@&@@@&@@@&@@@&@@@&@&@&@@@@@@@&@@@@@&@@@&@@&@@@&@&@&@@@&@&@&@@@&@&@&@@@&@&@@&@&@@@@@&@@@&@&@@@&@@@&@&@&@@@@",
"&@@@&@@@@@@@&@&@@@&@@@@@&@@@&@@@&@@@&@@@@@@@&@&@&@@@&@&@@@&@@@&@@@@&@@@@@@@&@@@@@@@&@@@@@@@&@@@@@@@@&@&@@@&@@@@@&@@@&@@@@@@@&@&@",
"@@@&@@@&&@@@@@@&@@@&&@@@@@@&@@@&@@@&@@@&&@@@@@@&@&@@@@&@@&@@@@@@@@&@@@&@@@&@@@&@@@&@@@&@@@&@@@&@&@@@@@@&@@@&&@@@@@@&@@@&&@@@@@@&",
"@@@@@@@@@@@@@@@@@@@@@@@@@@@@@@@@@@@@@@@@@@@@@@@@@@@@@@@@@@@@@@@@@@@@@@@@@@@@@@@@@@@@@@@@@@@@@@@@@@@@@@@@@@@@@@@@@@@@@@@@@@@@@@@@",
"@@@@@@@@@@@@@@@@@@@@@@@@@@@@@@@@@@@@@@@@@@@@@@@@@@@@@@@@@@@@@@@@@@@@@@@@@@@@@@@@@@@@@@@@@@@@@@@@@@@@@@@@@@@@@@@@@@@@@@@@@@@@@@@@",
"@@@@@@@@@@@@@@@@@@@@@@@@@@@@@@@@@@@@@@@@@@@@@@@@@@@@@@@@@@@@@@@@@@@@@@@@@@@@@@@@@@@@@@@@@@@@@@@@@@@@@@@@@@@@@@@@@@@@@@@@@@@@@@@@",
"@@@@@@@@@@@@@@@@@@@@@@@@@@@@@@@@@@@@@@@@@@@@@@@@@@@@@@@@@@@@@@@@@@@@@@@@@@@@@@@@@@@@@@@@@@@@@@@@@@@@@@@@@@@@@@@@@@@@@@@@@@@@@@@@",
"@@@@@@@@@@@@@@@@@@@@@@@@@@@@@@@@@@@@@@@@@@@@@@@@@@@@@@@@@@@@@@@@@@@@@@@@@@@@@@@@@@@@@@@@@@@@@@@@@@@@@@@@@@@@@@@@@@@@@@@@@@@@@@@@",
"@@@@X@@@X@X@@@@@X@@@X@X@@@@@X@@@@@@@X@X@@@X@@@@@X@X@@@X@@@@@X@X@X@@@X@@@X@@@X@@@X@@@X@@@X@@@X@@@@@@@X@@@X@X@@@@@X@@@X@X@@@@@X@@@",
"@X@X@@@X@@@@@X@X@@@X@@@@@X@X@@@X@X@X@@@@@X@@@X@X@@@@@X@@@X@X@@@@@@@X@@@X@@@X@@@X@@@X@@@X@@@X@@@X@X@X@@@X@@@@@X@X@@@X@@@@@X@X@@@X",
"X@X@@@@@X@@@X@X@@@X@@@X@X@X@@@@@@@X@@@@@X@@@X@@@@@@@X@X@@@X@@@@@X@X@@@X@X@X@@@X@X@X@@@X@X@X@@@X@X@X@@@@@X@@@X@X@@@X@@@X@X@X@@@@@",
"@@@@@X@X@@@X@@@@@X@@@X@@@@@@@X@X@@@@@X@@@@@@@@@@@X@@@@@@@@@@@X@@@@@@@@@@@@@@@@@@@@@@@@@@@@@@@@@@@@@@@X@X@@@X@@@@@X@@@X@@@@@@@X@X",
"X@X@X@X@X@X@X@X@X@X@X@X@X@X@X@X@@X@XXX@XXX@XXX@XXX@X@XXX@X@XXX@X@XXX@X@X@XXX@X@X@XXX@X@X@XXX@X@XX@X@X@X@X@X@X@X@X@X@X@X@X@X@X@X@",
"@X@X@X@X@X@X@X@X@X@X@X@X@X@X@X@XX@X@X@X@X@X@X@X@X@X@X@X@X@X@X@X@X@X@X@X@X@X@X@X@X@X@X@X@X@X@X@X@@X@X@X@X@X@X@X@X@X@X@X@X@X@X@X@X",
"X@X@X@X@X@X@X@X@@X@X@X@XX@X@X@X@@X@X@X@XX@X@X@X@@X@X@X@X@X@X@X@X@X@X@X@X@X@X@X@X@X@X@X@X@X@X@X@XX@X@X@X@X@X@X@X@@X@X@X@XX@X@X@X@",
"@X@X@X@X@X@X@X@XX@X@X@X@@X@X@X@XX@X@X@X@@X@X@X@XX@X@X@X@X@X@X@X@X@X@X@X@X@X@X@X@X@X@X@X@X@X@X@X@@X@X@X@X@X@X@X@XX@X@X@X@@X@X@X@X",
"@@X@X@X@@@X@X@X@@X@X@X@XXX@@@@X@@X@@@@XXX@X@X@X@X@@X@X@@X@@X@X@@@@XXX@@X@X@@@@XX@@XXX@@X@X@@@@XX@@X@X@X@@@X@X@X@@X@X@X@XXX@@@@X@",
"XXXX@XXXXXXX@XXX@XXX@XXXX@XXXXXXXXXXXXX@XX@XXX@XXX@XXXXXXX@XXXXXXXX@XX@XXXXXXXX@XXX@XX@XXXXXXXX@XXXX@XXXXXXX@XXX@XXX@XXXX@XXXXXX",
"XXX@XXX@XXX@XXX@X@XXX@X@XXXXX@XXXXXXX@X@XXX@XXXXX@XXX@XXX@XXX@XXX@X@XXX@XXXXX@X@X@X@XXX@XXXXX@X@XXX@XXX@XXX@XXX@X@XXX@X@XXXXX@XX",
"@XXX@XXX@XXX@XXXXX@XXXXX@X@XXX@X@X@XXXXX@XXX@X@XXX@XXX@XXX@XXX@XXXXX@XXX@X@XXXXXXXXX@XXX@X@XXXXX@XXX@XXX@XXX@XXXXX@XXXXX@X@XXX@X",
"X@X@X@X@X@X@X@X@XXXXX@XXXXX@XXXXXXX@X@XXX@X@XXXXXXXXXXXXXXXXXXXXX@XXX@X@XXX@X@XXX@XXX@X@XXX@X@XXX@X@X@X@X@X@X@X@XXXXX@XXXXX@XXXX",
"XXXXXXXXXXXXXXXX@X@XXX@X@XXX@X@X@XXXXX@XXXXX@XXX@X@X@X@X@X@X@X@XXX@XXXXX@XXXXX@XXX@XXXXX@XXXXXXXXXXXXXXXXXXXXXXX@X@XXX@X@XXX@X@X",
"XXXXXXXXXXXXXXXXXXXXXXXXXXXXXXXXXXXXXXXXXXXXXXXXXXXXXXXXXXXXXXXXXXXXXXXXXXXXXXXXXXXXXXXXXXXXXXXXXXXXXXXXXXXXXXXXXXXXXXXXXXXXXXXX",
"XXXXXXXXXXXXXXXXXXXXXXXXXXXXXXXXXXXXXXXXXXXXXXXXXXXXXXXXXXXXXXXXXXXXXXXXXXXXXXXXXXXXXXXXXXXXXXXXXXXXXXXXXXXXXXXXXXXXXXXXXXXXXXXX",
"XXXXXXXXXXXXXXXXXXXXXXXXXXXXXXXXXXXXXXXXXXXXXXXXXXXXXXXXXXXXXXXXXXXXXXXXXXXXXXXXXXXXXXXXXXXXXXXXXXXXXXXXXXXXXXXXXXXXXXXXXXXXXXXX",
"XXXXXXXXXXXXXXXXXXXXXXXXXXXXXXXXXXXXXXXXXXXXXXXXXXXXXXXXXXXXXXXXXXXXXXXXXXXXXXXXXXXXXXXXXXXXXXXXXXXXXXXXXXXXXXXXXXXXXXXXXXXXXXXX",
"XXXXXXXXXXXXXXXXXXXXXXXXXXXXXXXXXXXXXXXXXXXXXXXXXXXXXXXXXXXXXXXXXXXXXXXXXXXXXXXXXXXXXXXXXXXXXXXXXXXXXXXXXXXXXXXXXXXXXXXXXXXXXXXX",
" XX X  X XX X  XXXX X X X X  XX X  XX X X X X X  XX X  X XX X  XXXX X X X X  XX X  XX X X X X X  XX X  X XX X  XXXX X X X X  XX ",
" X X X X X X X X X X X X X X X X X X X X X X X X X X X X X X X XXX X X X X X X X X X X X X X X X X X X X X X X X X X X X X X X X",
"X X X X X X X X X X X X X X X X X X X X X X X X X X X X X X X X X X X X X X X X X X X X X X X X X X X X X X X X X X X X X X X X ",
" X X X X X X X X X X X X X X X X X X X X X X X X X X X X X X X X X X X X X X X X X X X X X X X X X X X X X X X X X X X X X X X X",
"X X X X X X X X X X X X X X X X X X X X X X X X X X X X X X X X X X X X X X X X X X X X X X X X X X X X X X X X X X X X X X X X ",
" X X X X X X X X X X X X X X X X X X X X X X X X X X X X X X X X X X X X X X X X X X X X X X X X X X X X X X X X X X X X X X X X",
"X X X X X X X X X X X X X X X X X X X X X X X X X X X X X X X X X X X X X X X X X X X X X X X X X X X X X X X X X X X X X X X X ",
"                                                                 X X X X         X XX X  X X X X                   X X  X X  X X",
"                                                                                                                                ",
"                                                                                                                                ",
"                                                                                                                                "
};
