/* XPM */
static char *WE1699569680[] = {
/* columns rows colors chars-per-pixel */
"128 128 41 1 ",
"  c #282828",
". c gray16",
"X c #2A2A2A",
"o c gray17",
"O c #2C2C2C",
"+ c #2D2D2D",
"@ c gray18",
"# c #2F2F2F",
"$ c gray19",
"% c #313131",
"& c #323232",
"* c gray20",
"= c #343434",
"- c #353535",
"; c gray21",
": c #373737",
"> c gray22",
", c #393939",
"< c #3A3A3A",
"1 c gray23",
"2 c #3C3C3C",
"3 c gray24",
"4 c #3E3E3E",
"5 c #3F3F3F",
"6 c gray25",
"7 c #414141",
"8 c gray26",
"9 c #434343",
"0 c #444444",
"q c gray27",
"w c #464646",
"e c gray28",
"r c #484848",
"t c #494949",
"y c gray29",
"u c #4B4B4B",
"i c #4C4C4C",
"p c gray30",
"a c #4E4E4E",
"s c gray31",
"d c #505050",
/* pixels */
"dddddddddddddddddddddddddddddddddddddddddddddddddddddddddddddddddddddddddddddddddddddddddddddddddddddddddddddddddddddddddddddddd",
"dddddddddddddddddddddddddddddddddddddddddddddddddddddddddddddddddddddddddddddddddsdddddddddddddddddddddddddddddddddddddddddddddd",
"ddddddddssssddddddddddddddddddddddssddddddddddddddddddddssssddddddddddddddddddddssssddddddddddddddddddddssssdddddddddddddddddddd",
"ssssssssssssssssssssssssssssssssssssssssssssssssssssssssssssssssssssssssssssssssssssssssssssssssssssssssssssssssssssssssssssssss",
"ssssssssssssssssssssssssssssssssssssssssssssssssssssssssssssssssssssssssssssssssssssssssssssssssssssssssssssssssssssssssssssssss",
"ssssssssssssssssssssssssssssssssssssssssssssssssssssssssssssssssssssssssssssssssssssssssssssssssssssssssssssssssssssssssssssssss",
"ssssssssssssssssssssssssssssssssssssssssssssssssssssssssssssssssssssssssssssssssssssssssssssssssssssssssssssssssssssssssssssssss",
"ssssssssssssssssssssssssssssssssssssssssssssssssssssssssssssssssssssssssssssssssssssssssssssssssssssssssssssssssssssssssssssssss",
"sssusssssssusssssususususssssssusususssusssssssssssusssssssusssssususususssssssussusussssssssssssssusssssssusssssususususssssssu",
"ssssusususssususssssssssssususssssssusssusususususssusususssususssssssssssusussssusssssususususussssusususssususssssssssssususss",
"sususssusususssususssusssssssusususssususssusssusususssusususssususssusssssssusussssusususssussssususssusususssususssusssssssusu",
"ssssusssssssusssssusssusususssssssusssssusssusssssssusssssssusssssusssususussssssusssssssssussssssssusssssssusssssusssusususssss",
"usususususususususususususususussusususususususuusususususususususususususususussusususuuusususuusususususususususususususususus",
"susususususususususususususususuusususususususussusususususususususususususususuusususususususussusususususususususususususususu",
"usususususususususususususususussusususususususuusususususususususususususususussusususususususuusususususususususususususususus",
"susususususususususususususususuusususususususussusususususususususususususususuusususususususussusususususususususususususususu",
"usssusssusssusssussusussusssussussussusussusssusussuussusuussuususssussuusuususususussususuususuusssusssusssusssussusussusssussu",
"uuuuuuuuuuuuuuuuuuuuusuuuuuuuuuuuuuuuuusuuuuuuuuuuusuuususuuusuuuuuuuuuusuussuuusuuuuuuusuussuuuuuuuuuuuuuuuuuuuuuuuusuuuuuuuuuu",
"usuuusuuusuuusuuuusuuuuuuuuuuususususususuuusususuuusuuuuusuuusuuuuuuusuuuusususususususuuususususuuusuuusuuusuuuusuuuuuuuuuuusu",
"uusuuusuuusuuusuusuuusususususuuuuuuuuuuuuusuuuuuuusuuususuuusuuusususuusuuuuuuuuuuuuuuusuuuuuuuuusuuusuuusuuusuusuuusususususuu",
"usuuusuuusuuuuuusuuusuuuuuussuuuuusuusuuuusuuususuuuuuuuuusuuusuuuussuuuusuuuuuuuusuusuuusuuuusuusuuusuuuuuuuuuusuuusuuuuuuuuuus",
"uuuuuuuuuuuuuuuuuuuuuuuuuuuuuuuuuuuuuuuuuuuuuuuuuuuuuuuuuuuuuuuuuuuuuuuuuuuuuuuuuuuuuuuuuuuuuuuuuuuuuuuuuuuuuuuuuuuuuuuuuuuuuuuu",
"uuuuuuuuuuuuuuuuuuuuuuuuuuuuuuuuuuuuuuuuuuuuuuuuuuuuuuuuuuuuuuuuuuuuuuuuuuuuuuuuuuuuuuuuuuuuuuuuuuuuuuuuuuuuuuuuuuuuuuuuuuuuuuuu",
"uuuuuuuuuuuuuuuuuuuuuuuuuuuuuuuuuuuuuuuuuuuuuuuuuuuuuuuuuuuuuuuuuuuuuuuuuuuuuuuuuuuuuuuuuuuuuuuuuuuuuuuuuuuuuuuuuuuuuuuuuuuuuuuu",
"uuuwuuwuuwuuwuuuuuuuuuuuuuuuwuuwuuuuuuwuuuwuuuwuuuwuuwuuuuuuuuwuuuuwuwuuwuuwuwuuuuwuwuuwuuwuwuuwuuuwuuwuwuuwuuuwuuuuuuuuuuuwuuwu",
"uuuuuuuuuuuuuuuuuwuuuwuuuuuuuuuuwuuwwuuuwuuuwuuuwuuuuuuuwuuwwuuuuuuuuuuuuuuuuuuuuuuuuuuuuuuuuuuuuuuuuuuuuuuuuuuuuuwuuuwuuuuuuuuu",
"wuuuuuuwuuuuuuwuuwuwuwuwuuwuuuuuuuwuuuuuuuuuuuuuuuuuuuwuuuwuuuuuuuuuuuuuuuuuuuuuuuuwuuuuuuuwuuuuwuuuuuuwuuuuwuuuwuuuwuuuwuuuuuuw",
"uwuwwuwuwuwuwuuwwuuuwuuuwuuwwwuwuwuuuwwuuwwuuwwuuwwuwuwuuwuuuwwuwwuwwuwuwwuwwuwuwuwuwuwuwuwuwuwuuwuwwuwuwuwuuwuwwuwuwuwuuwuwwuwu",
"uwuuuuwuwuuwwuuwuuwuwuuwwuuwuuwuuuwuuwwuuwuuuuwuuwwuuwuuuuwuuwwuuuuwuuuwuuuwuuuwuwuwuwuwuwuwuwuwuwuuuuwuwuwwuwuuuuwuwuwwuwuuuuwu",
"uuwwwuuwuuwuuuwuuwwuuuwuuuwuuwwuwuuwwuuuwuuwwuuwwuuuwuuwwuuwwuuuuwwuuwwuuwwuuwwuuuuwuuuwuuuwuuuwuuwwwuuwuuuuuuwwwuuwuuuuuuwwwuuw",
"wwwuuwwuwwwwwwwuuwwuwwwwwwwuuwwuuwwuuwwwwwwwuwwuuwwwwwwwuwwuuwwwwwuuwwuuwwuuwwuuwwwuwwwuwwwuwwwuwwwuuwwuuwwuwwwuuwwuuwwuwwwuuwwu",
"wuuwwuwwuwuuwuwuwwuwuwuuwuwuwwuwwuwwuwuwuuwuwuwwuwuwuuwuwuwwuwuwwuwwwuwwwuwwwuwwwuuwwuuwwuuwwuuwwuuwwuwwwwuwwuuwwuwwwwuwwuuwwuww",
"wuwwuwuuwuwuwwuwwuwwuwuwuuwuuwuuwwuwwuwwuwuwwuwwwuwwuwuwuuwuuwuuuwwuwuwwwuwwwuuwwuwwwuuwwuwwwuuwwuwuwwuwwuwwuwuwuuwuuwuuwuwuwwuw",
"uwwuwwwwwwuwwuuwwuuwwuwwwwwwwwwwuwwuuwwuuwwuuwwuwuuwwuwwwwwwwwwwwwuwwwuuwwuuuwwuwwuuuwwuwwuuuwwuuwwuuwwuwuuwwuwwwwwwwwwwwwuwwuuw",
"uwwuwuuwuwwwwwwwwwwwwwwuwuuwwuuwwwwwwwwwwuwwuwwuwwwwwwwuwuuwwuuwwuwwuwwwuwwwwwwwuwwwwwwwuwwwwwwwwwuwwwwwwwwwwwwuwuuwwuuwuwwwwwww",
"wwwwwwwwwwuwwwuwwuwwwuwwwwwwwwwwuwwuuwwuwwwwwwwwwuwwwuwwwwwwwwwwwwuwwwwuwwwuwwwwwwwuwwwwwwwuwwwwwwwwuwwuwuwwwuwwwwwwwwwwwwuwwwuw",
"wwwwwwwwwwwwuwwwwwwuwuwwwwwwwwwwwwwwwuwwwwwwwwwwwwwuwuwwwwwwwwwwwwuwwwwwwuwwwwwuwwwwwwwwwuwwwwwuuwwwwwwwwwwuwuwwwwwwwwwwwwwwuwww",
"wwwwwwwwwwwwwwwwwwwwwwwwwwwwwwwwwwwwwwwwwwwwwwwwwwwwwwwwwwwwwwwwwwwwwwwwwwwwwwwwwwwwwwwwwwwwwwwwwwwwwwwwwwwwwwwwwwwwwwwwwwwwwwww",
"wwwwwwwwwwwwwwwwwwwwwwwwwwwwwwwwwwwwwwwwwwwwwwwwwwwwwwwwwwwwwwwwwwwwwwwwwwwwwwwwwwwwwwwwwwwwwwwwwwwwwwwwwwwwwwwwwwwwwwwwwwwwwwww",
"w9ww9ww9wwww9wwww9ww9w9wwwwwwwwwww9w9ww9ww9ww9www9ww9w9wwwwwwwwwww9www9ww9www9ww9wwwww9ww9www9www9w9wwwww9ww9w9wwwwwwwww9www9ww9",
"9www9wwwwww9www9w9www99ww99ww99ww99ww99ww99www9ww9www99ww99ww99w9www99wwww99www9www9www9ww99www9ww9ww9wwww9ww9ww9www9wwwwww9www9",
"ww9www9ww9www9wwwww9wwwwwwwwwwwwwwwwwwwwwwww9w9wwww9wwwwwwwwwwww9w9wwww99wwww9www9www9ww9wwww9ww9w9wwww99w9wwww9ww9www9ww9www9ww",
"999999999999w99999w99w9999w999w999w999w99w99999w99w99w9999w999w999ww9w999w9w99999999w9999w999999999w99w9999w99w9999999999999w999",
"9ww99ww99ww999w9w999999ww999w999w999w999999www99w999999ww999w999w999999w9w999ww99ww999w99w999ww9ww99w999ww99w9999ww99ww99ww999w9",
"99999999999999999999999999999999999999999999999999w99999999999999999999999999999999999999999999999999999999999999999999999999999",
"99999999999999999999999999999999999999999999999999999999999999999999999999999999999999999999999999999999999999999999999999999999",
"99999999999999999999999999999999999999999999999999999999999999999999999999999999999999999999999999999999999999999999999999999999",
"99999999999999999999999999999999999999999999999999999999999999999999999999999999999999999999999999999999999999999999999999999999",
"99994994949949999499999999999949999499499999994999949949999999499994994994999999499499994994994994999999999999999949949949999999",
"99999999999999999949944999499499499999999949949949999999994994999999999999499449999999999999999999999499949999499999999999994994",
"49449449499449944499499494499499994994499449949999499449944994999449944944994994499449449449944949944994499449499449499449944994",
"94999949949994499949949949944994499449944994499449944994499449949949949999499499994994999949949949499494949494944994949994499949",
"99994949949949494949999499499999999994999949999999999499994999994949949449499994499994944949949499949949999499499999499494944949",
"44444944944449494949449449494444444449444949444444444944494944444494944949494494944449494494944944494494449449494444949449499494",
"49949494949494449444494944494949494944944449494949494494444949499949444494444949494494949949444449494949494944499499494494949444",
"44444494444494949494444494444444444499449444444444449944944444444444499494944444449944444444499444444944444494444444444944444449",
"44444494444444944494944944949449444494494494944944449449449494494944444444444444494494449449444494444444494494449449444494444444",
"94494444944944444444444444444444499444444444444449944444444444444449449444499449444444944444494444944994444444944444494444944994",
"44444444444444444444444444444444444444444444444444444444444444444444444444444444444444444444444444444444444444444444444444444444",
"44444444444444444444444444444444444444444444444444444444444444444444444444444444444444444444444444444444444444444444444444444444",
"41414444414144444414414144144141141441414414414114144141441441414441414441144414414441144414144444411144414441144414144444411144",
"44414114444141141444444114444441144444411444444114444441144444414144414144441414414144441414441411444441414144441414441411444441",
"14144444141444444444141444441414444414144444141444441414444414141414441414414444441414414444414444444441441414414444414444444441",
"14141111141411111111141411111414111114141111141411111414111114141411141411411111141411411111411111111141141411411111411111111141",
"14411114411114111114411141111441411114411114411114411114411114414411114411114411114411114411114411114411411141411141411141411141",
"11114411114411114411114111441111114411114411114111114411114411111114111114411114111114411114411114411114114141114141114141114141",
"11111111111111111111111111111111111111111111111111111111111111111111111111111111111111111111111111111111111111111111111111111111",
"11111111111111111111111111111111111111111111111111111111111111111111111111111111111111111111111111111111111111111111111111111111",
"111;;11;11;11;111;11111111;1111111;111111;111111111;;11;11;111111111;111111111;111;1;11;111;111;111111;11111111111;111;111;11;11",
"111111111111111111111;;11111;11;1111;11;11111;;1111111111111;11;1111111111;11111111111111111111111;11111;11;11;1;111;111;1111111",
"11111111111;111111;111111;;111;1111;11;111;1111111111111111;11;1;1;;;11;;111111;1;;11;11;111;111;111111;1111;1;111111111111111;1",
";;1;;1;1;1;1;1;1;1;11;1;11;1;111;1;11;11;1;11;1;;;1;;1;1;1;11;111;111;;1;1;1;1;11;11;1;11;1;1;1;;1;1;1;1;1;;1;1;1;;11;;11;;1;1;1",
"1111;1;11;111;1;1;1;111;1;111;1;1;1;1;1111;1;1111111;1;111;1;1;1;1;11;1;1;1;1;11;1111;1;1111;1;1111;1;1;1;1111;11;1;11111;1;111;",
";;;1;1;;1;;;;1;11;1;;;;11;;;;1;1;1;1;1;;;1;1;;;;;;;1;1;;;;1;1;1;;1;1;1;1;1;1;1;;1;;;1;1;;;;;1;1;;;;1;1;1;1;;;1;1;1;1;;;;1;1;;;;1",
"11;;;11;1;;1;1;;;;1;1;;11;;1;1;;;1;;;11;;;;;1;;111;;;11;;11;;;111;;;1;1;;1;;;11;;11;;;1;;1;1;;;11;;11;;1;11;;;;;1;1;;11;;;1;1;;1",
";;1;1;;1;1;;1;;11;;1;;1;;1;;1;;11;;1;;1;1;11;11;;;1;1;;11;;1;1;;;11;1;;;1;;1;;1;;1;;1;;1;;;1;11;;;1;;;1;;;1;1;111;;;1;;11;;1;;1;",
";1;;;;1;;;;;;1;;;;1;;;;;;;;;;1;;1;;11;;1;;1;;;;;;1;;;;1;;1;;;;1;;;;;1;;11;;11;;11;;11;;11;;1;;;;;1;1;;;;1;1;;;;;;1;;;1;;;;1;;;;;",
";;;1;;;;1;;1;;;11;;;1;;11;;1;;;1;;;;;;;;;;;;;;1;;;;1;;;;;;;;1;;;;11;;;;;;;;;;;;;;;;;;;;;;;;;;11;;;;;;;1;;;;;1;;1;;;;;;;;1;;;1;;1",
";;;;;;;1;;;1;;;;;;;;1;;;;;;1;;;;;;;;;1;;;1;;1;1;;;;;;;;11;;;;;;;;;;;;;1;;;;;;1;;;;1;;;;;;1;;;;;;;;1;1;;;;1;;;;;;;;1;1;;;;;;;1;;;",
";;;;;;;;;;;;;;;;;;;;;;;;;;;;;;;;;;;;;;;;;;;;;;;;;;;;;;;;;;;;;;;;;;;;;;;;;;;;;;;;;;;;;;;;;;;;;;;;;;;;;;;;;;;;;;;;;;;;;;;;;;;;;;;;",
";;;;;;;;;;;;;;;;;;;;;;;;;;;;;;;;;;;;;;;;;;;;;;;;;;;;;;;;;;;;;;;;;;;;;;;;;;;;;;;;;;;;;;;;;;;;;;;;;;;;;;;;;;;;;;;;;;;;;;;;;;;;;;;;",
";;;;;*;*;;*;;;;*;;*;*;;*;*;;;*;*;;*;;;*;*;;*;*;;;*;*;;*;;;;**;;;;;;*;*;;;*;*;;*;;;*;;;;**;;;;*;;*;;**;;*;*;;;*;;;;*;;;*;*;;*;*;;",
"*;*;;;*;**;;;;;*;*;*;;;;*;*;;;*;;*;;;*;*;;;;*;*;;;*;**;;;;;**;;;;;;;*;*;;;*;**;;**;;;;;**;;;;;**;;;;;;;;;*;*;*;*;*;;;*;*;;;;*;*;",
";;*;*;;;;;;***;;;*;;;**;;;*;*;;;;;;*;*;;;**;;;*;*;;;;;;***;;;;*;;**;;;*;*;;;;;;*;;;***;;;;*;*;;;;**;;**;;;;*;;;;;;;*;*;;;**;;;*;",
"****;*;**;;***;***;;;*******;*;***;**;*;;******;*;***;***;*;****;******;*;***;***;;***;*;**********;**;;*;********;**;*;;******;",
"*;;*;*******;*;*;*****;**;;*;***;******;**;;*;***;*;*******;*;;***;;*;***;*;********;*;***;*;;***;**;******;**;*;******;**;;*;**",
"********************************************************************************************************************************",
"********************************************************************************************************************************",
"********************************************************************************************************************************",
"********************************************************************************************************************************",
"**#***#******#*##*#*****#***#***#***#*****#***#*****#*#***#***#***********#******#*****#*#*#***#*****#*#****#*#*#***#*****#***#*",
"*#***#****#**********#*#***#***#***#***#*****#***#*#*****#***#***#***#***#***#*#****#*******#*****#******#*********#***#*****#**",
"#**#*##**#*##*#*****#***#*******#***********#****#*****#**#***#*##*#*#*##***#****#***#**#*#*#*#***#******#*##*#*#***********#***",
"*##**#*##*#**#*##*##**##*####*#**####*#*#*##*###*##*##**#**#*#*##*#*#*#**#*#*#*##*#*#*#**#*#*#*###**##*##*#**#*#*####*#*#*##*###",
"*#*#***#*#*##*#**##*#*#*#**#*#**#**#*#**#*#*#**#***#*#*#**#*#*#***##**####**##****#***#*#***#****#*##*#**#**#*#*#**#*#**#*#*#**#",
"#*#####*###*#####*####*###*#######*#######*###*####*########*######*###*#*###*#####################*##########*###*#######*###*#",
"##*#####*#####*#####*#####*######*#*###*#*###*#*###*#*###*#*###*################################*###*#*###*#*###*#*###*#*###*#*#",
"#*###*#*###*#*###*#*###*#*###*#*####*#####*#####*#####*#####*####*#*#*###*#*#*###*#*#*###*#*#*#####*###########*###########*####",
"################################################################################################################################",
"################################################################################################################################",
"################################################################################################################################",
"o#####o####oo#####o###o#o#####o###o##o#####o###o#o#####o##o##o######o#######o#######o#######o#####o#####o#####o#####o#####o#####",
"###o#####o#####o###########o####o#o###o#o#o#o#o###o#o###o#o###o##o#o###o#o#o###o#o#o###o#o#o###o#o###o#o###o#o###o#o#o#o#o###o#o",
"o###o#o###o#o###o#o#o#o#o###o#o######o###########o#####o#####o######o#######o#######o#######o#####o#####o#####o###########o#####",
"#o#o#o#o#o#o#o#o#o#o#o#o#o#o#o#oo#o#o#o#o#o#o#ooo#o#o#o#o#o#o#o#o#o#o#o#o#o#o#o#o#o#o#o#o#o#o#o#o#o#o#o#o#o#o#o#o#o#o#o#o#o#o#o#",
"o#o#o#o#o#o#o#o#o#o#o#o#o#o#o#o##o#o#o#o#o#o#o###o#o#o#o#o#o#o#o#o#o#o#o#o#o#o#o#o#o#o#o#o#o#o#o#o#o#o#o#o#o#o#o#o#o#o#o#o#o#o#o",
"#o#o#o#o#o#o#o#o#o#o#o#o#o#o#o#oo#o#o#o#o#o#o##oo#o#o#o#o#o#o#o#o#o#o#o#o#o#o#o#o#o#o#o#o#o#o#o#o#o#o#o#o#o#o#o#o#o#o#o#o#o#o#o#",
"o#o#o#o#o#o#o#o#o#o#o#o#o#o#o#o##o#o#o#o#o#o#oo##o#o#o#o#o#o#o#o#o#o#o#o#o###o#o#o#o#o#o#o###o#o#o#o#o###o#o#o###o#o#o###o#o#o#o",
"oo#ooo#ooo#ooo#ooooo#ooo#o#oooooo#o#ooooo#ooo#ooooo#ooo#ooo#ooo#oooooo#ooo#ooooooooooo#ooo#ooooooooo#ooooooo#ooooo#ooo#ooooooo#o",
"o#ooo#ooo#ooo#ooo#o#ooo#ooooo#o#oooo#o#ooo#o#oo##ooo#ooo#ooo#oooo#o#ooooo#ooo#o#o#o#ooooo#ooo#o#ooo#ooo#ooo#ooo#ooooo#ooo#o#oooo",
"oooooooooooooooo#ooo#o#ooo#o#oooo#ooooo#ooooooooo#o#o#o#o#o#o#o##ooooo#ooooo#ooo#ooooo#ooooo#ooo#o#o#o#o#o#o#o#ooo#ooooo#ooooo#o",
"o#o#o#o#o#o#o#o#ooo#ooooo#ooooo#oo#o#ooo#o#o#oooooooooooooooooooooo#o#ooo#o#ooo#ooo#o#ooo#o#ooooooooooooooooooooo#ooo#o#ooo#o#oo",
"oooooooooooooooooooooooooooooooooooooooooooooooooooooooooooooooooooooooooooooooooooooooooooooooooooooooooooooooooooooooooooooooo",
"oooooooooooooooooooooooooooooooooooooooooooooooooooooooooooooooooooooooooooooooooooooooooooooooooooooooooooooooooooooooooooooooo",
"oooooooooooooooooooooooooooooooooooooooooooooooooooooooooooooooooooooooooooooooooooooooooooooooooooooooooooooooooooooooooooooooo",
"oo ooooooooooooooooooo oooooooo oooo ooooo ooo oooooooooooooooooooooooooo ooo oo oooooooooooooooooooooooooooo oooooooooo oo oooo",
"oo oo oo  oo oooooo oo oo  ooo ooo   oooo o oooo  oo ooo  oooo  oo oo oo oooo ooo ooo  o oo oo o  oooo    ooo oooo oo ooooo ooo ",
" oo o o ooo oo o oo o oooooo o o ooooo  ooo o  oooo oo oooo  ooooooooo ooo  o  oo o oooo oo o ooooo  oooooo o o oooooo o  ooo oo",
"ooo ooooooo o o oooooo   oo  oooooooo oo ooooo oooo o o  oo  oo oo    ooo oooooooooo oo oooooo   oo  oooooo oo ooo    oooooo o o",
"  oo  o   ooo oo   o ooo o oo o   o  oo  o o oo   ooo oooo oo oo oooooo o o   o  o   oo o  o ooo o oo o   oo ooo oooooo     oo o",
" o  oo  o   o  o   o oo   o   o   oo  o o      o o  oo  o   o  o oo o    o  oo  o   o  o   o oo o  o   o  oo  o  oo o    o  oo  ",
"  o    o  o o  ooo       o  o o o    o    oooo    o    o  o o  o      oo  o    o  o o  ooo      o  o o  o    o        oo  o    o",
"oo     o o o      o o  o  oo o  o     oo o    o oo     o o o    o  o o  oo     o o o      o o  o    o o o     ooo  o o  oo     o",
"   ooo   o   oo  o  o  oo      o  ooo     o  o     ooo   o   oo o  o  o    ooo   o   oo  o  o  o oo   o   ooo   o  o  o    ooo  ",
"                                                                  o   o           o o  o o   o                      o     o   o ",
"                                                                                                                                ",
"                                                                                                                                ",
"                                                                                                                                "
};
